<svg id="Layer_1" data-name="Layer 1" xmlns="http://www.w3.org/2000/svg" width="100" height="100" viewBox="0 0 100 100">
  <title>ManagementTools</title>
  <g>
    <polygon points="14 64 30 84 46 64 14 64" fill="#4b612c"/>
    <rect x="14" y="60" width="32" height="4" fill="#4b612c"/>
    <polygon points="54 64 70 84 86 64 54 64" fill="#4b612c"/>
    <polygon points="74 50 54 30 56 20 44 20 46 30 26 50 26 64 34 64 34 54 50 38 50 38 66 54 66 64 74 64 74 50" fill="#4b612c"/>
    <rect x="54" y="60" width="32" height="4" fill="#4b612c"/>
    <polygon points="14 60 30 80 46 60 14 60" fill="#759c3e"/>
    <polygon points="54 60 70 80 86 60 54 60" fill="#759c3e"/>
    <polygon points="75 46 56 27 56 16 44 16 44 27 25 46 25 60 35 60 35 50 50 34 50 34 65 50 65 60 75 60 75 46" fill="#759c3e"/>
  </g>
</svg>
