<svg id="Layer_1" data-name="Layer 1" xmlns="http://www.w3.org/2000/svg" width="100" height="100" viewBox="0 0 100 100">
  <title>ManagementTools</title>
  <g>
    <g style="isolation: isolate">
      <rect x="25.58" y="32.42" width="48.83" height="46.07" fill="#4b612c"/>
    </g>
    <path d="M25.59,21.62V76H74.42V21.62Z" fill="#759c3e"/>
    <rect x="47.26" y="31.31" width="21.59" height="4" fill="#fff"/>
    <rect x="47.26" y="46.79" width="21.59" height="4" fill="#fff"/>
    <rect x="47.26" y="62.27" width="21.59" height="4" fill="#fff"/>
    <rect x="32.44" y="29.65" width="3.65" height="7.34" transform="translate(-13.52 33.99) rotate(-45)" fill="#fff"/>
    <rect x="32.59" y="30" width="11.76" height="3.58" transform="translate(-11.21 36.51) rotate(-45)" fill="#fff"/>
    <rect x="32.59" y="45.25" width="11.76" height="3.58" transform="translate(-21.99 40.98) rotate(-45)" fill="#fff"/>
    <rect x="32.59" y="60.5" width="11.76" height="3.58" transform="translate(-32.77 45.44) rotate(-45)" fill="#fff"/>
    <rect x="32.44" y="44.9" width="3.65" height="7.34" transform="translate(-24.31 38.46) rotate(-45)" fill="#fff"/>
    <rect x="32.44" y="60.15" width="3.65" height="7.34" transform="translate(-35.09 42.92) rotate(-45)" fill="#fff"/>
  </g>
</svg>
