<svg id="Layer_1" data-name="Layer 1" xmlns="http://www.w3.org/2000/svg" width="100" height="100" viewBox="0 0 100 100">
  <title>ManagementTools</title>
  <g>
    <rect x="14" y="28" width="18" height="4" fill="#4b612c"/>
    <rect x="41" y="28" width="18" height="4" fill="#4b612c"/>
    <rect x="14" y="14" width="18" height="15.52" fill="#759c3e"/>
    <rect x="68" y="28" width="18" height="4" fill="#4b612c"/>
    <rect x="14" y="55" width="18" height="4" fill="#4b612c"/>
    <rect x="41" y="55" width="18" height="4" fill="#4b612c"/>
    <rect x="68" y="55" width="18" height="4" fill="#4b612c"/>
    <rect x="14" y="82" width="18" height="4" fill="#4b612c"/>
    <rect x="41" y="82" width="18" height="4" fill="#4b612c"/>
    <rect x="68" y="82" width="18" height="4" fill="#4b612c"/>
    <rect x="41" y="14" width="18" height="15.52" fill="#759c3e"/>
    <rect x="68" y="14" width="18" height="15.52" fill="#759c3e"/>
    <rect x="14" y="41" width="18" height="15.52" fill="#759c3e"/>
    <rect x="41" y="41" width="18" height="15.52" fill="#759c3e"/>
    <rect x="68" y="41" width="18" height="15.52" fill="#759c3e"/>
    <rect x="14" y="68" width="18" height="15.52" fill="#759c3e"/>
    <rect x="41" y="68" width="18" height="15.52" fill="#759c3e"/>
    <rect x="68" y="68" width="18" height="15.52" fill="#759c3e"/>
  </g>
</svg>
