<svg id="Layer_1" data-name="Layer 1" xmlns="http://www.w3.org/2000/svg" width="100" height="100" viewBox="0 0 100 100">
  <title>Migration</title>
  <g>
    <g>
      <path d="M49.37,64.78c-9,0-16.84-1.71-19.63-4.32A1,1,0,1,1,31.1,59c2.1,2,9.37,3.87,19.08,3.77s16.3-2.08,18.53-4A1,1,0,1,1,70,60.31c-3.05,2.61-10.83,4.36-19.8,4.46Z" fill="#2e73b8"/>
      <path d="M49.37,71.78c-9,0-16.85-1.71-19.64-4.32A1,1,0,1,1,31.1,66c2.1,2,9.33,3.88,19.08,3.77,10-.12,16.73-2.24,18.72-4.16a1,1,0,1,1,1.39,1.44c-2.86,2.76-10.74,4.61-20.08,4.72Z" fill="#5294cf"/>
      <path d="M49.35,78.67c-8.61,0-16.08-1.53-19.2-4a1,1,0,1,1,1.23-1.58c2.79,2.17,10.52,3.62,18.79,3.53,10-.12,16.73-2.24,18.72-4.16a1,1,0,0,1,1.39,1.44c-2.86,2.76-10.74,4.61-20.08,4.72Z" fill="#99bce3"/>
    </g>
    <path d="M70.5,17c0-3.33-9.25-5.92-20.57-5.79S29.46,14.12,29.5,17.45c0,0,0,0,0,0s0,0,0,0V53.37c0,3.33,9.64,5.92,21,5.79s20.08-2.93,20-6.26V17Z" fill="#19486f"/>
    <path d="M50.06,47.51C39,47.64,30,45.18,29.5,42v9.14c0,3.33,9.36,5.92,20.69,5.79S70.54,54,70.5,50.64V41.25C70.54,44.57,61.39,47.38,50.06,47.51Z" fill="#2e73b8"/>
    <path d="M50.06,36.28C39,36.41,30,34,29.5,30.74v9.14c0,3.33,9.36,5.92,20.69,5.79s20.35-2.94,20.31-6.26V30C70.54,33.35,61.39,36.15,50.06,36.28Z" fill="#2e73b8"/>
    <path d="M50.06,25.06C39,25.19,30,22.73,29.5,19.52v9.14c0,3.33,9.36,5.92,20.69,5.79s20.35-2.94,20.31-6.26V18.8C70.54,22.12,61.39,24.93,50.06,25.06Z" fill="#2e73b8"/>
    <path d="M50.07,23.23C61.39,23.1,70.54,20.3,70.5,17h0c0-3.33-9.25-5.92-20.57-5.79S29.46,14.12,29.5,17.45h0C29.54,20.78,38.75,23.36,50.07,23.23Z" fill="#2e73b8"/>
    <path d="M30.41,79.9a1,1,0,0,1-1-1V49.61a1,1,0,0,1,2,0V78.9A1,1,0,0,1,30.41,79.9Z" fill="#2e73b8"/>
    <path d="M40.21,74.26a1,1,0,0,1-1-1V51.49a1,1,0,1,1,2,0V73.26A1,1,0,0,1,40.21,74.26Z" fill="#2e73b8"/>
    <path d="M50,88.82a1,1,0,0,1-1-1V67.88a1,1,0,0,1,2,0V87.82A1,1,0,0,1,50,88.82Z" fill="#2e73b8"/>
    <path d="M59.79,78.19a1,1,0,0,1-1-1V51.49a1,1,0,1,1,2,0V77.19A1,1,0,0,1,59.79,78.19Z" fill="#2e73b8"/>
    <path d="M69.59,66.82a1,1,0,0,1-1-1V49.15a1,1,0,1,1,2,0V65.82A1,1,0,0,1,69.59,66.82Z" fill="#2e73b8"/>
    <path d="M69.59,83.17a1,1,0,0,1-1-1V72.78a1,1,0,0,1,2,0v9.39A1,1,0,0,1,69.59,83.17Z" fill="#2e73b8"/>
  </g>
</svg>
