<svg id="Layer_1" data-name="Layer 1" xmlns="http://www.w3.org/2000/svg" width="100" height="100" viewBox="0 0 100 100">
  <title>GameDevelopment_GRAYSCALE</title>
  <g>
    <polygon points="56 36 68.14 34.06 68.14 18.04 56 21.93 56 36" fill="#4e4e4e"/>
    <polygon points="83.93 57.32 49.94 62.49 49.94 37.66 83.93 42.78 83.93 57.32" fill="#989898"/>
    <polygon points="62.35 32.75 49.94 29.66 49.94 9 62.35 15.2 62.35 32.75" fill="#989898"/>
    <polygon points="62.46 67.25 50.06 70.33 50.06 91 62.46 84.8 62.46 67.25" fill="#989898"/>
    <polygon points="75.77 35.96 68.03 34.02 68.03 18.04 75.77 21.91 75.77 35.96" fill="#989898"/>
    <polygon points="75.89 35.96 64.11 37.49 56 36 68.25 34.04 75.89 35.96" fill="#373737"/>
    <polygon points="44 36 31.86 34.06 31.86 18.04 44 21.93 44 36" fill="#989898"/>
    <polygon points="16.07 57.32 50.06 62.49 50.06 37.66 16.07 42.78 16.07 57.32" fill="#4e4e4e"/>
    <polygon points="37.65 32.75 50.06 29.66 50.06 9 37.65 15.2 37.65 32.75" fill="#4e4e4e"/>
    <polygon points="37.65 67.25 50.06 70.33 50.06 91 37.65 84.8 37.65 67.25" fill="#4e4e4e"/>
    <polygon points="24.23 35.96 31.97 34.02 31.97 18.04 24.23 21.91 24.23 35.96" fill="#4e4e4e"/>
    <polygon points="24.23 35.96 36 37.49 44.11 36 31.86 34.04 24.23 35.96" fill="#373737"/>
    <polygon points="62.46 32.75 50.06 35.01 37.65 32.75 50.06 29.66 62.46 32.75" fill="#373737"/>
    <polygon points="62.46 67.25 50.06 64.99 37.65 67.25 50.06 70.32 62.46 67.25" fill="#d3d3d3"/>
  </g>
</svg>
