<svg id="Layer_1" data-name="Layer 1" xmlns="http://www.w3.org/2000/svg" width="100" height="100" viewBox="0 0 100 100">
  <title>InternetOfThings</title>
  <g>
    <path d="M43.78,43.23H23.5v26.6a9.12,9.12,0,0,0,9.12,9.12H67.38a9.12,9.12,0,0,0,9.12-9.12V35.07a9.12,9.12,0,0,0-9.12-9.12H47V40A3.22,3.22,0,0,1,43.78,43.23Z" fill="#19486f"/>
    <path d="M75.91,29.43c-.05-.14-.1-.28-.16-.41A9.11,9.11,0,0,0,71,24.25l-.41-.16a9.08,9.08,0,0,0-3.2-.59H32.62a9.12,9.12,0,0,0-9.12,9.12h0V67.38a9.12,9.12,0,0,0,9.12,9.12H67.38a9.12,9.12,0,0,0,9.12-9.12V32.62h0A9.08,9.08,0,0,0,75.91,29.43Z" fill="#2e73b8"/>
    <path d="M50,31.25a18.75,18.75,0,0,0-2.52,37.33l.13-.06V64.62a2.55,2.55,0,0,0-1.76-2.43A12.87,12.87,0,1,1,62.7,47.91c1.45,8.64-6.39,16.74-15.09,20.61v.07A18.75,18.75,0,1,0,50,31.25Z" fill="#00b3ff"/>
  </g>
</svg>
