<svg id="Layer_1" data-name="Layer 1" xmlns="http://www.w3.org/2000/svg" width="100" height="100" viewBox="0 0 100 100">
  <title>InternetOfThings</title>
  <g>
    <rect x="23.5" y="25.99" width="53" height="53" rx="9.12" ry="9.12" fill="#19486f"/>
    <rect x="23.5" y="23.51" width="53" height="53" rx="9.12" ry="9.12" fill="#2e73b8"/>
    <rect x="60" y="14.4" width="4" height="13.65" fill="#2e73b8"/>
    <rect x="36" y="14.4" width="4" height="13.65" fill="#2e73b8"/>
    <rect x="54" y="14.4" width="4" height="13.65" fill="#2e73b8"/>
    <rect x="42" y="14.4" width="4" height="13.65" fill="#2e73b8"/>
    <rect x="48" y="14.4" width="4" height="13.65" fill="#2e73b8"/>
    <rect x="14.4" y="60" width="18.1" height="4" fill="#2e73b8"/>
    <rect x="14.4" y="42" width="18.1" height="4" fill="#2e73b8"/>
    <rect x="14.4" y="54" width="18.1" height="4" fill="#2e73b8"/>
    <rect x="14.4" y="48" width="18.1" height="4" fill="#2e73b8"/>
    <rect x="14.4" y="36" width="18.1" height="4" fill="#2e73b8"/>
    <rect x="36" y="69.88" width="4" height="15.72" fill="#2e73b8"/>
    <rect x="60" y="69.88" width="4" height="15.72" fill="#2e73b8"/>
    <rect x="42" y="69.88" width="4" height="15.72" fill="#2e73b8"/>
    <rect x="54" y="69.88" width="4" height="15.72" fill="#2e73b8"/>
    <rect x="48" y="69.88" width="4" height="15.72" fill="#2e73b8"/>
    <rect x="69.67" y="54" width="15.94" height="4" fill="#2e73b8"/>
    <rect x="69.67" y="36" width="15.94" height="4" fill="#2e73b8"/>
    <rect x="69.67" y="48" width="15.94" height="4" fill="#2e73b8"/>
    <rect x="69.67" y="42" width="15.94" height="4" fill="#2e73b8"/>
    <rect x="69.67" y="60" width="15.94" height="4" fill="#2e73b8"/>
    <path d="M64.6,54.37c0-.26,0-.51-.08-.77s-.06-.32-.08-.48-.08-.48-.12-.72-.08-.35-.12-.52-.1-.47-.16-.7-.1-.36-.16-.53-.13-.46-.2-.69-.13-.36-.19-.54-.15-.45-.24-.68-.15-.37-.22-.55-.18-.44-.27-.66-.17-.37-.26-.55-.18-.39-.27-.58a4.62,4.62,0,0,1,0-4.18l2.51-4.92-1.37-1.37,0,0a10.58,10.58,0,0,1-4,1.4c-4,.44-8.24-1.27-9.31-2.89h0c-1.07,1.63-5.3,3.33-9.31,2.89a10.58,10.58,0,0,1-4-1.4l0,0-1.37,1.37,2.51,4.92a4.62,4.62,0,0,1,0,4.18c-.1.19-.18.39-.27.58s-.18.37-.26.55-.18.44-.27.66-.15.36-.22.55-.16.45-.24.68-.13.36-.19.54-.14.46-.2.69S36,51,36,51.17s-.11.47-.16.7-.09.35-.12.52-.08.48-.12.72-.06.32-.08.48-.06.51-.08.77,0,.28,0,.42q0,.59,0,1.16c0,7.07,5,9.54,11.64,10.06,1,.08,3,1.26,3,2.24,0-1,2.06-2.16,3-2.24,6.65-.52,11.64-3,11.64-10.06q0-.57,0-1.16C64.63,54.65,64.61,54.51,64.6,54.37Z" fill="#fff"/>
  </g>
</svg>
