<svg id="Layer_1" data-name="Layer 1" xmlns="http://www.w3.org/2000/svg" width="100" height="100" viewBox="0 0 100 100">
  <title>InternetOfThings</title>
  <g>
    <path d="M60.76,23.73,57.43,26l-1.66-3.68a15.81,15.81,0,0,0-14.39-9.27A15.78,15.78,0,0,0,25.6,28.86l.07,2.92-2.48.72c-4,1.16-7.28,6.32-7.28,9.81v1.26c0,4.25,5.15,9.19,11.78,9.19H72.31c6.63,0,11.78-4.94,11.78-9.19V42.31c0-4.28-4.77-9.9-10.34-10.38l-3-.25-.1-3a6.32,6.32,0,0,0-9.9-5Z" fill="#19486f"/>
    <path d="M60.76,20.77l-3.34,2.29-1.66-3.68A15.81,15.81,0,0,0,41.38,10.1,15.78,15.78,0,0,0,25.6,25.9l.07,2.92-2.48.72c-4,1.16-7.28,6.32-7.28,9.81v1.26c0,4.25,5.15,9.19,11.78,9.19H72.31c6.63,0,11.78-4.94,11.78-9.19V39.36c0-4.28-4.77-9.9-10.34-10.38l-3-.25-.1-3a6.32,6.32,0,0,0-9.9-5Z" fill="#2e73b8"/>
    <rect x="20.07" y="67.73" width="58" height="22.17" fill="#19486f"/>
    <rect x="20.07" y="64.73" width="58" height="22.17" fill="#2e73b8"/>
    <rect x="47.57" y="49.8" width="3" height="26.01" fill="#2e73b8"/>
    <rect x="47.57" y="39.73" width="3" height="10.08" fill="#fff"/>
    <polygon points="49.07 34.06 44.57 40.64 53.57 40.64 49.07 34.06" fill="#fff"/>
    <rect x="27.07" y="70.73" width="9.67" height="9.67" rx="4.83" ry="4.83" fill="#fff"/>
    <polygon points="55.24 80.39 42.74 80.39 48.99 70.73 55.24 80.39" fill="#fff"/>
    <rect x="61.24" y="70.73" width="9.67" height="9.67" fill="#fff"/>
  </g>
</svg>
