<svg id="Layer_1" data-name="Layer 1" xmlns="http://www.w3.org/2000/svg" width="100" height="100" viewBox="0 0 100 100">
  <title>InternetOfThings</title>
  <g>
    <rect x="23.5" y="25.99" width="53" height="53" rx="9.12" ry="9.12" fill="#19486f"/>
    <rect x="23.5" y="23.51" width="53" height="53" rx="9.12" ry="9.12" fill="#2e73b8"/>
    <rect x="60" y="14.4" width="4" height="13.65" fill="#2e73b8"/>
    <rect x="36" y="14.4" width="4" height="13.65" fill="#2e73b8"/>
    <rect x="54" y="14.4" width="4" height="13.65" fill="#2e73b8"/>
    <rect x="42" y="14.4" width="4" height="13.65" fill="#2e73b8"/>
    <rect x="48" y="14.4" width="4" height="13.65" fill="#2e73b8"/>
    <rect x="14.4" y="60" width="18.1" height="4" fill="#2e73b8"/>
    <rect x="14.4" y="42" width="18.1" height="4" fill="#2e73b8"/>
    <rect x="14.4" y="54" width="18.1" height="4" fill="#2e73b8"/>
    <rect x="14.4" y="48" width="18.1" height="4" fill="#2e73b8"/>
    <rect x="14.4" y="36" width="18.1" height="4" fill="#2e73b8"/>
    <rect x="36" y="69.88" width="4" height="15.72" fill="#2e73b8"/>
    <rect x="60" y="69.88" width="4" height="15.72" fill="#2e73b8"/>
    <rect x="42" y="69.88" width="4" height="15.72" fill="#2e73b8"/>
    <rect x="54" y="69.88" width="4" height="15.72" fill="#2e73b8"/>
    <rect x="48" y="69.88" width="4" height="15.72" fill="#2e73b8"/>
    <rect x="69.67" y="54" width="15.94" height="4" fill="#2e73b8"/>
    <rect x="69.67" y="36" width="15.94" height="4" fill="#2e73b8"/>
    <rect x="69.67" y="48" width="15.94" height="4" fill="#2e73b8"/>
    <rect x="69.67" y="42" width="15.94" height="4" fill="#2e73b8"/>
    <rect x="69.67" y="60" width="15.94" height="4" fill="#2e73b8"/>
    <path d="M45.67,62h8.67a0,0,0,0,1,0,0v5.33A3.33,3.33,0,0,1,51,70.65H49a3.33,3.33,0,0,1-3.33-3.33V62A0,0,0,0,1,45.67,62Z" fill="#fff"/>
    <path d="M54.33,61.65H45.67a1.5,1.5,0,0,1,0-3h8.67a1.5,1.5,0,0,1,0,3Z" fill="#fff"/>
    <path d="M44.93,53.48a1.5,1.5,0,0,1-.77-2.79l14-8.34a1.5,1.5,0,1,1,1.54,2.58l-14,8.34A1.5,1.5,0,0,1,44.93,53.48Z" fill="#fff"/>
    <path d="M41.13,43.37a1.5,1.5,0,0,1-.77-2.79l14-8.34a1.5,1.5,0,1,1,1.54,2.58l-14,8.34A1.5,1.5,0,0,1,41.13,43.37Z" fill="#fff"/>
    <path d="M41.13,49.56a1.5,1.5,0,0,1-.77-2.79L58.15,36.16a1.5,1.5,0,1,1,1.54,2.58L41.89,49.35A1.5,1.5,0,0,1,41.13,49.56Z" fill="#fff"/>
    <path d="M50,61.65a1.5,1.5,0,0,1-1.5-1.5v-5a1.5,1.5,0,0,1,.73-1.29l8.92-5.32a1.5,1.5,0,1,1,1.54,2.58L51.5,56v4.15A1.5,1.5,0,0,1,50,61.65Z" fill="#fff"/>
    <path d="M41.13,37.18a1.5,1.5,0,0,1-.77-2.79L47.76,30a1.5,1.5,0,0,1,1.54,2.58L41.89,37A1.5,1.5,0,0,1,41.13,37.18Z" fill="#fff"/>
  </g>
</svg>
