<svg id="Layer_1" data-name="Layer 1" xmlns="http://www.w3.org/2000/svg" width="100" height="100" viewBox="0 0 100 100">
  <title>InternetOfThings</title>
  <g>
    <polygon points="68.08 62.83 62.6 62.13 62.6 37.92 68.08 37.22 83.45 50.64 68.08 62.83" fill="#205b99"/>
    <polygon points="31.92 62.83 37.43 62.13 37.43 37.92 31.92 37.22 17.04 50.02 31.92 62.83" fill="#5294cf"/>
    <polygon points="59.42 59.21 49.97 60.41 40.96 49.64 49.97 39.59 59.42 40.79 59.42 59.21" fill="#5294cf"/>
    <polygon points="83.97 59.64 68.08 62.83 68.08 37.22 83.97 40.39 83.97 59.64" fill="#5294cf"/>
    <polygon points="40.65 59.22 50 60.41 50 39.59 40.65 40.78 40.65 59.22" fill="#205b99"/>
    <polygon points="55.7 34.74 37.43 37.92 31.92 37.22 50 9 55.7 34.74" fill="#19486f"/>
    <polygon points="68.08 37.22 62.6 37.92 44.33 34.73 50 9 68.08 37.22" fill="#19486f"/>
    <polygon points="68.08 62.83 62.6 62.13 44.33 65.33 50 91 68.08 62.83" fill="#99bce3"/>
    <polygon points="55.7 65.32 37.43 62.13 31.92 62.83 50 91 55.7 65.32" fill="#99bce3"/>
    <polygon points="68.08 37.22 50 33.6 33.49 25.09 50 9 68.08 18.04 68.08 37.22" fill="#5294cf"/>
    <polygon points="68.08 81.96 50 91 33.98 75.34 50 66.46 68.08 62.83 68.08 81.96" fill="#5294cf"/>
    <polygon points="31.92 37.22 50 33.6 50 9 31.92 18.04 31.92 37.22" fill="#205b99"/>
    <polygon points="16.03 59.64 31.92 62.83 31.92 37.22 16.03 40.39 16.03 59.64" fill="#205b99"/>
    <polygon points="31.92 81.96 50 91 50 66.46 31.92 62.83 31.92 81.96" fill="#205b99"/>
  </g>
</svg>
