<svg id="Layer_1" data-name="Layer 1" xmlns="http://www.w3.org/2000/svg" width="100" height="100" viewBox="0 0 100 100">
  <title>InternetOfThings</title>
  <g>
    <path d="M83.25,29.36H16.75v39.9H44.83l-.25.74A3.8,3.8,0,0,1,41,72.59H28.74v2.85H71.26V72.59H59A3.8,3.8,0,0,1,55.42,70l-.25-.74H83.25ZM79.18,65.2H20.82V33.43H79.18Z" fill="#19486f"/>
    <rect x="19.33" y="29.36" width="61" height="35.83" fill="#99bce3"/>
    <path d="M83.25,27H16.75v39.9H44.83l-.25.74A3.8,3.8,0,0,1,41,70.19H28.74V73H71.26V70.19H59a3.8,3.8,0,0,1-3.6-2.58l-.25-.74H83.25ZM79.18,62.8H20.82V31H79.18Z" fill="#2e73b8"/>
    <g>
      <path d="M66,46.47a.77.77,0,0,0-1-.29c-.37.15-.78.34-1.26.5a34.21,34.21,0,0,1-8.17,1.86,45,45,0,0,1-5.54.24,41,41,0,0,1-6.14-.53,40.11,40.11,0,0,1-6.42-1.51c-1.07-.36-2.13-.75-3.17-1.2-.52-.23-1-.45-1.55-.72l-.82-.41a1.12,1.12,0,0,0-1.12.08,1,1,0,0,0-.34,1.23,1.42,1.42,0,0,0,.49.57l.35.28c.24.18.46.38.71.55.48.35,1,.7,1.47,1a26.94,26.94,0,0,0,3.08,1.75A27.89,27.89,0,0,0,43,52.14a27.36,27.36,0,0,0,12-.06,31.35,31.35,0,0,0,7.94-3,21.72,21.72,0,0,0,2-1.26l.68-.5a.92.92,0,0,0,.17-.16A.62.62,0,0,0,66,46.47Z" fill="#2e73b8"/>
      <path d="M69.4,43.65a1.32,1.32,0,0,0-.74-.41,4.71,4.71,0,0,0-.64-.12,8,8,0,0,0-1.25-.06,9.6,9.6,0,0,0-2.39.35,6.26,6.26,0,0,0-2,1,.87.87,0,0,0-.41.5.38.38,0,0,0,.16.41.53.53,0,0,0,.35.06l.94-.17a12.16,12.16,0,0,1,2.91-.25,2.27,2.27,0,0,1,.78.17.74.74,0,0,1,.23.16.73.73,0,0,1,.1.25,2.07,2.07,0,0,1,0,.8,13.1,13.1,0,0,1-1,2.74l-.39.87a.72.72,0,0,0,0,.49.6.6,0,0,0,.55.4,1,1,0,0,0,.73-.34,6.3,6.3,0,0,0,1.42-1.86,9.22,9.22,0,0,0,.79-2.32A8.06,8.06,0,0,0,69.63,45,2.58,2.58,0,0,0,69.4,43.65Z" fill="#2e73b8"/>
    </g>
  </g>
</svg>
