<svg id="Layer_1" data-name="Layer 1" xmlns="http://www.w3.org/2000/svg" width="100" height="100" viewBox="0 0 100 100">
  <title>InternetOfThings</title>
  <g>
    <path d="M43.78,43.23H23.5v26.6a9.12,9.12,0,0,0,9.12,9.12H67.38a9.12,9.12,0,0,0,9.12-9.12V35.07a9.12,9.12,0,0,0-9.12-9.12H47V40A3.22,3.22,0,0,1,43.78,43.23Z" fill="#19486f"/>
    <path d="M75.91,29.43c-.05-.14-.1-.28-.16-.41A9.11,9.11,0,0,0,71,24.25l-.41-.16a9.08,9.08,0,0,0-3.2-.59H32.62a9.12,9.12,0,0,0-9.12,9.12h0V67.38a9.12,9.12,0,0,0,9.12,9.12H67.38a9.12,9.12,0,0,0,9.12-9.12V32.62h0A9.08,9.08,0,0,0,75.91,29.43Z" fill="#2e73b8"/>
    <path d="M66.44,64.24a.35.35,0,0,0,.2-.45c-.33-.9-1.27-3.44-1.79-4.85-.08-.21-.18-.24-.38-.17-.41.16-3.17,1.13-4.18,1.49,0-.07-8.61-22.18-10.67-27.54a.52.52,0,0,0-.58-.4c-2.62,0-5.24,0-7.86,0-.34,0-.32.21-.31.52,0,1.62,0,3.24,0,4.86,0,.36.14.49.45.49,1.32,0,2.65,0,4,0a.42.42,0,0,1,.46.35c.41,1.24.83,2.49,1.27,3.72a1.06,1.06,0,0,1-.09,1C43.25,49.8,35.51,63,33.38,66.76a.35.35,0,0,0,.31.53H40a.35.35,0,0,0,.31-.18l9.61-17.4,7,17.75a.35.35,0,0,0,.45.2C60.23,66.61,65.14,64.74,66.44,64.24Z" fill="#fff"/>
  </g>
</svg>
