<svg id="Layer_1" data-name="Layer 1" xmlns="http://www.w3.org/2000/svg" width="100" height="100" viewBox="0 0 100 100">
  <title>InternetOfThings</title>
  <g>
    <rect x="23.5" y="25.99" width="53" height="53" rx="9.12" ry="9.12" fill="#19486f"/>
    <rect x="23.5" y="23.51" width="53" height="53" rx="9.12" ry="9.12" fill="#2e73b8"/>
    <rect x="60" y="14.4" width="4" height="13.65" fill="#2e73b8"/>
    <rect x="36" y="14.4" width="4" height="13.65" fill="#2e73b8"/>
    <rect x="54" y="14.4" width="4" height="13.65" fill="#2e73b8"/>
    <rect x="42" y="14.4" width="4" height="13.65" fill="#2e73b8"/>
    <rect x="48" y="14.4" width="4" height="13.65" fill="#2e73b8"/>
    <rect x="14.4" y="60" width="18.1" height="4" fill="#2e73b8"/>
    <rect x="14.4" y="42" width="18.1" height="4" fill="#2e73b8"/>
    <rect x="14.4" y="54" width="18.1" height="4" fill="#2e73b8"/>
    <rect x="14.4" y="48" width="18.1" height="4" fill="#2e73b8"/>
    <rect x="14.4" y="36" width="18.1" height="4" fill="#2e73b8"/>
    <rect x="36" y="69.88" width="4" height="15.72" fill="#2e73b8"/>
    <rect x="60" y="69.88" width="4" height="15.72" fill="#2e73b8"/>
    <rect x="42" y="69.88" width="4" height="15.72" fill="#2e73b8"/>
    <rect x="54" y="69.88" width="4" height="15.72" fill="#2e73b8"/>
    <rect x="48" y="69.88" width="4" height="15.72" fill="#2e73b8"/>
    <rect x="69.67" y="54" width="15.94" height="4" fill="#2e73b8"/>
    <rect x="69.67" y="36" width="15.94" height="4" fill="#2e73b8"/>
    <rect x="69.67" y="48" width="15.94" height="4" fill="#2e73b8"/>
    <rect x="69.67" y="42" width="15.94" height="4" fill="#2e73b8"/>
    <rect x="69.67" y="60" width="15.94" height="4" fill="#2e73b8"/>
    <polygon points="38.67 50.15 41.5 42.15 57 43.82 63 56.65 43.67 61.15 38.67 50.15" fill="#2e73b8"/>
    <g>
      <circle cx="36.75" cy="57.6" r="7.72" fill="#2e73b8"/>
      <path d="M36.75,66.82A9.22,9.22,0,1,1,46,57.6,9.23,9.23,0,0,1,36.75,66.82Zm0-15.44A6.22,6.22,0,1,0,43,57.6,6.23,6.23,0,0,0,36.75,51.38Z" fill="#fff"/>
    </g>
    <g>
      <path d="M55.53,57.6a7.72,7.72,0,1,1,7.72,7.72,7.72,7.72,0,0,1-7.72-7.72" fill="#2e73b8"/>
      <path d="M63.25,66.82a9.22,9.22,0,1,1,9.22-9.22A9.23,9.23,0,0,1,63.25,66.82Zm0-15.44a6.22,6.22,0,1,0,6.22,6.22A6.23,6.23,0,0,0,63.25,51.38Z" fill="#fff"/>
    </g>
    <path d="M36.75,59.1a1.5,1.5,0,0,1-1.43-1.94l4.75-15.45a1.5,1.5,0,0,1,2.75-.28l7.13,13,5.72-11.25A1.45,1.45,0,0,1,57,42.32a1.5,1.5,0,0,1,1.33.88L64.62,57a1.5,1.5,0,0,1-1.37,2.12H50a1.6,1.6,0,0,1-.68-.15l0,0a1.49,1.49,0,0,1-.63-.62L41.89,46,38.18,58A1.5,1.5,0,0,1,36.75,59.1Zm15.7-3h8.48l-4-8.82Z" fill="#fff"/>
    <path d="M65.58,59.1h-18l9.52-18.74Zm-13.13-3h8.48l-4-8.82Z" fill="#fff"/>
    <path d="M57,45.32h-.16L41.38,43.65A6.42,6.42,0,0,1,37,41.72a4,4,0,0,1-.82-3.24,4.53,4.53,0,0,1,1.5-3,4.37,4.37,0,0,1,3.54-.85,1.5,1.5,0,1,1-.42,3,1.18,1.18,0,0,0-1.62,1.14s0,.11,0,.16a1.06,1.06,0,0,0,.17.93,3.58,3.58,0,0,0,2.21.83l15.6,1.67a1.5,1.5,0,0,1-.16,3Z" fill="#fff"/>
    <path d="M56.88,47.07a1.5,1.5,0,0,1-1.5-1.5V40.75a1.5,1.5,0,0,1,3,0v4.81A1.5,1.5,0,0,1,56.88,47.07Z" fill="#fff"/>
    <g>
      <circle cx="50" cy="57.6" r="2.18" fill="#2e73b8"/>
      <path d="M50,61.28a3.68,3.68,0,1,1,3.68-3.68A3.69,3.69,0,0,1,50,61.28Zm0-4.37a.68.68,0,1,0,.68.68A.68.68,0,0,0,50,56.91Z" fill="#fff"/>
    </g>
    <path d="M58.39,41.44H53.54a1.5,1.5,0,0,1,0-3h4.85c.32,0,.32-.12.32-.33a1.5,1.5,0,0,1,3,0A3.27,3.27,0,0,1,58.39,41.44Z" fill="#fff"/>
  </g>
</svg>
