<svg id="Layer_1" data-name="Layer 1" xmlns="http://www.w3.org/2000/svg" width="100" height="100" viewBox="0 0 100 100">
  <title>InternetOfThings</title>
  <g>
    <path d="M72.59,35.34a10.8,10.8,0,0,0-2.27.24,7.32,7.32,0,0,0-13.54-4.74,15.45,15.45,0,1,0-30.42,5.36A10.35,10.35,0,0,0,27,56.89H72.59a10.77,10.77,0,0,0,0-21.55Z" fill="#19486f"/>
    <path d="M72.59,32.34a10.8,10.8,0,0,0-2.27.24,7.32,7.32,0,0,0-13.54-4.74,15.45,15.45,0,1,0-30.42,5.36A10.35,10.35,0,0,0,27,53.89H72.59a10.77,10.77,0,0,0,0-21.55Z" fill="#2e73b8"/>
    <rect x="46.88" y="42.02" width="3.74" height="7.69" rx="0.4" ry="0.4" fill="#2e73b8"/>
    <rect x="41.49" y="42.02" width="3.06" height="3.49" rx="0.4" ry="0.4" fill="#2e73b8"/>
    <rect x="52.92" y="42.02" width="3.06" height="3.49" rx="0.4" ry="0.4" fill="#2e73b8"/>
    <rect x="39.37" y="30.14" width="21.26" height="21.26" rx="2.33" ry="2.33" fill="#fff"/>
    <path d="M63.47,37.3H44.8a1.5,1.5,0,0,1,0-3H63.47a1.5,1.5,0,0,1,0,3Z" fill="#2e73b8"/>
    <path d="M55.2,47.24H36.53a1.5,1.5,0,0,1,0-3H55.2a1.5,1.5,0,0,1,0,3Z" fill="#2e73b8"/>
    <circle cx="44.8" cy="35.8" r="3.61" fill="#2e73b8"/>
    <circle cx="55.2" cy="45.74" r="3.61" fill="#2e73b8"/>
    <rect x="46.88" y="73.6" width="3.74" height="7.69" rx="0.4" ry="0.4" fill="#2e73b8"/>
    <rect x="41.49" y="73.6" width="3.06" height="3.49" rx="0.4" ry="0.4" fill="#2e73b8"/>
    <rect x="52.92" y="73.6" width="3.06" height="3.49" rx="0.4" ry="0.4" fill="#2e73b8"/>
    <rect x="39.37" y="63.72" width="21.26" height="21.26" rx="2.33" ry="2.33" fill="#19486f"/>
    <rect x="39.37" y="61.72" width="21.26" height="21.26" rx="2.33" ry="2.33" fill="#2e73b8"/>
    <path d="M60.63,68.88H44.8a1.5,1.5,0,0,1,0-3H60.63Z" fill="#fff"/>
    <path d="M55.2,78.82H39.37v-3H55.2a1.5,1.5,0,0,1,0,3Z" fill="#fff"/>
    <circle cx="44.8" cy="67.38" r="3.61" fill="#fff"/>
    <circle cx="55.2" cy="77.32" r="3.61" fill="#fff"/>
  </g>
</svg>
