<svg id="Layer_1" data-name="Layer 1" xmlns="http://www.w3.org/2000/svg" width="100" height="100" viewBox="0 0 100 100">
  <title>InternetOfThings</title>
  <g>
    <polygon points="75.22 60.5 32.78 60.5 32.78 58 54 42.33 75.22 58 75.22 60.5" fill="#19486f"/>
    <polygon points="77.84 78.9 43.8 78.9 43.8 76.42 61.1 63.29 77.84 76.42 77.84 78.9" fill="#19486f"/>
    <rect x="43.8" y="60.5" width="34.04" height="15.92" fill="#2e73b8"/>
    <g style="isolation: isolate">
      <path d="M45.59,63.06H47.3v4.29h3.15V63.06h1.71V73.77H50.45v-5H47.3v5H45.59Z" fill="#fff"/>
      <path d="M56.3,64.5H53.75V63.06h6.76V64.5H58v9.27H56.3Z" fill="#fff"/>
      <path d="M63.86,64.5H61.31V63.06h6.76V64.5h-2.5v9.27H63.86Z" fill="#fff"/>
      <path d="M69.67,63.06h3.39c2.05,0,3,1.29,3,3.12a2.9,2.9,0,0,1-3.13,3.17h-1.5v4.42H69.67Zm1.71,5h1.21a1.62,1.62,0,0,0,1.71-1.84c0-1.16-.46-1.86-1.83-1.86H71.38Z" fill="#fff"/>
    </g>
    <path d="M75.22,58V32.22A9.12,9.12,0,0,0,66.1,23.1H31.34a9.12,9.12,0,0,0-9.12,9.12V67a9.12,9.12,0,0,0,9.12,9.12h10V58Z" fill="#19486f"/>
    <path d="M75.22,58V29.74a9.12,9.12,0,0,0-9.12-9.12H31.34a9.12,9.12,0,0,0-9.12,9.12V64.5a9.12,9.12,0,0,0,9.12,9.12h10V58Z" fill="#2e73b8"/>
  </g>
</svg>
