<svg id="Layer_1" data-name="Layer 1" xmlns="http://www.w3.org/2000/svg" width="100" height="100" viewBox="0 0 100 100">
  <title>InternetOfThings</title>
  <g>
    <path d="M71.35,43.69c-1.28,1.2-4.62,2.65-9.83,3.58A66.7,66.7,0,0,1,50,48.21c-11.94,0-19.3-2.58-21.35-4.51H28v1.78C28,47.34,35.78,51,50,51a66.67,66.67,0,0,0,11.54-.94c6.8-1.21,10.42-3.3,10.42-4.58V43.69Z" fill="#19486f"/>
    <path d="M72,86.15a1.13,1.13,0,0,1-.05.21,1.69,1.69,0,0,1-.14.3c-1.17,2-7.42,4.82-20.5,4.82A63.16,63.16,0,0,1,32.67,88.7l.05.27c-2.61-1-4.44-2-4.66-2.83v2.79c.23.88,2.33,2,5.25,3,3.92,1.25,10,2.27,18,2.27,13.08,0,19.32-2.85,20.5-4.82a1.54,1.54,0,0,0,.14-.29,1.29,1.29,0,0,0,.05-.21.9.9,0,0,0,0-.15V86A1,1,0,0,1,72,86.15Z" fill="#19486f"/>
    <path d="M61.25,52.76c-.6.12-1.21.2-1.81.29-.31,0-.62.1-.95.13-.56.07-1.13.13-1.71.19-.37,0-.74.07-1.12.09-.73.06-1.47.1-2.22.13h-.37c-.87,0-1.75.06-2.67.07h-.57c-8.72,0-17.51-1.5-21.78-4.35V87.15c.23.88,2.31,2,5.21,3,3.93,1.25,10,2.27,18,2.27C65.9,92.47,72,88.9,72,87l0-38C69.73,50.56,66,51.92,61.25,52.76Z" fill="#2e73b8"/>
    <path d="M28,43.69c0,1.2,3.21,3.13,9.26,4.36V39.34C31.24,40.56,28,42.49,28,43.69Z" fill="#19486f"/>
    <path d="M71.94,43.69c0-1.2-3.18-3.1-9.16-4.33V48C68.76,46.8,71.94,44.88,71.94,43.69Z" fill="#19486f"/>
    <polygon points="37.28 35.59 41.58 38.66 50.03 44.71 58.48 38.67 62.78 35.59 37.28 35.59" fill="#2e73b8"/>
    <path d="M61.17,39.06,50,47,38.87,39,37.29,37.9V48A64.12,64.12,0,0,0,50,49.21a66.7,66.7,0,0,0,11.54-.93L62.79,48V37.9Z" fill="#2e73b8"/>
    <path d="M50,33.74a1.5,1.5,0,0,1-1.5-1.5V28.36L34.94,14.82a1.5,1.5,0,0,1,2.12-2.12l14,14a1.5,1.5,0,0,1,.44,1.06v4.5A1.5,1.5,0,0,1,50,33.74Z" fill="#2e73b8"/>
    <path d="M50,29.24a1.5,1.5,0,0,1-1.06-2.56l14-14A1.5,1.5,0,0,1,65,14.82l-14,14A1.5,1.5,0,0,1,50,29.24Z" fill="#2e73b8"/>
    <rect x="30.33" y="8.09" width="11.33" height="11.33" transform="translate(20.27 -21.43) rotate(45)" fill="#2e73b8"/>
    <circle cx="63.97" cy="13.76" r="6.52" fill="#2e73b8"/>
  </g>
</svg>
