<svg id="Layer_1" data-name="Layer 1" xmlns="http://www.w3.org/2000/svg" width="100" height="100" viewBox="0 0 100 100">
  <title>InternetOfThings</title>
  <g>
    <rect x="60" y="14.4" width="4" height="13.65" fill="#2e73b8"/>
    <rect x="36" y="14.4" width="4" height="13.65" fill="#2e73b8"/>
    <rect x="54" y="14.4" width="4" height="13.65" fill="#2e73b8"/>
    <rect x="42" y="14.4" width="4" height="13.65" fill="#2e73b8"/>
    <rect x="48" y="14.4" width="4" height="13.65" fill="#2e73b8"/>
    <circle cx="68.75" cy="72.4" r="12.18" fill="#19486f"/>
    <path d="M68.75,58.22a14.1,14.1,0,0,1,7.75,2.32V35.13A9.12,9.12,0,0,0,67.38,26H32.62a9.12,9.12,0,0,0-9.12,9.12V69.89A9.12,9.12,0,0,0,32.62,79H56.21A14.17,14.17,0,0,1,68.75,58.22Z" fill="#19486f"/>
    <circle cx="68.75" cy="69.9" r="12.18" fill="#2e73b8"/>
    <path d="M68.75,55.72A14.1,14.1,0,0,1,76.5,58V32.63a9.12,9.12,0,0,0-9.12-9.12H32.62a9.12,9.12,0,0,0-9.12,9.12V67.39a9.12,9.12,0,0,0,9.12,9.12H56.21A14.17,14.17,0,0,1,68.75,55.72Z" fill="#2e73b8"/>
    <rect x="36" y="69.88" width="4" height="15.72" fill="#2e73b8"/>
    <rect x="42" y="69.88" width="4" height="15.72" fill="#2e73b8"/>
    <rect x="48" y="69.88" width="4" height="15.72" fill="#2e73b8"/>
    <rect x="14.4" y="60" width="18.1" height="4" fill="#2e73b8"/>
    <rect x="14.4" y="42" width="18.1" height="4" fill="#2e73b8"/>
    <rect x="14.4" y="54" width="18.1" height="4" fill="#2e73b8"/>
    <rect x="14.4" y="48" width="18.1" height="4" fill="#2e73b8"/>
    <rect x="14.4" y="36" width="18.1" height="4" fill="#2e73b8"/>
    <rect x="69.67" y="36" width="15.94" height="4" fill="#2e73b8"/>
    <rect x="69.67" y="48" width="15.94" height="4" fill="#2e73b8"/>
    <rect x="69.67" y="42" width="15.94" height="4" fill="#2e73b8"/>
    <path d="M68.75,60.22a9.68,9.68,0,0,0-1.3,19.26l.07,0v-2a1.32,1.32,0,0,0-.91-1.25,6.64,6.64,0,1,1,8.7-7.37c.75,4.46-3.3,8.64-7.79,10.64v0a9.68,9.68,0,1,0,1.24-19.27Z" fill="#00b3ff"/>
  </g>
</svg>
