<?xml version="1.0" encoding="UTF-8" standalone="no"?>
<svg
   xmlns:dc="http://purl.org/dc/elements/1.1/"
   xmlns:cc="http://creativecommons.org/ns#"
   xmlns:rdf="http://www.w3.org/1999/02/22-rdf-syntax-ns#"
   xmlns:svg="http://www.w3.org/2000/svg"
   xmlns="http://www.w3.org/2000/svg"
   xmlns:sodipodi="http://sodipodi.sourceforge.net/DTD/sodipodi-0.dtd"
   xmlns:inkscape="http://www.inkscape.org/namespaces/inkscape"
   id="Product_Icon"
   data-name="Product Icon"
   viewBox="0 0 75 75"
   version="1.1"
   sodipodi:docname="autoscaling.svg"
   width="75"
   height="75"
   inkscape:version="0.92.2 5c3e80d, 2017-08-06">
  <metadata
     id="metadata4110">
    <rdf:RDF>
      <cc:Work
         rdf:about="">
        <dc:format>image/svg+xml</dc:format>
        <dc:type
           rdf:resource="http://purl.org/dc/dcmitype/StillImage" />
        <dc:title>Amazon-EC2-Auto-Scaling_light-bg</dc:title>
      </cc:Work>
    </rdf:RDF>
  </metadata>
  <defs
     id="defs4108" />
  <sodipodi:namedview
     pagecolor="#ffffff"
     bordercolor="#666666"
     borderopacity="1"
     objecttolerance="10"
     gridtolerance="10"
     guidetolerance="10"
     inkscape:pageopacity="0"
     inkscape:pageshadow="2"
     inkscape:window-width="1055"
     inkscape:window-height="828"
     id="namedview4106"
     showgrid="false"
     fit-margin-top="0"
     fit-margin-left="0"
     fit-margin-right="0"
     fit-margin-bottom="0"
     inkscape:zoom="3.1466667"
     inkscape:cx="37.5"
     inkscape:cy="37.5"
     inkscape:window-x="0"
     inkscape:window-y="0"
     inkscape:window-maximized="0"
     inkscape:current-layer="Product_Icon" />
  <title
     id="title4091">Amazon-EC2-Auto-Scaling_light-bg</title>
  <rect
     id="Orange_Light_BG"
     data-name="Orange Light BG"
     width="75"
     height="75"
     style="fill:#d86613"
     x="0"
     y="0" />
  <g
     id="Product_Icon-2"
     data-name="Product Icon">
    <path
       d="m 36.5,15.91 v 9.58 h 2 v -9.58 l 4.66,4.66 1.41,-1.42 -6.36,-6.36 a 1,1 0 0 0 -1.42,0 l -6.36,6.36 1.41,1.42 z"
       style="fill:#ffffff"
       id="path4094"
       inkscape:connector-curvature="0" />
    <path
       d="m 38.5,59.08 v -9.59 h -2 v 9.59 l -4.66,-4.66 -1.41,1.42 6.36,6.36 a 1,1 0 0 0 1.42,0 l 6.36,-6.36 -1.41,-1.42 z"
       style="fill:#ffffff"
       id="path4096"
       inkscape:connector-curvature="0" />
    <path
       d="m 44.5,29.65 v -2.16 h -2 v 2 h -2 v -2 h -2 v 2 h -2 v -2 h -2 v 2 h -2 v -2 h -2 v 2.16 a 1.7,1.7 0 0 0 -0.85,0.84 H 27.5 v 2 h 2 v 2 h -2 v 2 h 2 v 2 h -2 v 2 h 2 v 2 h -2 v 2 h 2.15 a 1.68,1.68 0 0 0 0.85,0.85 v 2.15 h 2 v -2 h 2 v 2 h 2 v -2 h 2 v 2 h 2 v -2 h 2 v 2 h 2 v -2.15 a 1.68,1.68 0 0 0 0.85,-0.85 h 2.15 v -2 h -2 v -2 h 2 v -2 h -2 v -2 h 2 v -2 h -2 v -2 h 2 v -2 H 45.35 A 1.7,1.7 0 0 0 44.5,29.65 Z m -1,13.84 h -12 v -12 h 12 z"
       style="fill:#ffffff"
       id="path4098"
       inkscape:connector-curvature="0" />
    <path
       d="m 18.77,30.49 -1.41,1.42 4.64,4.58 h -9.5 v 2 h 9.59 l -4.73,4.73 1.41,1.41 6.37,-6.36 a 1,1 0 0 0 0.29,-0.71 1,1 0 0 0 -0.29,-0.7 z"
       style="fill:#ffffff"
       id="path4100"
       inkscape:connector-curvature="0" />
    <path
       d="m 62.5,36.49 h -9.45 l 4.59,-4.58 -1.41,-1.42 -6.37,6.37 a 1,1 0 0 0 -0.29,0.7 1,1 0 0 0 0.29,0.71 l 6.37,6.36 1.41,-1.41 -4.73,-4.73 h 9.59 z"
       style="fill:#ffffff"
       id="path4102"
       inkscape:connector-curvature="0" />
  </g>
</svg>
