<svg id="Product_Icon" data-name="Product Icon" xmlns="http://www.w3.org/2000/svg" viewBox="0 0 75 75"><title>AWS-CodePipeline_light-bg</title><rect id="Blue_Light_BG" data-name="Blue Light BG" width="75" height="75" style="fill:#3b48cc"/><g id="Product_Icon-2" data-name="Product Icon"><path d="M57,12.5H18A5.47,5.47,0,0,0,12.5,18V29A5.47,5.47,0,0,0,18,34.5H19.5v27a1,1,0,0,0,1,1h34a1,1,0,0,0,1-1v-27H57A5.47,5.47,0,0,0,62.5,29V18A5.47,5.47,0,0,0,57,12.5Zm-3.54,48h-32v-26h32ZM57,32.5H18a3.45,3.45,0,0,1-3.41-3h17v-2h-17V18A3.46,3.46,0,0,1,18,14.5H57A3.46,3.46,0,0,1,60.5,18V27.5h-19v2h19A3.45,3.45,0,0,1,57,32.5Z" style="fill:#fff"/><path d="M25.08,47.35l5.72,4.93,1.31-1.51-4.86-4.19,4.89-4.31-1.33-1.5-5.74,5.08a1,1,0,0,0-.34.75A1,1,0,0,0,25.08,47.35Z" style="fill:#fff"/><path d="M44.25,52.32l5.76-5a1,1,0,0,0,.34-.76,1,1,0,0,0-.34-.75l-5.76-5-1.31,1.51,4.89,4.24-4.89,4.29Z" style="fill:#fff"/><rect x="28.91" y="46.03" width="18.13" height="2" transform="translate(-19.94 64.35) rotate(-67.72)" style="fill:#fff"/><rect x="34.5" y="27.5" width="4" height="2" style="fill:#fff"/></g></svg>