<?xml version="1.0" encoding="UTF-8" standalone="no"?>
<svg
   xmlns:dc="http://purl.org/dc/elements/1.1/"
   xmlns:cc="http://creativecommons.org/ns#"
   xmlns:rdf="http://www.w3.org/1999/02/22-rdf-syntax-ns#"
   xmlns:svg="http://www.w3.org/2000/svg"
   xmlns="http://www.w3.org/2000/svg"
   xmlns:sodipodi="http://sodipodi.sourceforge.net/DTD/sodipodi-0.dtd"
   xmlns:inkscape="http://www.inkscape.org/namespaces/inkscape"
   id="Product_Icon"
   data-name="Product Icon"
   version="1.1"
   sodipodi:docname="ec2.svg"
   width="75"
   height="75"
   inkscape:version="0.92.2 5c3e80d, 2017-08-06">
  <metadata
     id="metadata3809">
    <rdf:RDF>
      <cc:Work
         rdf:about="">
        <dc:format>image/svg+xml</dc:format>
        <dc:type
           rdf:resource="http://purl.org/dc/dcmitype/StillImage" />
        <dc:title>Amazon-EC2_iight-bg</dc:title>
      </cc:Work>
    </rdf:RDF>
  </metadata>
  <defs
     id="defs3807" />
  <sodipodi:namedview
     pagecolor="#ffffff"
     bordercolor="#666666"
     borderopacity="1"
     objecttolerance="10"
     gridtolerance="10"
     guidetolerance="10"
     inkscape:pageopacity="0"
     inkscape:pageshadow="2"
     inkscape:window-width="1049"
     inkscape:window-height="834"
     id="namedview3805"
     showgrid="false"
     fit-margin-top="0"
     fit-margin-left="0"
     fit-margin-right="0"
     fit-margin-bottom="0"
     inkscape:zoom="6.42"
     inkscape:cx="50"
     inkscape:cy="82.152384"
     inkscape:window-x="0"
     inkscape:window-y="0"
     inkscape:window-maximized="0"
     inkscape:current-layer="Product_Icon" />
  <title
     id="title3794">Amazon-EC2_iight-bg</title>
  <rect
     id="Orange_Light_BG"
     data-name="Orange Light BG"
     width="75"
     height="75"
     style="fill:#d86613"
     x="0"
     y="0" />
  <g
     id="Product_Icon-2"
     data-name="Product Icon">
    <path
       d="m 60.49,40.5 h -5 v -2 h 5 v -24 h -24 v 5 h -2 v -5 a 2,2 0 0 1 2,-2 h 24 a 2,2 0 0 1 2,2 v 24 a 2,2 0 0 1 -2,2 z"
       style="fill:#ffffff"
       id="path3797"
       inkscape:connector-curvature="0" />
    <path
       d="m 38.49,62.5 h -24 a 2,2 0 0 1 -2,-2 v -24 a 2,2 0 0 1 2,-2 h 5 v 2 h -5 v 24 h 24 v -5 h 2 v 5 a 2,2 0 0 1 -2,2 z"
       style="fill:#ffffff"
       id="path3799"
       inkscape:connector-curvature="0" />
    <path
       d="m 53.5,28.5 v -2 h -3 a 2.18,2.18 0 0 0 -2,-2 v -3 h -2 v 3 h -3 v -3 h -2 v 3 h -3 v -3 h -2 v 3 h -3 v -3 h -2 v 3 h -3 v -3 h -2 v 3 a 2.18,2.18 0 0 0 -2,2 h -3 v 2 h 3 v 3 h -3 v 2 h 3 v 3 h -3 v 2 h 3 v 3 h -3 v 2 h 3 v 3 h -3 v 2 h 3 a 2.18,2.18 0 0 0 2,2 v 3 h 2 v -3 h 3 v 3 h 2 v -3 h 3 v 3 h 2 v -3 h 3 v 3 h 2 v -3 h 3 v 3 h 2 v -3 a 2.18,2.18 0 0 0 2,-2 h 3 v -2 h -3 v -3 h 3 v -2 h -3 v -3 h 3 v -2 h -3 v -3 h 3 v -2 h -3 v -3 z m -5,19.82 A 0.18,0.18 0 0 1 48.32,48.5 H 26.68 A 0.18,0.18 0 0 1 26.5,48.32 V 26.68 a 0.18,0.18 0 0 1 0.18,-0.18 h 21.64 a 0.18,0.18 0 0 1 0.18,0.18 z"
       style="fill:#ffffff"
       id="path3801"
       inkscape:connector-curvature="0" />
  </g>
</svg>
