<?xml version="1.0" encoding="UTF-8" standalone="no"?>
<svg
   xmlns:dc="http://purl.org/dc/elements/1.1/"
   xmlns:cc="http://creativecommons.org/ns#"
   xmlns:rdf="http://www.w3.org/1999/02/22-rdf-syntax-ns#"
   xmlns:svg="http://www.w3.org/2000/svg"
   xmlns="http://www.w3.org/2000/svg"
   xmlns:sodipodi="http://sodipodi.sourceforge.net/DTD/sodipodi-0.dtd"
   xmlns:inkscape="http://www.inkscape.org/namespaces/inkscape"
   id="Product_Icon"
   data-name="Product Icon"
   viewBox="0 0 75 75"
   version="1.1"
   sodipodi:docname="Amazon-Elasticsearch-Service_light-bg.svg"
   width="75"
   height="75"
   inkscape:version="0.92.2 5c3e80d, 2017-08-06">
  <metadata
     id="metadata25">
    <rdf:RDF>
      <cc:Work
         rdf:about="">
        <dc:format>image/svg+xml</dc:format>
        <dc:type
           rdf:resource="http://purl.org/dc/dcmitype/StillImage" />
        <dc:title>Amazon-Elasticsearch-Service</dc:title>
      </cc:Work>
    </rdf:RDF>
  </metadata>
  <defs
     id="defs23" />
  <sodipodi:namedview
     pagecolor="#ffffff"
     bordercolor="#666666"
     borderopacity="1"
     objecttolerance="10"
     gridtolerance="10"
     guidetolerance="10"
     inkscape:pageopacity="0"
     inkscape:pageshadow="2"
     inkscape:window-width="640"
     inkscape:window-height="480"
     id="namedview21"
     showgrid="false"
     fit-margin-top="0"
     fit-margin-left="0"
     fit-margin-right="0"
     fit-margin-bottom="0"
     inkscape:zoom="3.1466667"
     inkscape:cx="37.5"
     inkscape:cy="37.5"
     inkscape:window-x="0"
     inkscape:window-y="0"
     inkscape:window-maximized="0"
     inkscape:current-layer="Product_Icon" />
  <title
     id="title2">Amazon-Elasticsearch-Service</title>
  <rect
     id="Purple_Light_BG"
     data-name="Purple Light BG"
     width="75"
     height="75"
     style="fill:#693cc5"
     x="0"
     y="0" />
  <g
     id="Product_Icon-2"
     data-name="Product Icon">
    <path
       d="m 22.5,27.25 h -9 a 1,1 0 0 0 -1,1 v 32 a 1,1 0 0 0 1,1 h 9 a 1,1 0 0 0 1,-1 v -32 a 1,1 0 0 0 -1,-1 z m -1,32 h -7 v -30 h 7 z"
       style="fill:#ffffff"
       id="path5"
       inkscape:connector-curvature="0" />
    <path
       d="m 36.5,54.67 v 5.58 a 1,1 0 0 1 -1,1 h -9 a 1,1 0 0 1 -1,-1 V 43 a 14.74,14.74 0 0 0 2,5.24 v 11 h 7 V 54 a 13.55,13.55 0 0 0 2,0.67 z"
       style="fill:#ffffff"
       id="path7"
       inkscape:connector-curvature="0" />
    <path
       d="m 36.5,22.25 v 3.54 a 13.55,13.55 0 0 0 -2,0.71 v -3.25 h -7 v 9 a 14.74,14.74 0 0 0 -2,5.24 V 22.25 a 1,1 0 0 1 1,-1 h 9 a 1,1 0 0 1 1,1 z"
       style="fill:#ffffff"
       id="path9"
       inkscape:connector-curvature="0" />
    <path
       d="m 47.5,55.47 v 3.78 h -7 v -4 0 a 14.71,14.71 0 0 1 -2,-0.13 v 5.13 a 1,1 0 0 0 1,1 h 9 a 1,1 0 0 0 1,-1 v -2.78 z m 1,-42.22 h -9 a 1,1 0 0 0 -1,1 v 11.13 a 14.42,14.42 0 0 1 2,-0.13 v 0 -10 h 7 V 27 a 14.44,14.44 0 0 1 2,1.28 v -14 a 1,1 0 0 0 -1,-1.03 z"
       style="fill:#ffffff"
       id="path11"
       inkscape:connector-curvature="0" />
    <path
       d="m 61.5,18.25 h -9 a 1,1 0 0 0 -1,1 v 10.84 a 14.58,14.58 0 0 1 2,2.74 V 20.25 h 7 V 51 l 2,2 V 19.25 a 1,1 0 0 0 -1,-1 z"
       style="fill:#ffffff"
       id="path13"
       inkscape:connector-curvature="0" />
    <path
       d="m 61.29,54.65 -9,-9 a 13,13 0 1 0 -5.74,6.07 l 8.85,8.84 a 4.1613249,4.1613249 0 0 0 5.89,-5.88 z M 29.5,40.23 a 11,11 0 1 1 11,11 11,11 0 0 1 -11,-11 z m 30.37,18.89 a 2.17,2.17 0 0 1 -3.06,0 L 48.29,50.6 a 13.21,13.21 0 0 0 3,-3.17 l 8.6,8.64 a 2.16,2.16 0 0 1 -0.02,3.05 z"
       style="fill:#ffffff"
       id="path15"
       inkscape:connector-curvature="0" />
    <path
       d="m 36.07,45 a 6.46,6.46 0 1 1 7.69,-10.38 l -1.19,1.61 a 4.4610817,4.4610817 0 1 0 -5.31,7.17 z"
       style="fill:#ffffff"
       id="path17"
       inkscape:connector-curvature="0" />
  </g>
</svg>
