<?xml version="1.0" encoding="UTF-8" standalone="no"?>
<!DOCTYPE svg PUBLIC "-//W3C//DTD SVG 1.1//EN" "http://www.w3.org/Graphics/SVG/1.1/DTD/svg11.dtd">
<svg version="1.1" xmlns="http://www.w3.org/2000/svg" xmlns:xlink="http://www.w3.org/1999/xlink" preserveAspectRatio="xMidYMid meet" viewBox="0 0 640 640" width="50" height="50"><defs><path d="M170.99 346.7L170.99 324.05C355.6 324.05 449.9 324.05 453.89 324.05C511.14 324.05 538.92 300.05 538.92 250.8C538.92 208.68 512.69 182.3 460.95 172.34C455.63 171.32 451.7 167.04 451.37 161.92C448.86 121.05 423.71 106.44 403.46 106.44C389.28 106.57 375.98 112.99 367.53 123.76C363.5 128.72 355.98 129.65 350.74 125.84C348.96 124.55 347.6 122.81 346.81 120.82C339.52 101.09 327.56 83.2 311.84 68.51C274.9 33.46 219.08 23.28 170.99 42.81C127.44 61.66 98.82 102.07 96.97 147.31C97 151.93 97.32 156.55 97.93 161.13C98.72 166.83 94.86 172.19 88.95 173.58C65 179.24 23.91 196.23 23.91 249.67C23.91 251.59 23.91 253.29 23.91 255.1C26.31 295.07 62 323.83 108.83 323.83C112.82 323.83 133.78 323.9 171.72 324.05L171.72 346.47C133.78 346.47 112.82 346.47 108.83 346.47C48.95 346.47 3.19 308.77 0.08 256.8C0.08 254.08 0.08 251.93 0.08 249.67C-1.77 205.68 28.55 166.25 73.38 154.33C73.38 151.96 73.38 149.47 73.38 147.09C75.14 69.5 143.1 7.96 225.17 9.63C264.11 10.42 301.17 25.62 328.37 51.98C342.43 65 353.83 80.35 362.02 97.27C373.87 88.64 388.39 83.94 403.34 83.91C435.08 83.91 468.38 105.08 475.21 151.84C532.22 165.54 563.6 200.3 563.6 250.69C562.88 312.62 524.19 346.7 453.89 346.7C445.9 346.7 351.6 346.7 170.99 346.7Z" id="f3Yqa0HIea"></path></defs><g><g><g><use xlink:href="#f3Yqa0HIea" opacity="1" fill="#232f3e" fill-opacity="1"></use><g><use xlink:href="#f3Yqa0HIea" opacity="1" fill-opacity="0" stroke="#000000" stroke-width="1" stroke-opacity="0"></use></g></g></g></g></svg>