<svg id="Layer_1" data-name="Layer 1" xmlns="http://www.w3.org/2000/svg" width="50" height="50" viewBox="0 0 50 50"><title>AWS-General_Corporate-Data-Center_light-bg</title><path d="M40,48.5H10a1,1,0,0,1-1-1V4.87A3.37,3.37,0,0,1,12.37,1.5H37.63A3.37,3.37,0,0,1,41,4.87V47.5A1,1,0,0,1,40,48.5Zm-29-2H39V4.87A1.38,1.38,0,0,0,37.63,3.5H12.37A1.38,1.38,0,0,0,11,4.87Z" style="fill:#232f3e"/><path d="M19.38,13.81H15.63a1,1,0,0,1-1-1V6.25a1,1,0,0,1,1-1h3.75a1,1,0,0,1,1,1v6.56A1,1,0,0,1,19.38,13.81Zm-2.75-2h1.75V7.25H16.63Z" style="fill:#232f3e"/><path d="M26.88,13.81H23.13a1,1,0,0,1-1-1V6.25a1,1,0,0,1,1-1h3.75a1,1,0,0,1,1,1v6.56A1,1,0,0,1,26.88,13.81Zm-2.75-2h1.75V7.25H24.13Z" style="fill:#232f3e"/><path d="M34.38,13.81H30.63a1,1,0,0,1-1-1V6.25a1,1,0,0,1,1-1h3.75a1,1,0,0,1,1,1v6.56A1,1,0,0,1,34.38,13.81Zm-2.75-2h1.75V7.25H31.63Z" style="fill:#232f3e"/><path d="M19.38,24.13H15.63a1,1,0,0,1-1-1V16.56a1,1,0,0,1,1-1h3.75a1,1,0,0,1,1,1v6.57A1,1,0,0,1,19.38,24.13Zm-2.75-2h1.75V17.56H16.63Z" style="fill:#232f3e"/><path d="M26.88,24.13H23.13a1,1,0,0,1-1-1V16.56a1,1,0,0,1,1-1h3.75a1,1,0,0,1,1,1v6.57A1,1,0,0,1,26.88,24.13Zm-2.75-2h1.75V17.56H24.13Z" style="fill:#232f3e"/><path d="M34.38,24.13H30.63a1,1,0,0,1-1-1V16.56a1,1,0,0,1,1-1h3.75a1,1,0,0,1,1,1v6.57A1,1,0,0,1,34.38,24.13Zm-2.75-2h1.75V17.56H31.63Z" style="fill:#232f3e"/><path d="M19.38,34.44H15.63a1,1,0,0,1-1-1V26.88a1,1,0,0,1,1-1h3.75a1,1,0,0,1,1,1v6.56A1,1,0,0,1,19.38,34.44Zm-2.75-2h1.75V27.88H16.63Z" style="fill:#232f3e"/><path d="M26.88,34.44H23.13a1,1,0,0,1-1-1V26.88a1,1,0,0,1,1-1h3.75a1,1,0,0,1,1,1v6.56A1,1,0,0,1,26.88,34.44Zm-2.75-2h1.75V27.88H24.13Z" style="fill:#232f3e"/><path d="M34.38,34.44H30.63a1,1,0,0,1-1-1V26.88a1,1,0,0,1,1-1h3.75a1,1,0,0,1,1,1v6.56A1,1,0,0,1,34.38,34.44Zm-2.75-2h1.75V27.88H31.63Z" style="fill:#232f3e"/></svg>