<?xml version="1.0" encoding="UTF-8" standalone="no"?>
<svg
   xmlns:dc="http://purl.org/dc/elements/1.1/"
   xmlns:cc="http://creativecommons.org/ns#"
   xmlns:rdf="http://www.w3.org/1999/02/22-rdf-syntax-ns#"
   xmlns:svg="http://www.w3.org/2000/svg"
   xmlns="http://www.w3.org/2000/svg"
   xmlns:sodipodi="http://sodipodi.sourceforge.net/DTD/sodipodi-0.dtd"
   xmlns:inkscape="http://www.inkscape.org/namespaces/inkscape"
   id="Product_Icon"
   data-name="Product Icon"
   viewBox="0 0 75 75"
   version="1.1"
   sodipodi:docname="Amazon-Kinesis_light-bg.svg"
   width="75"
   height="75"
   inkscape:version="0.92.2 5c3e80d, 2017-08-06">
  <metadata
     id="metadata21">
    <rdf:RDF>
      <cc:Work
         rdf:about="">
        <dc:format>image/svg+xml</dc:format>
        <dc:type
           rdf:resource="http://purl.org/dc/dcmitype/StillImage" />
        <dc:title>Amazon-Kinesis_light-bg</dc:title>
      </cc:Work>
    </rdf:RDF>
  </metadata>
  <defs
     id="defs19" />
  <sodipodi:namedview
     pagecolor="#ffffff"
     bordercolor="#666666"
     borderopacity="1"
     objecttolerance="10"
     gridtolerance="10"
     guidetolerance="10"
     inkscape:pageopacity="0"
     inkscape:pageshadow="2"
     inkscape:window-width="640"
     inkscape:window-height="480"
     id="namedview17"
     showgrid="false"
     fit-margin-top="0"
     fit-margin-left="0"
     fit-margin-right="0"
     fit-margin-bottom="0"
     inkscape:zoom="3.1466667"
     inkscape:cx="37.5"
     inkscape:cy="37.5"
     inkscape:window-x="0"
     inkscape:window-y="0"
     inkscape:window-maximized="0"
     inkscape:current-layer="Product_Icon" />
  <title
     id="title2">Amazon-Kinesis_light-bg</title>
  <rect
     id="Purple_Light_BG"
     data-name="Purple Light BG"
     width="75"
     height="75"
     style="fill:#693cc5"
     x="0"
     y="0" />
  <g
     id="Product_Icon-2"
     data-name="Product Icon">
    <path
       d="m 62.53,32.5 v 2 H 53.71 C 30.62,34.5 12.53,25.4 12.53,13.76 a 8.88,8.88 0 0 1 0.08,-1.26 h 2 a 7.64,7.64 0 0 0 -0.1,1.26 c 0,10.33 17.58,18.74 39.2,18.74 z"
       style="fill:#ffffff"
       id="path5"
       inkscape:connector-curvature="0" />
    <path
       d="m 62.53,36.5 v 2 H 50.29 c -19.57,0 -33.64,3.17 -37.76,8.49 V 44.31 C 16.9,40.49 25,38.51 32.91,37.5 v 0 c -7.93,-1 -16,-3 -20.39,-6.73 v -2.92 c 4.07,5.34 17.87,8.55 37.1,8.65 z"
       style="fill:#ffffff"
       id="path7"
       inkscape:connector-curvature="0" />
    <path
       d="m 62.53,28.49 v 2 h -4.14 c -20.08,0 -34.65,-6.8 -34.65,-16.17 0,0 0,-1.15 0,-1.83 h 2.11 c 0,0.48 0,1.47 0,1.83 0,8 14,14.17 32.55,14.17 z"
       style="fill:#ffffff"
       id="path9"
       inkscape:connector-curvature="0" />
    <path
       d="m 62.53,40.5 v 2 h -8.82 c -21.63,0 -39.22,8.44 -39.22,18.77 a 8.38,8.38 0 0 0 0.09,1.23 h -2 A 8.38,8.38 0 0 1 12.5,61.27 C 12.5,49.62 30.61,40.5 53.73,40.5 Z"
       style="fill:#ffffff"
       id="path11"
       inkscape:connector-curvature="0" />
    <path
       d="m 62.53,44.5 v 2 h -4.14 c -18.58,0 -32.59,6 -32.59,14.07 0,0.39 0,1.52 0,1.93 h -2 c 0,-0.66 0,-1.91 0,-1.93 0,-9.32 14.56,-16.07 34.61,-16.07 z"
       style="fill:#ffffff"
       id="path13"
       inkscape:connector-curvature="0" />
  </g>
</svg>
