<?xml version="1.0" encoding="UTF-8" standalone="no"?>
<svg
   xmlns:dc="http://purl.org/dc/elements/1.1/"
   xmlns:cc="http://creativecommons.org/ns#"
   xmlns:rdf="http://www.w3.org/1999/02/22-rdf-syntax-ns#"
   xmlns:svg="http://www.w3.org/2000/svg"
   xmlns="http://www.w3.org/2000/svg"
   xmlns:sodipodi="http://sodipodi.sourceforge.net/DTD/sodipodi-0.dtd"
   xmlns:inkscape="http://www.inkscape.org/namespaces/inkscape"
   id="Layer_1"
   data-name="Layer 1"
   width="47"
   height="47"
   viewBox="0 0 47 47"
   version="1.1"
   sodipodi:docname="Amazon-VPC_Elastic-Network-Interface_light-bg.svg"
   inkscape:version="0.92.2 5c3e80d, 2017-08-06">
  <metadata
     id="metadata19">
    <rdf:RDF>
      <cc:Work
         rdf:about="">
        <dc:format>image/svg+xml</dc:format>
        <dc:type
           rdf:resource="http://purl.org/dc/dcmitype/StillImage" />
        <dc:title>Amazon-VPC_Elastic-Network-Interface_light-bg</dc:title>
      </cc:Work>
    </rdf:RDF>
  </metadata>
  <defs
     id="defs17" />
  <sodipodi:namedview
     pagecolor="#ffffff"
     bordercolor="#666666"
     borderopacity="1"
     objecttolerance="10"
     gridtolerance="10"
     guidetolerance="10"
     inkscape:pageopacity="0"
     inkscape:pageshadow="2"
     inkscape:window-width="1189"
     inkscape:window-height="740"
     id="namedview15"
     showgrid="false"
     fit-margin-top="0"
     fit-margin-left="0"
     fit-margin-right="0"
     fit-margin-bottom="0"
     inkscape:zoom="10.152816"
     inkscape:cx="22.775424"
     inkscape:cy="23.411017"
     inkscape:window-x="310"
     inkscape:window-y="76"
     inkscape:window-maximized="0"
     inkscape:current-layer="Layer_1" />
  <title
     id="title2">Amazon-VPC_Elastic-Network-Interface_light-bg</title>
  <rect
     id="rect4515"
     width="47.427876"
     height="47.669491"
     x="-0.18211469"
     y="-0.45762706"
     style="fill:#693cc5;fill-opacity:1;stroke-width:1.00417948" />
  <path
     d="M 23.5,47 A 23.5,23.5 0 1 1 47,23.5 23.52,23.52 0 0 1 23.5,47 Z m 0,-45 A 21.5,21.5 0 1 0 45,23.5 21.52,21.52 0 0 0 23.5,2 Z"
     style="fill:#ffffff;fill-opacity:1"
     id="path4"
     inkscape:connector-curvature="0" />
  <path
     d="M 12.25,35.75 H 8.87 v -2 h 2.38 V 15.12 H 8.87 v -2 h 3.38 a 1,1 0 0 1 1,1 v 20.63 a 1,1 0 0 1 -1,1 z"
     style="fill:#ffffff;fill-opacity:1"
     id="path6"
     inkscape:connector-curvature="0" />
  <path
     d="M 35.69,33.88 H 31 a 1,1 0 0 1 -1,-1 v -1.82 h -1.75 v 1.82 a 1,1 0 0 1 -1,1 h -9.38 a 1,1 0 0 1 -1,-1 V 31.06 H 16 a 1,1 0 0 1 -1,-1 V 16 a 1,1 0 0 1 1,-1 h 23.44 a 1,1 0 0 1 1,1 v 14.06 a 1,1 0 0 1 -1,1 h -2.75 v 1.82 a 1,1 0 0 1 -1,1 z m -3.69,-2 h 2.69 v -1.82 a 1,1 0 0 1 1,-1 h 2.75 V 17 H 17 v 12.06 h 0.87 a 1,1 0 0 1 1,1 v 1.82 h 7.38 v -1.82 a 1,1 0 0 1 1,-1 H 31 a 1,1 0 0 1 1,1 z"
     style="fill:#ffffff;fill-opacity:1"
     id="path8"
     inkscape:connector-curvature="0" />
  <path
     d="M 33.81,27.31 H 20.69 a 1,1 0 0 1 -1,-1 v -6.56 a 1,1 0 0 1 1,-1 h 13.12 a 1,1 0 0 1 1,1 v 6.56 a 1,1 0 0 1 -1,1 z m -12.12,-2 H 32.81 V 20.75 H 21.69 Z"
     style="fill:#ffffff;fill-opacity:1"
     id="path10"
     inkscape:connector-curvature="0" />
  <rect
     x="26.25"
     y="19.75"
     width="2"
     height="6.5599999"
     style="fill:#ffffff;fill-opacity:1"
     id="rect12" />
</svg>
