<svg id="Layer_1" data-name="Layer 1" xmlns="http://www.w3.org/2000/svg" width="100" height="100" viewBox="0 0 100 100">
  <title>Database</title>
  <g>
    <path d="M71.82,29.66c0,3-9.77,5.5-21.82,5.5s-21.82-2.46-21.82-5.5V27.18l21.82-3,21.82,3Z" fill="#19486f"/>
    <path d="M50,39.56,28.18,70.34v2.48c0,3,9.77,5.5,21.82,5.5s21.82-2.46,21.82-5.5V70.34Z" fill="#19486f"/>
    <ellipse cx="50" cy="27.18" rx="21.82" ry="5.5" fill="#2e73b8"/>
    <path d="M50,37.08c-12.05,0-21.82-2.46-21.82-5.5V70.34c0,3,9.77,5.5,21.82,5.5s21.82-2.46,21.82-5.5V31.58C71.82,34.62,62.05,37.08,50,37.08Z" fill="#2e73b8"/>
    <path d="M45.1,60.92c.16,3.31,2.21,4.37,5.32,4.37,2.2,0,4.49-.79,4.49-2.87,0-2.48-4-3-8.07-4.09s-8.23-3-8.23-8.11c0-6.14,6.18-8.54,11.46-8.54,5.59,0,11.22,2.72,11.26,9.05H54c.12-2.56-2.28-3.39-4.53-3.39-1.57,0-3.54.55-3.54,2.4,0,2.17,4.05,2.56,8.15,3.7s8.15,3,8.15,8.11C62.23,68.67,56.16,71,50,71c-6.46,0-12.16-2.83-12.2-10Z" fill="#fff"/>
  </g>
</svg>
