<svg id="Layer_1" data-name="Layer 1" xmlns="http://www.w3.org/2000/svg" width="100" height="100" viewBox="0 0 100 100">
  <title>Database</title>
  <g>
    <rect x="23.5" y="24.74" width="53" height="53" rx="9.12" ry="9.12" fill="#19486f"/>
    <rect x="23.5" y="22.26" width="53" height="53" rx="9.12" ry="9.12" fill="#2e73b8"/>
    <g>
      <path d="M29.78,28.08h3.1l1.48,7.31h0l1.49-7.31H39V38.43H37.05V30.17h0l-1.84,8.26H33.56l-1.84-8.26h0v8.26H29.78Z" fill="#fff"/>
      <path d="M41.77,35.2v.3c0,1,.28,1.59,1.38,1.59a1.19,1.19,0,0,0,1.25-1.28c0-.94-.48-1.29-1.86-1.77-1.86-.64-2.71-1.41-2.71-3.13,0-2,1.23-3,3.2-3s3.2.8,3.2,2.78V31h-2c0-1-.33-1.54-1.13-1.54a1.07,1.07,0,0,0-1.19,1.2c0,.64.19,1,1.07,1.41l1.61.7c1.57.68,2,1.48,2,2.74,0,2.19-1.33,3.17-3.59,3.17s-3.29-1.1-3.29-3V35.2Z" fill="#fff"/>
      <path d="M52,35.2v.3c0,1,.28,1.59,1.38,1.59a1.19,1.19,0,0,0,1.25-1.28c0-.94-.48-1.29-1.86-1.77-1.86-.64-2.71-1.41-2.71-3.13,0-2,1.23-3,3.2-3s3.2.8,3.2,2.78V31h-2c0-1-.33-1.54-1.13-1.54a1.07,1.07,0,0,0-1.19,1.2c0,.64.19,1,1.07,1.41l1.61.7c1.57.68,2,1.48,2,2.74,0,2.19-1.33,3.17-3.59,3.17s-3.29-1.1-3.29-3V35.2Z" fill="#fff"/>
      <path d="M63.5,39.71l-1.23-1.28a2.72,2.72,0,0,1-.64.16,5.58,5.58,0,0,1-.74,0c-3.13,0-3.52-2.23-3.52-5.38s.39-5.38,3.52-5.38,3.52,2.23,3.52,5.38a7.57,7.57,0,0,1-.8,4.2l1.12,1.13ZM60.89,37.1c1.23,0,1.43-1.06,1.43-3.84s-.2-3.84-1.43-3.84-1.44,1.07-1.44,3.84S59.66,37.1,60.89,37.1Z" fill="#fff"/>
      <path d="M65.32,38.43V28.08h2.09v8.64h3.7v1.71Z" fill="#fff"/>
    </g>
  </g>
</svg>
