<svg id="Layer_1" data-name="Layer 1" xmlns="http://www.w3.org/2000/svg" width="100" height="100" viewBox="0 0 100 100">
  <title>Database</title>
  <g>
    <path d="M71.82,29.66c0,3-9.77,5.5-21.82,5.5s-21.82-2.46-21.82-5.5V27.18l21.82-3,21.82,3Z" fill="#19486f"/>
    <path d="M50,39.56,28.18,70.34v2.48c0,3,9.77,5.5,21.82,5.5s21.82-2.46,21.82-5.5V70.34Z" fill="#19486f"/>
    <ellipse cx="50" cy="27.18" rx="21.82" ry="5.5" fill="#2e73b8"/>
    <path d="M50,37.08c-12.05,0-21.82-2.46-21.82-5.5V70.34c0,3,9.77,5.5,21.82,5.5s21.82-2.46,21.82-5.5V31.58C71.82,34.62,62.05,37.08,50,37.08Z" fill="#2e73b8"/>
    <path d="M36.05,44.05h9.6L50,60.73H50l4.31-16.68H64v25H57.82v-19h-.07l-5.26,19h-5l-5.26-19h-.07v19H36.05Z" fill="#fff"/>
  </g>
</svg>
