<svg id="Layer_1" data-name="Layer 1" xmlns="http://www.w3.org/2000/svg" width="100" height="100" viewBox="0 0 100 100">
  <title>Database</title>
  <g>
    <polygon points="82 29.91 74 21.12 62.72 50 74 78.86 82 70.09 82 29.91" fill="#2e73b8"/>
    <polygon points="60 86 74 78.86 74 21.12 60 14 43.38 50 60 86" fill="#5294cf"/>
    <polygon points="40 86 60 86 60 14 40 14 28 50 40 86" fill="#2e73b8"/>
    <polygon points="26 78.85 40 86 40 14 26 21.12 19.81 50 26 78.85" fill="#205b99"/>
    <polygon points="18 70.09 26 78.85 26 21.12 18 29.91 18 70.09" fill="#19486f"/>
  </g>
</svg>
