<svg id="Layer_1" data-name="Layer 1" xmlns="http://www.w3.org/2000/svg" width="100" height="100" viewBox="0 0 100 100">
  <title>Database</title>
  <g>
    <polygon points="78.47 23.02 84.17 25.77 84.17 74.08 78.47 76.84 69.45 50 78.47 23.02" fill="#5294cf"/>
    <polygon points="21.53 23.02 15.84 25.77 15.84 74.08 21.53 76.84 35.77 50 21.53 23.02" fill="#205b99"/>
    <polygon points="50 69.89 78.47 76.82 78.47 23.02 50 29.95 50 69.89" fill="#205b99"/>
    <polygon points="50 69.89 21.53 76.82 21.53 23.02 50 29.95 50 69.89" fill="#5294cf"/>
    <polygon points="56.83 87.58 67.72 82.15 67.72 17.85 56.83 12.42 46.02 48.16 56.83 87.58" fill="#5294cf"/>
    <polygon points="43.17 87.58 32.29 82.15 32.29 17.85 43.17 12.42 52.85 50 43.17 87.58" fill="#205b99"/>
    <rect x="43.17" y="12.42" width="13.67" height="75.16" fill="#2e73b8"/>
  </g>
</svg>
