<svg id="Layer_1" data-name="Layer 1" xmlns="http://www.w3.org/2000/svg" width="100" height="100" viewBox="0 0 100 100">
  <title>Database</title>
  <g>
    <path d="M71.82,29.66c0,3-9.77,5.5-21.82,5.5s-21.82-2.46-21.82-5.5V27.18l21.82-3,21.82,3Z" fill="#19486f"/>
    <path d="M50,39.56,28.18,70.34v2.48c0,3,9.77,5.5,21.82,5.5s21.82-2.46,21.82-5.5V70.34Z" fill="#19486f"/>
    <ellipse cx="50" cy="27.18" rx="21.82" ry="5.5" fill="#2e73b8"/>
    <path d="M50,37.08c-12.05,0-21.82-2.46-21.82-5.5V70.34c0,3,9.77,5.5,21.82,5.5s21.82-2.46,21.82-5.5V31.58C71.82,34.62,62.05,37.08,50,37.08Z" fill="#2e73b8"/>
    <path d="M39.52,44.23H52.36c4.45,0,8.82,2,8.82,7.09a6.48,6.48,0,0,1-4,6.32v.07c2.68.64,3.46,3.64,3.67,6,.07,1.06.18,4.76,1.06,5.68H55.47c-.57-.85-.67-3.32-.74-4-.18-2.54-.6-5.15-3.67-5.15h-5v9.18H39.52Zm6.56,10.94h5.51a2.7,2.7,0,0,0,3-3c0-1.87-1.48-2.72-3.32-2.72H46.08Z" fill="#fff"/>
  </g>
</svg>
