<svg id="Layer_1" data-name="Layer 1" xmlns="http://www.w3.org/2000/svg" width="100" height="100" viewBox="0 0 100 100">
  <title>AI_GRAYSCALE</title>
  <g>
    <polygon points="64.93 59.11 73.28 59.91 84.57 58.02 84.57 45.95 73.28 45.01 64.93 45.4 64.93 59.11" fill="#4e4e4e"/>
    <polygon points="84.57 38.07 50.56 41.55 16.55 38.07 50.56 9 84.57 38.07" fill="#373737"/>
    <polygon points="67.56 62 78.81 76.78 84.57 61.93 73.88 60.83 67.56 62" fill="#d3d3d3"/>
    <polygon points="67.56 62 78.99 63.39 78.99 76.78 67.56 74.01 67.56 62" fill="#4e4e4e"/>
    <polygon points="55.32 64.13 67.66 82.5 75.59 64.17 63.71 62.59 55.32 64.13" fill="#d3d3d3"/>
    <polygon points="55.32 64.13 67.56 66.13 67.56 82.5 55.32 78.48 55.32 64.13" fill="#4e4e4e"/>
    <polygon points="84.57 38.07 50.56 29.59 50.56 9 84.57 26 84.57 38.07" fill="#989898"/>
    <polygon points="33.55 62 22.3 76.78 16.55 61.93 27.23 60.83 33.55 62" fill="#d3d3d3"/>
    <polygon points="33.55 62 22.12 63.39 22.12 76.78 33.55 74.01 33.55 62" fill="#989898"/>
    <polygon points="45.8 64.13 33.46 82.5 25.53 64.17 37.41 62.59 45.8 64.13" fill="#d3d3d3"/>
    <polygon points="45.8 64.13 33.55 66.13 33.55 82.5 45.8 78.48 45.8 64.13" fill="#989898"/>
    <polygon points="62.93 67.32 50.56 65.04 38.19 67.32 50.56 91 62.93 67.32" fill="#d3d3d3"/>
    <polygon points="62.93 67.32 50.56 70.4 50.56 91 62.93 84.81 62.93 67.32" fill="#989898"/>
    <polygon points="22.12 63.32 16.55 61.93 16.55 74 22.12 76.78 22.12 63.32" fill="#4e4e4e"/>
    <polygon points="25.53 64.17 33.55 66.17 33.55 82.5 25.53 78.48 25.53 64.17" fill="#4e4e4e"/>
    <polygon points="78.99 63.32 84.57 61.93 84.57 74 78.99 76.78 78.99 63.32" fill="#989898"/>
    <polygon points="75.59 64.17 67.56 66.17 67.56 82.5 75.59 78.48 75.59 64.17" fill="#989898"/>
    <polygon points="16.55 38.07 50.56 29.59 50.56 9 16.55 26 16.55 38.07" fill="#4e4e4e"/>
    <polygon points="38.19 67.32 50.56 70.4 50.56 91 38.19 84.81 38.19 67.32" fill="#4e4e4e"/>
    <polygon points="84.57 45.95 73.28 45.01 73.28 59.92 84.57 58.02 84.57 45.95" fill="#989898"/>
    <polygon points="16.55 45.95 27.84 45.01 36.19 45.4 36.19 59.11 27.84 59.92 16.55 58.02 16.55 45.95" fill="#4e4e4e"/>
    <polygon points="36.19 59.11 27.84 59.91 27.84 45.01 36.19 45.4 36.19 59.11" fill="#989898"/>
    <polygon points="33.55 44.55 50.56 43.15 67.56 44.55 67.56 60.88 50.56 63.73 33.55 60.88 33.55 44.55" fill="#4e4e4e"/>
    <polygon points="67.56 44.55 50.56 43.15 50.56 63.73 67.56 60.88 67.56 44.55" fill="#989898"/>
  </g>
</svg>
