<svg id="Layer_1" data-name="Layer 1" xmlns="http://www.w3.org/2000/svg" width="100" height="100" viewBox="0 0 100 100">
  <title>AI_GRAYSCALE</title>
  <g>
    <polygon points="50 9 15.83 26.08 15.83 73.92 50 91 84.17 73.92 84.17 26.08 50 9" fill="#4e4e4e"/>
    <polygon points="50 9 50 91 84.17 73.92 84.17 26.08 50 9" fill="#989898"/>
    <polygon points="18.52 30.34 20.96 33.49 30.99 32.51 44.01 28.89 44.01 20.43 18.52 30.34" fill="#373737"/>
    <polygon points="44.01 33.15 44.01 41.31 21.2 43.02 18.52 38.8 44.01 33.15" fill="#373737"/>
    <polygon points="44.01 45.77 44.01 47.82 34.67 51.14 18.52 47.19 44.01 45.77" fill="#373737"/>
    <polygon points="55.96 31.71 55.96 20.43 81.65 30.46 77.71 39.13 73.65 35.96 55.96 31.71" fill="#373737"/>
    <polygon points="59.99 39.69 59.99 46.94 62.61 47.05 67.84 50.03 70.92 41.29 59.99 39.69" fill="#373737"/>
    <polygon points="18.52 35.97 18.52 30.34 30.99 32.51 18.52 35.97" fill="#989898"/>
    <polygon points="18.52 44.44 44.01 41.62 44.01 41.31 18.52 38.8 18.52 44.44" fill="#989898"/>
    <polygon points="18.52 52.81 41.17 53.33 44.01 52.18 44.01 47.82 18.52 47.19 18.52 52.81" fill="#989898"/>
    <polygon points="44.01 58.71 44.01 58.44 18.52 55.61 18.52 61.23 40.18 63.67 44.01 58.71" fill="#989898"/>
    <polygon points="30.97 67.5 18.51 64.18 18.52 69.65 30.02 71.78 30.97 67.5" fill="#989898"/>
    <polygon points="44.01 54.23 44.01 52.18 18.52 52.81 44.01 54.23" fill="#d3d3d3"/>
    <polygon points="44.01 66.9 44.01 58.71 18.52 61.23 44.01 66.9" fill="#d3d3d3"/>
    <polygon points="36.37 69 30.97 67.5 18.52 69.65 36.37 76.6 36.37 69" fill="#d3d3d3"/>
    <polygon points="81.65 30.46 73.65 35.96 73.65 64 72.29 68.68 81.63 69.58 81.65 30.46" fill="#4e4e4e"/>
    <polygon points="70.92 41.29 62.61 47.05 62.61 52.95 62.61 57.33 70.92 58.85 70.92 41.29" fill="#4e4e4e"/>
    <polygon points="62.61 52.95 59.99 53.09 59.99 60.43 70.92 58.85 62.61 52.95" fill="#d3d3d3"/>
    <polygon points="55.96 79.56 81.63 69.58 73.65 64 55.96 68.4 55.96 79.56" fill="#d3d3d3"/>
  </g>
</svg>
