<svg id="Layer_1" data-name="Layer 1" xmlns="http://www.w3.org/2000/svg" width="100" height="100" viewBox="0 0 100 100">
  <title>ManagementTools</title>
  <g>
    <polygon points="70.78 40.43 79.77 27.96 83.97 40.43 75.34 41.15 70.78 40.43" fill="#3c4929"/>
    <polygon points="70.09 59.57 79.82 63.13 83.97 59.57 74.92 58.82 70.09 59.57" fill="#b7ca9d"/>
    <polygon points="58.2 61.36 67.8 63.28 75.58 61.36 65.38 60.27 58.2 61.36" fill="#b7ca9d"/>
    <polygon points="64.39 39.46 74.43 38.37 74.43 61.49 64.39 60.29 64.39 39.46" fill="#4b612c"/>
    <polygon points="59.2 38.32 69.47 36.98 76.07 38.32 66.14 39.4 59.2 38.32" fill="#3c4929"/>
    <polygon points="79.63 34.29 74.43 32.73 74.43 67.27 79.63 65.71 79.63 34.29" fill="#759c3e"/>
    <polygon points="29.21 40.43 22.63 33.1 16.04 40.43 24.66 41.15 29.21 40.43" fill="#3c4929"/>
    <polygon points="29.91 59.57 20.48 66.16 16.04 59.57 25.08 58.82 29.91 59.57" fill="#b7ca9d"/>
    <polygon points="41.8 61.36 32.6 64.85 24.43 61.36 34.62 60.27 41.8 61.36" fill="#b7ca9d"/>
    <polygon points="35.61 39.46 24.02 38.37 25.57 61.5 35.61 60.29 35.61 39.46" fill="#759c3e"/>
    <polygon points="40.9 38.37 30.63 37.03 24.02 38.37 33.95 39.45 40.9 38.37" fill="#3c4929"/>
    <polygon points="50.06 70.75 37.32 68.24 37.86 31.12 50.06 31.47 50.06 70.75" fill="#759c3e"/>
    <polygon points="31.92 69.18 39.84 71.55 39.84 28.45 31.92 30.82 31.92 69.18" fill="#4b612c"/>
    <polygon points="50 67.07 61.78 66.33 61.41 34.7 50 35.4 50 67.07" fill="#4b612c"/>
    <polygon points="20.37 34.29 25.57 32.73 25.57 67.27 20.37 65.71 20.37 34.29" fill="#4b612c"/>
    <polygon points="50 9 16.04 25.98 16.04 40.43 50 33.54 50 9" fill="#4b612c"/>
    <polygon points="60.16 35.6 50 37.17 39.84 35.6 50 33.54 60.16 35.6" fill="#3c4929"/>
    <polygon points="60.24 64.38 50 62.67 39.84 64.4 50 91 60.24 64.38" fill="#b7ca9d"/>
    <polygon points="16.04 59.57 50 66.46 50 91 16.04 74.02 16.04 59.57" fill="#4b612c"/>
    <polygon points="83.97 59.57 50 66.46 50 91 83.97 74.02 83.97 59.57" fill="#759c3e"/>
    <polygon points="68.16 69.18 60.24 71.55 60.24 28.45 68.16 30.82 68.16 69.18" fill="#759c3e"/>
    <polygon points="50 9 83.97 25.98 83.97 40.43 50 33.54 50 9" fill="#759c3e"/>
  </g>
</svg>
