<svg id="Layer_1" data-name="Layer 1" xmlns="http://www.w3.org/2000/svg" width="100" height="100" viewBox="0 0 100 100">
  <title>ManagementTools</title>
  <g>
    <polygon points="16.06 45.22 22.89 44.5 31.4 53.32 22.89 60.82 16.06 59.45 16.06 45.22" fill="#4b612c"/>
    <polygon points="64.35 36.45 50 38.38 35.65 36.45 50 9 64.35 36.45" fill="#3c4929"/>
    <polygon points="67.99 59.91 77.11 60.82 82.46 52.66 77.11 44.5 67.99 44.88 67.99 59.91" fill="#4b612c"/>
    <polygon points="64.35 36.45 50 33.49 50 9 64.35 16.18 64.35 36.45" fill="#759c3e"/>
    <polygon points="83.94 45.22 77.11 44.5 77.11 60.82 83.94 59.45 83.94 45.22" fill="#759c3e"/>
    <polygon points="32.01 59.91 22.89 60.82 22.89 44.5 32.01 44.88 32.01 59.91" fill="#759c3e"/>
    <polygon points="35.65 36.45 50 33.49 50 9 35.65 16.18 35.65 36.45" fill="#4b612c"/>
    <polygon points="28.48 80.29 50 91 69.08 65.56 50 41.69 28.48 43.92 28.48 80.29" fill="#4b612c"/>
    <polygon points="71.53 80.29 50 91 50 41.69 71.53 43.92 71.53 80.29" fill="#759c3e"/>
  </g>
</svg>
