<svg id="Layer_1" data-name="Layer 1" xmlns="http://www.w3.org/2000/svg" width="100" height="100" viewBox="0 0 100 100">
  <title>ManagementTools</title>
  <g>
    <polygon points="25.71 45.38 23.49 45.56 16.04 45.26 18.1 34.97 25.71 45.38" fill="#3c4929"/>
    <polygon points="25.71 54.95 23.49 54.77 16.04 55.07 18.1 65.36 25.71 54.95" fill="#b7ca9d"/>
    <polygon points="18.1 55.27 16.04 55.07 16.04 64.74 18.1 65.36 18.1 55.27" fill="#4b612c"/>
    <polygon points="25.71 64.37 18.1 65.36 18.1 55.28 25.71 54.95 25.71 64.37" fill="#759c3e"/>
    <polygon points="39.66 55.74 33.54 55.27 22.84 55.81 28.57 74.22 39.66 55.74" fill="#b7ca9d"/>
    <polygon points="18.1 45.05 16.04 45.26 16.04 35.59 18.1 34.97 18.1 45.05" fill="#4b612c"/>
    <polygon points="25.71 35.96 18.1 34.97 18.1 45.04 25.71 45.38 25.71 35.96" fill="#759c3e"/>
    <polygon points="39.66 44.59 33.54 45.05 22.84 44.52 28.57 26.14 39.66 44.59" fill="#3c4929"/>
    <polygon points="22.84 28.09 28.57 26.14 28.57 43.94 22.84 44.52 22.84 28.09" fill="#4b612c"/>
    <polygon points="39.66 28.55 28.57 26.14 28.57 43.94 39.66 44.59 39.66 28.55" fill="#759c3e"/>
    <polygon points="22.84 72.1 28.57 74.22 28.57 56.39 22.84 55.81 22.84 72.1" fill="#4b612c"/>
    <polygon points="39.66 71.93 28.57 74.22 28.57 56.39 39.66 55.74 39.66 71.93" fill="#759c3e"/>
    <polygon points="35.64 83.82 49.99 91 83.62 50 49.99 9 35.64 16.18 35.64 83.82" fill="#4b612c"/>
    <polygon points="83.96 74.02 49.99 91 49.99 9 83.96 25.98 83.96 74.02" fill="#759c3e"/>
  </g>
</svg>
