<svg id="Layer_1" data-name="Layer 1" xmlns="http://www.w3.org/2000/svg" width="100" height="100" viewBox="0 0 100 100">
  <title>ManagementTools</title>
  <g>
    <polygon points="40.21 56.33 40.21 53.21 48.39 53.21 48.39 50.56 61.38 50.56 61.38 21.52 23.32 21.52 23.32 63.92 48.39 63.92 48.39 56.33 40.21 56.33" fill="#4b612c"/>
    <path d="M65.14,52.56H50.39V67.31L67.93,84.85,82.68,70.1V67.62Zm-9.91,9a2.92,2.92,0,1,1,4.14,0A2.92,2.92,0,0,1,55.23,61.53Z" fill="#4b612c"/>
    <polygon points="40.21 53.85 40.21 50.73 48.39 50.73 48.39 48.08 61.38 48.08 61.38 19.04 23.32 19.04 23.32 61.44 48.39 61.44 48.39 53.85 40.21 53.85" fill="#759c3e"/>
    <rect x="40.21" y="26.6" width="16.83" height="3.12" fill="#fff"/>
    <rect x="40.21" y="38.66" width="16.83" height="3.12" fill="#fff"/>
    <rect x="28.66" y="25.3" width="2.85" height="5.72" transform="translate(-11.1 29.52) rotate(-45)" fill="#fff"/>
    <rect x="28.78" y="25.57" width="9.17" height="2.79" transform="translate(-9.3 31.49) rotate(-45)" fill="#fff"/>
    <rect x="28.78" y="37.46" width="9.17" height="2.79" transform="translate(-17.7 34.97) rotate(-45)" fill="#fff"/>
    <rect x="28.78" y="49.35" width="9.17" height="2.79" transform="translate(-26.11 38.45) rotate(-45)" fill="#fff"/>
    <rect x="28.66" y="37.19" width="2.85" height="5.72" transform="translate(-19.51 33) rotate(-45)" fill="#fff"/>
    <rect x="28.66" y="49.08" width="2.85" height="5.72" transform="translate(-27.91 36.49) rotate(-45)" fill="#fff"/>
    <path d="M65.14,50.08H50.39V64.83L67.93,82.37,82.68,67.62Zm-9.91,9a2.92,2.92,0,1,1,4.14,0A2.92,2.92,0,0,1,55.23,59.05Z" fill="#759c3e"/>
    <rect x="40.21" y="50.73" width="8.18" height="3.12" fill="#fff"/>
  </g>
</svg>
