<svg id="Layer_1" data-name="Layer 1" xmlns="http://www.w3.org/2000/svg" width="100" height="100" viewBox="0 0 100 100">
  <title>ManagementTools</title>
  <g>
    <rect x="27.72" y="42.83" width="10.71" height="26.44" fill="#4b612c"/>
    <rect x="44.65" y="47.98" width="10.71" height="21.29" fill="#4b612c"/>
    <rect x="47.17" y="52.07" width="5.66" height="48.45" transform="translate(126.29 26.29) rotate(90)" fill="#4b612c"/>
    <path d="M61.57,39.65V69.27H72.28V39.65a11.2,11.2,0,0,1-10.71,0Z" fill="#4b612c"/>
    <rect x="27.72" y="40.35" width="10.71" height="26.44" fill="#759c3e"/>
    <rect x="44.65" y="45.5" width="10.71" height="21.29" fill="#759c3e"/>
    <rect x="47.17" y="49.59" width="5.66" height="48.45" transform="translate(123.81 23.81) rotate(90)" fill="#759c3e"/>
    <path d="M61.57,37.17V66.79H72.28V37.17a11.2,11.2,0,0,1-10.71,0Z" fill="#759c3e"/>
    <path d="M73.38,29.82a6.46,6.46,0,0,1-12.93,0V27.34l6.46-4,6.46,4Z" fill="#8d090a"/>
    <circle cx="66.92" cy="27.34" r="6.46" fill="#ea2227"/>
  </g>
</svg>
