<svg id="Layer_1" data-name="Layer 1" xmlns="http://www.w3.org/2000/svg" width="100" height="100" viewBox="0 0 100 100">
  <title>ManagementTools</title>
  <g>
    <g style="isolation: isolate">
      <rect x="25.58" y="32.42" width="48.83" height="46.07" fill="#4b612c"/>
    </g>
    <path d="M25.59,21.62V76H74.42V21.62Z" fill="#759c3e"/>
    <g>
      <rect x="30.72" y="27" width="9.88" height="9.88" fill="#fff"/>
      <polygon points="69.31 36.59 58.47 36.59 63.89 27.3 69.31 36.59" fill="#fff"/>
      <polygon points="54.19 31.94 51.61 29.37 51.61 31.04 44.94 31.04 44.94 32.85 51.61 32.85 51.61 34.52 54.19 31.94" fill="#fff"/>
    </g>
    <g>
      <circle cx="35.66" cy="49.65" r="4.94" fill="#fff"/>
      <ellipse cx="63.92" cy="49.65" rx="6.95" ry="4.94" fill="#fff"/>
      <polygon points="54.19 49.65 51.61 47.08 51.61 48.75 44.94 48.75 44.94 50.56 51.61 50.56 51.61 52.23 54.19 49.65" fill="#fff"/>
    </g>
    <g>
      <circle cx="35.66" cy="67.36" r="4.94" fill="#fff"/>
      <polygon points="69.16 63.65 68 62.5 64.29 66.21 60.58 62.5 59.42 63.65 63.13 67.36 59.42 71.08 60.58 72.23 64.29 68.52 68 72.23 69.16 71.08 65.44 67.36 69.16 63.65" fill="#fff"/>
      <polygon points="54.19 67.36 51.61 64.79 51.61 66.46 44.94 66.46 44.94 68.27 51.61 68.27 51.61 69.94 54.19 67.36" fill="#fff"/>
    </g>
  </g>
</svg>
