<svg id="Layer_1" data-name="Layer 1" xmlns="http://www.w3.org/2000/svg" width="100" height="100" viewBox="0 0 100 100">
  <title>ManagementTools</title>
  <g>
    <polygon points="40.83 39.13 25.59 39.13 25.59 55.78 40.83 55.78 48.33 62.78 74.42 62.78 74.42 46.13 48.33 46.13 40.83 39.13" fill="#4b612c"/>
    <polygon points="48.33 64.78 40.83 57.78 25.59 57.78 25.59 72.9 25.59 79.02 25.59 81.85 74.42 81.85 74.42 79.02 74.42 72.9 74.42 64.78 48.33 64.78" fill="#4b612c"/>
    <polygon points="48.33 27.63 40.83 20.63 25.59 20.63 25.59 37.13 40.83 37.13 48.33 44.13 74.42 44.13 74.42 27.63 48.33 27.63" fill="#4b612c"/>
    <polygon points="40.83 36.65 25.59 36.65 25.59 53.3 40.83 53.3 48.33 60.3 74.42 60.3 74.42 43.65 48.33 43.65 40.83 36.65" fill="#759c3e"/>
    <polygon points="48.33 62.3 40.83 55.3 25.59 55.3 25.59 70.42 25.59 76.54 25.59 79.37 74.42 79.37 74.42 76.54 74.42 70.42 74.42 62.3 48.33 62.3" fill="#759c3e"/>
    <rect x="61.27" y="68.28" width="3.65" height="7.34" transform="translate(-32.4 65.69) rotate(-45)" fill="#fff"/>
    <rect x="61.42" y="68.63" width="11.76" height="3.58" transform="translate(-30.08 68.21) rotate(-45)" fill="#fff"/>
    <rect x="61.27" y="49.63" width="3.65" height="7.34" transform="translate(-19.21 60.23) rotate(-45)" fill="#fff"/>
    <rect x="61.42" y="49.98" width="11.76" height="3.58" transform="translate(-16.89 62.75) rotate(-45)" fill="#fff"/>
    <polygon points="48.33 25.15 40.83 18.15 25.59 18.15 25.59 34.65 40.83 34.65 48.33 41.65 74.42 41.65 74.42 25.15 48.33 25.15" fill="#759c3e"/>
    <rect x="60.09" y="31.25" width="11.76" height="3.58" transform="translate(-4.04 56.32) rotate(-45)" fill="#fff"/>
    <rect x="64.18" y="27.15" width="3.58" height="11.76" transform="translate(-4.04 56.32) rotate(-45)" fill="#fff"/>
  </g>
</svg>
