<svg id="Layer_1" data-name="Layer 1" xmlns="http://www.w3.org/2000/svg" width="100" height="100" viewBox="0 0 100 100">
  <title>ManagementTools</title>
  <g>
    <path d="M50.61,55.69a10.59,10.59,0,0,1,9.09-5.17c.16,0,.32,0,.48,0h1.2v-29H23.32v42.4H49.1V61.13A10.54,10.54,0,0,1,50.61,55.69Z" fill="#4b612c"/>
    <path d="M50.61,53.21A10.59,10.59,0,0,1,59.7,48c.16,0,.32,0,.48,0h1.2V19H23.32v42.4H49.1V58.65A10.54,10.54,0,0,1,50.61,53.21Z" fill="#759c3e"/>
    <rect x="40.21" y="26.6" width="16.83" height="3.12" fill="#fff"/>
    <rect x="40.21" y="38.66" width="16.83" height="3.12" fill="#fff"/>
    <rect x="28.66" y="25.3" width="2.85" height="5.72" transform="translate(-11.1 29.52) rotate(-45)" fill="#fff"/>
    <rect x="28.78" y="25.57" width="9.17" height="2.79" transform="translate(-9.3 31.49) rotate(-45)" fill="#fff"/>
    <rect x="28.78" y="37.46" width="9.17" height="2.79" transform="translate(-17.7 34.97) rotate(-45)" fill="#fff"/>
    <rect x="28.78" y="49.35" width="9.17" height="2.79" transform="translate(-26.11 38.45) rotate(-45)" fill="#fff"/>
    <rect x="28.66" y="37.19" width="2.85" height="5.72" transform="translate(-19.51 33) rotate(-45)" fill="#fff"/>
    <rect x="28.66" y="49.08" width="2.85" height="5.72" transform="translate(-27.91 36.49) rotate(-45)" fill="#fff"/>
    <path d="M40.21,53.85H50.28c.11-.21.21-.43.33-.64a10.68,10.68,0,0,1,2.08-2.48H40.21Z" fill="#fff"/>
    <path d="M67.82,66.32V60.18a8.16,8.16,0,0,0-16.2,0v6.14H47.42V79.94H71.89V66.32Zm-4,0H55.52l0-6.14a3.81,3.81,0,0,1,4.17-3.75,4,4,0,0,1,4.17,3.75Z" fill="#4b612c"/>
    <path d="M67.82,63.84V57.7a8.16,8.16,0,0,0-16.2,0v6.14H47.42V77.46H71.89V63.84Zm-4,0H55.52l0-6.14A3.81,3.81,0,0,1,59.72,54a4,4,0,0,1,4.17,3.75Z" fill="#759c3e"/>
  </g>
</svg>
