<svg id="Layer_1" data-name="Layer 1" xmlns="http://www.w3.org/2000/svg" width="100" height="100" viewBox="0 0 100 100">
  <title>ManagementTools</title>
  <g>
    <rect x="27.7" y="50.04" width="10.71" height="26.44" fill="#4b612c"/>
    <rect x="44.62" y="55.19" width="10.71" height="21.29" fill="#4b612c"/>
    <rect x="47.14" y="59.28" width="5.66" height="48.45" transform="translate(133.48 33.53) rotate(90)" fill="#4b612c"/>
    <path d="M61.54,46.86V76.48H72.25V46.86a11.2,11.2,0,0,1-10.71,0Z" fill="#4b612c"/>
    <rect x="27.7" y="47.56" width="10.71" height="26.44" fill="#759c3e"/>
    <rect x="44.62" y="52.71" width="10.71" height="21.29" fill="#759c3e"/>
    <rect x="47.14" y="56.8" width="5.66" height="48.45" transform="translate(131 31.05) rotate(90)" fill="#759c3e"/>
    <rect x="61.54" y="41.67" width="10.71" height="32.34" fill="#759c3e"/>
    <rect x="55.76" y="16.56" width="22.28" height="22.28" rx="3" ry="3" fill="#4b612c"/>
    <rect x="55.76" y="14.04" width="22.28" height="22.28" rx="3" ry="3" fill="#759c3e"/>
  </g>
</svg>
