<svg id="Layer_1" data-name="Layer 1" xmlns="http://www.w3.org/2000/svg" width="100" height="100" viewBox="0 0 100 100">
  <title>ManagementTools</title>
  <g>
    <path d="M71.43,46.18V29A12.86,12.86,0,0,0,58.57,16.18H41.43A12.86,12.86,0,0,0,28.57,29V46.18H20V84.75H80V46.18Zm-8.57,0H37.14V32.47a7.72,7.72,0,0,1,7.72-7.72H55.14a7.72,7.72,0,0,1,7.72,7.72V46.18Z" fill="#4b612c"/>
    <path d="M71.43,43.7V26.55A12.86,12.86,0,0,0,58.57,13.7H41.43A12.86,12.86,0,0,0,28.57,26.55V43.7H20V82.27H80V43.7Zm-8.57,0H37.14V30a7.72,7.72,0,0,1,7.72-7.72H55.14A7.72,7.72,0,0,1,62.86,30V43.7Z" fill="#759c3e"/>
  </g>
</svg>
