<svg id="Layer_1" data-name="Layer 1" xmlns="http://www.w3.org/2000/svg" width="100" height="100" viewBox="0 0 100 100">
  <title>ManagementTools</title>
  <g>
    <polygon points="84.02 70.08 84.02 50.04 63.41 50.04 63.41 75.83 74.51 78.75 84.02 70.08" fill="#4b612c"/>
    <polygon points="50 66.72 74.33 71.67 74.33 21.16 50 27.77 26.28 43.82 50 66.72" fill="#4b612c"/>
    <polygon points="84.02 50.04 84.02 73.99 74.51 78.75 84.02 50.04" fill="#759c3e"/>
    <polygon points="15.98 70.08 15.98 50.04 36.59 50.04 36.59 75.83 25.49 78.75 15.98 70.08" fill="#759c3e"/>
    <polygon points="50 66.72 25.67 71.67 25.67 21.17 50 27.77 50 66.72" fill="#759c3e"/>
    <polygon points="50 50.04 62.16 19.64 50 9 32.06 17.97 50 50.04" fill="#4b612c"/>
    <polygon points="15.98 50.04 15.98 73.99 25.49 78.75 15.98 50.04" fill="#4b612c"/>
    <polygon points="50 50.04 50 9 67.94 17.97 50 50.04" fill="#759c3e"/>
    <polygon points="15.98 35.75 15.98 26.01 25.67 21.17 50 66.72 64.55 76.91 50 91 32 82 15.98 35.75" fill="#4b612c"/>
    <polygon points="84.02 35.75 84.02 26.01 74.33 21.16 50 66.72 50 91 68.01 82 84.02 35.75" fill="#759c3e"/>
  </g>
</svg>
