<svg id="Layer_1" data-name="Layer 1" xmlns="http://www.w3.org/2000/svg" width="100" height="100" viewBox="0 0 100 100">
  <title>ManagementTools</title>
  <g>
    <polygon points="43.55 50.56 61.38 50.56 61.38 21.52 23.32 21.52 23.32 63.92 43.55 63.92 43.55 50.56" fill="#4b612c"/>
    <rect x="45.67" y="52.68" width="32.18" height="32.18" fill="#4b612c"/>
    <polygon points="43.55 48.08 61.38 48.08 61.38 19.04 23.32 19.04 23.32 61.44 43.55 61.44 43.55 48.08" fill="#759c3e"/>
    <rect x="40.21" y="26.6" width="16.83" height="3.12" fill="#fff"/>
    <rect x="40.21" y="38.66" width="16.83" height="3.12" fill="#fff"/>
    <rect x="28.66" y="25.3" width="2.85" height="5.72" transform="translate(-11.1 29.52) rotate(-45)" fill="#fff"/>
    <rect x="28.78" y="25.57" width="9.17" height="2.79" transform="translate(-9.3 31.49) rotate(-45)" fill="#fff"/>
    <rect x="28.78" y="37.46" width="9.17" height="2.79" transform="translate(-17.7 34.97) rotate(-45)" fill="#fff"/>
    <rect x="28.78" y="49.35" width="9.17" height="2.79" transform="translate(-26.11 38.45) rotate(-45)" fill="#fff"/>
    <rect x="28.66" y="37.19" width="2.85" height="5.72" transform="translate(-19.51 33) rotate(-45)" fill="#fff"/>
    <rect x="28.66" y="49.08" width="2.85" height="5.72" transform="translate(-27.91 36.49) rotate(-45)" fill="#fff"/>
    <rect x="40.21" y="26.6" width="16.83" height="3.12" fill="#fff"/>
    <rect x="40.21" y="38.66" width="16.83" height="3.12" fill="#fff"/>
    <rect x="28.66" y="25.3" width="2.85" height="5.72" transform="translate(-11.1 29.52) rotate(-45)" fill="#fff"/>
    <rect x="28.78" y="25.57" width="9.17" height="2.79" transform="translate(-9.3 31.49) rotate(-45)" fill="#fff"/>
    <rect x="28.78" y="37.46" width="9.17" height="2.79" transform="translate(-17.7 34.97) rotate(-45)" fill="#fff"/>
    <rect x="28.78" y="49.35" width="9.17" height="2.79" transform="translate(-26.11 38.45) rotate(-45)" fill="#fff"/>
    <rect x="28.66" y="37.19" width="2.85" height="5.72" transform="translate(-19.51 33) rotate(-45)" fill="#fff"/>
    <rect x="28.66" y="49.08" width="2.85" height="5.72" transform="translate(-27.91 36.49) rotate(-45)" fill="#fff"/>
    <rect x="40.21" y="50.73" width="3.33" height="3.12" fill="#fff"/>
    <rect x="45.67" y="50.2" width="32.18" height="32.18" fill="#759c3e"/>
    <polygon points="51.14 69.01 49.02 66.89 57.05 58.85 62.36 64.16 71.91 54.61 74.03 56.73 62.36 68.41 57.05 63.1 51.14 69.01" fill="#fff"/>
    <polygon points="68.22 55.18 73.48 60.43 75.52 53.14 68.22 55.18" fill="#fff"/>
    <rect x="49.06" y="75.97" width="3.63" height="3.12" transform="translate(128.41 26.65) rotate(90)" fill="#fff"/>
    <rect x="52.77" y="72.34" width="10.89" height="3.12" transform="translate(132.11 15.68) rotate(90)" fill="#fff"/>
    <rect x="61.92" y="74.15" width="7.26" height="3.12" transform="translate(141.27 10.16) rotate(90)" fill="#fff"/>
    <rect x="65.63" y="70.52" width="14.52" height="3.12" transform="translate(144.97 -0.81) rotate(90)" fill="#fff"/>
  </g>
</svg>
