<svg id="Layer_1" data-name="Layer 1" xmlns="http://www.w3.org/2000/svg" width="100" height="100" viewBox="0 0 100 100">
  <title>DeveloperTools_GRAYSCALE</title>
  <g>
    <polygon points="49.33 60.65 15.36 64.87 24.9 79.25 60.21 62 49.33 60.65" fill="#d3d3d3"/>
    <polygon points="49.33 40.27 83.29 36.05 73.75 21.67 38.44 38.91 49.33 40.27" fill="#373737"/>
    <polygon points="38.44 38.91 73.75 33.19 73.75 21.67 38.44 31.22 38.44 38.91" fill="#4e4e4e"/>
    <polygon points="15.36 55.26 49.33 58.66 82.65 50.46 49.33 42.26 15.36 45.65 15.36 55.26" fill="#4e4e4e"/>
    <polygon points="83.29 55.26 49.33 58.66 49.33 42.26 83.29 45.65 83.29 55.26" fill="#989898"/>
    <polygon points="15.36 36.05 49.33 9.46 67.41 31.28 31.84 38.1 15.36 36.05" fill="#373737"/>
    <polygon points="15.36 26.44 49.33 9.46 49.33 25.86 15.36 36.05 15.36 26.44" fill="#4e4e4e"/>
    <polygon points="73.75 21.67 83.29 26.44 83.29 36.05 73.75 33.19 73.75 21.67" fill="#989898"/>
    <polygon points="60.21 62 24.9 67.73 24.9 79.25 60.21 69.69 60.21 62" fill="#989898"/>
    <polygon points="67.41 31.28 49.33 25.86 49.33 9.46 67.41 18.5 67.41 31.28" fill="#989898"/>
    <polygon points="83.29 64.87 49.33 91.46 31.25 69.63 66.81 62.82 83.29 64.87" fill="#d3d3d3"/>
    <polygon points="83.29 74.47 49.33 91.46 49.33 75.06 83.29 64.87 83.29 74.47" fill="#989898"/>
    <polygon points="31.25 69.63 49.33 75.06 49.33 91.46 31.25 82.42 31.25 69.63" fill="#4e4e4e"/>
    <polygon points="24.9 79.25 15.36 74.47 15.36 64.87 24.9 67.73 24.9 79.25" fill="#4e4e4e"/>
  </g>
</svg>
