<svg id="Layer_1" data-name="Layer 1" xmlns="http://www.w3.org/2000/svg" width="100" height="100" viewBox="0 0 100 100">
  <title>Compute</title>
  <g>
    <path d="M51,32.13a12.9,12.9,0,0,1-25.8,0V29.65L38,19.23,51,29.65Z" fill="#6b3a19"/>
    <path d="M48.65,51.78a.37.37,0,0,1-.3.1,2.36,2.36,0,0,1-1.4-1.2c-.2-.5.3-2.4.8-2.6.2-.1,16.8-6.1,25.6-20.3V25.3s-16.25,6.55-20.2,8.88v.9A12.82,12.82,0,0,1,44.85,47c-.4,1.9.2,3.9-.8,6.1v29.4h9V52.88c7-.6,14.4-2,17-4.7,2.9-2.9,4.1-11.4,4.7-17.3V28.4s-2.67,6.37-3,6.81A54.39,54.39,0,0,1,48.65,51.78Z" fill="#6b3a19"/>
    <circle cx="38.05" cy="29.65" r="12.9" fill="#f58536"/>
    <path d="M34.75,39.9h6.6V27.3H46l-8-7.9-8,7.9h4.7Zm-2.5-13.5L38,20.7l5.8,5.7h-3.4V39h-4.8V26.4Z" fill="#fff"/>
    <path d="M48.65,49.3a.37.37,0,0,1-.3.1A2.36,2.36,0,0,1,47,48.2c-.2-.5.3-2.4.8-2.6.2-.1,16.8-6.1,25.6-20.3-6,.8-15.1,3.4-20.2,6.4v.9a12.82,12.82,0,0,1-8.3,11.9c-.4,1.9.2,3.9-.8,6.1V80h9V50.4c7-.6,14.4-2,17-4.7,2.9-2.9,4.1-11.4,4.7-17.3C65.55,43.5,49.45,49,48.65,49.3Z" fill="#f58536"/>
  </g>
</svg>
