<svg id="Layer_1" data-name="Layer 1" xmlns="http://www.w3.org/2000/svg" width="100" height="100" viewBox="0 0 100 100">
  <title>Compute</title>
  <g>
    <rect x="23.5" y="37.61" width="53" height="27.25" fill="#9d5025"/>
    <rect x="23.5" y="35.13" width="53" height="27.25" fill="#f58536"/>
    <rect x="34.95" y="36.76" width="2.5" height="24" fill="#fbbf93"/>
    <rect x="39.55" y="36.76" width="2.5" height="24" fill="#fbbf93"/>
    <rect x="44.15" y="36.76" width="2.5" height="24" fill="#fbbf93"/>
    <rect x="25.75" y="36.76" width="2.5" height="24" fill="#fbbf93"/>
    <rect x="30.35" y="36.76" width="2.5" height="24" fill="#fbbf93"/>
    <rect x="48.75" y="36.76" width="2.5" height="24" fill="#fbbf93"/>
    <rect x="53.35" y="36.76" width="2.5" height="24" fill="#fbbf93"/>
    <rect x="57.95" y="36.76" width="2.5" height="24" fill="#fbbf93"/>
    <rect x="62.55" y="36.76" width="2.5" height="24" fill="#fbbf93"/>
    <rect x="67.15" y="36.76" width="2.5" height="24" fill="#fbbf93"/>
    <rect x="71.75" y="36.76" width="2.5" height="24" fill="#fbbf93"/>
    <rect x="26.4" y="37.41" width="1.85" height="23.35" fill="#fff"/>
    <rect x="31" y="37.41" width="1.85" height="23.35" fill="#fff"/>
    <rect x="35.6" y="37.41" width="1.85" height="23.35" fill="#fff"/>
    <rect x="40.2" y="37.41" width="1.85" height="23.35" fill="#fff"/>
    <rect x="44.8" y="37.41" width="1.85" height="23.35" fill="#fff"/>
    <rect x="49.4" y="37.41" width="1.85" height="23.35" fill="#fff"/>
    <rect x="54" y="37.41" width="1.85" height="23.35" fill="#fff"/>
    <rect x="58.6" y="37.41" width="1.85" height="23.35" fill="#fff"/>
    <rect x="63.2" y="37.41" width="1.85" height="23.35" fill="#fff"/>
    <rect x="67.8" y="37.41" width="1.85" height="23.35" fill="#fff"/>
    <rect x="72.4" y="37.41" width="1.85" height="23.35" fill="#fff"/>
  </g>
</svg>
