<svg id="Layer_1" data-name="Layer 1" xmlns="http://www.w3.org/2000/svg" width="100" height="100" viewBox="0 0 100 100">
  <title>Compute</title>
  <g>
    <circle cx="50" cy="51.25" r="30.43" fill="#9d5025"/>
    <circle cx="50" cy="48.75" r="30.43" fill="#f58536"/>
    <polygon points="79.03 48.85 68.23 42.62 68.23 46.35 52.5 46.35 52.5 30.62 56.23 30.62 50 19.83 43.77 30.62 47.5 30.62 47.5 46.35 31.77 46.35 31.77 42.62 20.97 48.85 31.77 55.09 31.77 51.35 47.5 51.35 47.5 67.08 43.77 67.08 50 77.88 56.23 67.08 52.5 67.08 52.5 51.35 68.23 51.35 68.23 55.09 79.03 48.85" fill="#fff"/>
    <g>
      <path d="M41.67,56.08c-3.09,0-5.4-2.34-5.4-4.43v-.47a5.31,5.31,0,0,1,3.44-4.63l.19-.05v-.32a6.9,6.9,0,0,1,13.18-2.87l.13.29.26-.18a3.36,3.36,0,0,1,5.26,2.65v.22l.23,0a5.43,5.43,0,0,1,4.78,4.87v.47c0,2.09-2.31,4.43-5.4,4.43Z" fill="#f58536"/>
      <path d="M46.78,40.26a5.91,5.91,0,0,1,5.38,3.46l.62,1.37L54,44.24a2.36,2.36,0,0,1,3.7,1.86l0,1.11,1.12.09a4.48,4.48,0,0,1,3.86,3.88v.47c0,1.59-1.92,3.43-4.4,3.43H41.67c-2.48,0-4.4-1.85-4.4-3.43v-.47A4.33,4.33,0,0,1,40,47.52l.93-.27,0-1.09a5.89,5.89,0,0,1,5.89-5.9m0-2a7.89,7.89,0,0,0-7.88,7.53,6.43,6.43,0,0,0-3.63,5.4v.47c0,2.89,3,5.43,6.4,5.43H58.33c3.41,0,6.4-2.54,6.4-5.43v-.47a6.43,6.43,0,0,0-5.08-5.78,4.37,4.37,0,0,0-6-3.21,7.92,7.92,0,0,0-6.83-3.93Z" fill="#fff"/>
    </g>
  </g>
</svg>
