<svg id="Layer_1" data-name="Layer 1" xmlns="http://www.w3.org/2000/svg" width="100" height="100" viewBox="0 0 100 100">
  <title>Compute</title>
  <g>
    <polygon points="19.33 24.17 15.91 25.88 15.91 74.12 19.33 75.83 32.88 50 19.33 24.17" fill="#9d5025"/>
    <polygon points="27.3 73.96 19.33 75.83 19.33 24.17 27.3 25.99 27.3 73.96" fill="#f58536"/>
    <polygon points="23.1 22.28 27.3 20.19 37.24 50 27.3 79.81 23.1 77.72 23.1 22.28" fill="#9d5025"/>
    <polygon points="37.24 77 27.3 79.81 27.3 20.19 37.24 23.01 37.24 77" fill="#f58536"/>
    <polygon points="31.98 17.84 37.24 15.21 70.08 50 37.24 84.78 31.98 82.16 31.98 17.84" fill="#9d5025"/>
    <polygon points="72.75 71.64 37.24 84.78 37.24 15.21 72.75 28.19 72.75 71.64" fill="#f58536"/>
    <polygon points="68.15 43.51 61.52 43.94 43.19 42.39 49.99 8.84 68.15 43.51" fill="#6b3a19"/>
    <polygon points="49.99 41.7 49.99 8.84 43.19 12.24 43.19 42.39 49.99 41.7" fill="#9d5025"/>
    <polygon points="68.15 43.51 68.15 17.92 49.99 8.84 49.99 41.7 68.15 43.51" fill="#f58536"/>
    <polygon points="68.15 56.27 61.87 55.87 43.19 57.45 49.99 91.16 68.15 56.27" fill="#fbbf93"/>
    <polygon points="43.19 57.45 43.19 87.77 49.99 91.16 49.99 58.07 43.19 57.45" fill="#9d5025"/>
    <polygon points="49.99 58.07 49.99 91.16 68.15 82.08 68.15 56.27 49.99 58.07" fill="#f58536"/>
    <polygon points="84.09 54.69 80.19 54.53 70.08 55.42 74.36 78.98 84.09 54.69" fill="#fbbf93"/>
    <polygon points="74.36 55.65 74.36 78.98 84.09 74.11 84.09 54.69 74.36 55.65" fill="#f58536"/>
    <polygon points="84.09 45.11 80.19 45.27 70.08 44.37 74.36 21.02 84.09 45.11" fill="#6b3a19"/>
    <polygon points="84.09 45.11 84.09 25.89 74.36 21.02 74.36 44.13 84.09 45.11" fill="#f58536"/>
    <polygon points="70.08 77.85 74.36 78.98 74.36 55.65 70.08 55.42 70.08 77.85" fill="#9d5025"/>
    <polygon points="70.08 22.15 74.36 21.02 74.36 44.13 70.08 44.37 70.08 22.15" fill="#9d5025"/>
  </g>
</svg>
