<svg id="Layer_1" data-name="Layer 1" xmlns="http://www.w3.org/2000/svg" width="100" height="100" viewBox="0 0 100 100">
  <title>Compute</title>
  <g>
    <path d="M71,29V73.48H29V29H71m4-4H25V77.48H75V25Z" fill="#9d5025"/>
    <path d="M71,29V71H29V29H71m4-4H25V75H75V25Z" fill="#f58536"/>
    <g>
      <rect x="31.34" y="32.84" width="17.74" height="9.8" fill="#9d5025"/>
      <rect x="50.92" y="32.84" width="17.74" height="9.8" fill="#9d5025"/>
      <rect x="31.34" y="31.36" width="17.74" height="9.8" fill="#f58536"/>
      <rect x="32.43" y="32.15" width="0.95" height="8.22" fill="#fff"/>
      <rect x="34.87" y="32.15" width="0.95" height="8.22" fill="#fff"/>
      <rect x="37.3" y="32.15" width="0.95" height="8.22" fill="#fff"/>
      <rect x="39.74" y="32.15" width="0.95" height="8.22" fill="#fff"/>
      <rect x="42.17" y="32.15" width="0.95" height="8.22" fill="#fff"/>
      <rect x="44.6" y="32.15" width="0.95" height="8.22" fill="#fff"/>
      <rect x="47.04" y="32.15" width="0.95" height="8.22" fill="#fff"/>
      <rect x="50.92" y="31.36" width="17.74" height="9.8" fill="#f58536"/>
      <rect x="52.02" y="32.15" width="0.95" height="8.22" fill="#fff"/>
      <rect x="54.45" y="32.15" width="0.95" height="8.22" fill="#fff"/>
      <rect x="56.88" y="32.15" width="0.95" height="8.22" fill="#fff"/>
      <rect x="59.32" y="32.15" width="0.95" height="8.22" fill="#fff"/>
      <rect x="61.75" y="32.15" width="0.95" height="8.22" fill="#fff"/>
      <rect x="64.19" y="32.15" width="0.95" height="8.22" fill="#fff"/>
      <rect x="66.62" y="32.15" width="0.95" height="8.22" fill="#fff"/>
    </g>
    <g>
      <rect x="31.34" y="45.84" width="17.74" height="9.8" fill="#9d5025"/>
      <rect x="50.92" y="45.84" width="17.74" height="9.8" fill="#9d5025"/>
      <rect x="31.34" y="44.36" width="17.74" height="9.8" fill="#f58536"/>
      <rect x="32.43" y="45.15" width="0.95" height="8.22" fill="#fff"/>
      <rect x="34.87" y="45.15" width="0.95" height="8.22" fill="#fff"/>
      <rect x="37.3" y="45.15" width="0.95" height="8.22" fill="#fff"/>
      <rect x="39.74" y="45.15" width="0.95" height="8.22" fill="#fff"/>
      <rect x="42.17" y="45.15" width="0.95" height="8.22" fill="#fff"/>
      <rect x="44.6" y="45.15" width="0.95" height="8.22" fill="#fff"/>
      <rect x="47.04" y="45.15" width="0.95" height="8.22" fill="#fff"/>
      <rect x="50.92" y="44.36" width="17.74" height="9.8" fill="#f58536"/>
      <rect x="52.02" y="45.15" width="0.95" height="8.22" fill="#fff"/>
      <rect x="54.45" y="45.15" width="0.95" height="8.22" fill="#fff"/>
      <rect x="56.88" y="45.15" width="0.95" height="8.22" fill="#fff"/>
      <rect x="59.32" y="45.15" width="0.95" height="8.22" fill="#fff"/>
      <rect x="61.75" y="45.15" width="0.95" height="8.22" fill="#fff"/>
      <rect x="64.19" y="45.15" width="0.95" height="8.22" fill="#fff"/>
      <rect x="66.62" y="45.15" width="0.95" height="8.22" fill="#fff"/>
    </g>
    <g>
      <rect x="31.34" y="58.84" width="17.74" height="9.8" fill="#9d5025"/>
      <rect x="50.92" y="58.84" width="17.74" height="9.8" fill="#9d5025"/>
      <rect x="31.34" y="57.36" width="17.74" height="9.8" fill="#f58536"/>
      <rect x="32.43" y="58.15" width="0.95" height="8.22" fill="#fff"/>
      <rect x="34.87" y="58.15" width="0.95" height="8.22" fill="#fff"/>
      <rect x="37.3" y="58.15" width="0.95" height="8.22" fill="#fff"/>
      <rect x="39.74" y="58.15" width="0.95" height="8.22" fill="#fff"/>
      <rect x="42.17" y="58.15" width="0.95" height="8.22" fill="#fff"/>
      <rect x="44.6" y="58.15" width="0.95" height="8.22" fill="#fff"/>
      <rect x="47.04" y="58.15" width="0.95" height="8.22" fill="#fff"/>
      <rect x="50.92" y="57.36" width="17.74" height="9.8" fill="#f58536"/>
      <rect x="52.02" y="58.15" width="0.95" height="8.22" fill="#fff"/>
      <rect x="54.45" y="58.15" width="0.95" height="8.22" fill="#fff"/>
      <rect x="56.88" y="58.15" width="0.95" height="8.22" fill="#fff"/>
      <rect x="59.32" y="58.15" width="0.95" height="8.22" fill="#fff"/>
      <rect x="61.75" y="58.15" width="0.95" height="8.22" fill="#fff"/>
      <rect x="64.19" y="58.15" width="0.95" height="8.22" fill="#fff"/>
      <rect x="66.62" y="58.15" width="0.95" height="8.22" fill="#fff"/>
    </g>
  </g>
</svg>
