<svg id="Layer_1" data-name="Layer 1" xmlns="http://www.w3.org/2000/svg" width="100" height="100" viewBox="0 0 100 100">
  <title>Compute</title>
  <g>
    <path d="M39.3,48a54.32,54.32,0,0,0,20.87-14.1c1.46-1.6,5.13-9.28,5.13-9.28v2.48c-.6,6-1.9,14.5-4.8,17.3-2.7,2.6-9.7,4.1-17.3,4.7v29.3H34.7V49.18c.6-6.7,1.1-12.1,6.9-17.3C45.1,28.72,63.9,21.5,63.9,21.5V24c-8.8,14.2-25.4,20.2-25.6,20.3-.5.2-1,2.1-.8,2.6a2.36,2.36,0,0,0,1.4,1.2A.76.76,0,0,1,39.3,48Z" fill="#6b3a19"/>
    <path d="M39.3,45.5c.7-.2,16.7-5.8,26-20.9-.6,6-1.9,14.5-4.8,17.3-2.7,2.6-9.7,4.1-17.3,4.7V75.9H34.7V46.7c.6-6.7,1.1-12.1,6.9-17.3,4.1-3.7,15.3-7,22.3-7.9C55.1,35.7,38.5,41.7,38.3,41.8c-.5.2-1,2.1-.8,2.6a2.36,2.36,0,0,0,1.4,1.2A.76.76,0,0,1,39.3,45.5Z" fill="#f58536"/>
  </g>
</svg>
