<svg id="Layer_1" data-name="Layer 1" xmlns="http://www.w3.org/2000/svg" width="100" height="100" viewBox="0 0 100 100">
  <title>Compute</title>
  <g>
    <circle cx="50" cy="51.25" r="30.43" fill="#9d5025"/>
    <circle cx="50" cy="48.75" r="30.43" fill="#f58536"/>
    <rect x="58.24" y="34.62" width="3.21" height="28.25" fill="#fff"/>
    <polygon points="67.26 41.77 75.66 48.61 67.26 55.73 67.26 41.77" fill="#fff"/>
    <polygon points="37.57 47.15 39.4 48.63 37.37 50.35 68.68 50.35 68.68 47.15 37.57 47.15" fill="#fff"/>
    <polygon points="37.37 36.23 61.45 36.23 61.45 33.02 37.57 33.02 39.4 34.51 37.37 36.23" fill="#fff"/>
    <polygon points="39.4 62.76 37.37 64.48 61.45 64.48 61.45 61.27 37.57 61.27 39.4 62.76" fill="#fff"/>
    <polygon points="30.68 43.16 37.4 48.63 30.68 54.34 30.68 43.16" fill="#fff"/>
    <polygon points="30.68 29.04 37.4 34.51 30.68 40.21 30.68 29.04" fill="#fff"/>
    <polygon points="30.68 57.29 37.4 62.76 30.68 68.46 30.68 57.29" fill="#fff"/>
  </g>
</svg>
