<svg id="Layer_1" data-name="Layer 1" xmlns="http://www.w3.org/2000/svg" width="100" height="100" viewBox="0 0 100 100">
  <title>Compute</title>
  <g>
    <g>
      <rect x="23.5" y="26.27" width="53" height="53" rx="9.12" ry="9.12" fill="#9d5025"/>
      <rect x="23.5" y="23.79" width="53" height="53" rx="9.12" ry="9.12" fill="#f58536"/>
    </g>
    <path d="M49.48,64.87c-7.58,0-12.08-6.38-12.08-14,0-8.79,5-14.54,12.08-14.54V31.66h2.25v4.71c5.81,0,10.67,3.71,11.14,9.78h-6c-.37-3-2.41-5.07-5.18-5.07V60.16c3.19-.52,5-2.72,5.39-6.17h6c-1.2,6.59-4.86,10.88-11.35,10.88v4.71H49.48Zm0-23.8c-4.6.42-6.12,5.49-6.12,9.83,0,4.19,1.73,8.58,6.12,9.26Z" fill="#fff"/>
  </g>
</svg>
