<svg id="Layer_1" data-name="Layer 1" xmlns="http://www.w3.org/2000/svg" width="100" height="100" viewBox="0 0 100 100">
  <title>Storage</title>
  <g>
    <rect x="35.55" y="26.61" width="28.96" height="7.66" fill="#8c3123"/>
    <polygon points="61.02 19.98 39.02 19.98 36.02 20.5 36.02 22.98 64.03 22.98 64.03 20.5 61.02 19.98" fill="#8c3123"/>
    <path d="M50,30.36l26.51,3.91v2.32c0,3.45-11.87,6.23-26.51,6.23S23.52,40,23.52,36.58V34.1Z" fill="#8c3123"/>
    <path d="M50,47.11c11.07,0,20.55-1.59,24.52-3.85l1.3-2.2.53-2v2.48l-8.67,37c0,2.3-7.91,4.15-17.67,4.15s-17.66-1.85-17.66-4.15l-8.67-37V39.1l2,4.23C29.69,45.56,39.08,47.11,50,47.11Z" fill="#8c3123"/>
    <rect x="35.55" y="24.13" width="28.96" height="7.66" fill="#e05243"/>
    <polygon points="61.02 17.5 39.02 17.5 36.02 20.5 64.03 20.5 61.02 17.5" fill="#e05243"/>
    <path d="M50,27.88c14.64,0,26.51,2.79,26.51,6.22S64.66,40.33,50,40.33s-26.5-2.78-26.5-6.23S35.39,27.88,50,27.88Z" fill="#e05243"/>
    <path d="M50,44.63c13.65,0,24.88-2.41,26.34-5.53l-8.67,37c0,2.3-7.91,4.15-17.67,4.15S32.36,78.4,32.36,76.1l-8.67-37C25.15,42.22,36.38,44.63,50,44.63Z" fill="#e05243"/>
  </g>
</svg>
