<svg id="Layer_1" data-name="Layer 1" xmlns="http://www.w3.org/2000/svg" width="100" height="100" viewBox="0 0 100 100">
  <title>Storage</title>
  <g>
    <polygon points="24.16 38.78 31.84 37.24 40.98 46.09 31.84 53.06 24.16 52.69 24.16 38.78" fill="#8c3123"/>
    <polygon points="57.49 57.23 74.56 78.73 84.06 57.18 68.12 56.2 57.49 57.23" fill="#f2b0a9"/>
    <polygon points="42.51 57.23 25.44 78.73 15.94 57.18 31.88 56.2 42.51 57.23" fill="#f2b0a9"/>
    <polygon points="84.06 57.18 74.56 58.59 74.56 78.73 84.06 73.98 84.06 57.18" fill="#e05243"/>
    <polygon points="43.82 38.82 31.84 37.24 31.84 53.06 43.82 52.7 43.82 38.82" fill="#e05243"/>
    <polygon points="56.06 38.82 68.04 37.22 74.56 45.71 68.04 53.07 56.06 52.7 56.06 38.82" fill="#8c3123"/>
    <polygon points="75.72 38.76 68.04 37.22 68.04 53.07 75.72 52.7 75.72 38.76" fill="#e05243"/>
    <polygon points="37.71 36.06 50 33.6 59.02 45.14 50 53.94 37.71 53.34 37.71 36.06" fill="#8c3123"/>
    <polygon points="60.1 28.45 49.94 30.82 39.78 28.45 50 9 60.1 28.45" fill="#5e1f18"/>
    <polygon points="57.49 57.23 74.56 58.59 74.56 78.73 57.49 74.13 57.49 57.23" fill="#8c3123"/>
    <polygon points="15.94 57.18 25.44 58.59 25.44 78.73 15.94 73.98 15.94 57.18" fill="#8c3123"/>
    <polygon points="42.51 57.23 25.44 58.59 25.44 78.73 42.51 74.13 42.51 57.23" fill="#e05243"/>
    <polygon points="68.04 59.56 50 57.85 31.96 59.56 50 91 68.04 59.56" fill="#f2b0a9"/>
    <polygon points="68.04 59.56 50 62.25 50 91 68.04 81.99 68.04 59.56" fill="#e05243"/>
    <polygon points="31.96 59.56 50 62.25 50 91 31.96 81.99 31.96 59.56" fill="#8c3123"/>
    <polygon points="62.17 36.05 50 33.6 50 53.94 62.17 53.35 62.17 36.05" fill="#e05243"/>
    <polygon points="60.1 14.08 50 9 50 25.4 60.1 28.45 60.1 14.08" fill="#e05243"/>
    <polygon points="39.78 14.08 50 9 50 25.4 39.78 28.45 39.78 14.08" fill="#8c3123"/>
  </g>
</svg>
