<svg id="Layer_1" data-name="Layer 1" xmlns="http://www.w3.org/2000/svg" width="100" height="100" viewBox="0 0 100 100">
  <title>Storage</title>
  <g>
    <polygon points="76.47 19.7 76.47 82.78 57.74 82.78 57.74 72.68 42.26 72.68 42.26 82.78 23.53 82.78 23.53 19.7 76.47 19.7" fill="#8c3123"/>
    <polygon points="76.47 17.22 76.47 80.3 57.74 80.3 57.74 70.2 42.26 70.2 42.26 80.3 23.53 80.3 23.53 17.22 76.47 17.22" fill="#e05243"/>
    <g>
      <path d="M37.53,32.69v.23c0,2-.81,4-3.44,4-2.81,0-3.69-1.8-3.69-5.76s.88-5.76,3.7-5.76c3.17,0,3.36,2.33,3.36,3.48V29H35.68v-.19c0-1-.31-2.2-1.6-2.16s-1.9.81-1.9,4.38.59,4.47,1.9,4.47c1.49,0,1.66-1.65,1.66-2.67v-.19h1.78Z" fill="#fff"/>
      <path d="M40.89,25.58h2.28L46.1,36.66H44.24l-.69-2.72H40.29l-.72,2.72H37.71Zm2.37,7L42,27.07h0l-1.33,5.46Z" fill="#fff"/>
      <path d="M53.74,32.69v.23c0,2-.81,4-3.44,4-2.81,0-3.69-1.8-3.69-5.76s.88-5.76,3.71-5.76c3.17,0,3.36,2.33,3.36,3.48V29H51.89v-.19c0-1-.31-2.2-1.59-2.16s-1.91.81-1.91,4.38.59,4.47,1.91,4.47c1.49,0,1.66-1.65,1.66-2.67v-.19h1.78Z" fill="#fff"/>
      <path d="M55,25.58h1.78V30h3.28V25.58h1.78V36.66H60.05V31.51H56.77v5.15H55Z" fill="#fff"/>
      <path d="M63.67,25.58h6v1.49H65.45v3.07h4v1.49h-4v3.54h4.37v1.49H63.67Z" fill="#fff"/>
    </g>
  </g>
</svg>
