<svg id="Layer_1" data-name="Layer 1" xmlns="http://www.w3.org/2000/svg" width="100" height="100" viewBox="0 0 100 100">
  <title>Storage</title>
  <g>
    <rect x="24.31" y="27.63" width="10.35" height="10.35" rx="2.18" ry="2.18" fill="#8c3123"/>
    <rect x="45.97" y="27.63" width="10.35" height="10.35" rx="2.18" ry="2.18" fill="#8c3123"/>
    <rect x="67.63" y="27.63" width="10.35" height="10.35" rx="2.18" ry="2.18" fill="#8c3123"/>
    <polygon points="74.06 45.52 36.21 45.52 36.21 50.56 31.73 50.25 31.73 52.73 32.42 55.42 26.02 54.98 26.02 57.46 27.6 60.27 19.06 59.71 19.06 62.19 36.21 77.81 38.16 77.81 38.16 77.81 73.82 77.81 73.82 77.81 74.06 77.81 74.06 45.52" fill="#8c3123"/>
    <polygon points="36.21 45.52 36.21 50.25 31.73 50.25 32.95 54.98 26.02 54.98 28.68 59.71 19.06 59.71 36.21 75.33 37.45 75.33 37.92 75.33 38.16 75.33 72.34 75.33 73.58 75.33 73.82 75.33 74.06 75.33 74.06 45.52 36.21 45.52" fill="#e05243"/>
    <polygon points="72.34 69.56 72.34 47.23 37.92 47.23 37.92 50.25 67.39 50.25 72.34 69.56" fill="#f2b0a9"/>
    <polygon points="66.16 51.85 37.92 51.85 36.21 51.85 33.79 51.85 34.59 54.98 36.21 54.98 37.92 54.98 62.15 54.98 70.99 70.71 66.16 51.85" fill="#fff"/>
    <polygon points="61.22 56.58 37.92 56.58 36.21 56.58 35 56.58 34.18 56.58 33.35 56.58 28.75 56.58 30.51 59.71 34.16 59.71 34.98 59.71 35.81 59.71 36.21 59.71 37.92 59.71 56.91 59.71 69.34 71.03 61.22 56.58" fill="#fff"/>
    <path d="M37,31a.63.63,0,0,0,0-1.27H34.67v-2H37a.63.63,0,0,0,0-1.27H34.51a2.11,2.11,0,0,0-1.18-1.16V22.83a.63.63,0,1,0-1.27,0v2.32h-2V22.83a.63.63,0,1,0-1.27,0v2.32h-2V22.83a.63.63,0,0,0-1.27,0v2.49a2.12,2.12,0,0,0-1.12,1.14H22a.63.63,0,0,0,0,1.27h2.35v2H22A.63.63,0,0,0,22,31h2.35v2H22a.63.63,0,1,0,0,1.27h2.51a2.12,2.12,0,0,0,1.12,1.14v2.49a.63.63,0,0,0,1.27,0V35.51h2v2.32a.63.63,0,0,0,1.27,0V35.51h2v2.32a.63.63,0,0,0,1.27,0V35.36a2.11,2.11,0,0,0,1.18-1.16H37a.63.63,0,0,0,0-1.27H34.67V31Z" fill="#e05243"/>
    <rect x="27.39" y="28.24" width="4.19" height="4.19" fill="#fff"/>
    <path d="M58.65,31a.63.63,0,0,0,0-1.27H56.33v-2h2.32a.63.63,0,0,0,0-1.27H56.17A2.11,2.11,0,0,0,55,25.3V22.83a.63.63,0,0,0-1.27,0v2.32h-2V22.83a.63.63,0,0,0-1.27,0v2.32h-2V22.83a.63.63,0,1,0-1.27,0v2.49a2.12,2.12,0,0,0-1.12,1.14H43.62a.63.63,0,0,0,0,1.27H46v2H43.62a.63.63,0,0,0,0,1.27H46v2H43.62a.63.63,0,0,0,0,1.27h2.51a2.12,2.12,0,0,0,1.12,1.14v2.49a.63.63,0,0,0,1.27,0V35.51h2v2.32a.63.63,0,0,0,1.27,0V35.51h2v2.32a.63.63,0,0,0,1.27,0V35.36a2.11,2.11,0,0,0,1.18-1.16h2.48a.63.63,0,0,0,0-1.27H56.33V31Z" fill="#e05243"/>
    <rect x="49.05" y="28.24" width="4.19" height="4.19" fill="#fff"/>
    <path d="M80.31,31a.63.63,0,0,0,0-1.27H78v-2h2.32a.63.63,0,1,0,0-1.27H77.83a2.11,2.11,0,0,0-1.18-1.16V22.83a.63.63,0,0,0-1.27,0v2.32h-2V22.83a.63.63,0,0,0-1.27,0v2.32h-2V22.83a.63.63,0,0,0-1.27,0v2.49a2.12,2.12,0,0,0-1.12,1.14H65.28a.63.63,0,1,0,0,1.27h2.35v2H65.28a.63.63,0,0,0,0,1.27h2.35v2H65.28a.63.63,0,1,0,0,1.27h2.51a2.12,2.12,0,0,0,1.12,1.14v2.49a.63.63,0,0,0,1.27,0V35.51h2v2.32a.63.63,0,0,0,1.27,0V35.51h2v2.32a.63.63,0,0,0,1.27,0V35.36a2.11,2.11,0,0,0,1.18-1.16h2.48a.63.63,0,1,0,0-1.27H78V31Z" fill="#e05243"/>
    <rect x="70.71" y="28.24" width="4.19" height="4.19" fill="#fff"/>
  </g>
</svg>
