<svg id="Layer_1" data-name="Layer 1" xmlns="http://www.w3.org/2000/svg" width="100" height="100" viewBox="0 0 100 100">
  <title>AI_GRAYSCALE</title>
  <g>
    <polygon points="73.36 77.52 36.36 66.1 36.32 55.7 81.36 60.62 73.36 77.52" fill="#7b7b7b"/>
    <polygon points="81.14 48.34 44.67 48.87 44.67 57.18 81.14 60.6 81.14 48.34" fill="#373737"/>
    <polygon points="26.73 22.43 63.73 33.85 63.68 44.3 18.74 39.33 26.73 22.43" fill="#7b7b7b"/>
    <polygon points="18.96 51.6 55.42 51.08 55.42 42.77 18.96 39.35 18.96 51.6" fill="#d3d3d3"/>
    <polygon points="41.1 50.84 20.32 51.04 20.32 65.65 41.1 62.74 41.1 50.84" fill="#989898"/>
    <polygon points="79.6 44.72 59.05 45.69 59.05 37.13 79.6 34.23 79.6 44.72" fill="#4e4e4e"/>
    <rect x="39.81" y="14.02" width="20.43" height="16.31" fill="#7b7b7b"/>
    <rect x="39.88" y="70.07" width="20.36" height="15.91" fill="#7b7b7b"/>
    <polygon points="84 25.94 60.24 14.05 49.99 25.34 49.99 25.34 79.6 34.23 79.6 44.72 49.99 41.75 49.99 58.26 71.61 56.08 71.61 50.02 75.96 55.65 79.6 60.35 79.69 60.46 79.6 60.59 75.97 66.75 71.61 74.14 71.61 68.06 49.99 74.52 49.99 74.52 60.37 85.85 84 74.03 84 64.43 84 35.53 84 25.94" fill="#989898"/>
    <polygon points="20.32 55.27 49.99 58.26 49.99 41.75 28.59 43.9 28.59 50.04 24.13 44.34 20.32 39.47 24.15 33.1 28.59 25.7 28.59 31.77 49.99 25.37 49.99 25.34 39.81 14.02 16 25.93 16 35.53 16 64.35 16 74.04 39.88 85.98 49.99 74.52 20.32 65.65 20.32 55.27" fill="#4e4e4e"/>
    <polygon points="79.6 34.23 59.05 37.13 28.59 31.77 49.99 25.34 79.6 34.23" fill="#373737"/>
    <polygon points="71.61 68.06 41.1 62.74 20.32 65.65 49.99 74.52 71.61 68.06" fill="#d3d3d3"/>
  </g>
</svg>
