<svg id="Layer_1" data-name="Layer 1" xmlns="http://www.w3.org/2000/svg" width="100" height="100" viewBox="0 0 100 100">
  <title>DeveloperTools</title>
  <g>
    <polygon points="25.49 78.71 16.02 73.96 16.02 25.94 25.49 21.22 38.54 50.75 25.49 78.71" fill="#4b612c"/>
    <polygon points="56.77 29.63 25.49 21.22 25.49 78.71 56.77 69.98 56.77 29.63" fill="#759c3e"/>
    <polygon points="71.22 65.69 78.5 68.14 83.09 52.31 78.5 36.47 71.22 37.52 71.22 65.69" fill="#4b612c"/>
    <polygon points="78.5 36.88 71.22 37.8 66.94 36.9 74.41 21.28 78.5 36.88" fill="#3c4929"/>
    <polygon points="66.94 36.9 74.41 35.9 74.41 21.24 66.94 23.25 66.94 36.9" fill="#4b612c"/>
    <polygon points="43.13 31.62 50 24.43 68.03 34.31 61.36 35.4 43.13 31.62" fill="#3c4929"/>
    <polygon points="78.5 63.12 71.22 62.3 66.94 63.1 74.41 78.82 78.5 63.12" fill="#b7ca9d"/>
    <polygon points="66.94 63.1 74.41 64.1 74.41 78.82 66.94 76.75 66.94 63.1" fill="#4b612c"/>
    <polygon points="68.03 34.31 50 29.92 50 9 68.03 18.07 68.03 34.31" fill="#759c3e"/>
    <polygon points="83.98 26.04 74.41 21.24 74.41 35.9 83.98 38.19 83.98 26.04" fill="#759c3e"/>
    <polygon points="43.13 68.38 50 82.09 68.03 65.69 61.36 64.6 43.13 68.38" fill="#b7ca9d"/>
    <polygon points="68.03 65.69 50 70.08 50 91 68.03 82.01 68.03 65.69" fill="#759c3e"/>
    <polygon points="83.98 74.06 74.41 78.82 74.41 64.1 83.98 61.81 83.98 74.06" fill="#759c3e"/>
    <polygon points="31.87 81.91 50 91 58.34 50.15 50 9 31.87 18.04 31.87 81.91" fill="#4b612c"/>
    <polygon points="60.16 85.92 50 91 50 9.3 60.16 14.38 60.16 85.92" fill="#759c3e"/>
    <polygon points="78.5 76.75 83.98 74.06 83.98 26.04 78.5 24.78 78.5 76.75" fill="#759c3e"/>
  </g>
</svg>
