<svg id="Layer_1" data-name="Layer 1" xmlns="http://www.w3.org/2000/svg" width="100" height="100" viewBox="0 0 100 100">
  <title>SecurityIdentityCompliance</title>
  <g>
    <polygon points="49.95 90 63.28 69.93 45.76 68.2 49.95 90" fill="#648339"/>
    <polygon points="50 10 36.84 29.9 50 25.95 50 10" fill="#759c3e"/>
    <polygon points="50 10 63.28 29.96 50 25.98 50 10" fill="#b7ca9d"/>
    <polygon points="36.84 70 49.95 73.93 49.95 25.96 36.84 29.9 36.84 70" fill="#4b612c"/>
    <polygon points="49.95 25.96 63.28 29.96 63.28 69.93 49.95 73.93 49.95 25.96" fill="#759c3e"/>
    <polygon points="49.95 90 36.84 70 49.95 73.93 49.95 90" fill="#3c4929"/>
    <polygon points="26.1 26.55 16.91 40.6 22.99 39.39 26.1 26.55" fill="#759c3e"/>
    <polygon points="22.99 39.39 16.91 40.6 25.73 54.71 22.99 39.39" fill="#3c4929"/>
    <polygon points="22.99 39.39 35.3 40.6 26.1 26.55 22.99 39.39" fill="#b7ca9d"/>
    <polygon points="25.73 54.71 35.3 40.65 22.99 39.44 25.73 54.71" fill="#648339"/>
    <polygon points="73.9 78.11 83.09 64.05 77.01 65.27 73.9 78.11" fill="#648339"/>
    <polygon points="77.01 65.27 83.09 64.05 74.27 49.95 77.01 65.27" fill="#b7ca9d"/>
    <polygon points="77.01 65.27 64.7 64.05 73.9 78.11 77.01 65.27" fill="#3c4929"/>
    <polygon points="74.27 49.95 64.7 64.01 77.01 65.22 74.27 49.95" fill="#759c3e"/>
  </g>
</svg>
