<svg id="Layer_1" data-name="Layer 1" xmlns="http://www.w3.org/2000/svg" width="100" height="100" viewBox="0 0 100 100">
  <title>SecurityIdentityCompliance</title>
  <g>
    <path d="M67.38,24.57a3,3,0,0,1,3,3v47.4a3,3,0,0,1-3,3H32.62a3,3,0,0,1-3-3V27.53a3,3,0,0,1,3-3H67.38Z" fill="#7d7c7c"/>
    <path d="M67.38,22.09a3,3,0,0,1,3,3v47.4a3,3,0,0,1-3,3H32.62a3,3,0,0,1-3-3V25.05a3,3,0,0,1,3-3H67.38Z" fill="#d2d3d3"/>
    <polygon points="38.39 33.67 35.6 30.64 32.51 33.72 32.51 33.72 38.33 39.54 48.16 29.71 45.92 27.43 38.39 33.67" fill="#759c3e"/>
    <polygon points="38.39 47.62 35.6 44.58 32.51 47.67 32.51 47.67 38.33 53.49 48.16 43.66 45.92 41.37 38.39 47.62" fill="#759c3e"/>
    <g style="isolation: isolate">
      <path d="M38.72,61.57l-6-5.4h2.92l4.56,4.34,4.77-4.34h2.72l-6,5.4L48,67.28h-3l-4.92-4.59-5.07,4.59H32.34Z" fill="#e05243"/>
    </g>
  </g>
</svg>
