<svg id="Layer_1" data-name="Layer 1" xmlns="http://www.w3.org/2000/svg" width="100" height="100" viewBox="0 0 100 100">
  <title>SecurityIdentityCompliance</title>
  <g>
    <polygon points="30.3 34.58 22.75 33.44 22.75 22.47 32.95 25.3 30.3 34.58" fill="#759c3e"/>
    <polygon points="30.82 35.99 15.9 37.33 15.9 25.89 22.75 22.47 30.82 35.99" fill="#4b612c"/>
    <polygon points="69.71 34.58 77.26 33.44 77.26 22.47 67.05 25.3 69.71 34.58" fill="#4b612c"/>
    <polygon points="69.18 35.99 84.1 37.33 84.1 25.89 77.26 22.47 69.18 35.99" fill="#759c3e"/>
    <polygon points="35.59 16.04 27.78 31.97 27.78 31.97 15.9 35.53 15.9 45.7 29.66 75.24 50 91.16 64.13 73.5 64.13 24.11 50 8.84 35.59 16.04" fill="#4b612c"/>
    <polygon points="84.1 45.7 84.1 35.53 72.22 31.97 72.22 31.97 64.41 16.04 50 8.84 50 25.3 50 74.7 50 91.16 70.34 75.24 84.1 45.7" fill="#759c3e"/>
  </g>
</svg>
