<svg id="Layer_1" data-name="Layer 1" xmlns="http://www.w3.org/2000/svg" width="100" height="100" viewBox="0 0 100 100">
  <title>SecurityIdentityCompliance</title>
  <g>
    <polygon points="15.9 54.82 21.09 54.61 25.68 55 20.26 74.7 15.9 54.82" fill="#b7ca9d"/>
    <polygon points="35.59 70.38 50 74.7 61.69 44.31 50 8.84 35.59 16.04 35.59 70.38" fill="#4b612c"/>
    <polygon points="64.41 70.38 50 74.7 50 8.84 64.41 16.04 64.41 70.38" fill="#759c3e"/>
    <polygon points="74.32 64.58 79.74 65.32 79.74 55.26 74.32 55 74.32 64.58" fill="#4b612c"/>
    <polygon points="25.68 64.58 20.26 65.32 20.26 55.26 25.68 55 25.68 64.58" fill="#759c3e"/>
    <polygon points="49.42 64.17 25.68 60 20.26 60.52 48.44 80.56 49.42 64.17" fill="#b7ca9d"/>
    <polygon points="79.74 55.26 84.1 54.82 84.1 74.11 79.74 71.03 79.74 55.26" fill="#759c3e"/>
    <polygon points="84.1 54.82 78.91 54.61 74.32 55 79.74 55.26 84.1 54.82" fill="#b7ca9d"/>
    <polygon points="15.9 59.65 50 66.47 50 91.16 15.9 74.11 15.9 59.65" fill="#4b612c"/>
    <polygon points="20.26 55.26 15.9 54.82 15.9 74.11 20.26 72.44 20.26 55.26" fill="#4b612c"/>
    <polygon points="50 64.3 50 86.63 79.74 60.52 74.33 60.01 50 64.3" fill="#b7ca9d"/>
    <polygon points="60.2 57.21 50 56.42 39.8 57.21 50 91.16 60.2 57.21" fill="#b7ca9d"/>
    <polygon points="84.1 59.65 50 66.47 50 91.16 84.1 74.11 84.1 59.65" fill="#759c3e"/>
    <polygon points="60.2 85.27 50 90.37 50 58.23 60.2 57.21 60.2 85.27" fill="#759c3e"/>
    <polygon points="39.8 81.56 50 91.16 50 58.23 39.8 57.21 39.8 81.56" fill="#4b612c"/>
  </g>
</svg>
