<svg id="Layer_1" data-name="Layer 1" xmlns="http://www.w3.org/2000/svg" width="100" height="100" viewBox="0 0 100 100">
  <title>SecurityIdentityCompliance</title>
  <g>
    <path d="M67.38,23.33a3,3,0,0,1,3,3v47.4a3,3,0,0,1-3,3H32.62a3,3,0,0,1-3-3V26.29a3,3,0,0,1,3-3H67.38Z" fill="#d2d3d3"/>
    <path d="M63.25,59.75V53.61a8.16,8.16,0,0,0-16.2,0v6.14H42.85V73.36H67.32V59.75Zm-4,0H51l0-6.14a3.81,3.81,0,0,1,4.17-3.75,4,4,0,0,1,4.17,3.75Z" fill="#373737"/>
    <path d="M40.71,25.59a8.34,8.34,0,1,0,8.34,8.34A8.34,8.34,0,0,0,40.71,25.59Zm0,6.87a2.18,2.18,0,1,1,2.18-2.18A2.18,2.18,0,0,1,40.71,32.46Z" fill="#7d7c7c"/>
    <polygon points="44.25 36.75 44.25 46.41 42.73 47.28 43.04 50.54 41.75 51.8 41.5 52.94 43.28 55.92 40.45 59.62 37.16 57.58 37.16 36.75 44.25 36.75" fill="#7d7c7c"/>
  </g>
</svg>
