<svg id="Layer_1" data-name="Layer 1" xmlns="http://www.w3.org/2000/svg" width="100" height="100" viewBox="0 0 100 100">
  <title>ManagementTools</title>
  <g>
    <polygon points="64.36 54.59 75.34 57.52 75.34 78.33 64.36 75.43 54.34 63.24 64.36 54.59" fill="#4b612c"/>
    <polygon points="16.04 74.02 24.66 78.33 36.71 56.38 16.04 56.38 16.04 74.02" fill="#4b612c"/>
    <polygon points="50 91 35.64 83.82 35.64 58.96 58.54 56.38 50 91" fill="#4b612c"/>
    <polygon points="16.04 56.38 50 60.88 83.96 56.38 50 54.51 16.04 56.38" fill="#b7ca9d"/>
    <polygon points="64.36 36.49 50 52.75 35.63 36.49 50 14.55 64.36 36.49" fill="#3c4929"/>
    <polygon points="50 57.63 64.36 58.96 72.49 47.73 64.36 36.49 50 38.5 40.7 47.73 50 57.63" fill="#4b612c"/>
    <polygon points="24.66 57.52 30.15 68.79 35.64 58.98 45.56 47.73 35.64 36.49 24.66 38.68 24.66 57.52" fill="#4b612c"/>
    <polygon points="35.63 16.18 50 9 62.1 24.52 50 33.62 35.63 36.49 35.63 16.18" fill="#4b612c"/>
    <g>
      <polygon points="35.64 58.98 24.66 57.52 24.66 78.33 35.64 75.43 35.64 58.98" fill="#759c3e"/>
      <polygon points="50 57.63 35.64 58.96 35.64 36.49 50 38.5 50 57.63" fill="#759c3e"/>
      <g>
        <polygon points="83.96 74.02 75.34 78.33 75.34 57.52 83.96 56.38 83.96 74.02" fill="#759c3e"/>
        <polygon points="50 91 64.36 83.82 64.36 58.96 50 60.86 50 91" fill="#759c3e"/>
        <polygon points="64.36 36.49 50 33.62 50 9 64.36 16.18 64.36 36.49" fill="#759c3e"/>
        <polygon points="75.34 57.52 64.36 58.98 64.36 36.49 75.34 38.68 75.34 57.52" fill="#759c3e"/>
      </g>
    </g>
  </g>
</svg>
