<svg id="Layer_1" data-name="Layer 1" xmlns="http://www.w3.org/2000/svg" width="100" height="100" viewBox="0 0 100 100">
  <title>General</title>
  <path d="M17.57,57.11l27.8,27.8L78.43,51.85V24H50.63L17.57,54.63ZM61.52,41a5.51,5.51,0,1,1,7.79,0A5.51,5.51,0,0,1,61.52,41Z" fill="#7d7c7c"/>
  <path d="M17.57,54.63l27.8,27.8L78.43,49.37V21.57H50.63Z" fill="#d2d3d3"/>
  <path d="M46.76,64.46A8.08,8.08,0,0,0,48.64,56L52,52.62,51.58,51,54,49l0-1.74.61-1,3.26-.82L58.47,41l-3.64-.86-11,11a8.08,8.08,0,1,0,3,13.32ZM37,62.74a2.11,2.11,0,1,1,3,0A2.11,2.11,0,0,1,37,62.74Z" fill="#7d7c7c"/>
  <circle cx="65.41" cy="34.59" r="5.51" transform="translate(-5.3 56.38) rotate(-45)" fill="#fff"/>
</svg>
