<svg id="Layer_1" data-name="Layer 1" xmlns="http://www.w3.org/2000/svg" width="100" height="100" viewBox="0 0 100 100">
  <title>General</title>
  <path d="M85.23,58v3.19C85.23,67,78.85,73,71,73H29C21.15,73,14.77,67,14.77,61.19V58Z" fill="#9d5125"/>
  <path d="M41.89,26.9A18,18,0,0,1,58.31,37.46,9.14,9.14,0,0,1,72.6,44.64c7.1.59,12.63,7.44,12.63,12.88v1.18c0,5.85-6.38,11.78-14.26,11.78H29c-7.86,0-14.24-5.93-14.24-11.78V57.53c0-4.51,3.79-10.71,9.12-12.25,0-.16,0-.34,0-.51A17.94,17.94,0,0,1,41.89,26.9Z" fill="#f58535"/>
  <path d="M32.42,47.81,27.71,64.26h2.76l1.06-4h4.85l1,4h2.76L35.81,47.81ZM32,58.13,34,50h0l1.9,8.11Z" fill="#fff"/>
  <polygon points="51.99 60.66 51.95 60.66 49.72 47.81 46.94 47.81 44.76 60.59 44.71 60.59 42.54 47.81 39.87 47.81 43.06 64.26 46.13 64.26 48.24 51.87 48.29 51.87 50.42 64.26 53.48 64.26 56.77 47.81 54.15 47.81 51.99 60.66" fill="#fff"/>
  <path d="M65.28,55.28l-1.79-.65C61.74,54,61,53.25,61,51.84a2.11,2.11,0,0,1,2.22-2.37,2.07,2.07,0,0,1,2.32,2.38v.35h2.65v-.37c0-1.7-.44-4.33-4.68-4.33-3.11,0-5.15,1.66-5.15,4.66,0,2.35,1,3.59,3.45,4.51l1.81.63A2.76,2.76,0,0,1,66,60.2a2.34,2.34,0,0,1-2.51,2.4c-1.83,0-2.71-1-2.71-3v-.42H58.14v.39c0,2.3.93,5,5,5,3.34,0,5.48-1.45,5.48-4.95C68.65,57.37,67.62,56.1,65.28,55.28Z" fill="#fff"/>
</svg>
