<svg id="Layer_1" data-name="Layer 1" xmlns="http://www.w3.org/2000/svg" width="100" height="100" viewBox="0 0 100 100">
  <title>General</title>
  <g>
    <rect x="35.17" y="40.85" width="29.66" height="46.1" fill="#4f4f4f"/>
    <g>
      <rect x="35.17" y="38.37" width="29.66" height="46.1" fill="#7d7c7c"/>
      <rect x="37.95" y="15.53" width="24.1" height="24.1" fill="#7d7c7c"/>
      <g>
        <rect x="39.99" y="48.26" width="3.34" height="3.34" fill="#fff"/>
        <rect x="39.99" y="54.02" width="3.34" height="3.34" fill="#fff"/>
        <rect x="39.99" y="42.5" width="3.34" height="3.34" fill="#fff"/>
        <rect x="39.99" y="59.77" width="3.34" height="3.34" fill="#fff"/>
        <rect x="39.99" y="65.53" width="3.34" height="3.34" fill="#fff"/>
        <rect x="39.99" y="71.28" width="3.34" height="3.34" fill="#fff"/>
        <rect x="39.99" y="77.04" width="3.34" height="3.34" fill="#fff"/>
        <rect x="45.55" y="48.26" width="3.34" height="3.34" fill="#fff"/>
        <rect x="45.55" y="54.02" width="3.34" height="3.34" fill="#fff"/>
        <rect x="45.55" y="42.5" width="3.34" height="3.34" fill="#fff"/>
        <rect x="45.55" y="59.77" width="3.34" height="3.34" fill="#fff"/>
        <rect x="45.55" y="65.53" width="3.34" height="3.34" fill="#fff"/>
        <rect x="45.55" y="71.28" width="3.34" height="3.34" fill="#fff"/>
        <rect x="45.55" y="77.04" width="3.34" height="3.34" fill="#fff"/>
        <rect x="51.11" y="48.26" width="3.34" height="3.34" fill="#fff"/>
        <rect x="51.11" y="54.02" width="3.34" height="3.34" fill="#fff"/>
        <rect x="51.11" y="42.5" width="3.34" height="3.34" fill="#fff"/>
        <rect x="51.11" y="59.77" width="3.34" height="3.34" fill="#fff"/>
        <rect x="51.11" y="65.53" width="3.34" height="3.34" fill="#fff"/>
        <rect x="51.11" y="71.28" width="3.34" height="3.34" fill="#fff"/>
        <rect x="51.11" y="77.04" width="3.34" height="3.34" fill="#fff"/>
        <rect x="56.67" y="48.26" width="3.34" height="3.34" fill="#fff"/>
        <rect x="56.67" y="54.02" width="3.34" height="3.34" fill="#fff"/>
        <rect x="56.67" y="42.5" width="3.34" height="3.34" fill="#fff"/>
        <rect x="56.67" y="59.77" width="3.34" height="3.34" fill="#fff"/>
        <rect x="56.67" y="65.53" width="3.34" height="3.34" fill="#fff"/>
        <rect x="56.67" y="71.28" width="3.34" height="3.34" fill="#fff"/>
        <rect x="56.67" y="77.04" width="3.34" height="3.34" fill="#fff"/>
      </g>
      <g>
        <rect x="42.77" y="20.15" width="3.34" height="3.34" fill="#fff"/>
        <rect x="42.77" y="25.91" width="3.34" height="3.34" fill="#fff"/>
        <rect x="42.77" y="31.67" width="3.34" height="3.34" fill="#fff"/>
        <rect x="48.33" y="20.15" width="3.34" height="3.34" fill="#fff"/>
        <rect x="48.33" y="25.91" width="3.34" height="3.34" fill="#fff"/>
        <rect x="48.33" y="31.67" width="3.34" height="3.34" fill="#fff"/>
        <rect x="53.89" y="20.15" width="3.34" height="3.34" fill="#fff"/>
        <rect x="53.89" y="25.91" width="3.34" height="3.34" fill="#fff"/>
        <rect x="53.89" y="31.67" width="3.34" height="3.34" fill="#fff"/>
      </g>
    </g>
  </g>
</svg>
