<svg id="Layer_1" data-name="Layer 1" xmlns="http://www.w3.org/2000/svg" width="100" height="100" viewBox="0 0 100 100">
  <title>General</title>
  <path d="M85.23,49v3.19C85.23,58,78.85,64,71,64H29C21.15,64,14.77,58,14.77,52.19V49Z" fill="#7d7c7c"/>
  <path d="M41.89,17.9A18,18,0,0,1,58.31,28.46,9.14,9.14,0,0,1,72.6,35.64c7.1.59,12.63,7.44,12.63,12.88v1.18c0,5.85-6.38,11.78-14.26,11.78H29c-7.86,0-14.24-5.93-14.24-11.78V48.53c0-4.51,3.79-10.71,9.12-12.25,0-.16,0-.34,0-.51A17.94,17.94,0,0,1,41.89,17.9Z" fill="#d2d3d3"/>
  <rect x="34.51" y="50.41" width="8.01" height="11.08" fill="#fff"/>
  <polygon points="28.53 53.33 38.52 36.04 48.5 53.33 28.53 53.33" fill="#fff"/>
  <polygon points="67.22 70.58 57.23 87.87 47.25 70.58 47.25 68.1 67.22 68.1 67.22 70.58" fill="#7d7c7c"/>
  <rect x="53.23" y="44.51" width="8.01" height="26.51" fill="#d2d3d3"/>
  <polygon points="67.22 68.1 57.23 85.39 47.25 68.1 67.22 68.1" fill="#d2d3d3"/>
</svg>
