<svg id="Layer_1" data-name="Layer 1" xmlns="http://www.w3.org/2000/svg" width="100" height="100" viewBox="0 0 100 100">
  <title>InternetOfThings</title>
  <g>
    <rect x="23.5" y="25.99" width="53" height="53" rx="9.12" ry="9.12" fill="#19486f"/>
    <rect x="23.5" y="23.51" width="53" height="53" rx="9.12" ry="9.12" fill="#2e73b8"/>
    <rect x="60" y="14.4" width="4" height="13.65" fill="#2e73b8"/>
    <rect x="36" y="14.4" width="4" height="13.65" fill="#2e73b8"/>
    <rect x="54" y="14.4" width="4" height="13.65" fill="#2e73b8"/>
    <rect x="42" y="14.4" width="4" height="13.65" fill="#2e73b8"/>
    <rect x="48" y="14.4" width="4" height="13.65" fill="#2e73b8"/>
    <rect x="14.4" y="60" width="18.1" height="4" fill="#2e73b8"/>
    <rect x="14.4" y="42" width="18.1" height="4" fill="#2e73b8"/>
    <rect x="14.4" y="54" width="18.1" height="4" fill="#2e73b8"/>
    <rect x="14.4" y="48" width="18.1" height="4" fill="#2e73b8"/>
    <rect x="14.4" y="36" width="18.1" height="4" fill="#2e73b8"/>
    <rect x="36" y="69.88" width="4" height="15.72" fill="#2e73b8"/>
    <rect x="60" y="69.88" width="4" height="15.72" fill="#2e73b8"/>
    <rect x="42" y="69.88" width="4" height="15.72" fill="#2e73b8"/>
    <rect x="54" y="69.88" width="4" height="15.72" fill="#2e73b8"/>
    <rect x="48" y="69.88" width="4" height="15.72" fill="#2e73b8"/>
    <rect x="69.67" y="54" width="15.94" height="4" fill="#2e73b8"/>
    <rect x="69.67" y="36" width="15.94" height="4" fill="#2e73b8"/>
    <rect x="69.67" y="48" width="15.94" height="4" fill="#2e73b8"/>
    <rect x="69.67" y="42" width="15.94" height="4" fill="#2e73b8"/>
    <rect x="69.67" y="60" width="15.94" height="4" fill="#2e73b8"/>
    <circle cx="50" cy="50.32" r="21.55" transform="matrix(0.97, -0.26, 0.26, 0.97, -11.32, 14.66)" fill="#fff"/>
    <path d="M45.94,36.68a1.5,1.5,0,0,1-1.45-1.11l-.37-1.4a1.5,1.5,0,0,1,2.9-.78l.38,1.4a1.5,1.5,0,0,1-1.06,1.84A1.52,1.52,0,0,1,45.94,36.68Z" fill="#2e73b8"/>
    <path d="M54.06,36.68a1.52,1.52,0,0,1-.39-.05,1.5,1.5,0,0,1-1.06-1.84l.38-1.4a1.5,1.5,0,1,1,2.9.78l-.37,1.4A1.5,1.5,0,0,1,54.06,36.68Z" fill="#2e73b8"/>
    <path d="M61.08,40.74A1.5,1.5,0,0,1,60,38.18l1-1a1.5,1.5,0,1,1,2.12,2.12l-1,1A1.5,1.5,0,0,1,61.08,40.74Z" fill="#2e73b8"/>
    <path d="M38.92,40.74a1.5,1.5,0,0,1-1.06-.44l-1-1A1.5,1.5,0,0,1,39,37.15l1,1a1.5,1.5,0,0,1-1.06,2.56Z" fill="#2e73b8"/>
    <circle cx="50" cy="63.15" r="4.71" fill="#2e73b8"/>
    <path d="M50,64.65a1.5,1.5,0,0,1-1.5-1.5V41.23a1.5,1.5,0,0,1,3,0V63.15A1.5,1.5,0,0,1,50,64.65Z" fill="#2e73b8"/>
    <path d="M47.26,42.23H45.57a.5.5,0,0,1,0-1h1.69a.5.5,0,0,1,0,1Z" fill="#2e73b8"/>
    <path d="M47.26,44.91H44.14a.5.5,0,0,1,0-1h3.13a.5.5,0,0,1,0,1Z" fill="#2e73b8"/>
    <path d="M47.26,47.59H45.57a.5.5,0,0,1,0-1h1.69a.5.5,0,0,1,0,1Z" fill="#2e73b8"/>
    <path d="M47.26,50.27H44.14a.5.5,0,0,1,0-1h3.13a.5.5,0,0,1,0,1Z" fill="#2e73b8"/>
    <path d="M47.26,52.94H45.57a.5.5,0,0,1,0-1h1.69a.5.5,0,0,1,0,1Z" fill="#2e73b8"/>
    <path d="M47.26,55.62H44.14a.5.5,0,0,1,0-1h3.13a.5.5,0,0,1,0,1Z" fill="#2e73b8"/>
    <path d="M47.26,58.3H45.57a.5.5,0,0,1,0-1h1.69a.5.5,0,0,1,0,1Z" fill="#2e73b8"/>
  </g>
</svg>
