<svg id="Layer_1" data-name="Layer 1" xmlns="http://www.w3.org/2000/svg" width="100" height="100" viewBox="0 0 100 100">
  <title>InternetOfThings</title>
  <g>
    <path d="M60.31,13.25H32.88c-4,0-7.16,2.35-7.16,5.67v42c0,3.31,3.21,6.33,7.16,6.33H48.53v-3H48.4A14,14,0,0,1,67.72,52.13V18.92C67.72,15.6,64.27,13.25,60.31,13.25Z" fill="#19486f"/>
    <path d="M60.31,10.25H32.88c-4,0-7.16,2.35-7.16,5.67v42c0,3.31,3.21,6.33,7.16,6.33H48.53A14,14,0,0,1,67.72,49.13V15.92C67.72,12.6,64.27,10.25,60.31,10.25Z" fill="#2e73b8"/>
    <polygon points="35.11 50.44 32.32 47.4 29.23 50.49 29.23 50.49 35.05 56.31 44.88 46.48 42.64 44.19 35.11 50.44" fill="#fff"/>
    <g style="isolation: isolate">
      <path d="M29.41,31.61h3.43l3.73,3.53,3.89-3.53h3.22l-5.43,4.82,5.83,5.18h-3.5l-4.1-3.82-4.17,3.82H29l5.83-5.18Z" fill="#99bce3"/>
    </g>
    <g style="isolation: isolate">
      <path d="M29.41,17.11h3.43l3.73,3.53,3.89-3.53h3.22l-5.43,4.82,5.83,5.18h-3.5l-4.1-3.82-4.17,3.82H29l5.83-5.18Z" fill="#99bce3"/>
    </g>
    <path d="M56,61.69h0a1.22,1.22,0,0,0,0,2.44h0a1.22,1.22,0,1,0,0-2.44Z" fill="none"/>
    <path d="M62.4,78.8a11.85,11.85,0,0,1-9.27-4.46V89.75l9.27-6.38,9.27,6.38V74.34A11.85,11.85,0,0,1,62.4,78.8Z" fill="#19486f"/>
    <path d="M62.4,52.56A11.87,11.87,0,1,0,74.28,64.43,11.88,11.88,0,0,0,62.4,52.56Z" fill="#19486f"/>
    <path d="M62.4,76.5A11.85,11.85,0,0,1,53.13,72V87.44l9.27-6.38,9.27,6.38V72A11.85,11.85,0,0,1,62.4,76.5Z" fill="#2e73b8"/>
    <path d="M62.4,50.25A11.87,11.87,0,1,0,74.28,62.13,11.88,11.88,0,0,0,62.4,50.25Z" fill="#2e73b8"/>
    <path d="M69.73,61.23l-1.53.92L67.62,62,67,61.35l-1.68.16-.7-1.21-2,0-.45,0a4.16,4.16,0,0,0-1-1.09,4.34,4.34,0,0,0-5.44,0,4.25,4.25,0,0,0-.27,6.39,4.33,4.33,0,0,0,5.73.24,3.48,3.48,0,0,0,.58-.58,3.3,3.3,0,0,0,.44-.66,3.84,3.84,0,0,0,.25-.51h8l.81-1.43ZM56.58,63.61h0a1.12,1.12,0,0,1,0-2.25h0a1.12,1.12,0,1,1,0,2.25Z" fill="#fff"/>
  </g>
</svg>
