<svg id="Layer_1" data-name="Layer 1" xmlns="http://www.w3.org/2000/svg" width="100" height="100" viewBox="0 0 100 100">
  <title>InternetOfThings</title>
  <g>
    <path d="M61.92,24.91l-3.7,2.53-1.83-4.07A17.51,17.51,0,0,0,40.45,13.1,17.46,17.46,0,0,0,23,30.59l.07,3.24-2.75.79c-4.46,1.28-8.05,7-8.05,10.86v1.39c0,4.7,5.7,10.17,13,10.17H74.7c7.34,0,13-5.47,13-10.17V45.49c0-4.73-5.28-11-11.44-11.49L73,33.72l-.11-3.3a7,7,0,0,0-11-5.51Z" fill="#19486f"/>
    <path d="M61.92,21.91l-3.7,2.53-1.83-4.07A17.51,17.51,0,0,0,40.45,10.1,17.46,17.46,0,0,0,23,27.59l.07,3.24-2.75.79c-4.46,1.28-8.05,7-8.05,10.86v1.39c0,4.7,5.7,10.17,13,10.17H74.7c7.34,0,13-5.47,13-10.17V42.49c0-4.73-5.28-11-11.44-11.49L73,30.72l-.11-3.3a7,7,0,0,0-11-5.51Z" fill="#2e73b8"/>
    <rect x="20.07" y="67.73" width="58" height="22.17" fill="#19486f"/>
    <rect x="20.07" y="64.73" width="58" height="22.17" fill="#2e73b8"/>
    <rect x="27.07" y="70.73" width="9.67" height="9.67" rx="4.83" ry="4.83" fill="#fff"/>
    <polygon points="55.24 80.39 42.74 80.39 48.99 70.73 55.24 80.39" fill="#fff"/>
    <rect x="61.24" y="70.73" width="9.67" height="9.67" fill="#fff"/>
    <rect x="23.9" y="33.44" width="50" height="15.75" fill="#fff"/>
    <rect x="27.07" y="36.4" width="9.67" height="9.67" rx="4.83" ry="4.83" fill="#2e73b8"/>
    <polygon points="55.24 46.06 42.74 46.06 48.99 36.4 55.24 46.06" fill="#2e73b8"/>
    <rect x="61.24" y="36.4" width="9.67" height="9.67" fill="#2e73b8"/>
  </g>
</svg>
