<svg id="Layer_1" data-name="Layer 1" xmlns="http://www.w3.org/2000/svg" xmlns:xlink="http://www.w3.org/1999/xlink" width="100" height="100" viewBox="0 0 100 100">
  <defs>
    <radialGradient id="radial-gradient" cx="61.24" cy="347.29" fx="50.20685436638142" r="49.51" gradientTransform="matrix(0.29, -0.96, 0.54, 0.17, -139.57, 48.12)" gradientUnits="userSpaceOnUse">
      <stop offset="0.17" stop-color="#fff"/>
      <stop offset="0.46" stop-color="#00b3ff"/>
    </radialGradient>
    <linearGradient id="linear-gradient" x1="93.32" y1="132.47" x2="89.19" y2="116.1" gradientTransform="matrix(0.95, -0.3, 0.3, 0.95, -66.85, -46.07)" gradientUnits="userSpaceOnUse">
      <stop offset="0.12" stop-color="#fff"/>
      <stop offset="0.19" stop-color="#f8fdff" stop-opacity="0.97"/>
      <stop offset="0.31" stop-color="#e4f7ff" stop-opacity="0.89"/>
      <stop offset="0.44" stop-color="#c3edff" stop-opacity="0.76"/>
      <stop offset="0.6" stop-color="#95e0ff" stop-opacity="0.59"/>
      <stop offset="0.77" stop-color="#5bceff" stop-opacity="0.36"/>
      <stop offset="0.95" stop-color="#15b9ff" stop-opacity="0.08"/>
      <stop offset="1" stop-color="#00b3ff" stop-opacity="0"/>
    </linearGradient>
  </defs>
  <title>InternetOfThings</title>
  <g>
    <g>
      <path d="M50,20.83,10.21,43.77a1.08,1.08,0,0,0-.54.93v3.15a1.78,1.78,0,0,0,1.78,1.78H20V79.74a1.83,1.83,0,0,0,1.83,1.83H78.13A1.83,1.83,0,0,0,80,79.74V49.63h8.59a1.78,1.78,0,0,0,1.78-1.78V44.7a1.08,1.08,0,0,0-.54-.93Z" fill="#19486f"/>
      <path d="M50,18.43,10.21,41.37a1.08,1.08,0,0,0-.54.93v3.15a1.78,1.78,0,0,0,1.78,1.78H20V77.34a1.83,1.83,0,0,0,1.83,1.83H78.13A1.83,1.83,0,0,0,80,77.34V47.23h8.59a1.78,1.78,0,0,0,1.78-1.78V42.3a1.08,1.08,0,0,0-.54-.93Z" fill="#2e73b8"/>
    </g>
    <g>
      <path d="M58.62,36.36h0c-.55-.29-1.11-.54-1.68-.76l-.58-.2c-.38-.14-.75-.27-1.14-.38l-.7-.18c-.35-.09-.69-.17-1-.24l-.75-.12c-.33,0-.66-.1-1-.13L51,34.3l-1,0-.81,0-.92.06-.82.09-.89.15-.82.17L44.9,35l-.82.24c-.27.09-.53.19-.79.29s-.56.21-.83.33-.48.23-.72.35-.56.27-.84.42-.37.23-.56.34a18.67,18.67,0,0,0-1.91,1.31l-.33.25c-.27.22-.53.47-.79.71s-.34.3-.51.46-.47.5-.7.75-.34.36-.49.55-.42.53-.62.81-.23.28-.33.43v0l-.06.08h0l-.12.19-.3.46c-.29.45-.57.92-.82,1.41a18.66,18.66,0,0,0-2,10.78,18.85,18.85,0,0,0,.76,3.52q.27.86.63,1.69a18.71,18.71,0,0,0,4.06,6q.66.65,1.38,1.24a18.84,18.84,0,0,0,3.18,2.08h0c.55.29,1.11.54,1.68.76l.58.2c.38.14.75.27,1.14.38l.7.18c.34.09.69.17,1,.24l.75.12c.33,0,.66.1,1,.13l.79.05,1,0,.81,0,.92-.06.82-.09.89-.15.82-.17.84-.22.83-.25c.27-.09.53-.19.79-.29s.56-.21.83-.33.48-.23.72-.35.56-.27.84-.42.37-.22.55-.33a18.68,18.68,0,0,0,1.93-1.32l.31-.24c.28-.23.54-.47.8-.72s.34-.3.5-.46.47-.5.7-.76.33-.36.49-.55.42-.53.62-.81.23-.28.33-.43v0l.06-.08h0l.12-.19.3-.46c.29-.45.57-.92.82-1.4a18.75,18.75,0,0,0-8-25.27ZM57,42.18a13.39,13.39,0,0,1,1.2.87l.26.23q.36.31.71.65A12.87,12.87,0,0,1,46,65.25a12.56,12.56,0,0,1-1.36-.53l-.29-.14c-.35-.17-.68-.36-1-.55L43,63.84a13.37,13.37,0,0,1-1.2-.87l-.26-.23q-.36-.31-.71-.65A12.87,12.87,0,0,1,54,40.78a12.56,12.56,0,0,1,1.36.53l.29.14c.35.17.68.36,1,.55Z" fill="url(#radial-gradient)"/>
      <path d="M66.46,44a18.66,18.66,0,0,0-7.84-7.66h0c-.55-.29-1.11-.54-1.68-.76l-.58-.2c-.38-.14-.75-.27-1.14-.38l-.7-.18c-.35-.09-.69-.17-1-.24l-.75-.12c-.33,0-.66-.1-1-.13L51,34.3l-1,0-.81,0-.92.06-.82.09-.89.15-.82.17L44.9,35l-.58.17,1.79,5.62a12.9,12.9,0,0,1,7.87,0,12.57,12.57,0,0,1,1.36.53l.29.14c.35.17.68.36,1,.55l.32.18a13.39,13.39,0,0,1,1.2.87l.26.23q.36.31.71.65a12.91,12.91,0,0,1,3.72,8.32l5.73-1.82A18.85,18.85,0,0,0,66.46,44Z" fill="url(#linear-gradient)"/>
    </g>
  </g>
</svg>
