<svg id="Layer_1" data-name="Layer 1" xmlns="http://www.w3.org/2000/svg" width="100" height="100" viewBox="0 0 100 100">
  <title>InternetOfThings</title>
  <g>
    <rect x="23.5" y="25.99" width="53" height="53" rx="9.12" ry="9.12" fill="#19486f"/>
    <rect x="23.5" y="23.51" width="53" height="53" rx="9.12" ry="9.12" fill="#2e73b8"/>
    <rect x="60" y="14.4" width="4" height="13.65" fill="#2e73b8"/>
    <rect x="36" y="14.4" width="4" height="13.65" fill="#2e73b8"/>
    <rect x="54" y="14.4" width="4" height="13.65" fill="#2e73b8"/>
    <rect x="42" y="14.4" width="4" height="13.65" fill="#2e73b8"/>
    <rect x="48" y="14.4" width="4" height="13.65" fill="#2e73b8"/>
    <rect x="14.4" y="60" width="18.1" height="4" fill="#2e73b8"/>
    <rect x="14.4" y="42" width="18.1" height="4" fill="#2e73b8"/>
    <rect x="14.4" y="54" width="18.1" height="4" fill="#2e73b8"/>
    <rect x="14.4" y="48" width="18.1" height="4" fill="#2e73b8"/>
    <rect x="14.4" y="36" width="18.1" height="4" fill="#2e73b8"/>
    <rect x="36" y="69.88" width="4" height="15.72" fill="#2e73b8"/>
    <rect x="60" y="69.88" width="4" height="15.72" fill="#2e73b8"/>
    <rect x="42" y="69.88" width="4" height="15.72" fill="#2e73b8"/>
    <rect x="54" y="69.88" width="4" height="15.72" fill="#2e73b8"/>
    <rect x="48" y="69.88" width="4" height="15.72" fill="#2e73b8"/>
    <rect x="69.67" y="54" width="15.94" height="4" fill="#2e73b8"/>
    <rect x="69.67" y="36" width="15.94" height="4" fill="#2e73b8"/>
    <rect x="69.67" y="48" width="15.94" height="4" fill="#2e73b8"/>
    <rect x="69.67" y="42" width="15.94" height="4" fill="#2e73b8"/>
    <rect x="69.67" y="60" width="15.94" height="4" fill="#2e73b8"/>
    <rect x="29.95" y="39.73" width="39.75" height="24.25" rx="2.46" ry="2.46" fill="#fff"/>
    <path d="M53,61.86a10,10,0,1,1,10-10A10,10,0,0,1,53,61.86Zm0-17a7,7,0,1,0,7,7A7,7,0,0,0,53,44.86Z" fill="#2e73b8"/>
    <circle cx="53" cy="51.86" r="5.25" fill="#2e73b8"/>
    <rect x="33.12" y="42.98" width="6.38" height="3" fill="#2e73b8"/>
    <polygon points="61.5 38.65 44.5 38.65 46.76 33.98 59.24 33.98 61.5 38.65" fill="#fff"/>
  </g>
</svg>
