<svg id="Layer_1" data-name="Layer 1" xmlns="http://www.w3.org/2000/svg" width="100" height="100" viewBox="0 0 100 100">
  <title>InternetOfThings</title>
  <g>
    <rect x="23.5" y="25.99" width="53" height="53" rx="9.12" ry="9.12" fill="#19486f"/>
    <rect x="23.5" y="23.51" width="53" height="53" rx="9.12" ry="9.12" fill="#2e73b8"/>
    <rect x="60" y="14.4" width="4" height="13.65" fill="#2e73b8"/>
    <rect x="36" y="14.4" width="4" height="13.65" fill="#2e73b8"/>
    <rect x="54" y="14.4" width="4" height="13.65" fill="#2e73b8"/>
    <rect x="42" y="14.4" width="4" height="13.65" fill="#2e73b8"/>
    <rect x="48" y="14.4" width="4" height="13.65" fill="#2e73b8"/>
    <rect x="14.4" y="60" width="18.1" height="4" fill="#2e73b8"/>
    <rect x="14.4" y="42" width="18.1" height="4" fill="#2e73b8"/>
    <rect x="14.4" y="54" width="18.1" height="4" fill="#2e73b8"/>
    <rect x="14.4" y="48" width="18.1" height="4" fill="#2e73b8"/>
    <rect x="14.4" y="36" width="18.1" height="4" fill="#2e73b8"/>
    <rect x="36" y="69.88" width="4" height="15.72" fill="#2e73b8"/>
    <rect x="60" y="69.88" width="4" height="15.72" fill="#2e73b8"/>
    <rect x="42" y="69.88" width="4" height="15.72" fill="#2e73b8"/>
    <rect x="54" y="69.88" width="4" height="15.72" fill="#2e73b8"/>
    <rect x="48" y="69.88" width="4" height="15.72" fill="#2e73b8"/>
    <rect x="69.67" y="54" width="15.94" height="4" fill="#2e73b8"/>
    <rect x="69.67" y="36" width="15.94" height="4" fill="#2e73b8"/>
    <rect x="69.67" y="48" width="15.94" height="4" fill="#2e73b8"/>
    <rect x="69.67" y="42" width="15.94" height="4" fill="#2e73b8"/>
    <rect x="69.67" y="60" width="15.94" height="4" fill="#2e73b8"/>
    <path d="M40.45,60.45h0C38.13,58.14,50.69,45.58,52,44.31L62.82,33.46c3.37-3.37,7.2-5.11,8.47-3.84h0c1.27,1.27-.46,5.1-3.84,8.47L56.6,48.94C55.32,50.21,42.77,62.77,40.45,60.45Z" fill="#fff"/>
    <g>
      <polygon points="38.27 62.64 27.29 59.74 30.69 56.34 43.1 57.81 38.27 62.64" fill="#fff"/>
      <polygon points="38.27 62.64 41.16 73.61 44.56 70.22 43.1 57.81 38.27 62.64" fill="#fff"/>
    </g>
    <g>
      <polygon points="51.97 48.93 29.53 37.76 31.7 35.59 60.37 40.54 51.97 48.93" fill="#fff"/>
      <polygon points="51.97 48.93 63.15 71.37 65.31 69.21 60.37 40.54 51.97 48.93" fill="#fff"/>
    </g>
    <rect x="36.68" y="32.86" width="2.25" height="5.43" transform="translate(36.23 -16.31) rotate(45)" fill="#fff"/>
    <rect x="46.01" y="34.25" width="2.25" height="5.43" transform="translate(39.94 -22.5) rotate(45)" fill="#fff"/>
    <rect x="64.21" y="60.39" width="2.25" height="5.43" transform="translate(66.91 153.92) rotate(-135)" fill="#fff"/>
    <rect x="62.82" y="51.06" width="2.25" height="5.43" transform="translate(71.13 137.01) rotate(-135)" fill="#fff"/>
  </g>
</svg>
