<svg id="Layer_1" data-name="Layer 1" xmlns="http://www.w3.org/2000/svg" width="100" height="100" viewBox="0 0 100 100">
  <title>InternetOfThings</title>
  <g>
    <rect x="23.5" y="25.99" width="53" height="53" rx="9.12" ry="9.12" fill="#19486f"/>
    <rect x="23.5" y="23.51" width="53" height="53" rx="9.12" ry="9.12" fill="#2e73b8"/>
    <rect x="60" y="14.4" width="4" height="13.65" fill="#2e73b8"/>
    <rect x="36" y="14.4" width="4" height="13.65" fill="#2e73b8"/>
    <rect x="54" y="14.4" width="4" height="13.65" fill="#2e73b8"/>
    <rect x="42" y="14.4" width="4" height="13.65" fill="#2e73b8"/>
    <rect x="48" y="14.4" width="4" height="13.65" fill="#2e73b8"/>
    <rect x="14.4" y="60" width="18.1" height="4" fill="#2e73b8"/>
    <rect x="14.4" y="42" width="18.1" height="4" fill="#2e73b8"/>
    <rect x="14.4" y="54" width="18.1" height="4" fill="#2e73b8"/>
    <rect x="14.4" y="48" width="18.1" height="4" fill="#2e73b8"/>
    <rect x="14.4" y="36" width="18.1" height="4" fill="#2e73b8"/>
    <rect x="36" y="69.88" width="4" height="15.72" fill="#2e73b8"/>
    <rect x="60" y="69.88" width="4" height="15.72" fill="#2e73b8"/>
    <rect x="42" y="69.88" width="4" height="15.72" fill="#2e73b8"/>
    <rect x="54" y="69.88" width="4" height="15.72" fill="#2e73b8"/>
    <rect x="48" y="69.88" width="4" height="15.72" fill="#2e73b8"/>
    <rect x="69.67" y="54" width="15.94" height="4" fill="#2e73b8"/>
    <rect x="69.67" y="36" width="15.94" height="4" fill="#2e73b8"/>
    <rect x="69.67" y="48" width="15.94" height="4" fill="#2e73b8"/>
    <rect x="69.67" y="42" width="15.94" height="4" fill="#2e73b8"/>
    <rect x="69.67" y="60" width="15.94" height="4" fill="#2e73b8"/>
    <rect x="31.5" y="41.17" width="37" height="26.41" fill="#fff"/>
    <rect x="29.02" y="40" width="41.96" height="2.48" fill="#fff"/>
    <rect x="29.02" y="66.15" width="41.96" height="2.62" fill="#fff"/>
    <polygon points="50 27.97 29.02 40 70.98 40 50 27.97" fill="#fff"/>
    <path d="M50.91,38.89c4.43.27,8.56,2.6,8.6,7.76h-6.2a2.7,2.7,0,0,0-2.4-2.87v4.53c.77.2,1.63.4,2.47.63,3.43,1,6.9,2.57,6.9,6.86,0,5.57-4.5,7.63-9.36,7.83v3H49.34v-3c-5.26-.17-9.73-2.5-9.76-8.37h6.2c.13,2.4,1.47,3.37,3.57,3.6V53.65l-2.1-.57c-3.4-1-7-2.5-7-6.86,0-5.13,4.73-7.2,9.06-7.37v-3h1.57Zm-1.57,4.77c-1.3,0-2.87.53-2.87,2.17,0,1.07,1.17,1.63,2.87,2.1Zm1.57,15.2c1.47-.1,3.17-.7,3.17-2.3,0-1.3-1.27-1.93-3.17-2.47Z" fill="#2e73b8"/>
  </g>
</svg>
