<svg id="Layer_1" data-name="Layer 1" xmlns="http://www.w3.org/2000/svg" xmlns:xlink="http://www.w3.org/1999/xlink" width="100" height="100" viewBox="0 0 100 100">
  <defs>
    <linearGradient id="linear-gradient" x1="27.84" y1="53.5" x2="68.37" y2="42.71" gradientUnits="userSpaceOnUse">
      <stop offset="0" stop-color="#d3d3d3"/>
      <stop offset="0.5" stop-color="#7b7b7b"/>
      <stop offset="1" stop-color="#373737"/>
    </linearGradient>
  </defs>
  <title>MobileServices_GRAYSCALE</title>
  <g>
    <polygon points="70.37 59.36 70.37 35.84 50 24.08 29.64 35.84 29.64 59.36 50 71.12 70.37 59.36" fill="url(#linear-gradient)"/>
    <path d="M50,31.54l-13.91,8V55.63l13.91,8,13.91-8V39.57ZM62.5,54.82,50,62,37.5,54.82V40.38L50,33.16l12.5,7.22Z" fill="#fff"/>
    <polygon points="73.69 65.05 68.29 68.17 68.29 72.22 53.68 80.65 50 78.53 46.32 80.65 31.71 72.22 31.71 68.17 26.31 65.05 20.91 68.17 20.91 74.41 26.31 77.53 30.17 75.3 44.6 83.63 44.6 87.88 50 91 55.4 87.88 55.4 83.63 69.83 75.3 73.69 77.53 79.09 74.41 79.09 68.17 73.69 65.05" fill="#7b7b7b"/>
    <polygon points="83.9 50.92 83.91 34.26 87.59 32.13 87.59 25.9 82.19 22.78 78.5 24.9 64.07 16.57 64.07 12.12 58.67 9 53.27 12.12 53.27 18.36 58.67 21.48 62.18 19.45 76.78 27.88 76.78 32.13 80.46 34.26 80.46 51.13 76.96 53.15 76.96 59.39 82.36 62.51 87.76 59.39 87.76 53.15 83.9 50.92" fill="#373737"/>
    <polygon points="41.33 9 35.93 12.12 35.93 16.58 21.5 24.91 17.82 22.78 12.41 25.9 12.41 32.14 16.09 34.26 16.1 50.92 12.24 53.15 12.24 59.39 17.64 62.51 23.04 59.39 23.04 53.15 19.54 51.13 19.54 34.26 23.22 32.14 23.22 27.89 37.82 19.45 41.33 21.48 46.73 18.36 46.73 12.12 41.33 9" fill="#d3d3d3"/>
  </g>
</svg>
