<svg id="Layer_1" data-name="Layer 1" xmlns="http://www.w3.org/2000/svg" width="100" height="100" viewBox="0 0 100 100">
  <title>Messaging</title>
  <g>
    <polygon points="42.2 77.81 35.11 75.83 28.41 68.19 35.88 68.81 42.2 77.81" fill="#b8852e"/>
    <polygon points="42.2 77.81 47.27 67.19 42.53 66.52 35.88 68.81 42.2 77.81" fill="#d9a741"/>
    <polygon points="25.81 72.78 21.83 71.66 17.44 66.65 22.1 67.38 25.81 72.78" fill="#b8852e"/>
    <polygon points="25.81 72.78 28.67 66.8 26 66.42 22.1 67.38 25.81 72.78" fill="#d9a741"/>
    <polygon points="15.7 66.82 19.77 67.65 39.71 50.31 19.77 30.89 15.7 32.94 15.7 66.82" fill="#876929"/>
    <polygon points="35.51 34.31 35.51 66.19 19.77 67.65 19.77 30.89 35.51 34.31" fill="#d9a741"/>
    <polygon points="24.8 68.73 31.78 70.14 51.06 47.81 31.78 24.82 24.8 28.35 24.8 68.73" fill="#876929"/>
    <polygon points="71.64 37.48 71.64 65.01 31.78 70.14 31.78 24.82 71.64 37.48" fill="#d9a741"/>
    <polygon points="64.43 84.37 54.36 81.55 44.84 70.69 55.46 71.58 64.43 84.37" fill="#b8852e"/>
    <polygon points="64.43 84.37 71.64 69.28 64.9 68.32 55.46 71.58 64.43 84.37" fill="#d9a741"/>
    <polygon points="39.71 71.63 49.98 73.61 63.91 44.62 49.98 15.63 39.71 20.82 39.71 71.63" fill="#876929"/>
    <polygon points="49.98 73.61 84.3 66.74 84.3 32.79 49.98 15.63 49.98 73.61" fill="#d9a741"/>
  </g>
</svg>
