<svg id="Layer_1" data-name="Layer 1" xmlns="http://www.w3.org/2000/svg" width="100" height="100" viewBox="0 0 100 100">
  <title>Migration</title>
  <g>
    <polygon points="40.6 64 25.65 61.2 15.9 62.19 29.95 81.48 40.6 64" fill="#99bce3"/>
    <polygon points="40.6 36.33 25.65 39.13 15.9 38.14 29.95 18.85 40.6 36.33" fill="#19486f"/>
    <polygon points="29.95 34.74 15.9 38.14 15.9 25.87 29.95 18.85 39.56 29.32 29.95 34.74" fill="#205b99"/>
    <polygon points="29.95 59.17 15.9 57.1 15.9 42.7 29.95 40.57 37.99 50.95 29.95 59.17" fill="#205b99"/>
    <polygon points="29.95 65.64 15.9 62.19 15.9 74.46 29.95 81.48 39.56 72.54 29.95 65.64" fill="#205b99"/>
    <polygon points="40.6 36.33 29.95 34.74 29.95 18.85 40.6 22.09 40.6 36.33" fill="#5294cf"/>
    <polygon points="40.6 64 29.95 65.64 29.95 81.48 40.6 78.24 40.6 64" fill="#5294cf"/>
    <polygon points="40.6 58.18 29.95 59.17 29.95 40.57 40.6 41.55 40.6 58.18" fill="#5294cf"/>
    <polygon points="73.01 27.03 73.01 75.45 79.75 71.16 83.55 52.38 80.4 28.08 73.01 27.03" fill="#205b99"/>
    <polygon points="53.1 30.24 56.39 18.85 82.75 33.88 73.13 35.23 53.1 30.24" fill="#19486f"/>
    <polygon points="50.78 70.47 60.29 78.59 82.75 66.25 73.08 64.88 50.78 70.47" fill="#99bce3"/>
    <polygon points="35.58 83.97 49.99 91.17 59.72 51.24 49.99 8.83 35.58 16.03 35.58 83.97" fill="#205b99"/>
    <path d="M50,8.83V91.17L84.1,74.12V25.88Zm29.76,57L60.22,71.68V28.49L79.75,34.3Z" fill="#5294cf"/>
  </g>
</svg>
