<svg id="Layer_1" data-name="Layer 1" xmlns="http://www.w3.org/2000/svg" width="100" height="100" viewBox="0 0 100 100">
  <title>Migration</title>
  <g>
    <polygon points="53.59 58.35 50.04 58.01 16.04 61.34 19.12 75.47 53.59 58.35" fill="#99bce3"/>
    <polygon points="16.09 61.33 19.12 62.05 50.71 62.35 19.12 75.47 16.09 73.96 16.09 61.33" fill="#205b99"/>
    <polygon points="53.66 58.35 19.12 62.05 19.12 75.47 53.66 67.66 53.66 58.35" fill="#5294cf"/>
    <polygon points="62.69 59.04 58.46 58.63 22.48 62.87 26.44 79.16 62.69 59.04" fill="#99bce3"/>
    <polygon points="22.51 62.88 26.44 63.81 58.04 63.95 26.44 79.16 22.51 77.19 22.51 62.88" fill="#205b99"/>
    <polygon points="62.78 59.05 26.44 63.81 26.44 79.16 62.78 69.11 62.78 59.05" fill="#5294cf"/>
    <polygon points="71.69 60.13 66.53 59.62 30.93 64.88 36.23 84.05 71.69 60.13" fill="#99bce3"/>
    <polygon points="30.93 64.89 36.23 66.14 65.55 66.69 36.23 84.05 30.93 81.4 30.93 64.89" fill="#205b99"/>
    <polygon points="71.85 60.12 36.23 66.14 36.23 84.05 71.85 71.37 71.85 60.12" fill="#5294cf"/>
    <polygon points="83.96 38.64 50.03 41.96 16.09 38.64 50.03 9 83.96 38.64" fill="#19486f"/>
    <polygon points="83.96 61.33 77.54 60.7 42.49 67.62 50.03 91 83.96 61.33" fill="#99bce3"/>
    <polygon points="31.18 62.26 26.54 61.35 26.54 48.51 31.18 48.4 31.18 62.26" fill="#205b99"/>
    <polygon points="31.18 62.26 35.5 61.66 35.5 48.47 31.18 48.4 31.18 62.26" fill="#5294cf"/>
    <polygon points="43.57 51.82 39.21 51.71 39.21 36.2 43.57 35.35 47.83 44.38 43.57 51.82" fill="#205b99"/>
    <polygon points="48.17 36.11 43.59 35.35 43.59 51.82 48.17 51.72 48.17 36.11" fill="#5294cf"/>
    <polygon points="51.94 60.65 57.11 61.31 60.81 55.33 57.11 48.85 51.94 48.92 51.94 60.65" fill="#205b99"/>
    <polygon points="64.5 51.46 69.14 51.54 73.43 45.15 69.14 37.71 64.5 38.27 64.5 51.46" fill="#205b99"/>
    <polygon points="35.5 42.79 30.73 43.3 26.54 43.02 31.18 37.74 35.5 42.79" fill="#19486f"/>
    <polygon points="60.95 44.87 55.81 45.15 51.94 44.9 57.11 38.69 60.95 44.87" fill="#19486f"/>
    <polygon points="48.17 58.2 43.82 57.75 39.21 58.15 43.53 64.69 48.17 58.2" fill="#99bce3"/>
    <polygon points="73.51 56.69 69.03 56.41 64.5 56.87 69.1 62.35 73.51 56.69" fill="#99bce3"/>
    <polygon points="42.49 67.62 50.03 69.41 82.21 68.4 50.03 90.96 42.49 87.19 42.49 67.62" fill="#205b99"/>
    <polygon points="83.96 74 50.03 91 50.03 69.37 83.96 61.33 83.96 74" fill="#5294cf"/>
    <polygon points="16.09 25.97 50.03 9 83.6 32.2 50.03 30.63 16.09 38.64 16.09 25.97" fill="#205b99"/>
    <polygon points="83.96 38.64 50.03 30.63 50.03 9 83.96 25.97 83.96 38.64" fill="#5294cf"/>
    <polygon points="31.18 42.47 26.54 43.02 26.54 38.64 31.18 37.74 34.81 40.52 31.18 42.47" fill="#205b99"/>
    <polygon points="31.18 42.47 35.5 42.79 35.5 38.27 31.18 37.74 31.18 42.47" fill="#5294cf"/>
    <polygon points="43.52 64.67 39.21 63.83 39.21 58.15 43.52 58.65 47.83 61.31 43.52 64.67" fill="#205b99"/>
    <polygon points="48.17 58.2 43.53 58.65 43.53 64.69 48.17 63.92 48.17 58.2" fill="#5294cf"/>
    <polygon points="51.94 44.9 57.11 44.59 60.61 41.78 57.11 38.69 51.94 39.34 51.94 44.9" fill="#205b99"/>
    <polygon points="57.11 44.59 60.95 44.87 60.95 39.26 57.11 38.69 57.11 44.59" fill="#5294cf"/>
    <polygon points="64.5 61.79 69.1 62.35 73.38 59.73 69.1 57.2 64.5 56.87 64.5 61.79" fill="#205b99"/>
    <polygon points="69.1 62.38 73.51 61.5 73.51 56.69 69.1 57.2 69.1 62.38" fill="#5294cf"/>
    <polygon points="57.11 61.31 60.95 60.73 60.95 48.91 57.11 48.85 57.11 61.31" fill="#5294cf"/>
    <polygon points="69.14 51.54 73.55 51.42 73.55 38.6 69.14 37.71 69.14 51.54" fill="#5294cf"/>
  </g>
</svg>
