<svg id="Layer_1" data-name="Layer 1" xmlns="http://www.w3.org/2000/svg" width="100" height="100" viewBox="0 0 100 100">
  <title>ManagementTools_GRAYSCALE</title>
  <g>
    <polygon points="16.02 59.61 30.21 59 25.56 78.79 16.02 74.02 16.02 59.61" fill="#4f4f4f"/>
    <polygon points="60.72 60.13 76.69 59 74.44 78.79 60.72 75.08 60.72 60.13" fill="#4f4f4f"/>
    <polygon points="39.31 60.08 25.56 60.13 25.56 78.79 39.31 75.07 39.31 60.08" fill="#acacac"/>
    <polygon points="83.98 59.61 74.44 59.79 74.44 78.79 83.98 74.02 83.98 59.61" fill="#acacac"/>
    <polygon points="31.9 62.78 58.54 62.31 50 91 31.9 81.96 31.9 62.78" fill="#4f4f4f"/>
    <polygon points="68.1 62.78 50 63.46 50 91 68.1 81.96 68.1 62.78" fill="#acacac"/>
    <polygon points="83.98 40.39 50 43.21 16.02 40.39 50 13.34 83.98 40.39" fill="#373737"/>
    <polygon points="68.1 62.78 50 60.47 31.9 62.78 50 66.4 68.1 62.78" fill="#d2d3d3"/>
    <polygon points="39.31 60.08 28.58 58.57 16.02 59.61 25.77 61.56 39.31 60.08" fill="#d2d3d3"/>
    <polygon points="83.98 59.61 71.61 58.58 60.72 60.13 74.44 61.59 83.98 59.61" fill="#d2d3d3"/>
    <polygon points="68.1 40.81 74.44 40.23 77.62 50.64 74.44 59.8 68.1 59.22 68.1 40.81" fill="#4f4f4f"/>
    <polygon points="25.52 40.23 21.62 40.88 21.62 59.14 25.52 59.8 30.85 50.78 25.52 40.23" fill="#4f4f4f"/>
    <polygon points="50 36.59 42.81 37.79 42.81 62.24 50 63.46 55.98 51.28 50 36.59" fill="#4f4f4f"/>
    <polygon points="31.87 40.81 25.52 40.23 25.52 59.8 31.87 59.22 31.87 40.81" fill="#acacac"/>
    <polygon points="16.02 40.39 50 33.6 59.18 22.67 50 9 16.02 25.99 16.02 40.39" fill="#4f4f4f"/>
    <polygon points="83.98 40.39 50 33.6 50 9 83.98 25.99 83.98 40.39" fill="#acacac"/>
    <polygon points="50 36.59 57.16 37.79 57.16 62.24 50 63.46 50 36.59" fill="#acacac"/>
    <polygon points="74.44 40.23 78.35 40.88 78.35 59.14 74.44 59.8 74.44 40.23" fill="#acacac"/>
  </g>
</svg>
