<svg id="Layer_1" data-name="Layer 1" xmlns="http://www.w3.org/2000/svg" width="100" height="100" viewBox="0 0 100 100">
  <title>Analytics_GRAYSCALE</title>
  <g>
    <polygon points="27.91 27.44 15.98 25.85 15.98 67.03 27.91 64.29 27.91 27.44" fill="#989898"/>
    <polygon points="15.98 32.38 27.91 34.19 50 28.41 72.09 34.19 72.09 63.06 84.02 67.03 84.02 25.85 50 8.84 15.98 25.85 15.98 32.38" fill="#4e4e4e"/>
    <polygon points="44.47 26.96 50.07 25.28 77.19 33.42 72.09 34.19 44.47 26.96" fill="#373737"/>
    <polygon points="44.4 78.31 44.4 61.83 72.09 58.07 77.19 58.47 77.19 68.27 44.4 78.31" fill="#d3d3d3"/>
    <polygon points="55.53 26.96 49.93 25.28 22.81 33.42 27.91 34.19 55.53 26.96" fill="#373737"/>
    <polygon points="55.6 76 55.6 61.83 27.91 58.07 22.81 58.47 22.81 67.88 55.6 76" fill="#d3d3d3"/>
    <polygon points="84.02 35.47 50 25.26 50 8.84 84.02 25.85 84.02 35.47" fill="#989898"/>
    <polygon points="84.02 67.03 50 79.13 50 62.71 84.02 57.4 84.02 67.03" fill="#989898"/>
    <polygon points="77.19 22.59 84.02 25.98 84.02 67.03 77.19 69.45 77.19 22.59" fill="#989898"/>
    <polygon points="60.18 64.29 50 66.33 50 91.16 60.18 86.04 60.18 64.29" fill="#989898"/>
    <polygon points="72.09 34.19 77.19 33.42 77.19 58.47 72.09 58.07 72.09 34.19" fill="#4e4e4e"/>
    <polygon points="15.98 67.03 50 79.13 50 62.71 15.98 57.4 15.98 67.03" fill="#4e4e4e"/>
    <polygon points="22.81 22.59 15.98 25.98 15.98 67.03 22.81 69.45 22.81 22.59" fill="#4e4e4e"/>
    <polygon points="39.82 64.29 50 66.33 50 91.16 39.82 86.04 39.82 64.29" fill="#4e4e4e"/>
  </g>
</svg>
