<svg id="Layer_1" data-name="Layer 1" xmlns="http://www.w3.org/2000/svg" width="100" height="100" viewBox="0 0 100 100">
  <title>Analytics_GRAYSCALE</title>
  <g>
    <polygon points="68.08 72.14 50 68.14 31.92 72.14 50 91 68.08 72.14" fill="#d3d3d3"/>
    <polygon points="16.04 35.84 50 9 83.97 35.84 50 39.99 16.04 35.84" fill="#373737"/>
    <polygon points="50 25.83 83.97 35.84 83.97 25.98 50 9 50 25.83" fill="#989898"/>
    <polygon points="77.15 47.31 50 45.98 50 62.38 77.15 58.28 77.15 47.31" fill="#989898"/>
    <polygon points="22.85 47.31 50 45.98 50 62.38 22.85 58.28 22.85 47.31" fill="#4e4e4e"/>
    <polygon points="50 25.83 16.04 35.84 16.04 25.98 50 9 50 25.83" fill="#4e4e4e"/>
    <polygon points="68.08 72.14 50 78.4 50 91 68.08 81.96 68.08 72.14" fill="#989898"/>
    <polygon points="31.92 72.14 50 78.4 50 91 31.92 81.96 31.92 72.14" fill="#4e4e4e"/>
  </g>
</svg>
