<svg id="Layer_1" data-name="Layer 1" xmlns="http://www.w3.org/2000/svg" xmlns:xlink="http://www.w3.org/1999/xlink" width="100" height="100" viewBox="0 0 100 100">
  <defs>
    <linearGradient id="linear-gradient" x1="50" y1="-687.73" x2="50" y2="-603.9" gradientTransform="translate(0 696)" gradientUnits="userSpaceOnUse">
      <stop offset="0" stop-color="#f58536"/>
      <stop offset="1" stop-color="#d16929"/>
    </linearGradient>
  </defs>
  <title>BusinessProductivity</title>
  <polygon points="13 28.9 50 7.8 87 28.9 87 71.1 50 92.2 13 71.1 13 28.9" fill="url(#linear-gradient)"/>
  <path d="M71.4,35.8v9L49.3,54.6,27.2,44.8v-9H23.3v33H75.2v-33Zm0,29.2H27.3V49.2L49.4,59l22.1-9.8V65Z" fill="#fff"/>
  <polygon points="49.3 21.7 23.4 33.3 23.4 38.4 27.3 38.4 27.3 35.9 49.3 26 71.4 35.9 71.4 38.4 75.3 38.4 75.3 33.3 49.3 21.7" fill="#fff"/>
  <polygon points="35.1 48.4 35.1 42.1 63.5 42.1 63.5 48.4 67.5 46.6 67.5 38.1 31.2 38.1 31.2 46.6 35.1 48.4" fill="#fff"/>
</svg>
