<svg id="Layer_1" data-name="Layer 1" xmlns="http://www.w3.org/2000/svg" width="100" height="100" viewBox="0 0 100 100">
  <title>Storage_GRAYSCALE</title>
  <g>
    <polygon points="50 45.56 74.43 28.41 83.97 45.2 60.88 46.15 50 45.56" fill="#373737"/>
    <polygon points="50 45.56 25.57 31.45 16.04 45.2 39.12 46.15 50 45.56" fill="#373737"/>
    <polygon points="50 54.44 25.57 73.49 16.04 54.8 39.12 53.85 50 54.44" fill="#d3d3d3"/>
    <polygon points="50 54.44 74.43 73.49 83.97 54.8 60.88 53.85 50 54.44" fill="#d3d3d3"/>
    <polygon points="74.43 44.24 83.97 45.2 83.97 25.98 74.43 28.41 74.43 44.24" fill="#989898"/>
    <polygon points="39.86 29.45 74.43 29.12 74.43 44.24 50 45.56 39.86 29.45" fill="#4e4e4e"/>
    <polygon points="74.43 55.76 83.97 54.8 83.97 74.02 74.43 73.16 74.43 55.76" fill="#989898"/>
    <polygon points="41.38 70.26 74.43 67.31 74.43 55.76 50 54.44 41.38 70.26" fill="#4e4e4e"/>
    <polygon points="50 29.12 21.49 29.31 25.57 44.24 50 45.56 50 29.12" fill="#989898"/>
    <polygon points="25.57 44.24 16.04 45.2 16.04 25.98 25.57 26.61 25.57 44.24" fill="#4e4e4e"/>
    <polygon points="25.57 55.76 16.04 54.8 16.04 74.02 25.57 73.02 25.57 55.76" fill="#4e4e4e"/>
    <polygon points="50 71.64 25.57 67.31 25.57 55.76 50 54.44 50 71.64" fill="#989898"/>
    <polygon points="64.35 39.91 50 37.77 36.44 50.52 50 62.37 64.35 60.2 64.35 39.91" fill="#989898"/>
    <polygon points="35.65 39.91 50 37.77 50 62.37 35.65 60.2 35.65 39.91" fill="#4e4e4e"/>
    <polygon points="74.43 32.69 50 36.66 25.57 32.69 50 9 74.43 32.69" fill="#373737"/>
    <polygon points="74.43 67.31 50 63.34 25.57 67.31 50 91 74.43 67.31" fill="#d3d3d3"/>
    <polygon points="83.97 64.41 50 74.6 50 91 83.97 74.02 83.97 64.41" fill="#989898"/>
    <polygon points="16.04 64.41 50 74.6 50 91 16.04 74.02 16.04 64.41" fill="#4e4e4e"/>
    <polygon points="83.97 35.59 50 25.4 50 9 83.97 25.98 83.97 35.59" fill="#989898"/>
    <polygon points="16.04 35.59 50 25.4 50 9 16.04 25.98 16.04 35.59" fill="#4e4e4e"/>
  </g>
</svg>
