<svg id="Layer_1" data-name="Layer 1" xmlns="http://www.w3.org/2000/svg" width="100" height="100" viewBox="0 0 100 100">
  <title>Analytics</title>
  <g>
    <polygon points="33.63 49.98 29.72 73.4 19.47 75.74 16.07 74.04 16.07 49.98 33.63 49.98" fill="#9d5025"/>
    <polygon points="83.95 41.73 50 44.14 16.05 41.73 50 9 83.95 41.73" fill="#6b3b19"/>
    <polygon points="56.76 49.98 19.47 49.98 19.47 75.74 56.76 67.21 56.76 49.98" fill="#f58534"/>
    <polygon points="38.12 49.98 39.34 76.32 27.4 79.7 23.23 77.62 23.23 49.98 38.12 49.98" fill="#9d5025"/>
    <polygon points="67.93 49.98 27.4 49.98 27.4 79.7 67.93 68.2 67.93 49.98" fill="#f58534"/>
    <polygon points="46.61 49.98 46.61 81.25 37.3 84.65 32.06 82.03 32.06 49.98 46.61 49.98" fill="#9d5025"/>
    <polygon points="76.76 49.98 37.3 49.98 37.3 84.65 76.76 70.22 76.76 49.98" fill="#f58534"/>
    <polygon points="43.23 87.62 43.23 49.98 68.93 49.98 81.26 75.37 49.99 91 43.23 87.62" fill="#9d5025"/>
    <polygon points="49.99 91 49.99 49.98 83.94 49.98 83.94 74.03 49.99 91" fill="#f58534"/>
    <polygon points="83.95 41.73 50 35.89 50 9 83.95 25.97 83.95 41.73" fill="#f58534"/>
    <polygon points="16.05 41.73 50 35.89 50 9 16.05 25.97 16.05 41.73" fill="#9d5025"/>
  </g>
</svg>
