<svg id="Layer_1" data-name="Layer 1" xmlns="http://www.w3.org/2000/svg" width="100" height="100" viewBox="0 0 100 100">
  <title>Analytics</title>
  <g>
    <polygon points="83.92 54.78 49.93 53.37 15.95 54.78 49.93 70.43 83.92 54.78" fill="#fcbf92"/>
    <polygon points="15.96 49.97 56.82 49.97 56.82 12.39 50.04 9 15.96 25.99 15.96 49.97" fill="#9d5025"/>
    <polygon points="84.05 66.88 49.99 61.92 15.96 66.88 50.06 91 84.05 66.88" fill="#fcbf92"/>
    <polygon points="50.04 49.97 68.02 49.97 68.02 24.39 62.77 22.29 50.04 26 50.04 49.97" fill="#9d5025"/>
    <polygon points="62.77 49.97 76.66 49.97 76.66 33.38 72.69 32.19 62.77 33.87 62.77 49.97" fill="#9d5025"/>
    <polygon points="72.69 49.97 83.92 49.97 84.05 30.8 80.64 29.44 72.69 30.88 72.69 49.97" fill="#9d5025"/>
    <polygon points="56.82 12.39 50.04 9 50.04 49.97 56.82 49.97 56.82 12.39" fill="#f58534"/>
    <polygon points="68.02 24.39 62.77 22.29 62.77 49.97 68.02 49.97 68.02 24.39" fill="#f58534"/>
    <polygon points="76.66 33.38 72.69 32.19 72.69 49.97 76.66 49.97 76.66 33.38" fill="#f58534"/>
    <polygon points="80.64 29.44 84.05 30.8 84.05 49.97 80.64 49.97 80.64 29.44" fill="#f58534"/>
    <polygon points="83.92 61.95 49.93 70.43 49.93 58.18 83.92 54.78 83.92 61.95" fill="#f58534"/>
    <polygon points="84.05 66.88 49.93 78.91 49.93 91 84.05 73.94 84.05 66.88" fill="#f58534"/>
    <polygon points="15.96 66.88 49.93 78.82 49.93 91 15.96 74.02 15.96 66.88" fill="#9d5025"/>
    <polygon points="15.95 54.78 49.93 58.18 49.93 70.43 15.95 61.95 15.95 54.78" fill="#9d5025"/>
  </g>
</svg>
