<svg id="Layer_1" data-name="Layer 1" xmlns="http://www.w3.org/2000/svg" width="100" height="100" viewBox="0 0 100 100">
  <title>Analytics</title>
  <g>
    <polygon points="84 64.68 50 60.49 16 64.68 50 91.3 84 64.68" fill="#fcbf92"/>
    <polygon points="16 64.68 50 74.85 50 91.3 16 74.25 16 64.68" fill="#9d5025"/>
    <polygon points="84 64.68 50 74.85 50 91.3 84 74.25 84 64.68" fill="#f58534"/>
    <polygon points="20.39 50.22 16 50.22 16 59.89 20.39 60.69 25.27 55.51 20.39 50.22" fill="#9d5025"/>
    <polygon points="25.27 60.29 20.39 60.69 20.39 50.22 25.27 50.22 25.27 60.29" fill="#f58534"/>
    <polygon points="28.56 38.16 22.78 39.25 22.78 61.19 28.56 62.39 33.85 50.22 28.56 38.16" fill="#9d5025"/>
    <polygon points="33.85 61.79 28.56 62.39 28.56 38.16 33.85 38.76 33.85 61.79" fill="#f58534"/>
    <polygon points="39.83 43.04 31.85 43.84 31.85 63.08 39.83 64.68 48.3 53.81 39.83 43.04" fill="#9d5025"/>
    <polygon points="45.21 63.78 39.83 64.68 39.83 43.04 45.21 43.44 45.21 63.78" fill="#f58534"/>
    <polygon points="50 25.59 44.62 27.29 44.62 65.58 50 66.67 55.38 46.13 50 25.59" fill="#9d5025"/>
    <polygon points="54.98 63.78 60.17 64.68 68.15 50.22 60.17 35.86 54.98 36.66 54.98 63.78" fill="#9d5025"/>
    <polyline points="68.15 50.22 60.17 35.86 54.98 36.66" fill="#9d5025"/>
    <polygon points="66.05 61.79 71.44 62.39 77.22 44.14 71.44 25.99 66.05 27.29 66.05 61.79" fill="#9d5025"/>
    <polygon points="74.73 60.29 79.61 60.69 84 42.64 79.61 24 74.73 25.2 74.73 60.29" fill="#9d5025"/>
    <polygon points="50 25.59 55.38 27.29 55.38 65.58 50 66.67 50 25.59" fill="#f58534"/>
    <polygon points="68.15 37.46 60.17 35.86 60.17 64.68 68.15 63.08 68.15 37.46" fill="#f58534"/>
    <polygon points="77.22 28.29 71.44 25.99 71.44 62.39 77.22 61.19 77.22 28.29" fill="#f58534"/>
    <polygon points="84 26.19 79.61 24 79.61 60.69 84 59.89 84 26.19" fill="#f58534"/>
  </g>
</svg>
