<svg id="Layer_1" data-name="Layer 1" xmlns="http://www.w3.org/2000/svg" width="100" height="100" viewBox="0 0 100 100">
  <title>Analytics</title>
  <g>
    <path d="M72.71,47.1a2,2,0,0,0,2-2V37.81a2,2,0,0,0-2-2H65.42a2,2,0,0,0-1.24.44l-4.5-3.36v-6.3a2,2,0,0,0-2-2H50.4a2,2,0,0,0-2,2v7.29a2,2,0,0,0,.21.87l-6.79,8.06H28.28a3,3,0,0,0-3,3V59.54a3,3,0,0,0,3,3H42a3,3,0,0,0,.76-.11l5.67,5.91a2,2,0,0,0,0,.39V76a2,2,0,0,0,2,2h7.29a2,2,0,0,0,2-2V69.66l4.48-3.38a2,2,0,0,0,1.26.46h7.29a2,2,0,0,0,2-2V57.44a2,2,0,0,0-2-2h-2.4V47.1Zm-8.42,1.32-1.71-3.51.84-.28v.46A2,2,0,0,0,65,47ZM58.88,67.13a2,2,0,0,0-.73-.34l3.09-6.36,2.19.54V63.7Zm-8-31.25H55.4l3.68,7.56L45,48.1V45.82a3,3,0,0,0-.77-2Zm12.5,2.92V42l-1.94.64-3.32-6.83a2,2,0,0,0,.77-.38ZM45,59.54V56.41l13.75,3.41-3.36,6.91h-5l-5.66-5.9A3,3,0,0,0,45,59.54Zm20-4a2,2,0,0,0-1.53,1.94v1l-1.07-.26,1.94-4Zm-5.08,2L45,53.83v-3.1l15.18-5,2.71,5.57Zm7.95-2.08h-.11l-2-4.16,2-4.18h.1Z" fill="#9d5025"/>
    <path d="M72.71,44.62a2,2,0,0,0,2-2V35.33a2,2,0,0,0-2-2H65.42a2,2,0,0,0-1.24.44l-4.5-3.36v-6.3a2,2,0,0,0-2-2H50.4a2,2,0,0,0-2,2V31.4a2,2,0,0,0,.21.87l-6.79,8.06H28.28a3,3,0,0,0-3,3V57.06a3,3,0,0,0,3,3H42a3,3,0,0,0,.76-.11l5.67,5.91a2,2,0,0,0,0,.39v7.29a2,2,0,0,0,2,2h7.29a2,2,0,0,0,2-2V67.18l4.48-3.38a2,2,0,0,0,1.26.46h7.29a2,2,0,0,0,2-2V55a2,2,0,0,0-2-2h-2.4V44.62Zm-8.42,1.32-1.71-3.51.84-.28v.46A2,2,0,0,0,65,44.56ZM58.88,64.65a2,2,0,0,0-.73-.34L61.23,58l2.19.54v2.73Zm-8-31.25H55.4L59.08,41,45,45.62V43.34a3,3,0,0,0-.77-2Zm12.5,2.92v3.21l-1.94.64-3.32-6.83a2,2,0,0,0,.77-.38ZM45,57.06V53.93l13.75,3.41-3.36,6.91h-5l-5.66-5.9A3,3,0,0,0,45,57.06Zm20-4A2,2,0,0,0,63.42,55v1l-1.07-.26,1.94-4Zm-5.08,2L45,51.35v-3.1l15.18-5L62.9,48.8ZM67.82,53h-.11l-2-4.16,2-4.18h.1Z" fill="#f58534"/>
  </g>
</svg>
