<svg id="Layer_1" data-name="Layer 1" xmlns="http://www.w3.org/2000/svg" width="100" height="100" viewBox="0 0 100 100">
  <title>Analytics</title>
  <g>
    <rect x="23.5" y="24.1" width="53" height="53" rx="9.12" ry="9.12" fill="#9d5025"/>
    <rect x="23.5" y="21.6" width="53" height="53" rx="9.12" ry="9.12" fill="#f58534"/>
    <polygon points="32.39 56.63 32.39 66.63 46.19 66.63 46.19 56.63 46.19 52.6 32.39 52.6 32.39 56.63" fill="#fff"/>
    <polygon points="58.66 47.05 69.69 36.01 66.68 33 58.66 24.98 58.66 28.97 46.19 28.97 46.19 33 46.19 43 58.66 43 58.66 47.05" fill="#fff"/>
    <polygon points="42.34 33 42.34 28.97 28.54 28.97 28.54 33 28.54 43 42.34 43 42.34 33" fill="#fff"/>
    <polygon points="62.51 48.59 62.51 52.57 50.04 52.57 50.04 56.61 50.04 66.61 62.51 66.61 62.51 70.65 73.54 59.62 70.53 56.61 62.51 48.59" fill="#fff"/>
  </g>
</svg>
