<svg id="Layer_1" data-name="Layer 1" xmlns="http://www.w3.org/2000/svg" width="100" height="100" viewBox="0 0 100 100">
  <title>Analytics</title>
  <g>
    <path d="M83.13,41H80.42c-2,0-3.66,1.11-3.85,3H72.11c-.49-3.78-2-7-3.7-7H61V35.76c0-2.14-.91-3.78-3.05-3.78H53V30h6c.69,0,2-1,2-1.68V25.63H36V28.3A1.92,1.92,0,0,0,37.52,30H44v2H38.58C36.44,32,34,33.62,34,35.76V37H25.8a4.1,4.1,0,0,0-3.8,4.2V53H17V39.83c0-.75-1-1.35-2-1.35s-2,.61-2,1.35v31c0,.75,1,1.36,2,1.36s2-.61,2-1.36V58h5V69.07A3.84,3.84,0,0,0,25.8,73H43c.67,3,1.92,5,3.37,5H68.41c1.9,0,3.48-4,3.81-8H77v.64A3.1,3.1,0,0,0,80.42,74h2.71C85.27,74,87,72.76,87,70.62v-26A3.72,3.72,0,0,0,83.13,41Z" fill="#9d5025"/>
    <path d="M83.13,38.5H80.42c-2,0-3.66,1.11-3.85,3H72.11c-.49-3.78-2-7-3.7-7H61V33.28c0-2.14-.91-3.78-3.05-3.78H53v-2h6c.69,0,2-1,2-1.68v-.19c0-.69-1.29-1.13-2-1.13H37.52c-.69,0-1.52.43-1.52,1.13v.19a1.92,1.92,0,0,0,1.52,1.68H44v2H38.58c-2.14,0-4.58,1.64-4.58,3.78V34.5H25.8A4.1,4.1,0,0,0,22,38.7V50.5H17V37.35C17,36.6,16,36,15,36s-2,.61-2,1.35v31c0,.75,1,1.36,2,1.36s2-.61,2-1.36V55.5h5V66.59a3.84,3.84,0,0,0,3.8,3.91H43c.67,3,1.92,5,3.37,5H68.41c1.9,0,3.48-4,3.81-8H77v.64a3.1,3.1,0,0,0,3.42,3.36h2.71c2.14,0,3.87-1.22,3.87-3.36v-26A3.72,3.72,0,0,0,83.13,38.5Z" fill="#f58534"/>
  </g>
</svg>
