<?xml version="1.0" encoding="UTF-8" standalone="no"?>
<svg
   xmlns:dc="http://purl.org/dc/elements/1.1/"
   xmlns:cc="http://creativecommons.org/ns#"
   xmlns:rdf="http://www.w3.org/1999/02/22-rdf-syntax-ns#"
   xmlns:svg="http://www.w3.org/2000/svg"
   xmlns="http://www.w3.org/2000/svg"
   xmlns:sodipodi="http://sodipodi.sourceforge.net/DTD/sodipodi-0.dtd"
   xmlns:inkscape="http://www.inkscape.org/namespaces/inkscape"
   id="Product_Icon"
   data-name="Product Icon"
   viewBox="0 0 75 75"
   version="1.1"
   sodipodi:docname="AWS-CodeCommit_light-bg.svg"
   width="75"
   height="75"
   inkscape:version="0.92.2 5c3e80d, 2017-08-06">
  <metadata
     id="metadata23">
    <rdf:RDF>
      <cc:Work
         rdf:about="">
        <dc:format>image/svg+xml</dc:format>
        <dc:type
           rdf:resource="http://purl.org/dc/dcmitype/StillImage" />
        <dc:title>AWS-CodeCommit_light-bg</dc:title>
      </cc:Work>
    </rdf:RDF>
  </metadata>
  <defs
     id="defs21" />
  <sodipodi:namedview
     pagecolor="#ffffff"
     bordercolor="#666666"
     borderopacity="1"
     objecttolerance="10"
     gridtolerance="10"
     guidetolerance="10"
     inkscape:pageopacity="0"
     inkscape:pageshadow="2"
     inkscape:window-width="640"
     inkscape:window-height="480"
     id="namedview19"
     showgrid="false"
     fit-margin-top="0"
     fit-margin-left="0"
     fit-margin-right="0"
     fit-margin-bottom="0"
     inkscape:zoom="3.1466667"
     inkscape:cx="37.5"
     inkscape:cy="37.5"
     inkscape:window-x="0"
     inkscape:window-y="0"
     inkscape:window-maximized="0"
     inkscape:current-layer="Product_Icon" />
  <title
     id="title2">AWS-CodeCommit_light-bg</title>
  <rect
     id="Blue_Light_BG"
     data-name="Blue Light BG"
     width="75"
     height="75"
     style="fill:#3b48cc"
     x="0"
     y="0" />
  <g
     id="Product_Icon-2"
     data-name="Product Icon">
    <path
       d="m 34.5,27.43 a 5,5 0 0 0 -1,9.9 v 6.59 a 2.42,2.42 0 0 1 -1.63,2.22 L 22.8,49.7 a 5.19,5.19 0 0 0 -3,3.06 4.72,4.72 0 0 0 -1.29,-0.46 v -7.78 a 5,5 0 0 0 0,-9.8 V 22.46 a 5,5 0 1 0 -2,0 v 12.26 a 5,5 0 0 0 0,9.8 v 7.78 a 5,5 0 1 0 5,1.92 3,3 0 0 1 2,-2.65 L 32.6,48 a 4.43,4.43 0 0 0 2.9,-4.09 v -6.58 a 5,5 0 0 0 -1,-9.9 z m -20,-9.86 a 3,3 0 1 1 3,3 3,3 0 0 1 -3,-3 z m 0,22 a 3,3 0 1 1 3,3 3,3 0 0 1 -3,-2.95 z m 3,20.58 a 3,3 0 1 1 3,-3 3,3 0 0 1 -3,3.05 z m 17,-24.77 a 3,3 0 1 1 3,-3 3,3 0 0 1 -3,3.05 z"
       style="fill:#ffffff"
       id="path5"
       inkscape:connector-curvature="0" />
    <path
       d="m 61.5,62.43 h -27 a 1,1 0 0 1 -1,-1 v -11 h 2 v 10 h 25 v -36 h -25 v -2 h 26 a 1,1 0 0 1 1,1 v 38 a 1,1 0 0 1 -1,1 z"
       style="fill:#ffffff"
       id="path7"
       inkscape:connector-curvature="0" />
    <path
       d="M 43.32,46.9 39.3,43 A 1,1 0 0 1 39,42.22 1,1 0 0 1 39.4,41.49 l 4.49,-3.36 1.2,1.6 -3.55,2.66 3.17,3.09 z"
       style="fill:#ffffff"
       id="path9"
       inkscape:connector-curvature="0" />
    <path
       d="m 53.11,47.54 -1.2,-1.6 3.55,-2.66 -3.17,-3.09 1.39,-1.44 4,3.91 a 1,1 0 0 1 -0.1,1.52 z"
       style="fill:#ffffff"
       id="path11"
       inkscape:connector-curvature="0" />
    <rect
       x="41.349998"
       y="42.43"
       width="14.22"
       height="2"
       transform="rotate(-66.28,48.46077,43.435956)"
       style="fill:#ffffff"
       id="rect13" />
    <path
       d="m 31.21,25.72 -0.71,0.71 -0.71,0.71 -4.29,-4.29 v 3.58 h -2 v -6 a 1,1 0 0 1 1,-1 h 6 v 2 h -3.58 z"
       style="fill:#ffffff"
       id="path15"
       inkscape:connector-curvature="0" />
  </g>
</svg>
