<?xml version="1.0" encoding="UTF-8" standalone="no"?>
<svg
   xmlns:dc="http://purl.org/dc/elements/1.1/"
   xmlns:cc="http://creativecommons.org/ns#"
   xmlns:rdf="http://www.w3.org/1999/02/22-rdf-syntax-ns#"
   xmlns:svg="http://www.w3.org/2000/svg"
   xmlns="http://www.w3.org/2000/svg"
   xmlns:sodipodi="http://sodipodi.sourceforge.net/DTD/sodipodi-0.dtd"
   xmlns:inkscape="http://www.inkscape.org/namespaces/inkscape"
   id="Layer_1"
   data-name="Layer 1"
   width="50"
   height="50"
   viewBox="0 0 50 50"
   version="1.1"
   sodipodi:docname="ip.svg"
   inkscape:version="0.92.2 5c3e80d, 2017-08-06">
  <metadata
     id="metadata3889">
    <rdf:RDF>
      <cc:Work
         rdf:about="">
        <dc:format>image/svg+xml</dc:format>
        <dc:type
           rdf:resource="http://purl.org/dc/dcmitype/StillImage" />
      </cc:Work>
    </rdf:RDF>
  </metadata>
  <defs
     id="defs3887" />
  <sodipodi:namedview
     pagecolor="#ffffff"
     bordercolor="#666666"
     borderopacity="1"
     objecttolerance="10"
     gridtolerance="10"
     guidetolerance="10"
     inkscape:pageopacity="0"
     inkscape:pageshadow="2"
     inkscape:window-width="997"
     inkscape:window-height="687"
     id="namedview3885"
     showgrid="false"
     inkscape:zoom="4.72"
     inkscape:cx="25"
     inkscape:cy="25"
     inkscape:window-x="0"
     inkscape:window-y="0"
     inkscape:window-maximized="0"
     inkscape:current-layer="Layer_1" />
  <title
     id="title3862">AWS-General_Corporate-Data-Center_light-bg</title>
  <path
     d="M40,48.5H10a1,1,0,0,1-1-1V4.87A3.37,3.37,0,0,1,12.37,1.5H37.63A3.37,3.37,0,0,1,41,4.87V47.5A1,1,0,0,1,40,48.5Zm-29-2H39V4.87A1.38,1.38,0,0,0,37.63,3.5H12.37A1.38,1.38,0,0,0,11,4.87Z"
     style="fill:#232f3e"
     id="path3864" />
  <path
     d="M19.38,13.81H15.63a1,1,0,0,1-1-1V6.25a1,1,0,0,1,1-1h3.75a1,1,0,0,1,1,1v6.56A1,1,0,0,1,19.38,13.81Zm-2.75-2h1.75V7.25H16.63Z"
     style="fill:#232f3e"
     id="path3866" />
  <path
     d="M26.88,13.81H23.13a1,1,0,0,1-1-1V6.25a1,1,0,0,1,1-1h3.75a1,1,0,0,1,1,1v6.56A1,1,0,0,1,26.88,13.81Zm-2.75-2h1.75V7.25H24.13Z"
     style="fill:#232f3e"
     id="path3868" />
  <path
     d="M34.38,13.81H30.63a1,1,0,0,1-1-1V6.25a1,1,0,0,1,1-1h3.75a1,1,0,0,1,1,1v6.56A1,1,0,0,1,34.38,13.81Zm-2.75-2h1.75V7.25H31.63Z"
     style="fill:#232f3e"
     id="path3870" />
  <path
     d="M19.38,24.13H15.63a1,1,0,0,1-1-1V16.56a1,1,0,0,1,1-1h3.75a1,1,0,0,1,1,1v6.57A1,1,0,0,1,19.38,24.13Zm-2.75-2h1.75V17.56H16.63Z"
     style="fill:#232f3e"
     id="path3872" />
  <path
     d="M26.88,24.13H23.13a1,1,0,0,1-1-1V16.56a1,1,0,0,1,1-1h3.75a1,1,0,0,1,1,1v6.57A1,1,0,0,1,26.88,24.13Zm-2.75-2h1.75V17.56H24.13Z"
     style="fill:#232f3e"
     id="path3874" />
  <path
     d="M34.38,24.13H30.63a1,1,0,0,1-1-1V16.56a1,1,0,0,1,1-1h3.75a1,1,0,0,1,1,1v6.57A1,1,0,0,1,34.38,24.13Zm-2.75-2h1.75V17.56H31.63Z"
     style="fill:#232f3e"
     id="path3876" />
  <path
     d="M19.38,34.44H15.63a1,1,0,0,1-1-1V26.88a1,1,0,0,1,1-1h3.75a1,1,0,0,1,1,1v6.56A1,1,0,0,1,19.38,34.44Zm-2.75-2h1.75V27.88H16.63Z"
     style="fill:#232f3e"
     id="path3878" />
  <path
     d="M26.88,34.44H23.13a1,1,0,0,1-1-1V26.88a1,1,0,0,1,1-1h3.75a1,1,0,0,1,1,1v6.56A1,1,0,0,1,26.88,34.44Zm-2.75-2h1.75V27.88H24.13Z"
     style="fill:#232f3e"
     id="path3880" />
  <path
     d="M34.38,34.44H30.63a1,1,0,0,1-1-1V26.88a1,1,0,0,1,1-1h3.75a1,1,0,0,1,1,1v6.56A1,1,0,0,1,34.38,34.44Zm-2.75-2h1.75V27.88H31.63Z"
     style="fill:#232f3e"
     id="path3882" />
  <path
     style="fill:#cccccc;stroke-width:0.21186441"
     d="m 11.059322,25.555617 c 0,-18.5980685 0.03671,-20.9798475 0.32981,-21.3983064 l 0.32981,-0.4708699 h 13.32799 c 12.960159,0 13.334043,0.01131 13.54731,0.4098005 0.146947,0.2745752 0.219317,7.3355558 0.219317,21.3983058 V 46.483051 H 24.936441 11.059322 Z m 8.851164,8.733218 c 0.457586,-0.320507 0.47087,-0.439835 0.47087,-4.229835 0,-3.639006 -0.02743,-3.914701 -0.409801,-4.119343 -0.639624,-0.342316 -4.51126,-0.279697 -5.005214,0.08095 -0.370275,0.270348 -0.418118,0.622776 -0.480118,3.536714 -0.08139,3.82497 0.02321,4.589426 0.663181,4.847178 0.834049,0.33592 4.23429,0.253312 4.761082,-0.115667 z m 7.67426,-0.09392 c 0.390495,-0.390496 0.423729,-0.706214 0.423729,-4.025423 0,-4.558272 0.07159,-4.449153 -2.918961,-4.449153 -3.135371,0 -3.013243,-0.180326 -3.013243,4.449153 0,4.629478 -0.122128,4.449152 3.013243,4.449152 1.789017,0 2.129286,-0.05778 2.495232,-0.423729 z m 7.368112,0.09392 c 0.456742,-0.319916 0.470871,-0.443521 0.470871,-4.119343 0,-4.629479 0.122127,-4.449153 -3.013244,-4.449153 -2.99055,0 -2.91896,-0.109119 -2.91896,4.449153 0,4.558271 -0.07159,4.449152 2.91896,4.449152 1.531977,0 2.194142,-0.0859 2.542373,-0.329809 z M 19.971555,24.017969 c 0.382195,-0.204544 0.409801,-0.479993 0.409801,-4.088983 0,-2.727253 -0.07506,-3.944721 -0.254237,-4.123901 -0.167591,-0.167591 -1.066069,-0.254238 -2.636292,-0.254238 -3.152666,0 -3.041674,-0.158486 -3.041674,4.343221 0,4.473394 -0.0865,4.34322 2.886111,4.34322 1.22457,0 2.410901,-0.09869 2.636291,-0.219319 z m 7.649474,-0.131314 c 0.346254,-0.313355 0.387446,-0.73154 0.387446,-3.93342 0,-2.064548 -0.09294,-3.756443 -0.219319,-3.992587 -0.197755,-0.369508 -0.464391,-0.409801 -2.711864,-0.409801 -1.656161,0 -2.577857,0.08531 -2.746784,0.254238 -0.178619,0.178619 -0.254237,1.371401 -0.254237,4.01029 0,3.132108 0.05531,3.811359 0.33293,4.088983 0.494851,0.494852 4.6611,0.4807 5.211828,-0.0177 z m 7.46977,0.0177 c 0.277625,-0.277624 0.33293,-0.956875 0.33293,-4.088983 0,-2.638889 -0.07562,-3.831671 -0.254237,-4.01029 -0.168926,-0.168927 -1.090623,-0.254238 -2.746784,-0.254238 -2.247473,0 -2.514109,0.04029 -2.711864,0.409801 -0.125519,0.234535 -0.219319,1.890685 -0.219319,3.87235 0,4.557467 -0.103049,4.40429 2.962983,4.40429 1.811479,0 2.374458,-0.0711 2.636291,-0.33293 z m -14.96368,-10.30266 c 0.358031,-0.358031 0.358031,-7.8199348 0,-8.1779662 -0.167591,-0.1675903 -1.066069,-0.2542373 -2.636292,-0.2542373 -3.152666,0 -3.041674,-0.158486 -3.041674,4.3432204 0,4.5017061 -0.110992,4.3432201 3.041674,4.3432201 1.570223,0 2.468701,-0.08665 2.636292,-0.254237 z m 7.548426,-0.07869 c 0.276704,-0.276703 0.33293,-0.944765 0.33293,-3.9557749 0,-4.5814081 0.121408,-4.3977356 -2.906935,-4.3977356 -1.213117,0 -2.390078,0.098693 -2.615468,0.2193186 -0.382195,0.2045446 -0.409801,0.4799931 -0.409801,4.0889831 0,2.7272528 0.07506,3.9447208 0.254237,4.1239018 0.410628,0.410627 4.922138,0.344206 5.345037,-0.07869 z m 7.493947,0.07869 c 0.17918,-0.179181 0.254237,-1.396649 0.254237,-4.1239018 0,-3.60899 -0.02761,-3.8844385 -0.409801,-4.0889831 -0.22539,-0.1206252 -1.385786,-0.2193186 -2.578657,-0.2193186 -3.070588,0 -2.943746,-0.1879061 -2.943746,4.3609235 0,3.044476 0.05597,3.715622 0.33293,3.992587 0.422899,0.422899 4.934409,0.48932 5.345037,0.07869 z"
     id="path3891"
     inkscape:connector-curvature="0" />
  <path
     style="fill:#cccccc;stroke-width:0.21186441"
     d="M 31.822034,9.5127119 V 7.2881356 h 0.741525 0.741526 v 2.2245763 2.2245761 h -0.741526 -0.741525 z"
     id="path3893"
     inkscape:connector-curvature="0" />
  <path
     style="fill:#cccccc;stroke-width:0.21186441"
     d="M 24.194915,9.5127119 V 7.2881356 h 0.847458 0.847458 v 2.2245763 2.2245761 h -0.847458 -0.847458 z"
     id="path3895"
     inkscape:connector-curvature="0" />
  <path
     style="fill:#cccccc;stroke-width:0.21186441"
     d="M 16.779661,9.5127119 V 7.2881356 h 0.741525 0.741526 v 2.2245763 2.2245761 h -0.741526 -0.741525 z"
     id="path3897"
     inkscape:connector-curvature="0" />
  <path
     style="fill:#cccccc;stroke-width:0.21186441"
     d="m 16.779661,19.894068 v -2.224576 h 0.741525 0.741526 v 2.224576 2.224576 h -0.741526 -0.741525 z"
     id="path3899"
     inkscape:connector-curvature="0" />
  <path
     style="fill:#cccccc;stroke-width:0.21186441"
     d="m 24.194915,19.894068 v -2.224576 h 0.847458 0.847458 v 2.224576 2.224576 h -0.847458 -0.847458 z"
     id="path3901"
     inkscape:connector-curvature="0" />
  <path
     style="fill:#cccccc;stroke-width:0.21186441"
     d="m 31.822034,19.894068 v -2.224576 h 0.741525 0.741526 v 2.224576 2.224576 h -0.741526 -0.741525 z"
     id="path3903"
     inkscape:connector-curvature="0" />
  <path
     style="fill:#cccccc;stroke-width:0.21186441"
     d="m 31.822034,30.169492 v -2.118645 h 0.741525 0.741526 v 2.118645 2.118644 h -0.741526 -0.741525 z"
     id="path3905"
     inkscape:connector-curvature="0" />
  <path
     style="fill:#cccccc;stroke-width:0.21186441"
     d="m 24.194915,30.169492 v -2.118645 h 0.847458 0.847458 v 2.118645 2.118644 h -0.847458 -0.847458 z"
     id="path3907"
     inkscape:connector-curvature="0" />
  <path
     style="fill:#cccccc;stroke-width:0.21186441"
     d="m 16.779661,30.169492 v -2.118645 h 0.741525 0.741526 v 2.118645 2.118644 h -0.741526 -0.741525 z"
     id="path3909"
     inkscape:connector-curvature="0" />
</svg>
