<?xml version="1.0" encoding="UTF-8" standalone="no"?>
<svg
   xmlns:dc="http://purl.org/dc/elements/1.1/"
   xmlns:cc="http://creativecommons.org/ns#"
   xmlns:rdf="http://www.w3.org/1999/02/22-rdf-syntax-ns#"
   xmlns:svg="http://www.w3.org/2000/svg"
   xmlns="http://www.w3.org/2000/svg"
   xmlns:sodipodi="http://sodipodi.sourceforge.net/DTD/sodipodi-0.dtd"
   xmlns:inkscape="http://www.inkscape.org/namespaces/inkscape"
   id="Product_Icon"
   data-name="Product Icon"
   viewBox="0 0 75 75"
   version="1.1"
   sodipodi:docname="AWS-Lambda_light-bg.svg"
   width="75"
   height="75"
   inkscape:version="0.92.2 5c3e80d, 2017-08-06">
  <metadata
     id="metadata15">
    <rdf:RDF>
      <cc:Work
         rdf:about="">
        <dc:format>image/svg+xml</dc:format>
        <dc:type
           rdf:resource="http://purl.org/dc/dcmitype/StillImage" />
        <dc:title>AWS-Lambda_light-bg</dc:title>
      </cc:Work>
    </rdf:RDF>
  </metadata>
  <defs
     id="defs13" />
  <sodipodi:namedview
     pagecolor="#ffffff"
     bordercolor="#666666"
     borderopacity="1"
     objecttolerance="10"
     gridtolerance="10"
     guidetolerance="10"
     inkscape:pageopacity="0"
     inkscape:pageshadow="2"
     inkscape:window-width="640"
     inkscape:window-height="480"
     id="namedview11"
     showgrid="false"
     fit-margin-top="0"
     fit-margin-left="0"
     fit-margin-right="0"
     fit-margin-bottom="0"
     inkscape:zoom="3.1466667"
     inkscape:cx="37.5"
     inkscape:cy="37.5"
     inkscape:window-x="0"
     inkscape:window-y="0"
     inkscape:window-maximized="0"
     inkscape:current-layer="Product_Icon" />
  <title
     id="title2">AWS-Lambda_light-bg</title>
  <rect
     id="Orange_Light_BG"
     data-name="Orange Light BG"
     width="75"
     height="75"
     style="fill:#d86613"
     x="0"
     y="0" />
  <g
     id="Product_Icon-2"
     data-name="Product Icon">
    <path
       d="M 60.5,62.5 H 48.18 a 1,1 0 0 1 -0.9,-0.57 L 29.86,25.5 h -7.37 a 1,1 0 0 1 -1,-1 v -11 a 1,1 0 0 1 1,-1 h 15.4 a 1,1 0 0 1 0.9,0.57 L 56.13,49.5 h 4.37 a 1,1 0 0 1 1,1 v 11 a 1,1 0 0 1 -1,1 z m -11.69,-2 H 59.5 v -9 h -4 A 1,1 0 0 1 54.6,50.93 L 37.26,14.5 H 23.5 v 9 h 7 a 1,1 0 0 1 0.9,0.57 z"
       style="fill:#ffffff"
       id="path5"
       inkscape:connector-curvature="0" />
    <path
       d="m 27.48,62.5 h -13 a 1,1 0 0 1 -0.85,-0.47 1,1 0 0 1 -0.05,-1 l 13.6,-28.41 a 1,1 0 0 1 0.9,-0.57 v 0 a 1,1 0 0 1 0.9,0.56 L 35.49,46 a 1,1 0 0 1 0,0.87 l -7.1,15 a 1,1 0 0 1 -0.91,0.63 z m -11.4,-2 h 10.77 l 6.63,-14 -5.39,-11.15 z"
       style="fill:#ffffff"
       id="path7"
       inkscape:connector-curvature="0" />
  </g>
</svg>
