<?xml version="1.0" encoding="UTF-8" standalone="no"?>
<svg
   xmlns:dc="http://purl.org/dc/elements/1.1/"
   xmlns:cc="http://creativecommons.org/ns#"
   xmlns:rdf="http://www.w3.org/1999/02/22-rdf-syntax-ns#"
   xmlns:svg="http://www.w3.org/2000/svg"
   xmlns="http://www.w3.org/2000/svg"
   xmlns:sodipodi="http://sodipodi.sourceforge.net/DTD/sodipodi-0.dtd"
   xmlns:inkscape="http://www.inkscape.org/namespaces/inkscape"
   id="Product_Icon"
   data-name="Product Icon"
   viewBox="0 0 75 75"
   version="1.1"
   sodipodi:docname="rds.svg"
   width="75"
   height="75"
   inkscape:version="0.92.2 5c3e80d, 2017-08-06">
  <metadata
     id="metadata4257">
    <rdf:RDF>
      <cc:Work
         rdf:about="">
        <dc:format>image/svg+xml</dc:format>
        <dc:type
           rdf:resource="http://purl.org/dc/dcmitype/StillImage" />
        <dc:title>Amazon-RDS_light-bg</dc:title>
      </cc:Work>
    </rdf:RDF>
  </metadata>
  <defs
     id="defs4255" />
  <sodipodi:namedview
     pagecolor="#ffffff"
     bordercolor="#666666"
     borderopacity="1"
     objecttolerance="10"
     gridtolerance="10"
     guidetolerance="10"
     inkscape:pageopacity="0"
     inkscape:pageshadow="2"
     inkscape:window-width="640"
     inkscape:window-height="480"
     id="namedview4253"
     showgrid="false"
     fit-margin-top="0"
     fit-margin-left="0"
     fit-margin-right="0"
     fit-margin-bottom="0"
     inkscape:zoom="3.1466667"
     inkscape:cx="37.5"
     inkscape:cy="37.5"
     inkscape:window-x="0"
     inkscape:window-y="0"
     inkscape:window-maximized="0"
     inkscape:current-layer="Product_Icon" />
  <title
     id="title4234">Amazon-RDS_light-bg</title>
  <rect
     id="Blue_Light_BG"
     data-name="Blue Light BG"
     width="75"
     height="75"
     style="fill:#3b48cc"
     x="0"
     y="0" />
  <g
     id="Product_Icon-2"
     data-name="Product Icon">
    <path
       d="m 48.45,28.23 c 0,-2.9 -5.69,-4.24 -11,-4.24 -5.31,0 -11,1.34 -11,4.24 a 1.49,1.49 0 0 0 0.05,0.43 v 18.05 c -0.05,3 5.65,4.28 11,4.28 5.35,0 11,-1.32 11,-4.22 V 28.23 Z M 37.47,26 c 5.83,0 9,1.59 9,2.24 0,0.65 -3.15,2.24 -9,2.24 -5.85,0 -9,-1.58 -9,-2.24 0,-0.66 3.17,-2.24 9,-2.24 z m 9,20.78 c 0,0.64 -3.16,2.22 -9,2.22 -5.84,0 -9,-1.58 -9,-2.22 v -3.16 c 2.11,1.15 5.65,1.7 9,1.7 3.35,0 6.86,-0.54 9,-1.67 z m 0,-5.69 c 0,0.64 -3.15,2.24 -9,2.24 -5.85,0 -9,-1.6 -9,-2.24 h 0.03 v -3.82 c 2.11,1.14 5.65,1.69 9,1.69 3.35,0 6.86,-0.54 9,-1.67 z m 0,-6.37 c 0,0.65 -3.15,2.25 -9,2.25 -5.85,0 -9,-1.6 -9,-2.25 h 0.03 v -3.9 c 2.13,1.13 5.63,1.65 9,1.65 3.37,0 6.91,-0.54 9,-1.69 z"
       style="fill:#ffffff"
       id="path4237"
       inkscape:connector-curvature="0" />
    <path
       d="m 15.91,60.51 h 6.59 v 2 h -9 a 1,1 0 0 1 -1,-1 v -9 h 2 v 6.57 L 22,51.59 23.4,53 Z"
       style="fill:#ffffff"
       id="path4239"
       inkscape:connector-curvature="0" />
    <path
       d="m 62.5,52.51 v 9 a 1,1 0 0 1 -1,1 h -9 v -2 h 6.59 l -7.39,-7.41 1.41,-1.4 7.39,7.38 v -6.57 z"
       style="fill:#ffffff"
       id="path4241"
       inkscape:connector-curvature="0" />
    <path
       d="m 62.5,13.51 v 9 h -2 v -6.6 L 53.11,23.3 51.7,21.89 59.08,14.51 H 52.5 v -2 h 9 a 1,1 0 0 1 1,1 z"
       style="fill:#ffffff"
       id="path4243"
       inkscape:connector-curvature="0" />
    <path
       d="M 23.4,22 22,23.4 14.5,15.91 v 6.58 h -2 v -9 a 1,1 0 0 1 1,-1 h 9 v 2 h -6.59 z"
       style="fill:#ffffff"
       id="path4245"
       inkscape:connector-curvature="0" />
    <path
       d="m 22.16,46.46 c -6.11,-2.2 -9.61,-5.56 -9.61,-9.21 0,-3.65 3.5,-7 9.61,-9.21 l 0.68,1.88 c -5.19,1.87 -8.29,4.61 -8.29,7.33 0,2.72 3.1,5.46 8.29,7.33 z"
       style="fill:#ffffff"
       id="path4247"
       inkscape:connector-curvature="0" />
    <path
       d="m 52.28,46.68 -0.64,-1.9 c 5.55,-1.87 8.86,-4.69 8.86,-7.53 0,-2.84 -3.31,-5.66 -8.86,-7.54 l 0.64,-1.89 c 6.49,2.18 10.22,5.64 10.22,9.43 0,3.79 -3.73,7.23 -10.22,9.43 z"
       style="fill:#ffffff"
       id="path4249"
       inkscape:connector-curvature="0" />
  </g>
</svg>
