<?xml version="1.0" encoding="UTF-8" standalone="no"?>
<svg
   xmlns:dc="http://purl.org/dc/elements/1.1/"
   xmlns:cc="http://creativecommons.org/ns#"
   xmlns:rdf="http://www.w3.org/1999/02/22-rdf-syntax-ns#"
   xmlns:svg="http://www.w3.org/2000/svg"
   xmlns="http://www.w3.org/2000/svg"
   xmlns:sodipodi="http://sodipodi.sourceforge.net/DTD/sodipodi-0.dtd"
   xmlns:inkscape="http://www.inkscape.org/namespaces/inkscape"
   id="Product_Icon"
   data-name="Product Icon"
   viewBox="0 0 75 75"
   version="1.1"
   sodipodi:docname="AWS-Secrets-Manager_light-bg.svg"
   width="75"
   height="75"
   inkscape:version="0.92.2 5c3e80d, 2017-08-06">
  <metadata
     id="metadata31">
    <rdf:RDF>
      <cc:Work
         rdf:about="">
        <dc:format>image/svg+xml</dc:format>
        <dc:type
           rdf:resource="http://purl.org/dc/dcmitype/StillImage" />
        <dc:title>AWS-Secrets-Manager_light-bg</dc:title>
      </cc:Work>
    </rdf:RDF>
  </metadata>
  <defs
     id="defs29" />
  <sodipodi:namedview
     pagecolor="#ffffff"
     bordercolor="#666666"
     borderopacity="1"
     objecttolerance="10"
     gridtolerance="10"
     guidetolerance="10"
     inkscape:pageopacity="0"
     inkscape:pageshadow="2"
     inkscape:window-width="640"
     inkscape:window-height="480"
     id="namedview27"
     showgrid="false"
     fit-margin-top="0"
     fit-margin-left="0"
     fit-margin-right="0"
     fit-margin-bottom="0"
     inkscape:zoom="3.1466667"
     inkscape:cx="37.5"
     inkscape:cy="37.5"
     inkscape:window-x="0"
     inkscape:window-y="0"
     inkscape:window-maximized="0"
     inkscape:current-layer="Product_Icon" />
  <title
     id="title2">AWS-Secrets-Manager_light-bg</title>
  <rect
     id="Red_Light_BG"
     data-name="Red Light BG"
     width="75"
     height="75"
     style="fill:#d6242d"
     x="0"
     y="0" />
  <g
     id="Product_Icon-2"
     data-name="Product Icon">
    <rect
       x="54.52"
       y="47.080002"
       width="2"
       height="16.91"
       transform="rotate(-45,55.52564,55.540527)"
       style="fill:#ffffff"
       id="rect5" />
    <rect
       x="19.129999"
       y="10.77"
       width="2"
       height="18.74"
       transform="rotate(-45,20.12406,20.144342)"
       style="fill:#ffffff"
       id="rect7" />
    <rect
       x="15.05"
       y="54.049999"
       width="9.8999996"
       height="2"
       transform="rotate(-45,20.004122,55.054021)"
       style="fill:#ffffff"
       id="rect9" />
    <rect
       x="50.049999"
       y="19.049999"
       width="9.8999996"
       height="2"
       transform="rotate(-45,54.9951,20.050284)"
       style="fill:#ffffff"
       id="rect11" />
    <path
       d="M 60.46,36.52 A 22.87,22.87 0 0 0 56.15,24.08 l -1.62,1.18 a 20.86,20.86 0 0 1 3.93,11.26 h -2 v 2 h 2 A 20.7,20.7 0 0 1 54.53,49.84 L 56.15,51 a 22.72,22.72 0 0 0 4.31,-12.5 h 2 v -2 z"
       style="fill:#ffffff"
       id="path13"
       inkscape:connector-curvature="0" />
    <path
       d="M 25.21,20.52 A 20.77,20.77 0 0 1 36.5,16.59 v 1.93 h 2 v -1.93 a 20.77,20.77 0 0 1 11.29,3.93 L 51,18.9 A 22.81,22.81 0 0 0 38.5,14.59 v -2.07 h -2 v 2.07 A 22.81,22.81 0 0 0 24,18.9 Z"
       style="fill:#ffffff"
       id="path15"
       inkscape:connector-curvature="0" />
    <path
       d="M 49.79,54.58 A 20.77,20.77 0 0 1 38.5,58.51 v -2 h -2 v 2 A 20.77,20.77 0 0 1 25.21,54.58 L 24,56.2 a 22.81,22.81 0 0 0 12.5,4.31 v 2 h 2 v -2 A 22.81,22.81 0 0 0 51,56.2 Z"
       style="fill:#ffffff"
       id="path17"
       inkscape:connector-curvature="0" />
    <path
       d="m 18.85,51 1.62,-1.18 A 20.7,20.7 0 0 1 16.54,38.5 h 2 v -2 h -2 A 20.86,20.86 0 0 1 20.47,25.24 L 18.85,24.06 A 22.87,22.87 0 0 0 14.54,36.5 h -2 v 2 h 2 A 22.72,22.72 0 0 0 18.85,51 Z"
       style="fill:#ffffff"
       id="path19"
       inkscape:connector-curvature="0" />
    <path
       d="M 42.39,24.25 A 7.5,7.5 0 0 0 37.5,22.52 v 0 c -3.86,0 -7,2.73 -7,6.09 v 4.91 h -2 a 1,1 0 0 0 -1,1 v 14 a 1,1 0 0 0 0.29,0.71 1,1 0 0 0 0.71,0.29 h 18 a 1,1 0 0 0 1,-1 v -14 a 1,1 0 0 0 -0.29,-0.7 1,1 0 0 0 -0.71,-0.3 h -2 v -4.9 a 5.71,5.71 0 0 0 -2.11,-4.37 z m -9.89,4.36 c 0,-2.26 2.25,-4.09 5,-4.09 v 0 a 5.55,5.55 0 0 1 3.6,1.25 3.76,3.76 0 0 1 1.41,2.85 v 4.9 h -10 z m 13,9.91 h -3 v 2 h 3 v 2 h -3 v 2 h 3 v 3 h -16 v -12 h 16 z"
       style="fill:#ffffff"
       id="path21"
       inkscape:connector-curvature="0" />
    <path
       d="m 36.5,42.76 v 2.76 h 2 v -2.76 a 2.93,2.93 0 1 0 -2,0 z m 1,-3.82 A 1.08,1.08 0 1 1 36.43,40 1.07,1.07 0 0 1 37.5,38.94 Z"
       style="fill:#ffffff"
       id="path23"
       inkscape:connector-curvature="0" />
  </g>
</svg>
