<svg id="Layer_1" data-name="Layer 1" xmlns="http://www.w3.org/2000/svg" width="100" height="100" viewBox="0 0 100 100">
  <title>MobileServices_GRAYSCALE</title>
  <g>
    <polygon points="49.82 53.82 45.26 53.6 16.22 54.8 20.56 76.11 49.82 53.82" fill="#d3d3d3"/>
    <polygon points="83.78 54.87 78.23 54.63 68.09 55.5 74.09 78.91 83.78 54.87" fill="#d3d3d3"/>
    <polygon points="83.78 45.18 50.17 46.59 16.36 45.18 50.09 9 83.78 45.18" fill="#373737"/>
    <polygon points="49.82 53.82 20.56 55.24 20.56 76.11 49.82 69.29 49.82 53.82" fill="#989898"/>
    <polygon points="67.91 54.09 61.5 53.82 25.74 55.76 31.9 81.83 67.91 54.09" fill="#d3d3d3"/>
    <polygon points="83.78 45.18 50.09 41.8 50.09 9 83.78 25.9 83.78 45.18" fill="#989898"/>
    <polygon points="16.36 45.18 50.09 41.8 50.09 9 16.36 25.9 16.36 45.18" fill="#4e4e4e"/>
    <polygon points="20.56 55.24 16.22 54.8 16.22 73.92 20.56 76.11 20.56 55.24" fill="#4e4e4e"/>
    <polygon points="67.91 70.66 31.9 81.83 31.9 56.39 67.91 54.09 67.91 70.66" fill="#989898"/>
    <polygon points="25.74 55.76 31.9 56.39 31.9 81.83 25.74 78.72 25.74 55.76" fill="#4e4e4e"/>
    <polygon points="83.78 54.87 83.78 74.02 74.09 78.91 74.09 55.84 83.78 54.87" fill="#989898"/>
    <polygon points="68.09 77.06 74.09 78.91 74.09 55.84 68.09 55.5 68.09 77.06" fill="#4e4e4e"/>
    <polygon points="67.91 56.46 57.81 55.8 40.01 57.18 50.09 91 67.91 56.46" fill="#d3d3d3"/>
    <polygon points="67.91 56.46 67.91 82.02 50.09 91 50.09 58.27 67.91 56.46" fill="#989898"/>
    <polygon points="40.01 57.18 50.09 58.27 50.09 91 40.01 85.92 40.01 57.18" fill="#4e4e4e"/>
  </g>
</svg>
