<svg id="Layer_1" data-name="Layer 1" xmlns="http://www.w3.org/2000/svg" width="100" height="100" viewBox="0 0 100 100">
  <title>Database_GRAYSCALE</title>
  <g>
    <polygon points="83.95 64.42 50 60.19 16.05 64.42 50 91 83.95 64.42" fill="#d3d3d3"/>
    <polygon points="84.17 35.59 49.78 39.8 15.83 35.58 50 9 84.17 35.59" fill="#373737"/>
    <polygon points="50 9 15.83 25.97 15.83 35.59 50 25.4 50 9" fill="#4e4e4e"/>
    <polygon points="50 74.6 15.83 64.42 15.83 74.03 50 91 50 74.6" fill="#4e4e4e"/>
    <polygon points="50 62.4 35.19 60.23 35.19 39.94 50 37.8 63.95 50.1 50 62.4" fill="#4e4e4e"/>
    <polygon points="50 9 84.17 25.97 84.17 35.59 50 25.4 50 9" fill="#989898"/>
    <polygon points="50 74.6 84.17 64.42 84.17 74.03 50 91 50 74.6" fill="#989898"/>
    <polygon points="50 62.4 64.81 60.23 64.81 39.94 50 37.8 50 62.4" fill="#989898"/>
  </g>
</svg>
