<svg id="Layer_1" data-name="Layer 1" xmlns="http://www.w3.org/2000/svg" width="100" height="100" viewBox="0 0 100 100">
  <title>Database_GRAYSCALE</title>
  <g>
    <polygon points="74.52 56.07 60.13 55.35 60.07 55.34 60.07 55 60.08 55 39.92 55 39.93 55 39.93 55.34 39.87 55.35 25.51 56.07 18 58.41 25.49 67.26 39.93 69 39.92 69 60.08 69 60.07 69 74.49 67.26 82 58.41 74.52 56.07" fill="#d3d3d3"/>
    <polygon points="74.52 43.93 60.13 44.65 60.07 44.66 60.07 45.11 60.08 45.11 39.92 45.11 39.93 45.11 39.93 44.66 39.87 44.65 25.51 43.93 18 41.59 25.49 32.74 39.93 31.11 39.92 31.11 60.08 31.11 60.07 31.11 74.49 32.74 82 41.59 74.52 43.93" fill="#373737"/>
    <polygon points="82 41.59 74 37.99 65.88 29.5 74 21.1 82 29.83 82 41.59" fill="#7b7b7b"/>
    <polygon points="82 58.41 74 62.01 63.38 72 74 78.9 82 70.17 82 58.41" fill="#7b7b7b"/>
    <polygon points="60 35.07 43.5 24.53 60 14 74 21.1 74 37.99 60 35.07" fill="#989898"/>
    <polygon points="60 65 45.88 75.5 60 86 74 78.9 74 62.01 60 65" fill="#989898"/>
    <polygon points="67 59.19 57 61 47.13 49.96 57 38.92 67 40.34 67 59.19" fill="#989898"/>
    <polygon points="60 35.06 60 14 40 14 28.63 28.13 40 35.06 60 35.06" fill="#7b7b7b"/>
    <polygon points="60 65 60 86 40 86 28.63 71.63 40 65 60 65" fill="#7b7b7b"/>
    <polygon points="57 61 43 61 34.5 50 43 38.92 57 38.92 57 61" fill="#7b7b7b"/>
    <polygon points="40 35.07 40 14 26 21.1 20.25 33.75 26 37.99 40 35.07" fill="#4e4e4e"/>
    <polygon points="40 65 40 86 26 78.9 19.83 65 26 62.01 40 65" fill="#4e4e4e"/>
    <polygon points="33 59.19 43 61 43 38.92 33 40.34 33 59.19" fill="#4e4e4e"/>
    <polygon points="18 41.59 26 37.99 26 21.1 18 29.83 18 41.59" fill="#373737"/>
    <polygon points="18 58.41 26 62.01 26 78.9 18 70.17 18 58.41" fill="#373737"/>
  </g>
</svg>
