<svg id="Layer_1" data-name="Layer 1" xmlns="http://www.w3.org/2000/svg" width="100" height="100" viewBox="0 0 100 100">
  <title>DeveloperTools</title>
  <g>
    <polygon points="60.75 69.03 25.59 78.75 25.59 21.2 60.75 30.71 60.75 69.03" fill="#759c3e"/>
    <polygon points="25.59 78.75 16.07 73.97 16.07 25.96 25.59 21.2 25.59 78.75" fill="#4b612c"/>
    <polygon points="31.93 41.94 49.99 39.66 49.99 60.18 31.93 57.92 31.93 41.94" fill="#4b612c"/>
    <polygon points="83.93 38 67.46 39.7 31.93 34.05 49.99 9 83.93 38" fill="#3c4929"/>
    <polygon points="31.93 18.03 49.99 9 49.99 29.55 31.93 34.05 31.93 18.03" fill="#4b612c"/>
    <polygon points="83.93 61.97 67.46 60.26 31.93 65.94 49.99 90.77 83.93 61.97" fill="#b7ca9d"/>
    <polygon points="31.93 81.93 49.99 91 49.99 70.45 31.93 65.94 31.93 81.93" fill="#4b612c"/>
    <polygon points="83.93 38 49.99 29.55 49.99 9 83.93 25.97 83.93 38" fill="#759c3e"/>
    <polygon points="83.93 55.95 49.99 60.18 49.99 39.63 83.93 43.91 83.93 55.95" fill="#759c3e"/>
    <polygon points="83.93 74 49.99 91 49.99 70.45 83.93 61.97 83.93 74" fill="#759c3e"/>
  </g>
</svg>
