<svg id="Layer_1" data-name="Layer 1" xmlns="http://www.w3.org/2000/svg" width="100" height="100" viewBox="0 0 100 100">
  <title>DeveloperTools</title>
  <g>
    <polygon points="29.62 60.37 24.73 59.54 16.05 60.31 20.32 75.41 29.62 60.37" fill="#b7ca9d"/>
    <polygon points="16.05 43.13 16.05 56.84 20.44 57.47 29 50.43 20.44 42.51 16.05 43.13" fill="#4b612c"/>
    <polygon points="20.44 61.3 29.62 60.37 29.62 74.11 20.44 74.77 16.9 67.61 20.44 61.3" fill="#759c3e"/>
    <polygon points="24.85 40.47 29.62 39.67 20.44 24.45 16.05 39.69 24.85 40.47" fill="#3c4929"/>
    <polygon points="20.44 23.77 29.62 25.93 29.62 39.67 20.44 38.75 20.44 23.77" fill="#759c3e"/>
    <polygon points="20.44 42.54 29.62 43.15 29.62 56.9 20.44 57.52 20.44 42.54" fill="#759c3e"/>
    <polygon points="29.62 35.59 36.64 33.95 27.02 20.82 20.44 34.3 29.62 35.59" fill="#3c4929"/>
    <polygon points="27.02 20.5 36.64 23.2 36.64 33.95 27.02 32.33 27.02 20.5" fill="#759c3e"/>
    <polygon points="36.64 66.03 29.64 64.39 20.44 65.69 27.02 79.55 36.64 66.03" fill="#b7ca9d"/>
    <polygon points="27.02 67.67 36.64 66.05 36.64 76.84 27.02 79.55 18.32 72.8 27.02 67.67" fill="#759c3e"/>
    <polygon points="83.88 39.68 75.08 40.46 63.35 38.5 72.91 20.46 83.88 39.68" fill="#3c4929"/>
    <polygon points="20.44 65.69 20.44 61.26 16.05 60.31 16.05 74.02 27.02 79.51 27.02 67.66 20.44 65.69" fill="#4b612c"/>
    <polygon points="83.9 60.32 75.1 59.54 63.35 61.51 72.91 79.18 83.9 60.32" fill="#b7ca9d"/>
    <polygon points="72.91 20.46 63.35 23.15 63.35 38.5 72.91 37.35 83.31 31.07 72.91 20.46" fill="#4b612c"/>
    <polygon points="72.91 41.47 63.35 42.25 63.35 57.6 72.91 58.36 83.31 50.28 72.91 41.47" fill="#4b612c"/>
    <polygon points="72.91 62.73 63.35 61.57 63.35 76.92 72.91 79.62 82.53 68.65 72.91 62.73" fill="#4b612c"/>
    <polygon points="39.91 16.05 30.3 31.35 40.08 33.14 49.99 30.83 39.91 16.05" fill="#3c4929"/>
    <polygon points="69.64 36.63 59.85 37.91 39.91 34.57 49.99 9.1 69.64 36.63" fill="#3c4929"/>
    <polygon points="49.99 61.68 68.86 50.03 49.99 38.29 39.91 39.73 39.91 60.25 49.99 61.68" fill="#4b612c"/>
    <polygon points="49.99 38.29 49.99 61.68 69.64 58.88 69.64 41.09 49.99 38.29" fill="#759c3e"/>
    <polygon points="69.64 63.38 59.85 62.09 39.91 65.44 49.99 90.99 69.64 63.38" fill="#b7ca9d"/>
    <polygon points="49.93 69.14 40.15 66.85 30.34 68.65 39.54 85.38 49.93 69.14" fill="#b7ca9d"/>
    <polygon points="30.29 68.64 30.29 81.15 49.99 91 68.36 72.8 49.99 67.61 39.91 65.44 39.91 71.52 30.29 68.64" fill="#4b612c"/>
    <polygon points="27.02 32.33 27.02 20.5 16.05 25.98 16.05 39.69 20.44 38.75 20.44 34.3 27.02 32.33" fill="#4b612c"/>
    <polygon points="39.91 28.47 39.91 34.57 49.99 32.41 68.13 27.22 49.99 9.02 30.29 18.86 30.29 31.35 39.91 28.47" fill="#4b612c"/>
    <polygon points="49.99 9 49.99 32.41 69.64 36.63 69.64 18.82 49.99 9" fill="#759c3e"/>
    <polygon points="83.95 39.7 83.95 25.98 72.91 20.46 72.91 37.33 83.95 39.7" fill="#759c3e"/>
    <polygon points="83.95 56.84 83.95 43.14 72.91 41.56 72.91 58.42 83.95 56.84" fill="#759c3e"/>
    <polygon points="49.99 67.61 49.99 90.99 69.64 81.16 69.64 63.38 49.99 67.61" fill="#759c3e"/>
    <polygon points="83.95 74.01 83.95 60.31 72.91 62.68 72.91 79.53 83.95 74.01" fill="#759c3e"/>
  </g>
</svg>
