<svg id="Layer_1" data-name="Layer 1" xmlns="http://www.w3.org/2000/svg" width="100" height="100" viewBox="0 0 100 100">
  <title>DeveloperTools</title>
  <g>
    <polygon points="16 74.06 22.82 77.47 64.83 50.23 22.82 22.53 16 25.94 25.63 50 16 74.06" fill="#4b612c"/>
    <polygon points="45.78 49.98 70.08 54 77.17 22.54 45.78 30.43 45.78 49.98" fill="#b7ca9d"/>
    <polygon points="47.29 50.04 70.41 50.05 77.17 77.46 47.29 69.95 47.29 50.04" fill="#3c4929"/>
    <polygon points="52.77 30.06 22.82 22.53 35.7 50 57.22 58.37 52.77 30.06" fill="#b7ca9d"/>
    <polygon points="55.51 21.35 50.04 23.13 50.04 14.09 55.51 11.7 55.51 21.35" fill="#4b612c"/>
    <polygon points="55.51 88.3 50.04 85.91 50.04 72.9 55.51 74.42 55.51 88.3" fill="#4b612c"/>
    <polygon points="44.53 21.26 50.04 23.07 50.04 14.09 44.53 11.68 44.53 21.26" fill="#759c3e"/>
    <polygon points="44.53 88.32 50.04 85.91 50.04 68.72 44.53 69.97 44.53 88.32" fill="#759c3e"/>
    <polygon points="77.17 77.46 84 74.05 74.45 50 84 25.95 77.17 22.54 64.36 50 77.17 77.46" fill="#759c3e"/>
    <polygon points="44.53 11.68 31.88 18.01 40.34 32.85 49.99 49.77 59.13 27.19 49.99 19.25 44.53 11.68" fill="#4b612c"/>
    <polygon points="55.51 11.7 50.04 19.32 49.99 19.4 49.99 49.77 50.11 49.98 59.79 32.84 68.16 18.03 55.51 11.7" fill="#759c3e"/>
    <polygon points="61.48 50.03 35.7 50.05 22.82 77.47 61.48 67.75 61.48 50.03" fill="#3c4929"/>
    <polygon points="40.34 67.14 31.88 81.99 44.53 88.32 49.99 80.75 49.99 80.6 60.65 73.76 49.99 50.23 40.34 67.14" fill="#4b612c"/>
    <polygon points="59.79 67.17 50.11 50.02 49.99 50.23 49.99 80.6 50.04 80.68 55.51 88.3 68.16 81.97 59.79 67.17" fill="#759c3e"/>
  </g>
</svg>
