<svg id="Layer_1" data-name="Layer 1" xmlns="http://www.w3.org/2000/svg" width="100" height="100" viewBox="0 0 100 100">
  <title>General</title>
  <polygon points="11.76 29.37 88.24 29.37 88.24 26.86 50 16.88 11.76 26.86 11.76 29.37" fill="#9d5125"/>
  <rect x="11.76" y="13.23" width="76.48" height="13.63" fill="#f58535"/>
  <polygon points="11.76 48.5 88.24 48.5 88.24 46 50 36.01 11.76 46 11.76 48.5" fill="#9d5125"/>
  <rect x="11.76" y="32.36" width="76.48" height="13.63" fill="#f58535"/>
  <polygon points="11.76 67.64 88.24 67.64 88.24 65.13 50 55.15 11.76 65.13 11.76 67.64" fill="#9d5125"/>
  <rect x="11.76" y="51.5" width="76.48" height="13.63" fill="#f58535"/>
  <polygon points="11.76 86.77 88.24 86.77 88.24 84.27 50 74.28 11.76 84.27 11.76 86.77" fill="#9d5125"/>
  <rect x="11.76" y="70.63" width="76.48" height="13.63" fill="#f58535"/>
  <rect x="26.49" y="16.1" width="58.86" height="7.88" fill="#fff"/>
  <rect x="14.65" y="35.23" width="58.86" height="7.88" fill="#fff"/>
  <rect x="26.49" y="54.37" width="58.86" height="7.88" fill="#fff"/>
  <rect x="14.65" y="73.5" width="58.86" height="7.88" fill="#fff"/>
</svg>
