<svg id="Layer_1" data-name="Layer 1" xmlns="http://www.w3.org/2000/svg" width="100" height="100" viewBox="0 0 100 100">
  <title>General</title>
  <path d="M71.68,70.3H54.07A1.7,1.7,0,0,0,52.36,72h21A1.69,1.69,0,0,0,71.68,70.3Z" fill="none"/>
  <path d="M54.07,73.68H71.68A1.69,1.69,0,0,0,73.37,72h-21A1.7,1.7,0,0,0,54.07,73.68Z" fill="none"/>
  <path d="M73.37,72a1.69,1.69,0,0,1-1.69,1.69H54.07A1.7,1.7,0,0,1,52.36,72H22.2v1.69a4.23,4.23,0,0,0,4.23,4.23H73.55a4.24,4.24,0,0,0,4.25-4.23V72Z" fill="#7d7c7c"/>
  <path d="M75.94,51.88l-2.73,3a1.93,1.93,0,0,1-1.93,1.92H28.66a1.93,1.93,0,0,1-1.92-1.92l-2.3-3H22.24v3a6.41,6.41,0,0,0,6.42,6.39H71.28a6.42,6.42,0,0,0,6.43-6.39v-3Z" fill="#7d7c7c"/>
  <path d="M73.55,63.59a4.22,4.22,0,0,1,4.25,4.21V71.2a4.24,4.24,0,0,1-4.25,4.23H26.44A4.23,4.23,0,0,1,22.2,71.2V67.81a4.22,4.22,0,0,1,4.23-4.21ZM71.68,71.2a1.69,1.69,0,1,0,0-3.38H54.07a1.69,1.69,0,1,0,0,3.38H71.68" fill="#d2d3d3"/>
  <path d="M71.28,22.15a6.42,6.42,0,0,1,6.43,6.38V52.39a6.42,6.42,0,0,1-6.43,6.39H28.66a6.41,6.41,0,0,1-6.42-6.39V28.54a6.41,6.41,0,0,1,6.42-6.38Zm1.93,30.24V28.54a1.92,1.92,0,0,0-1.93-1.92H28.66a1.92,1.92,0,0,0-1.92,1.92V52.39a1.93,1.93,0,0,0,1.92,1.92H71.28a1.93,1.93,0,0,0,1.93-1.92" fill="#d2d3d3"/>
</svg>
