<svg id="Layer_1" data-name="Layer 1" xmlns="http://www.w3.org/2000/svg" width="100" height="100" viewBox="0 0 100 100">
  <title>General</title>
  <path d="M58,24.34a3.12,3.12,0,0,1,3.13,3.11L68.27,75a3.12,3.12,0,0,1-3.13,3.11H34.86A3.13,3.13,0,0,1,31.73,75l8.89-47.54a3.13,3.13,0,0,1,3.13-3.11Z" fill="#7d7c7c"/>
  <path d="M65.14,21.86A3.12,3.12,0,0,1,68.27,25V72.5a3.12,3.12,0,0,1-3.13,3.11H34.86a3.13,3.13,0,0,1-3.13-3.11V25a3.13,3.13,0,0,1,3.13-3.11Z" fill="#d2d3d3"/>
  <path d="M40.87,25.31H59.08a2,2,0,1,1,0,4.06H40.87a2,2,0,1,1,0-4.06ZM50,74.2a3.54,3.54,0,1,1,3.56-3.55A3.55,3.55,0,0,1,50,74.2ZM64.71,62.86a2,2,0,0,1-2.09,1.86H37.32a2,2,0,0,1-2.09-1.86V34.58a2,2,0,0,1,2.09-1.86h25.3a2,2,0,0,1,2.09,1.86Z" fill="#fff"/>
</svg>
