<svg id="Layer_1" data-name="Layer 1" xmlns="http://www.w3.org/2000/svg" width="100" height="100" viewBox="0 0 100 100">
  <title>General</title>
  <path d="M55.77,24.34a3,3,0,0,1,3,3l11.75,45v2.78a3,3,0,0,1-3,3h-35a3,3,0,0,1-3-3V72.61L42.71,27.35a3,3,0,0,1,3-3Z" fill="#4f4f4f"/>
  <path d="M67.52,21.86a3,3,0,0,1,3,3V72.61a3,3,0,0,1-3,3h-35a3,3,0,0,1-3-3V24.87a3,3,0,0,1,3-3Z" fill="#7d7c7c"/>
  <path d="M64.11,44.6H35.88V41.28H64.11Zm0-5.61H35.88V35.67H64.11Zm0-5.87H35.88V29.8H64.11Z" fill="#fff"/>
</svg>
