<svg id="Layer_1" data-name="Layer 1" xmlns="http://www.w3.org/2000/svg" xmlns:xlink="http://www.w3.org/1999/xlink" width="100" height="100" viewBox="0 0 100 100">
  <defs>
    <clipPath id="clip-path">
      <path d="M77.5,48.78v2.46a27.51,27.51,0,0,1-55,0V48.78Z" fill="#4f4f4f"/>
    </clipPath>
  </defs>
  <title>General</title>
  <g>
    <path d="M77.5,48.78v2.46a27.51,27.51,0,0,1-55,0V48.78Z" fill="#4f4f4f"/>
    <g clip-path="url(#clip-path)">
      <path d="M77.5,48.78v2.46a27.29,27.29,0,0,1-.3,4.07V52.85a27.4,27.4,0,0,0,.3-4.07" fill="#4f4f4f"/>
      <path d="M77.2,52.85v2.46a26.47,26.47,0,0,1-1.09,4.53V57.37a26.3,26.3,0,0,0,1.09-4.52" fill="#4f4f4f"/>
      <path d="M76.11,57.37v2.47a27.13,27.13,0,0,1-2.2,4.89V62.27a27,27,0,0,0,2.2-4.9" fill="#4f4f4f"/>
      <path d="M73.92,62.27v2.46A27.55,27.55,0,0,1,22.5,51.25V48.78A27.55,27.55,0,0,0,73.92,62.27" fill="#4f4f4f"/>
    </g>
  </g>
  <path d="M50,21.48A27.29,27.29,0,1,1,22.5,48.77,27.4,27.4,0,0,1,50,21.48Z" fill="#7d7c7c"/>
  <circle cx="50" cy="48.75" r="8.5" fill="none" stroke="#fff" stroke-miterlimit="10"/>
  <circle cx="50" cy="48.75" r="5.24" fill="#fff"/>
</svg>
