<svg id="Layer_1" data-name="Layer 1" xmlns="http://www.w3.org/2000/svg" width="100" height="100" viewBox="0 0 100 100">
  <title>General</title>
  <path d="M85.23,58v3.19C85.23,67,78.85,73,71,73H29C21.15,73,14.77,67,14.77,61.19V58Z" fill="#7d7c7c"/>
  <path d="M41.89,26.9A18,18,0,0,1,58.31,37.46,9.14,9.14,0,0,1,72.6,44.64c7.1.59,12.63,7.44,12.63,12.88v1.18c0,5.85-6.38,11.78-14.26,11.78H29c-7.86,0-14.24-5.93-14.24-11.78V57.53c0-4.51,3.79-10.71,9.12-12.25,0-.16,0-.34,0-.51A17.94,17.94,0,0,1,41.89,26.9Z" fill="#d2d3d3"/>
  <path d="M56.84,64.81a2,2,0,0,1-1.41-.59,7.69,7.69,0,0,0-10.86,0,2,2,0,1,1-2.83-2.83,11.69,11.69,0,0,1,16.52,0,2,2,0,0,1-1.41,3.41Z" fill="#fff"/>
  <path d="M62.27,59.38a2,2,0,0,1-1.41-.59,15.38,15.38,0,0,0-21.72,0A2,2,0,0,1,36.31,56a19.38,19.38,0,0,1,27.38,0,2,2,0,0,1-1.41,3.41Z" fill="#fff"/>
  <path d="M68.15,54a2,2,0,0,1-1.41-.59,23.67,23.67,0,0,0-33.47,0,2,2,0,0,1-2.83-2.83,27.67,27.67,0,0,1,39.13,0A2,2,0,0,1,68.15,54Z" fill="#fff"/>
</svg>
