<?xml version="1.0" encoding="UTF-8" standalone="no"?>
<svg
   xmlns:dc="http://purl.org/dc/elements/1.1/"
   xmlns:cc="http://creativecommons.org/ns#"
   xmlns:rdf="http://www.w3.org/1999/02/22-rdf-syntax-ns#"
   xmlns:svg="http://www.w3.org/2000/svg"
   xmlns="http://www.w3.org/2000/svg"
   xmlns:sodipodi="http://sodipodi.sourceforge.net/DTD/sodipodi-0.dtd"
   xmlns:inkscape="http://www.inkscape.org/namespaces/inkscape"
   id="Product_Icon"
   data-name="Product Icon"
   viewBox="0 0 75 75"
   version="1.1"
   sodipodi:docname="AWS-CodeBuild_light-bg.svg"
   width="75"
   height="75"
   inkscape:version="0.92.2 5c3e80d, 2017-08-06">
  <metadata
     id="metadata19">
    <rdf:RDF>
      <cc:Work
         rdf:about="">
        <dc:format>image/svg+xml</dc:format>
        <dc:type
           rdf:resource="http://purl.org/dc/dcmitype/StillImage" />
        <dc:title>AWS-CodeBuild_light-bg</dc:title>
      </cc:Work>
    </rdf:RDF>
  </metadata>
  <defs
     id="defs17" />
  <sodipodi:namedview
     pagecolor="#ffffff"
     bordercolor="#666666"
     borderopacity="1"
     objecttolerance="10"
     gridtolerance="10"
     guidetolerance="10"
     inkscape:pageopacity="0"
     inkscape:pageshadow="2"
     inkscape:window-width="640"
     inkscape:window-height="480"
     id="namedview15"
     showgrid="false"
     fit-margin-top="0"
     fit-margin-left="0"
     fit-margin-right="0"
     fit-margin-bottom="0"
     inkscape:zoom="3.1466667"
     inkscape:cx="37.5"
     inkscape:cy="37.5"
     inkscape:window-x="0"
     inkscape:window-y="0"
     inkscape:window-maximized="0"
     inkscape:current-layer="Product_Icon" />
  <title
     id="title2">AWS-CodeBuild_light-bg</title>
  <rect
     id="Blue_Light_BG"
     data-name="Blue Light BG"
     width="75"
     height="75"
     style="fill:#3b48cc"
     x="0"
     y="0" />
  <g
     id="Product_Icon-2"
     data-name="Product Icon">
    <path
       d="M 42.92,48.25 44.31,46.82 41.45,44 44.65,41.61 43.45,40 39.31,43.1 a 1,1 0 0 0 -0.1,1.52 z"
       style="fill:#ffffff"
       id="path5"
       inkscape:connector-curvature="0" />
    <path
       d="m 54.05,44.85 -3.2,2.4 1.2,1.6 4.14,-3.1 a 1,1 0 0 0 0.4,-0.74 1,1 0 0 0 -0.3,-0.78 l -3.71,-3.6 -1.39,1.43 z"
       style="fill:#ffffff"
       id="path7"
       inkscape:connector-curvature="0" />
    <rect
       x="41.16"
       y="44"
       width="13.11"
       height="2"
       transform="rotate(-66.25,47.715165,44.998933)"
       style="fill:#ffffff"
       id="rect9" />
    <path
       d="m 63.39,20.73 -2.8,-2.32 -4.44,-3.68 v 0 l -1.17,-1 A 1,1 0 0 0 54.34,13.5 H 17.26 v 0 a 1,1 0 0 0 -1,-1 h -4 a 1,1 0 0 0 -1,1 v 10 a 1,1 0 0 0 1,1 h 4 v 37 a 1,1 0 0 0 1,1 h 11 a 1,1 0 0 0 1,-1 v -39 h 18 v 7.33 L 36.05,34.5 h -0.8 a 1,1 0 0 0 -1,1 v 18 a 1,1 0 0 0 1,1 h 26 a 1,1 0 0 0 1,-1 v -18 a 1,1 0 0 0 -1,-1 h -0.8 L 49.25,29.83 V 22.5 h 13.5 a 1,1 0 0 0 0.94,-0.66 1,1 0 0 0 -0.3,-1.11 z M 54,15.54 48.84,20.2 42.66,15.52 H 54 Z m -25.73,5 h -8 l 4.94,-3.75 4.89,3.71 z M 18.76,41 27.25,33.47 v 15.06 z m 8,9.75 -8.49,7.53 V 43.22 Z m -8.49,-12 V 23.72 l 8.49,7.53 z m 8.58,-23.27 h 12.47 l -6.24,4.74 z M 41,16.75 45.94,20.5 H 36.05 Z M 23.5,15.5 17.25,20.25 V 15.5 Z m -8.25,7 h -2 v -8 h 2 z m 3.51,38 8.49,-7.5 v 7.5 z M 27.25,29 19.89,22.5 h 7.36 z m 33,23.47 h -24 v -16 h 24 z m -19,-18 7,-2.92 7,2.92 z m 10.24,-14 4,-3.68 4.51,3.71 z"
       style="fill:#ffffff"
       id="path11"
       inkscape:connector-curvature="0" />
  </g>
</svg>
