<svg id="Product_Icon" data-name="Product Icon" xmlns="http://www.w3.org/2000/svg" width="75" height="75" viewBox="0 0 75 75"><title>AWS-Direct-Connect_light-bg</title><rect id="Purple_Light_BG" data-name="Purple Light BG" width="75" height="75" style="fill:#693cc5"/><g id="Product_Icon-2" data-name="Product Icon"><path d="M52.5,44.49h-7v-2h7c2.41,0,8-.72,8-7.4,0-4-2.35-6.51-7-7.45a1,1,0,0,1-.8-.92c-.23-3.9-2.5-5.29-4.37-5.29a4.11,4.11,0,0,0-3.26,1.66,1,1,0,0,1-1.73-.26,13,13,0,0,0-3.13-5A11.17,11.17,0,0,0,21,25.34a11.94,11.94,0,0,0,.08,1.35,1,1,0,0,1-.75,1.1C18.16,28.32,14.5,30,14.5,35c0,.19,0,.37,0,.55a7.62,7.62,0,0,0,7.83,6.92H27.5v2H22.35a9.62,9.62,0,0,1-9.83-8.81c0-.22,0-.44,0-.66A8.89,8.89,0,0,1,19,26.08c0-.24,0-.49,0-.74a13.17,13.17,0,0,1,22.6-8.9,14.46,14.46,0,0,1,3,4.28,6,6,0,0,1,3.71-1.29c2.8,0,5.75,2,6.3,6.42,5.08,1.25,7.87,4.51,7.87,9.24C62.5,42,57.33,44.49,52.5,44.49Z" style="fill:#fff"/><path d="M46.81,56.49H46.5V51.26a2.91,2.91,0,0,0-3-2.77H29.53a2.91,2.91,0,0,0-3,2.77v5.23h-.31a2.93,2.93,0,0,0-2.69,3.12v2.88h2V59.61c0-.64.37-1.12.69-1.12H46.81c.32,0,.69.48.69,1.12v2.88h2V59.61A2.93,2.93,0,0,0,46.81,56.49ZM28.5,51.26c0-.42.47-.77,1-.77H43.47c.56,0,1,.35,1,.77v5.23h-16Z" style="fill:#fff"/><path d="M30.5,30.49a4,4,0,0,0-1,7.87v9.13h2V38.36a4,4,0,0,0-1-7.87Zm0,6a2,2,0,1,1,2-2A2,2,0,0,1,30.5,36.49Z" style="fill:#fff"/><path d="M36.44,23.49a4,4,0,0,0-.94,7.88V47.49h2V31.34a4,4,0,0,0-1.06-7.85Zm0,6a2,2,0,1,1,2-2A2,2,0,0,1,36.44,29.49Z" style="fill:#fff"/><path d="M42.5,30.49a4,4,0,0,0-1,7.87v9.13h2V38.36a4,4,0,0,0-1-7.87Zm0,6a2,2,0,1,1,2-2A2,2,0,0,1,42.5,36.49Z" style="fill:#fff"/></g></svg>