<svg id="Product_Icon" data-name="Product Icon" xmlns="http://www.w3.org/2000/svg" viewBox="0 0 75 75"><title>Amazon-EC2-Container-Registry_light-bg</title><rect id="Orange_Light_BG" data-name="Orange Light BG" width="75" height="75" style="fill:#d86613"/><g id="Product_Icon-2" data-name="Product Icon"><path d="M59.5,30.06V50.51l-18,10.4V53.15l10-5.77a2,2,0,0,0,1-1.46,5,5,0,0,0,0-.78V33.76l7-4m1.41-3a.59.59,0,0,0-.29.07l-9.55,5.52c-.18.1-.57.28-.57.51V45.14a4,4,0,0,1,0,.51l-10.7,6.17a.6.6,0,0,0-.29.51v11a.59.59,0,0,0,.59.59.6.6,0,0,0,.29-.08l20.83-12a.6.6,0,0,0,.29-.51V27.27a.58.58,0,0,0-.59-.58Z" style="fill:#fff"/><path d="M35.92,64.94a1.58,1.58,0,0,1-.79-.21l-20.84-12a1.58,1.58,0,0,1-.79-1.37V24.87a1.58,1.58,0,0,1,.79-1.37L37.21,10.27a1.56,1.56,0,0,1,1.59,0l20.83,12a1.59,1.59,0,0,1,.79,1.37,1.61,1.61,0,0,1-.79,1.38L37.5,37.82V63.36a1.56,1.56,0,0,1-.79,1.37A1.58,1.58,0,0,1,35.92,64.94ZM15.5,51.09l20,11.54V37.58a1.6,1.6,0,0,1,.79-1.38L58,23.68,38,12.13l-22.49,13ZM37.79,12h0Zm.42,0Z" style="fill:#fff"/></g></svg>