<?xml version="1.0" encoding="UTF-8" standalone="no"?>
<svg
   xmlns:dc="http://purl.org/dc/elements/1.1/"
   xmlns:cc="http://creativecommons.org/ns#"
   xmlns:rdf="http://www.w3.org/1999/02/22-rdf-syntax-ns#"
   xmlns:svg="http://www.w3.org/2000/svg"
   xmlns="http://www.w3.org/2000/svg"
   xmlns:sodipodi="http://sodipodi.sourceforge.net/DTD/sodipodi-0.dtd"
   xmlns:inkscape="http://www.inkscape.org/namespaces/inkscape"
   id="Product_Icon"
   data-name="Product Icon"
   viewBox="0 0 75 75"
   version="1.1"
   sodipodi:docname="AWS-Fargate_light-bg.svg"
   width="75"
   height="75"
   inkscape:version="0.92.2 5c3e80d, 2017-08-06">
  <metadata
     id="metadata17">
    <rdf:RDF>
      <cc:Work
         rdf:about="">
        <dc:format>image/svg+xml</dc:format>
        <dc:type
           rdf:resource="http://purl.org/dc/dcmitype/StillImage" />
        <dc:title>AWS-Fargate_light-bg</dc:title>
      </cc:Work>
    </rdf:RDF>
  </metadata>
  <defs
     id="defs15" />
  <sodipodi:namedview
     pagecolor="#ffffff"
     bordercolor="#666666"
     borderopacity="1"
     objecttolerance="10"
     gridtolerance="10"
     guidetolerance="10"
     inkscape:pageopacity="0"
     inkscape:pageshadow="2"
     inkscape:window-width="640"
     inkscape:window-height="480"
     id="namedview13"
     showgrid="false"
     fit-margin-top="0"
     fit-margin-left="0"
     fit-margin-right="0"
     fit-margin-bottom="0"
     inkscape:zoom="3.1466667"
     inkscape:cx="37.5"
     inkscape:cy="37.5"
     inkscape:window-x="0"
     inkscape:window-y="0"
     inkscape:window-maximized="0"
     inkscape:current-layer="Product_Icon" />
  <title
     id="title2">AWS-Fargate_light-bg</title>
  <rect
     id="Orange_Light_BG"
     data-name="Orange Light BG"
     width="75"
     height="75"
     style="fill:#d86613"
     x="0"
     y="0" />
  <g
     id="Product_Icon-2"
     data-name="Product Icon">
    <path
       d="m 24.79,36.41 a 1.64,1.64 0 0 0 0.24,0.23 5.32,5.32 0 0 0 0.47,0.36 l 0.11,0.06 a 4.82,4.82 0 0 0 0.5,0.27 l 0.31,0.13 h 0.1 0.11 l 0.25,0.11 c 0.47,0.17 1,0.37 1.58,0.55 l 0.91,0.27 0.49,0.13 a 31,31 0 0 0 7.64,0.89 v 0 a 27.7,27.7 0 0 0 11.4,-2.18 4.44,4.44 0 0 0 2.6,-4 V 18.88 a 1.58,1.58 0 0 0 -0.9,-1.42 l -12.42,-5.8 a 1.52,1.52 0 0 0 -1.33,0 l -12.45,5.8 a 1.58,1.58 0 0 0 -0.9,1.42 v 14.4 a 4.44,4.44 0 0 0 1.09,2.92 2,2 0 0 0 0.2,0.21 z m 5.1,0.14 -0.84,-0.25 c -0.54,-0.17 -1,-0.35 -1.41,-0.49 l -0.36,-0.15 v 0 L 26.94,35.5 a 3.41,3.41 0 0 1 -0.33,-0.17 v 0 L 26.36,35.14 26.23,35 A 0.3,0.3 0 0 0 26.15,34.92 L 26.07,34.83 A 2.42,2.42 0 0 1 25.48,33.24 V 20.08 l 11,5.15 v 12.24 a 27.82,27.82 0 0 1 -6.15,-0.8 z m 18.2,-1.06 a 24.89,24.89 0 0 1 -9.6,2 V 25.42 l 11,-5 v 12.8 a 2.42,2.42 0 0 1 -1.4,2.27 z M 37.5,13.55 l 11.06,5.16 -10.88,4.88 -0.08,-0.05 -10.75,-5 z"
       style="fill:#ffffff"
       id="path5"
       inkscape:connector-curvature="0" />
    <path
       d="m 54.78,27.68 -0.56,1.92 c 4.49,1.32 7.28,3.2 7.28,4.9 0,3.31 -9.86,7 -24,7 -14.14,0 -24,-3.69 -24,-7 0,-1.7 2.79,-3.58 7.28,-4.9 l -0.56,-1.92 c -5.62,1.65 -8.72,4.08 -8.72,6.82 0,5.84 13.4,9 26,9 12.6,0 26,-3.16 26,-9 0,-2.74 -3.1,-5.16 -8.72,-6.82 z"
       style="fill:#ffffff"
       id="path7"
       inkscape:connector-curvature="0" />
    <path
       d="m 54.72,46.64 -4.65,-2 a 1.3,1.3 0 0 0 -1.14,0 l -4.75,2.05 a 1.22,1.22 0 0 0 -0.68,1.1 v 5.15 L 39.07,51 a 1.34,1.34 0 0 0 -1.14,0 l -4.46,1.93 v -5.16 a 1.25,1.25 0 0 0 -0.74,-1.13 l -4.66,-2 a 1.28,1.28 0 0 0 -1.13,0 l -4.76,2.05 a 1.22,1.22 0 0 0 -0.68,1.1 v 6.08 A 1.25,1.25 0 0 0 22.24,55 l 4.65,2 v 0 H 27 A 1.33,1.33 0 0 0 27.5,57.11 1,1 0 0 0 28,57 l 4.49,-1.93 v 5.15 a 1.25,1.25 0 0 0 0.74,1.12 l 4.64,2 v 0 c 0,0 0,0 0.07,0 a 1.29,1.29 0 0 0 0.54,0.12 1.1,1.1 0 0 0 0.51,-0.12 l 4.77,-2.05 a 1.24,1.24 0 0 0 0.68,-1.1 V 55.07 L 48.88,57 v 0 H 49 A 1.46,1.46 0 0 0 49.54,57.12 1.1,1.1 0 0 0 50,57 l 4.78,-2 a 1.22,1.22 0 0 0 0.68,-1.1 v -6.13 a 1.25,1.25 0 0 0 -0.74,-1.13 z m -5.24,-0.08 2.73,1.16 -2.56,1.05 L 47,47.63 Z m -11,6.38 2.73,1.16 -2.56,1 L 36,54 Z m -11,-6.38 2.72,1.17 -2.56,1 -2.64,-1.1 z m -4,2.6 3,1.28 v 4.2 l -3,-1.29 z m 5,5.47 v -4 l 3,-1.23 v 4 z m 6,0.9 3,1.29 V 61 l -3,-1.29 z m 5,5.48 V 57 l 3,-1.24 v 4 z m 6,-11.85 3,1.28 v 4.2 l -3,-1.29 z m 5,5.48 v -4 l 3,-1.24 v 4 z"
       style="fill:#ffffff"
       id="path9"
       inkscape:connector-curvature="0" />
  </g>
</svg>
