<?xml version="1.0" encoding="UTF-8" standalone="no"?>
<svg
   xmlns:dc="http://purl.org/dc/elements/1.1/"
   xmlns:cc="http://creativecommons.org/ns#"
   xmlns:rdf="http://www.w3.org/1999/02/22-rdf-syntax-ns#"
   xmlns:svg="http://www.w3.org/2000/svg"
   xmlns="http://www.w3.org/2000/svg"
   xmlns:sodipodi="http://sodipodi.sourceforge.net/DTD/sodipodi-0.dtd"
   xmlns:inkscape="http://www.inkscape.org/namespaces/inkscape"
   id="Product_Icon"
   data-name="Product Icon"
   viewBox="0 0 75 75"
   version="1.1"
   sodipodi:docname="Amazon-Redshift_light-bg.svg"
   width="75"
   height="75"
   inkscape:version="0.92.2 5c3e80d, 2017-08-06">
  <metadata
     id="metadata31">
    <rdf:RDF>
      <cc:Work
         rdf:about="">
        <dc:format>image/svg+xml</dc:format>
        <dc:type
           rdf:resource="http://purl.org/dc/dcmitype/StillImage" />
        <dc:title>Amazon-Redshift_light-bg</dc:title>
      </cc:Work>
    </rdf:RDF>
  </metadata>
  <defs
     id="defs29" />
  <sodipodi:namedview
     pagecolor="#ffffff"
     bordercolor="#666666"
     borderopacity="1"
     objecttolerance="10"
     gridtolerance="10"
     guidetolerance="10"
     inkscape:pageopacity="0"
     inkscape:pageshadow="2"
     inkscape:window-width="777"
     inkscape:window-height="630"
     id="namedview27"
     showgrid="false"
     fit-margin-top="0"
     fit-margin-left="0"
     fit-margin-right="0"
     fit-margin-bottom="0"
     inkscape:zoom="3.1466667"
     inkscape:cx="37.5"
     inkscape:cy="37.5"
     inkscape:window-x="0"
     inkscape:window-y="0"
     inkscape:window-maximized="0"
     inkscape:current-layer="Product_Icon" />
  <title
     id="title2">Amazon-Redshift_light-bg</title>
  <rect
     id="Purple_Light_BG"
     data-name="Purple Light BG"
     width="75"
     height="75"
     style="fill:#693cc5"
     x="0"
     y="0" />
  <g
     id="Product_Icon-2"
     data-name="Product Icon">
    <path
       d="m 37.5,62.5 c -8.24,0 -17,-2.39 -17,-6.82 V 19.32 h 2 v 36.36 c 0,2 5.71,4.82 15,4.82 9.29,0 15,-2.8 15,-4.82 V 19.32 h 2 v 36.36 c 0,4.43 -8.76,6.82 -17,6.82 z"
       style="fill:#ffffff"
       id="path5"
       inkscape:connector-curvature="0" />
    <path
       d="m 37.5,62.5 c -8.24,0 -17,-2.39 -17,-6.82 V 19.32 h 2 v 36.36 c 0,2 5.71,4.82 15,4.82 9.29,0 15,-2.8 15,-4.82 V 19.32 h 2 v 36.36 c 0,4.43 -8.76,6.82 -17,6.82 z"
       style="fill:#ffffff"
       id="path7"
       inkscape:connector-curvature="0" />
    <path
       d="m 37.5,26.13 c -8.24,0 -17,-2.39 -17,-6.81 0,-4.42 8.76,-6.82 17,-6.82 8.24,0 17,2.39 17,6.82 0,4.43 -8.76,6.81 -17,6.81 z m 0,-11.63 c -9.29,0 -15,2.8 -15,4.82 0,2.02 5.71,4.81 15,4.81 9.29,0 15,-2.8 15,-4.81 0,-2.01 -5.71,-4.82 -15,-4.82 z"
       style="fill:#ffffff"
       id="path9"
       inkscape:connector-curvature="0" />
    <rect
       x="36.48"
       y="38.02"
       width="2"
       height="6.2199998"
       transform="rotate(-77.19,37.473236,41.128377)"
       style="fill:#ffffff"
       id="rect11" />
    <rect
       x="42.049999"
       y="35.779999"
       width="6.3000002"
       height="2"
       transform="rotate(-68.46,45.198645,36.782787)"
       style="fill:#ffffff"
       id="rect13" />
    <rect
       x="27.4"
       y="43.59"
       width="5.1999998"
       height="2"
       transform="rotate(-66.89,30.00251,44.584356)"
       style="fill:#ffffff"
       id="rect15" />
    <path
       d="m 28,52.77 a 3.5,3.5 0 1 1 3.5,-3.5 3.5,3.5 0 0 1 -3.5,3.5 z m 0,-5 a 1.5,1.5 0 1 0 1.5,1.5 1.5,1.5 0 0 0 -1.5,-1.5 z"
       style="fill:#ffffff"
       id="path17"
       inkscape:connector-curvature="0" />
    <path
       d="m 32,43.39 a 3.5,3.5 0 1 1 3.5,-3.5 3.5,3.5 0 0 1 -3.5,3.5 z m 0,-5 a 1.5,1.5 0 1 0 1.5,1.5 v 0 A 1.5,1.5 0 0 0 32,38.39 Z"
       style="fill:#ffffff"
       id="path19"
       inkscape:connector-curvature="0" />
    <path
       d="M 43,45.5 A 3.5,3.5 0 1 1 46.5,42 3.5,3.5 0 0 1 43,45.5 Z m 0,-5 A 1.5,1.5 0 1 0 44.5,42 1.5,1.5 0 0 0 43,40.5 Z"
       style="fill:#ffffff"
       id="path21"
       inkscape:connector-curvature="0" />
    <path
       d="m 47,35 a 3.5,3.5 0 1 1 3.5,-3.5 v 0.05 A 3.51,3.51 0 0 1 47,35 Z m 0,-5 A 1.5,1.5 0 1 0 48.5,31.55 1.5,1.5 0 0 0 47,30 Z"
       style="fill:#ffffff"
       id="path23"
       inkscape:connector-curvature="0" />
  </g>
</svg>
