<?xml version="1.0" encoding="UTF-8" standalone="no"?>
<svg
   xmlns:dc="http://purl.org/dc/elements/1.1/"
   xmlns:cc="http://creativecommons.org/ns#"
   xmlns:rdf="http://www.w3.org/1999/02/22-rdf-syntax-ns#"
   xmlns:svg="http://www.w3.org/2000/svg"
   xmlns="http://www.w3.org/2000/svg"
   xmlns:sodipodi="http://sodipodi.sourceforge.net/DTD/sodipodi-0.dtd"
   xmlns:inkscape="http://www.inkscape.org/namespaces/inkscape"
   id="Product_Icon"
   data-name="Product Icon"
   viewBox="0 0 75 75"
   version="1.1"
   sodipodi:docname="Amazon-Simple-Storage-Service-S3_light-bg.svg"
   width="75"
   height="75"
   inkscape:version="0.92.2 5c3e80d, 2017-08-06">
  <metadata
     id="metadata13">
    <rdf:RDF>
      <cc:Work
         rdf:about="">
        <dc:format>image/svg+xml</dc:format>
        <dc:type
           rdf:resource="http://purl.org/dc/dcmitype/StillImage" />
        <dc:title>Amazon-S3_light-bg</dc:title>
      </cc:Work>
    </rdf:RDF>
  </metadata>
  <defs
     id="defs11" />
  <sodipodi:namedview
     pagecolor="#ffffff"
     bordercolor="#666666"
     borderopacity="1"
     objecttolerance="10"
     gridtolerance="10"
     guidetolerance="10"
     inkscape:pageopacity="0"
     inkscape:pageshadow="2"
     inkscape:window-width="1154"
     inkscape:window-height="777"
     id="namedview9"
     showgrid="false"
     fit-margin-top="0"
     fit-margin-left="0"
     fit-margin-right="0"
     fit-margin-bottom="0"
     inkscape:zoom="3.1466667"
     inkscape:cx="37.5"
     inkscape:cy="37.5"
     inkscape:window-x="0"
     inkscape:window-y="0"
     inkscape:window-maximized="0"
     inkscape:current-layer="Product_Icon" />
  <title
     id="title2">Amazon-S3_light-bg</title>
  <rect
     id="Green_Light_BG"
     data-name="Green Light BG"
     width="75"
     height="75"
     style="fill:#3f8624"
     x="0"
     y="0" />
  <g
     id="Product_Icon-2"
     data-name="Product Icon">
    <path
       d="m 61.43,40.06 c -0.29,-1.57 -2.07,-2.68 -3.29,-3.47 -0.39,-0.25 -1.46,-0.65 -1.55,-1 a 2.36,2.36 0 0 1 0.1,-0.74 l 1,-7.19 c 0.29,-2.11 0.57,-4.22 0.86,-6.33 C 58.81,19.39 57.88,18.09 56.3,17 53.08,14.77 48.88,13.87 45.09,13.25 a 55.85,55.85 0 0 0 -14.38,-0.47 40,40 0 0 0 -12.53,3 c -2.14,1 -4.94,2.56 -4.59,5.29 1,8.12 2.18,16.22 3.27,24.33 0.5,3.71 1,7.42 1.5,11.13 a 4.13,4.13 0 0 0 2.46,3.33 c 3.1,1.68 6.94,2.16 10.4,2.48 A 51.5,51.5 0 0 0 45,61.73 c 2.88,-0.53 8.24,-1.4 8.7,-5 0.57,-4.46 1.2,-8.92 1.8,-13.37 L 55.72,42 c 1.63,0.39 6.28,1.22 5.71,-1.94 z M 36.05,14.5 c 6,0 12.87,0.68 18.25,3.64 0.83,0.46 2.76,1.49 2.18,2.71 -0.58,1.22 -2.38,1.83 -3.48,2.27 a 30.88,30.88 0 0 1 -4.83,1.35 62.29,62.29 0 0 1 -21.66,0.45 26.8,26.8 0 0 1 -9.32,-2.73 c -0.72,-0.41 -1.91,-1.15 -1.58,-2.13 a 3,3 0 0 1 1.18,-1.26 20.84,20.84 0 0 1 7.2,-2.91 50.35,50.35 0 0 1 12.06,-1.39 z m 15.68,42.15 c -0.15,1.17 -2.08,1.75 -3,2.08 a 29.6,29.6 0 0 1 -5.88,1.32 50.72,50.72 0 0 1 -13.37,0 22.24,22.24 0 0 1 -8,-2.17 2,2 0 0 1 -1.2,-1.73 c -1,-7.93 -2.14,-15.86 -3.21,-23.79 l -1.16,-8.6 a 23.26,23.26 0 0 0 7.3,2.56 59.62,59.62 0 0 0 8.31,1.09 64.8,64.8 0 0 0 16.39,-0.91 24.27,24.27 0 0 0 8.21,-2.74 L 54,39.46 a 120.43,120.43 0 0 1 -14.82,-6 4.27,4.27 0 0 1 -0.61,-0.29 c -0.27,-0.2 -0.2,-0.1 -0.33,-0.41 -0.25,-0.57 -0.31,-1 -0.84,-1.47 a 2.25,2.25 0 1 0 -1.24,4 4.12,4.12 0 0 0 1,-0.3 c 0.39,-0.12 0.39,-0.1 0.8,0.09 a 126.72,126.72 0 0 0 15,6.16 c 0.77,0.25 0.76,0 0.76,0.64 a 11.49,11.49 0 0 1 -0.19,1.45 L 52.89,48.1 Z M 36.3,33 c 0,0.27 -0.38,0.24 -0.48,0.07 C 35.72,32.9 36.3,32.62 36.3,33 Z m 19.7,7 0.3,-2.21 c 1,0.57 2.7,1.43 3.15,2.57 C 58.47,40.76 56.92,40.23 56,40 Z"
       style="fill:#ffffff"
       id="path5"
       inkscape:connector-curvature="0" />
  </g>
</svg>
