<svg id="Layer_1" data-name="Layer 1" xmlns="http://www.w3.org/2000/svg" width="100" height="100" viewBox="0 0 100 100">
  <title>SDKs</title>
  <g>
    <g>
      <polygon points="54.62 74.79 81.27 59.65 81.27 29.46 54.62 44.55 54.62 74.79" fill="#fff"/>
      <polygon points="28 59.65 54.63 74.77 54.63 44.56 28 29.47 28 59.65" fill="#fff"/>
      <polygon points="81.22 29.44 54.63 14.38 28.03 29.44 54.63 44.54 81.22 29.44" fill="#fff"/>
      <polygon points="54.63 43.39 79.23 29.46 79.2 29.44 54.63 43.39 54.63 43.39" fill="#fff"/>
      <polygon points="30.06 29.44 30.02 29.46 54.63 43.39 54.63 43.39 30.06 29.44" fill="#fff"/>
      <circle cx="54.63" cy="43.39" fill="#fff"/>
      <path d="M81.22,28.29,54.63,13.23,28,28.29l-1,.59V60.25L53.63,75.37l1,.57,1-.57L82.26,60.25V28.88Zm-1,30.79-24.63,14V45.13l24.63-14Zm-26.63,14L29,59.08V31.17l24.63,14ZM30.06,29.44,54.63,15.52,79.2,29.44l0,0L54.63,43.39h0L30,29.46Z" fill="#444"/>
    </g>
    <g>
      <polygon points="33.86 84.22 49.17 75.53 49.17 58.19 33.86 66.86 33.86 84.22" fill="#fff"/>
      <polygon points="18.48 75.54 33.85 84.27 33.85 66.84 18.48 58.13 18.48 75.54" fill="#fff"/>
      <polygon points="49.08 58.13 33.84 49.5 18.6 58.13 33.84 66.78 49.08 58.13" fill="#fff"/>
      <polygon points="33.84 65.97 47.66 58.14 47.65 58.13 33.84 65.97 33.84 65.97" fill="#fff"/>
      <polygon points="20.03 58.13 20.01 58.14 33.84 65.97 33.84 65.97 20.03 58.13" fill="#fff"/>
      <rect x="33.84" y="65.97" fill="#fff"/>
      <path d="M49.17,57.27,33.84,48.59,18.51,57.27l-.77.44V76L33.09,84.7l.75.43.75-.43L49.94,76V57.7Zm-.73,17.84L34.59,83V67.27l13.85-7.84ZM33.09,83,19.24,75.11V59.43l13.85,7.84ZM20,58.13l13.81-7.82,13.81,7.82h0L33.84,66h0L20,58.14Z" fill="#444"/>
    </g>
    <g>
      <polygon points="50.22 85.66 59.02 80.66 59.02 70.7 50.22 75.69 50.22 85.66" fill="#fff"/>
      <polygon points="41.14 80.66 49.94 85.66 49.94 75.69 41.14 70.7 41.14 80.66" fill="#fff"/>
      <polygon points="58.82 70.45 50.08 65.5 41.34 70.45 50.08 75.41 58.82 70.45" fill="#fff"/>
      <polygon points="50.08 74.74 57.64 70.46 57.63 70.45 50.08 74.74 50.08 74.74" fill="#fff"/>
      <polygon points="42.53 70.45 42.52 70.46 50.08 74.74 50.08 74.74 42.53 70.45" fill="#fff"/>
      <circle cx="50.08" cy="74.74" transform="translate(-28.14 30.29) rotate(-26.57)" fill="#fff"/>
      <path d="M59.15,69.59l-9.07-5.14L41,69.59l-.76.43V81.19l9.08,5.16.75.43.75-.43,9.08-5.16V70Zm-.74,10.73-7.58,4.3V76l7.58-4.29ZM41.75,71.74,49.33,76v8.59l-7.58-4.3Zm.78-1.29,7.55-4.28,7.55,4.28h0l-7.56,4.28h0l-7.56-4.28Z" fill="#444"/>
    </g>
    <g>
      <polygon points="54.62 74.79 81.27 59.65 81.27 29.46 54.62 44.55 54.62 74.79" fill="#fff"/>
      <polygon points="28 59.65 54.63 74.77 54.63 44.56 28 29.47 28 59.65" fill="#fff"/>
      <polygon points="81.22 29.44 54.63 14.38 28.03 29.44 54.63 44.54 81.22 29.44" fill="#fff"/>
      <polygon points="54.63 43.39 79.23 29.46 79.2 29.44 54.63 43.39 54.63 43.39" fill="#fff"/>
      <polygon points="30.06 29.44 30.02 29.46 54.63 43.39 54.63 43.39 30.06 29.44" fill="#fff"/>
      <circle cx="54.63" cy="43.39" fill="#fff"/>
      <path d="M81.22,28.29,54.63,13.23,28,28.29l-1,.59V60.25L53.63,75.37l1,.57,1-.57L82.26,60.25V28.88Zm-1,30.79-24.63,14V45.13l24.63-14Zm-26.63,14L29,59.08V31.17l24.63,14ZM30.06,29.44,54.63,15.52,79.2,29.44l0,0L54.63,43.39h0L30,29.46Z" fill="#444"/>
    </g>
    <g>
      <polygon points="33.86 84.22 49.17 75.53 49.17 58.19 33.86 66.86 33.86 84.22" fill="#fff"/>
      <polygon points="18.48 75.54 33.85 84.27 33.85 66.84 18.48 58.13 18.48 75.54" fill="#fff"/>
      <polygon points="49.08 58.13 33.84 49.5 18.6 58.13 33.84 66.78 49.08 58.13" fill="#fff"/>
      <polygon points="33.84 65.97 47.66 58.14 47.65 58.13 33.84 65.97 33.84 65.97" fill="#fff"/>
      <polygon points="20.03 58.13 20.01 58.14 33.84 65.97 33.84 65.97 20.03 58.13" fill="#fff"/>
      <rect x="33.84" y="65.97" fill="#fff"/>
      <path d="M49.17,57.27,33.84,48.59,18.51,57.27l-.77.44V76L33.09,84.7l.75.43.75-.43L49.94,76V57.7Zm-.73,17.84L34.59,83V67.27l13.85-7.84ZM33.09,83,19.24,75.11V59.43l13.85,7.84ZM20,58.13l13.81-7.82,13.81,7.82h0L33.84,66h0L20,58.14Z" fill="#444"/>
    </g>
    <g>
      <polygon points="50.22 85.66 59.02 80.66 59.02 70.7 50.22 75.69 50.22 85.66" fill="#fff"/>
      <polygon points="41.14 80.66 49.94 85.66 49.94 75.69 41.14 70.7 41.14 80.66" fill="#fff"/>
      <polygon points="58.82 70.45 50.08 65.5 41.34 70.45 50.08 75.41 58.82 70.45" fill="#fff"/>
      <polygon points="50.08 74.74 57.64 70.46 57.63 70.45 50.08 74.74 50.08 74.74" fill="#fff"/>
      <polygon points="42.53 70.45 42.52 70.46 50.08 74.74 50.08 74.74 42.53 70.45" fill="#fff"/>
      <circle cx="50.08" cy="74.74" transform="translate(-28.14 30.29) rotate(-26.57)" fill="#fff"/>
      <path d="M59.15,69.59l-9.07-5.14L41,69.59l-.76.43V81.19l9.08,5.16.75.43.75-.43,9.08-5.16V70Zm-.74,10.73-7.58,4.3V76l7.58-4.29ZM41.75,71.74,49.33,76v8.59l-7.58-4.3Zm.78-1.29,7.55-4.28,7.55,4.28h0l-7.56,4.28h0l-7.56-4.28Z" fill="#444"/>
    </g>
  </g>
</svg>
