<svg id="Layer_1" data-name="Layer 1" xmlns="http://www.w3.org/2000/svg" width="100" height="100" viewBox="0 0 100 100">
  <title>SDKs</title>
  <g>
    <polygon points="49.98 85.98 81.72 67.95 81.72 31.98 49.98 49.96 49.98 85.98" fill="#fff"/>
    <polygon points="18.3 67.94 50 85.94 50 49.97 18.3 32.01 18.3 67.94" fill="#fff"/>
    <polygon points="81.5 31.98 50 14.13 18.5 31.98 50 49.86 81.5 31.98" fill="#fff"/>
    <polygon points="50 48.8 79.67 32 79.64 31.98 50 48.8 50 48.8" fill="#fff"/>
    <polygon points="20.36 31.98 20.33 32 50 48.8 50 48.8 20.36 31.98" fill="#fff"/>
    <circle cx="50" cy="48.8" fill="#fff"/>
    <path d="M81.66,30.83,50,12.89,18.34,30.83l-1,.59V68.54l31.7,18,1,.57,1-.57,31.7-18V31.41Zm-1,36.55L51,84.24V50.54L80.7,33.71ZM49,84.24,19.3,67.37V33.71L49,50.54ZM20.36,32,50,15.19,79.64,32l0,0L50,48.8h0L20.33,32Z" fill="#444"/>
    <polygon points="50.13 69.39 67.18 59.72 67.18 40.41 50.13 50.07 50.13 69.39" fill="#96bf3d"/>
    <polygon points="32.82 59.72 49.87 69.39 49.87 50.07 32.82 40.41 32.82 59.72" fill="#96bf3d"/>
    <polygon points="67 40.15 50 30.52 33 40.15 50 49.81 67 40.15" fill="#96bf3d"/>
    <polygon points="50 48.83 65.29 40.17 65.27 40.15 50 48.82 50 48.83" fill="#96bf3d"/>
    <polygon points="34.73 40.15 34.71 40.17 50 48.83 50 48.82 34.73 40.15" fill="#96bf3d"/>
    <circle cx="50" cy="48.82" fill="#96bf3d"/>
    <path d="M67.3,39,50,29.21,32.7,39l-1,.58V60.39L49,70.22l1,.57,1-.57,17.32-9.83V39.58Zm-1,20.22L51,67.92V50.56l15.32-8.68ZM49,67.92l-15.32-8.7V41.88L49,50.56ZM34.73,40.15,50,31.51l15.27,8.65h0L50,48.82h0L34.71,40.17Z" fill="#fff"/>
  </g>
</svg>
