<svg id="Layer_1" data-name="Layer 1" xmlns="http://www.w3.org/2000/svg" width="100" height="100" viewBox="0 0 100 100">
  <title>Compute</title>
  <g>
    <rect x="23.5" y="37.61" width="53" height="27.25" fill="#9d5025"/>
    <rect x="23.5" y="35.13" width="53" height="27.25" fill="#f58536"/>
    <rect x="34.95" y="36.76" width="2.5" height="24" fill="#fbbf93"/>
    <rect x="25.75" y="36.76" width="2.5" height="24" fill="#fbbf93"/>
    <rect x="30.35" y="36.76" width="2.5" height="24" fill="#fbbf93"/>
    <rect x="62.55" y="36.76" width="2.5" height="24" fill="#fbbf93"/>
    <rect x="67.15" y="36.76" width="2.5" height="24" fill="#fbbf93"/>
    <rect x="71.75" y="36.76" width="2.5" height="24" fill="#fbbf93"/>
    <rect x="26.4" y="37.41" width="1.85" height="23.35" fill="#fff"/>
    <rect x="31" y="37.41" width="1.85" height="23.35" fill="#fff"/>
    <rect x="35.6" y="37.41" width="1.85" height="23.35" fill="#fff"/>
    <rect x="63.2" y="37.41" width="1.85" height="23.35" fill="#fff"/>
    <rect x="67.8" y="37.41" width="1.85" height="23.35" fill="#fff"/>
    <rect x="72.4" y="37.41" width="1.85" height="23.35" fill="#fff"/>
    <path d="M57.15,53.12a1.28,1.28,0,0,1,1.29,1.28v1a1.29,1.29,0,0,1-1.29,1.28H42.85a1.29,1.29,0,0,1-1.29-1.28v-1a1.28,1.28,0,0,1,1.29-1.28Zm-.57,2.31a.51.51,0,1,0,0-1H51.23a.51.51,0,1,0,0,1h5.35" fill="#fff"/>
    <path d="M56.46,40.53a2,2,0,0,1,2,1.94v7.24a2,2,0,0,1-2,1.94H43.52a2,2,0,0,1-1.95-1.94V42.47a2,2,0,0,1,1.95-1.94ZM57,49.72V42.47a.58.58,0,0,0-.59-.58H43.52a.58.58,0,0,0-.58.58v7.24a.58.58,0,0,0,.58.58H56.46a.59.59,0,0,0,.59-.58" fill="#fff"/>
  </g>
</svg>
