<svg id="Layer_1" data-name="Layer 1" xmlns="http://www.w3.org/2000/svg" width="100" height="100" viewBox="0 0 100 100">
  <title>Compute</title>
  <g>
    <g>
      <rect x="23.5" y="24.74" width="53" height="53" rx="9.12" ry="9.12" fill="#9d5025"/>
      <rect x="23.5" y="22.26" width="53" height="53" rx="9.12" ry="9.12" fill="#f58536"/>
    </g>
    <g>
      <path d="M60.36,62.36c0-1.87-.38-2.68-1.55-2.68s-1.62,1.31-1.62,5c0,3.89.54,4.59,1.66,4.59.94,0,1.62-.49,1.62-3.26h2.59c0,2.77-.68,5.17-4.09,5.17-3.89,0-4.38-2.77-4.38-6.68s.49-6.68,4.38-6.68c3.71,0,4,2.72,4,4.59Z" fill="#fff"/>
      <path d="M66.48,67.15c0,1.48.29,2.29,1.42,2.29s1.42-.94,1.42-2.05-.25-2.18-1.67-2.18h-.86V63.51h.85c1.08,0,1.48-1,1.48-2s-.4-1.67-1.24-1.67c-1.12,0-1.31.86-1.31,2.07H64.17c0-2.5,1.33-3.76,3.75-3.76s3.67,1,3.67,3.28a2.59,2.59,0,0,1-1.94,2.81v0c1.64.25,2.27,1.4,2.27,3s-.7,3.87-4.23,3.87c-2.47,0-3.69-1.49-3.69-3.92v-.05Z" fill="#fff"/>
    </g>
  </g>
</svg>
