<svg id="Layer_1" data-name="Layer 1" xmlns="http://www.w3.org/2000/svg" width="100" height="100" viewBox="0 0 100 100">
  <title>Compute</title>
  <g>
    <circle cx="50" cy="51.25" r="30.43" fill="#9d5025"/>
    <rect x="19.57" y="48.75" width="60.86" height="2.5" fill="#9d5025"/>
    <circle cx="50" cy="48.75" r="30.43" fill="#f58536"/>
    <polygon points="29.25 35.75 29.25 35.75 29.25 38 32.02 38 32.02 62 29.25 62 29.25 64.25 34.61 64.25 34.61 35.75 29.25 35.75 29.25 35.75 29.25 35.75" fill="#fff"/>
    <polygon points="70.75 38.86 70.75 38.86 37.03 38.86 37.03 57.69 40.32 57.69 40.32 61.48 54.67 61.48 54.67 57.69 59.85 57.69 59.85 61.48 66.08 61.48 66.08 57.69 70.75 57.69 70.75 38.86 70.75 38.86 70.75 38.86" fill="#fff"/>
    <polygon points="40.66 41.63 40.66 41.63 66.6 41.63 66.6 54.75 40.66 54.75 40.66 41.63 40.66 41.63 40.66 41.63" fill="#d9a741"/>
    <polygon points="43.43 43.7 43.43 43.7 52.42 43.7 52.42 52.5 43.43 52.5 43.43 43.7 43.43 43.7 43.43 43.7" fill="#fff"/>
    <polygon points="55.19 43.7 55.19 43.7 64.18 43.7 64.18 52.5 55.19 52.5 55.19 43.7 55.19 43.7 55.19 43.7" fill="#fff"/>
  </g>
</svg>
