<svg id="Layer_1" data-name="Layer 1" xmlns="http://www.w3.org/2000/svg" width="100" height="100" viewBox="0 0 100 100">
  <title>Compute</title>
  <g>
    <polygon points="24.47 43.1 34.09 28.7 45.9 42.89 35.74 43.82 24.47 43.1" fill="#6b3a19"/>
    <polygon points="46.97 56.9 36.78 56.01 24.47 56.78 34.09 71.16 46.97 56.9" fill="#fbbf93"/>
    <polygon points="34.09 71.16 24.47 68.08 24.47 56.78 34.09 57.94 54.61 61.91 34.09 71.16" fill="#9d5025"/>
    <polygon points="71.42 54.91 34.09 57.94 34.09 71.16 71.42 63.09 71.42 54.91" fill="#f58536"/>
    <polygon points="83.97 64.39 71.08 62.79 35.58 70.25 50 91 83.97 64.39" fill="#fbbf93"/>
    <polygon points="34.09 41.92 24.47 43.1 24.47 31.8 34.09 28.7 58.97 39.18 34.09 41.92" fill="#9d5025"/>
    <polygon points="22.83 55.48 16.03 54.8 16.03 45.2 22.83 44.52 46.68 50 22.83 55.48" fill="#9d5025"/>
    <polygon points="53.94 53.92 22.83 55.48 22.83 44.52 53.94 46.08 53.94 53.92" fill="#f58536"/>
    <polygon points="75.13 45.31 34.09 41.92 34.09 28.7 75.13 37.63 75.13 45.31" fill="#f58536"/>
    <polygon points="83.97 35.59 71.08 37.19 35.58 29.73 50 9 83.97 35.59" fill="#6b3a19"/>
    <polygon points="83.97 48.55 71.08 48.71 35.58 47.96 50 31.12 83.97 48.55" fill="#6b3a19"/>
    <polygon points="83.97 51.43 71.08 51.27 35.58 52.01 50 68.84 83.97 51.43" fill="#fbbf93"/>
    <polygon points="50 25.4 35.58 29.73 35.58 16.21 50 9 77.9 27.13 50 25.4" fill="#9d5025"/>
    <polygon points="83.97 25.98 50 9 50 25.4 83.97 35.59 83.97 25.98" fill="#f58536"/>
    <polygon points="50 47.52 35.58 47.96 35.58 34.44 50 31.12 77.9 43.1 50 47.52" fill="#9d5025"/>
    <polygon points="83.97 48.55 50 47.52 50 31.12 83.97 38.94 83.97 48.55" fill="#f58536"/>
    <polygon points="50 68.84 35.58 65.53 35.58 52.01 50 52.44 77.9 58.35 50 68.84" fill="#9d5025"/>
    <polygon points="50 52.44 83.97 51.43 83.97 61.04 50 68.84 50 52.44" fill="#f58536"/>
    <polygon points="50 90.97 35.58 83.76 35.58 70.25 50 74.56 79.52 72.21 50 90.97" fill="#9d5025"/>
    <polygon points="83.97 74.02 50 91 50 74.56 83.97 64.39 83.97 74.02" fill="#f58536"/>
  </g>
</svg>
