<svg id="Layer_1" data-name="Layer 1" xmlns="http://www.w3.org/2000/svg" width="100" height="100" viewBox="0 0 100 100">
  <title>Compute</title>
  <g>
    <polygon points="15.91 74.12 20.25 76.29 27.92 50.04 20.25 23.71 15.91 25.88 15.91 74.12" fill="#9d5025"/>
    <polygon points="28.65 25.71 20.25 23.74 20.25 76.29 28.65 74.32 28.65 25.71" fill="#f58536"/>
    <polygon points="25.47 21.1 31.84 17.91 39.79 50.04 31.84 82.09 25.47 78.9 25.47 21.1" fill="#9d5025"/>
    <polygon points="44.89 77.81 31.84 81.97 31.84 17.91 44.89 22.08 44.89 77.81" fill="#f58536"/>
    <polygon points="74.52 29.17 79.74 29.17 79.74 69.12 74.52 68.83 74.52 29.17" fill="#9d5025"/>
    <polygon points="54.27 29.75 60.13 26.73 79.33 29.17 79.9 34.28 74.64 35.02 54.27 29.75" fill="#6b3a19"/>
    <polygon points="54.44 70.25 60.29 73.27 80.06 65.71 74.81 64.98 54.44 70.25" fill="#fbbf93"/>
    <polygon points="55.92 61.77 66.37 63.17 66.37 36.83 55.92 38.22 55.92 61.77" fill="#9d5025"/>
    <polygon points="39.79 86.06 49.99 91.16 58.75 49.94 49.99 8.84 39.79 13.94 39.79 86.06" fill="#9d5025"/>
    <path d="M50,8.84V91.16l34.1-17.05V25.89ZM79.74,65.77,60.19,71.64V28.36l19.54,5.86Z" fill="#f58536"/>
    <polygon points="66.37 36.83 66.37 63.25 77.24 50.04 66.37 36.83" fill="#f58536"/>
  </g>
</svg>
