<svg id="Layer_1" data-name="Layer 1" xmlns="http://www.w3.org/2000/svg" width="100" height="100" viewBox="0 0 100 100">
  <title>Compute</title>
  <g>
    <polygon points="60.81 55.73 50.04 55.07 16.08 57.25 25.66 78.88 60.81 55.73" fill="#fbbf93"/>
    <polygon points="25.53 21.21 16.08 25.98 16.08 50 25.53 50 38.9 37.88 25.53 21.21" fill="#9d5025"/>
    <polygon points="60.81 55.73 25.66 58.66 25.66 78.88 60.81 69.31 60.81 55.73" fill="#f58536"/>
    <polygon points="42.66 50 25.53 50 25.53 21.21 42.66 25.85 42.66 50" fill="#f58536"/>
    <polygon points="67.28 49.98 79.58 50 79.58 26.39 67.28 28.43 67.28 49.98" fill="#9d5025"/>
    <polygon points="43.2 30.81 54.27 19.7 79.58 34.29 67.28 36.02 43.2 30.81" fill="#6b3a19"/>
    <polygon points="31.88 50 49.96 50 59.44 31.04 49.96 9 31.88 18.04 31.88 50" fill="#9d5025"/>
    <polygon points="49.96 9 49.96 50 60.12 50 60.12 28.45 79.58 34.29 79.58 50 83.92 50 83.92 25.98 49.96 9" fill="#f58536"/>
    <polygon points="16.08 57.25 25.66 58.66 25.66 78.88 16.08 74.1 16.08 57.25" fill="#9d5025"/>
    <polygon points="83.92 57.16 67.59 56.15 31.88 59.61 49.96 91 83.92 57.16" fill="#fbbf93"/>
    <polygon points="83.92 57.16 49.96 62.25 49.96 91 83.92 74.02 83.92 57.16" fill="#f58536"/>
    <polygon points="31.88 59.61 49.96 62.25 49.96 91 31.88 81.98 31.88 59.61" fill="#9d5025"/>
  </g>
</svg>
