<svg id="Layer_1" data-name="Layer 1" xmlns="http://www.w3.org/2000/svg" width="100" height="100" viewBox="0 0 100 100">
  <title>Compute</title>
  <g>
    <path d="M76.11,44.74V42.26L67.25,42H61.76v-.54c0-6.29-5.65-9.77-11.77-9.77S38.84,35.62,38.13,42H32.77l-8.88.28v2.48l8.88,6.09V47.34h5.38V53.9h-3.9V70.8H65.68V53.9H61.76V47.34h5.49v3.47ZM55.21,53.9H43.91V47.34H55.21ZM43.88,42c0-1,.25-5.29,5.62-5.29h0A5.23,5.23,0,0,1,55.21,42Z" fill="#9d5025"/>
    <path d="M76.11,42.26l-8.85-6.08v3.32H61.76V39c0-6.29-5.65-9.77-11.77-9.77S38.84,33.14,38.13,39.51H32.77V36.18l-8.88,6.08,8.88,6.09V44.86h5.38v6.55h-3.9V68.32H65.68V51.42H61.76V44.86h5.49v3.47Zm-20.9,9.15H43.91V44.86H55.21ZM43.88,39.51c0-1,.25-5.29,5.62-5.29h0a5.23,5.23,0,0,1,5.67,5.29Z" fill="#f58536"/>
  </g>
</svg>
