<svg id="Layer_1" data-name="Layer 1" xmlns="http://www.w3.org/2000/svg" xmlns:xlink="http://www.w3.org/1999/xlink" width="100" height="100" viewBox="0 0 100 100">
  <defs>
    <clipPath id="clip-path">
      <path d="M39.27,19.87v.56a1.6,1.6,0,0,1-1.6,1.6v-.56A1.6,1.6,0,0,0,39.27,19.87Z" fill="#9d5025"/>
    </clipPath>
    <clipPath id="clip-path-2">
      <path d="M31.53,21.46V22a1.6,1.6,0,0,1-1.61-1.6v-.56A1.6,1.6,0,0,0,31.53,21.46Z" fill="#9d5025"/>
    </clipPath>
  </defs>
  <title>Compute</title>
  <g>
    <rect x="16.45" y="16.45" width="67.1" height="67.1" rx="7.7" ry="7.7" fill="none" stroke="#7d7d7d" stroke-miterlimit="10" stroke-dasharray="2.12"/>
    <g>
      <g>
        <path d="M37.67,12a1.6,1.6,0,0,1,1.6,1.6v6.28a1.6,1.6,0,0,1-1.6,1.6H31.53a1.6,1.6,0,0,1-1.61-1.6V13.59A1.6,1.6,0,0,1,31.53,12Z" fill="#f58536"/>
        <g>
          <path d="M39.27,19.87v.56a1.6,1.6,0,0,1-1.6,1.6v-.56A1.6,1.6,0,0,0,39.27,19.87Z" fill="#9d5025"/>
          <g clip-path="url(#clip-path)">
            <g style="isolation: isolate">
              <path d="M39.27,19.87v.56a1.66,1.66,0,0,1,0,.23V20.1a1.66,1.66,0,0,0,0-.23" fill="#9d5025"/>
              <path d="M39.26,20.1v.56a1.66,1.66,0,0,1-.06.26v-.56a1.66,1.66,0,0,0,.06-.26" fill="#9d5025"/>
              <path d="M39.2,20.36v.56a1.57,1.57,0,0,1-.12.28v-.56a1.56,1.56,0,0,0,.12-.28" fill="#9d5025"/>
              <path d="M39.08,20.64v.56a1.6,1.6,0,0,1-1.41.83v-.56a1.6,1.6,0,0,0,1.41-.83" fill="#9d5025"/>
            </g>
          </g>
        </g>
        <rect x="31.46" y="21.46" width="6.22" height="0.56" fill="#9d5025"/>
        <g>
          <path d="M31.53,21.46V22a1.6,1.6,0,0,1-1.61-1.6v-.56A1.6,1.6,0,0,0,31.53,21.46Z" fill="#9d5025"/>
          <g clip-path="url(#clip-path-2)">
            <g style="isolation: isolate">
              <path d="M31.59,21.46V22a1.66,1.66,0,0,1-1.67-1.6v-.56a1.6,1.6,0,0,0,1.61,1.6" fill="#9d5025"/>
            </g>
          </g>
        </g>
      </g>
      <path d="M34.5,19.37a2.24,2.24,0,0,1-2.14-2.47c0-1.56.89-2.57,2.14-2.57v-.83h.4v.83a1.87,1.87,0,0,1,2,1.73H35.82a.94.94,0,0,0-.92-.9v3.38a1.12,1.12,0,0,0,1-1.09h1.06c-.21,1.17-.86,1.93-2,1.93v.83h-.4Zm0-4.21c-.82.07-1.08,1-1.08,1.74s.31,1.52,1.08,1.64Z" fill="#fff"/>
    </g>
  </g>
</svg>
