<svg id="Layer_1" data-name="Layer 1" xmlns="http://www.w3.org/2000/svg" width="100" height="100" viewBox="0 0 100 100">
  <title>NetworkingContentDelivery</title>
  <g>
    <circle cx="50" cy="51.25" r="30.43" fill="#9d5025"/>
    <circle cx="50" cy="48.75" r="30.43" fill="#f58536"/>
    <rect x="44.48" y="20.81" width="11.05" height="17.76" transform="translate(79.69 -20.31) rotate(90)" fill="#fff"/>
    <g>
      <rect x="63.62" y="56.16" width="9" height="9" transform="translate(128.78 -7.47) rotate(90)" fill="#fff"/>
      <rect x="52.24" y="56.16" width="9" height="9" transform="translate(117.4 3.91) rotate(90)" fill="#fff"/>
    </g>
    <rect x="38.39" y="56.16" width="9" height="9" transform="translate(103.55 17.76) rotate(90)" fill="#fff"/>
    <rect x="27.01" y="56.16" width="9" height="9" transform="translate(92.17 29.14) rotate(90)" fill="#fff"/>
    <rect x="30.7" y="48.36" width="1.62" height="8.83" fill="#fff"/>
    <rect x="30.7" y="48.36" width="13" height="1.62" fill="#fff"/>
    <rect x="42.08" y="48.36" width="1.62" height="8.83" fill="#fff"/>
    <rect x="55.93" y="48.36" width="1.62" height="8.83" fill="#fff"/>
    <rect x="55.93" y="48.36" width="13" height="1.62" fill="#fff"/>
    <rect x="67.31" y="48.36" width="1.62" height="8.83" fill="#fff"/>
    <rect x="36.4" y="42.06" width="1.62" height="7.11" fill="#fff"/>
    <rect x="49.19" y="33.59" width="1.62" height="8.6" fill="#fff"/>
    <rect x="36.4" y="41.38" width="26.87" height="1.62" fill="#fff"/>
    <rect x="61.65" y="42.06" width="1.62" height="7.11" fill="#fff"/>
  </g>
</svg>
