<svg id="Layer_1" data-name="Layer 1" xmlns="http://www.w3.org/2000/svg" width="100" height="100" viewBox="0 0 100 100">
  <title>NetworkingContentDelivery</title>
  <g>
    <circle cx="50" cy="51.25" r="30.43" fill="#9d5025"/>
    <rect x="19.57" y="48.75" width="60.86" height="2.5" fill="#9d5025"/>
    <circle cx="50" cy="48.75" r="30.43" fill="#f58536"/>
    <path d="M27.06,51.77V51a10,10,0,0,1,5.63-8.39A12.32,12.32,0,0,1,55.63,37,6.82,6.82,0,0,1,65,42c4.59.9,7.9,5.29,7.9,9v.73c0,4.5-4.66,8.45-10,8.45H37C31.72,60.22,27.06,56.27,27.06,51.77Z" fill="#fff"/>
    <path d="M56.25,40.24l-1.94,1.33-1-2.14A9.19,9.19,0,0,0,45,34a9.17,9.17,0,0,0-9.17,9.18l0,1.7-1.44.42A6.74,6.74,0,0,0,30.19,51v.73c0,2.47,3,5.34,6.85,5.34H63c3.85,0,6.84-2.87,6.84-5.34V51c0-2.48-2.77-5.75-6-6l-1.74-.14L62,43.14a3.67,3.67,0,0,0-5.75-2.89Z" fill="#f58536"/>
  </g>
</svg>
