<svg id="Layer_1" data-name="Layer 1" xmlns="http://www.w3.org/2000/svg" width="100" height="100" viewBox="0 0 100 100">
  <title>SecurityIdentityCompliance</title>
  <g>
    <rect x="20.15" y="25.76" width="53" height="39.92" rx="6.21" ry="6.21" fill="#7d7c7c"/>
    <rect x="20.15" y="23.28" width="53" height="39.92" rx="6.21" ry="6.21" fill="#fff"/>
    <circle cx="59.9" cy="36" r="9.53" fill="#759c3e"/>
    <circle cx="64.07" cy="36" r="2.49" fill="#fff"/>
    <polygon points="56.67 40.05 45.65 40.05 44.65 38.31 40.92 38.66 39.49 37.19 38.18 36.91 34.78 38.94 30.56 35.7 32.88 31.95 56.67 31.95 56.67 40.05" fill="#759c3e"/>
    <circle cx="33.4" cy="50.66" r="9.53" fill="#7d7c7c"/>
    <circle cx="29.23" cy="50.66" r="2.49" fill="#fff"/>
    <polygon points="36.63 46.61 47.65 46.61 48.65 48.35 52.38 48 53.81 49.47 55.12 49.75 58.52 47.72 62.74 50.96 60.42 54.71 36.63 54.71 36.63 46.61" fill="#7d7c7c"/>
    <g>
      <circle cx="65.35" cy="62.22" r="13" fill="#fff"/>
      <path d="M65.35,76.72a14.5,14.5,0,1,1,14.5-14.5A14.52,14.52,0,0,1,65.35,76.72Zm0-26a11.5,11.5,0,1,0,11.5,11.5A11.51,11.51,0,0,0,65.35,50.72Z" fill="#4f4f4f"/>
    </g>
    <rect x="59.34" y="61.72" width="7.01" height="3" fill="#4f4f4f"/>
    <rect x="64.85" y="53.16" width="3" height="11.56" fill="#4f4f4f"/>
  </g>
</svg>
