<svg id="Layer_1" data-name="Layer 1" xmlns="http://www.w3.org/2000/svg" width="100" height="100" viewBox="0 0 100 100">
  <title>SecurityIdentityCompliance</title>
  <g>
    <g>
      <circle cx="50" cy="50" r="26.5" fill="#d2d3d3"/>
      <path d="M50,77.5A27.5,27.5,0,1,1,77.5,50,27.53,27.53,0,0,1,50,77.5Zm0-53A25.5,25.5,0,1,0,75.5,50,25.53,25.53,0,0,0,50,24.5Z" fill="#7d7c7c"/>
    </g>
    <g style="isolation: isolate">
      <path d="M31.65,43.14h2.41l4.17,11.12,4.19-11.12h2.41V56.38H43.16v-11h0L39,56.38h-1.5l-4.13-11h0v11H31.65Z" fill="#373737"/>
    </g>
    <g style="isolation: isolate">
      <path d="M47.06,43.14h8.69v1.48H48.82v4.21H54.9v1.48H48.82v6.06H47.06Z" fill="#373737"/>
    </g>
    <g style="isolation: isolate">
      <path d="M61,43.14h1.95l5.17,13.24H66.14l-1.45-4h-5.6l-1.48,4H55.79Zm-1.32,7.77h4.49l-2.21-6.17h0Z" fill="#373737"/>
    </g>
  </g>
</svg>
