<svg id="Layer_1" data-name="Layer 1" xmlns="http://www.w3.org/2000/svg" width="100" height="100" viewBox="0 0 100 100">
  <title>SecurityIdentityCompliance</title>
  <g>
    <rect x="23.5" y="31.28" width="53" height="39.92" rx="6.21" ry="6.21" fill="#7d7c7c"/>
    <rect x="23.5" y="28.8" width="53" height="39.92" rx="6.21" ry="6.21" fill="#fff"/>
    <circle cx="63.25" cy="41.52" r="9.53" fill="#759c3e"/>
    <circle cx="67.42" cy="41.52" r="2.49" fill="#fff"/>
    <polygon points="60.02 45.57 49 45.57 48 43.84 44.27 44.19 42.84 42.72 41.53 42.43 38.13 44.47 33.91 41.22 36.23 37.48 60.02 37.48 60.02 45.57" fill="#759c3e"/>
    <circle cx="36.75" cy="56.19" r="9.53" fill="#7d7c7c"/>
    <circle cx="32.58" cy="56.19" r="2.49" fill="#fff"/>
    <polygon points="39.98 52.14 51 52.14 52 53.88 55.73 53.53 57.16 54.99 58.47 55.28 61.87 53.24 66.09 56.49 63.77 60.24 39.98 60.24 39.98 52.14" fill="#7d7c7c"/>
  </g>
</svg>
