<svg id="Layer_1" data-name="Layer 1" xmlns="http://www.w3.org/2000/svg" width="100" height="100" viewBox="0 0 100 100">
  <title>Messaging_GRAYSCALE</title>
  <g>
    <polygon points="15.9 35.53 15.92 74.12 50 91.16 84.08 74.12 84.08 64.48 55.1 60.87 55.12 39.13 84.1 35.54 84.1 25.89 50 8.84 15.9 25.88 15.9 35.53" fill="#4e4e4e"/>
    <polygon points="15.92 64.47 50 74.7 50 91.16 15.92 74.12 15.92 64.47" fill="#4e4e4e"/>
    <polygon points="20.25 76.29 15.9 74.11 15.9 25.88 20.26 23.71 20.25 76.29" fill="#4e4e4e"/>
    <polygon points="55.12 60.87 20.25 65.77 20.26 34.22 55.12 39.13 55.12 60.87" fill="#989898"/>
    <polygon points="84.1 35.54 50 25.3 50 8.84 84.1 25.89 84.1 35.54" fill="#989898"/>
    <polygon points="84.08 64.48 50 74.7 50 91.16 84.08 74.12 84.08 64.48" fill="#989898"/>
    <polygon points="37.44 58.83 50 60.4 50 39.52 37.44 41.11 37.44 58.83" fill="#4e4e4e"/>
    <polygon points="24.79 57.27 32.94 58.28 32.94 41.69 24.79 42.72 24.79 57.27" fill="#4e4e4e"/>
    <polygon points="20.26 34.22 50 25.3 84.1 35.54 55.12 39.13 20.26 34.22" fill="#373737"/>
    <polygon points="20.25 65.77 50 74.7 84.08 64.48 55.12 60.87 20.25 65.77" fill="#d3d3d3"/>
    <polygon points="84.08 56.09 50 60.4 50 39.52 84.08 43.86 84.08 56.09" fill="#989898"/>
  </g>
</svg>
