<svg id="Layer_1" data-name="Layer 1" xmlns="http://www.w3.org/2000/svg" xmlns:xlink="http://www.w3.org/1999/xlink" width="100" height="100" viewBox="0 0 100 100">
  <defs>
    <linearGradient id="linear-gradient" x1="50" y1="7.94" x2="50" y2="92.36" gradientUnits="userSpaceOnUse">
      <stop offset="0" stop-color="#f58536"/>
      <stop offset="1" stop-color="#d16929"/>
    </linearGradient>
  </defs>
  <title>DesktopAppStreaming</title>
  <polygon points="13 28.7 50 7.5 87 28.7 87 71.2 50 92.5 13 71.2 13 28.7" fill="url(#linear-gradient)"/>
  <path d="M37.4,30.4v9.9H26.2a1.9,1.9,0,0,0-1.9,1.9h0V68.5h0a1.9,1.9,0,0,0,1.9,1.9h19a1.9,1.9,0,0,0,1.9-1.9h0V65.7H69.5v-2c0-1.3-4.6-2.4-10.8-2.7V58H74.8V30.4ZM35.7,69.5a1.6,1.6,0,1,1,1.6-1.6A1.58,1.58,0,0,1,35.7,69.5Zm7.6-4.1H28.2V44.2H43.3ZM53.4,61a52,52,0,0,0-6.3.6V57.9h6.3ZM71,54.1H47.2V42.2h0a1.9,1.9,0,0,0-1.9-1.9H41.4V34.4H71.1V54.1Z" fill="#fff"/>
</svg>
