<svg id="Layer_1" data-name="Layer 1" xmlns="http://www.w3.org/2000/svg" width="100" height="100" viewBox="0 0 100 100">
  <title>NetworkingContentDelivery</title>
  <g>
    <path d="M76.11,44.85V42.37l-8.85-.28H61.76v-.54c0-6.29-5.65-9.77-11.77-9.77S38.84,35.72,38.14,42.09H32.77l-8.88.28v2.48l8.88,6.09V47.45h5.38V54h-3.9V70.91H65.68V54H61.76V47.45h5.49v3.47ZM55.21,54H43.91V47.45H55.21ZM43.88,42.09c0-1,.25-5.29,5.62-5.29h0a5.23,5.23,0,0,1,5.67,5.29Z" fill="#9d5025"/>
    <path d="M76.11,42.37l-8.85-6.08v3.32H61.76v-.54c0-6.29-5.65-9.77-11.77-9.77S38.84,33.24,38.14,39.61H32.77V36.29l-8.88,6.08,8.88,6.09V45h5.38v6.55h-3.9V68.43H65.68V51.52H61.76V45h5.49v3.47Zm-20.9,9.15H43.91V45H55.21ZM43.88,39.61c0-1,.25-5.29,5.62-5.29h0a5.23,5.23,0,0,1,5.67,5.29Z" fill="#f58536"/>
  </g>
</svg>
