<svg id="Layer_1" data-name="Layer 1" xmlns="http://www.w3.org/2000/svg" width="100" height="100" viewBox="0 0 100 100">
  <title>NetworkingContentDelivery</title>
  <g>
    <circle cx="50" cy="51.25" r="30.43" fill="#9d5025"/>
    <circle cx="50" cy="48.75" r="30.43" fill="#f58536"/>
    <rect x="24.42" y="39.87" width="11.05" height="17.76" fill="#fff"/>
    <rect x="59.73" y="27.74" width="9.86" height="9.86" fill="#fff"/>
    <rect x="59.73" y="43.82" width="9.86" height="9.86" fill="#fff"/>
    <rect x="59.73" y="59.91" width="9.86" height="9.86" fill="#fff"/>
    <polygon points="57.01 50.05 58.65 49.24 59.73 48.71 58.65 48.17 57.19 47.45 52.79 45.28 52.79 47.45 39.58 47.45 54.59 37.84 55.78 39.68 58.27 35.48 59 34.24 59.73 33.02 58.33 33.19 56.74 33.37 52.04 33.92 53.17 35.66 34.76 47.45 32.73 48.75 35.15 50.29 53.17 61.84 52.04 63.58 56.74 64.13 58.33 64.31 59.73 64.48 59 63.26 58.27 62.02 55.78 57.82 54.59 59.66 39.58 50.05 52.79 50.05 52.79 52.14 57.01 50.05" fill="#fff"/>
  </g>
</svg>
