<svg id="Layer_1" data-name="Layer 1" xmlns="http://www.w3.org/2000/svg" width="100" height="100" viewBox="0 0 100 100">
  <title>NetworkingContentDelivery</title>
  <g>
    <circle cx="50" cy="51.25" r="30.43" fill="#9d5025"/>
    <circle cx="50" cy="48.75" r="30.43" fill="#f58536"/>
    <path d="M60.68,54.19H63v2H60.68ZM55,27h3V29.9h-2v-1H55Zm1,16.54V39.62h2V43.5Zm2,2.92V50.3h-2V46.41Zm-2-9.72V32.81h2V36.7ZM48,27h4v2H48ZM42.1,27h3v2h-1v1h-2Zm0,5.87h2v3.9h-2Zm0,6.82h2v3.9h-2Zm0,6.82h2v3.9h-2ZM37,54.27h2.37v2H37Zm-1.78,1.79v.18H35l-1.08,1.1-3.13-3.06h4.39v1.54l.12.12ZM39.68,63l-3.29-3.21,1.38-1.4,3.29,3.21Zm1.43-8.68h1v-1h2v2.95h-3Zm4.32,14.31-3.29-3.21L43.53,64l3.29,3.21ZM50,73,47.9,71l1.39-1.4.71.7.71-.7L52.1,71Zm4.57-4.48-1.39-1.4,3.29-3.23,1.39,1.4ZM58.9,56.16h-3V53.21h2v1h1Zm1.43,6.75-1.39-1.39,3.29-3.23,1.39,1.4Zm5.76-5.65L65,56.16h-.17V56l-.12-.12.13-.12V54.19h4.38Z" fill="#fff"/>
  </g>
</svg>
