<svg id="Layer_1" data-name="Layer 1" xmlns="http://www.w3.org/2000/svg" width="100" height="100" viewBox="0 0 100 100">
  <title>NetworkingContentDelivery</title>
  <g>
    <path d="M90,48.76l-26.5-24-12-12v12H32.62a9.12,9.12,0,0,0-9.12,9.12V68.62a9.12,9.12,0,0,0,9.12,9.12H51.5v12l12-12,13-13L90,51.24Z" fill="#9d5025"/>
    <path d="M76.5,35.26l-13-13-12-12v12H32.62a9.12,9.12,0,0,0-9.12,9.12V66.14a9.12,9.12,0,0,0,9.12,9.12H51.5v12l12-12,13-13L90,48.76Z" fill="#f58536"/>
    <polygon points="29.25 35.75 29.25 35.75 29.25 38 32.02 38 32.02 62 29.25 62 29.25 64.25 34.61 64.25 34.61 35.75 29.25 35.75 29.25 35.75 29.25 35.75" fill="#fff"/>
    <polygon points="70.75 38.86 70.75 38.86 37.03 38.86 37.03 57.69 40.32 57.69 40.32 61.48 54.67 61.48 54.67 57.69 59.85 57.69 59.85 61.48 66.08 61.48 66.08 57.69 70.75 57.69 70.75 38.86 70.75 38.86 70.75 38.86" fill="#fff"/>
    <polygon points="40.66 41.63 40.66 41.63 66.6 41.63 66.6 54.75 40.66 54.75 40.66 41.63 40.66 41.63 40.66 41.63" fill="#d9a741"/>
    <polygon points="43.43 43.7 43.43 43.7 52.42 43.7 52.42 52.5 43.43 52.5 43.43 43.7 43.43 43.7 43.43 43.7" fill="#fff"/>
    <polygon points="55.19 43.7 55.19 43.7 64.18 43.7 64.18 52.5 55.19 52.5 55.19 43.7 55.19 43.7 55.19 43.7" fill="#fff"/>
  </g>
</svg>
