<svg id="Layer_1" data-name="Layer 1" xmlns="http://www.w3.org/2000/svg" width="100" height="100" viewBox="0 0 100 100">
  <title>NetworkingContentDelivery</title>
  <g>
    <polygon points="83.97 35.59 50 39.81 16.04 35.59 50 9 83.97 35.59" fill="#6b3a19"/>
    <polygon points="83.97 64.41 50 60.19 16.04 64.41 50 91 83.97 64.41" fill="#fbbf93"/>
    <polygon points="83.97 35.59 50 25.4 50 9 83.97 25.98 83.97 35.59" fill="#f58536"/>
    <polygon points="64.35 56.77 83.97 54.8 83.97 45.2 64.35 43.24 64.35 56.77" fill="#f58536"/>
    <polygon points="83.97 64.41 50 74.6 50 91 83.97 74.02 83.97 64.41" fill="#f58536"/>
    <polygon points="16.04 35.59 50 25.4 50 9 16.04 25.98 16.04 35.59" fill="#9d5025"/>
    <polygon points="31.92 62.78 50 66.4 68.08 50 50 33.6 31.92 37.22 31.92 62.78" fill="#9d5025"/>
    <polygon points="68.08 62.78 50 66.4 50 33.6 68.08 37.22 68.08 62.78" fill="#f58536"/>
    <polygon points="35.65 56.77 16.04 54.8 16.04 45.2 35.65 43.24 35.65 56.77" fill="#9d5025"/>
    <polygon points="16.04 64.41 50 74.6 50 91 16.04 74.02 16.04 64.41" fill="#9d5025"/>
  </g>
</svg>
