<svg xmlns="http://www.w3.org/2000/svg" width="1792" height="1792"><rect id="backgroundrect" width="100%" height="100%" x="0" y="0" fill="none" stroke="none"/><g class="currentLayer" style=""><title>Layer 1</title><path d="M935.2307549754041,1422.4956196200035 l482.3077008045045,-263.00841809495637 v-479.2932776744763 l-482.3077008045045,175.59014732413993 v566.7115484452928 zm-48.23077008045045,-651.869001868588 l526.0168361899127,-191.41586875678772 l-526.0168361899127,-191.41586875678772 l-526.0168361899127,191.41586875678772 zm627.0000110458559,-189.90865719177364 v578.7692409654054 q0,26.37620238774634 -13.56490408512669,48.98437586295749 t-36.926683342844875,35.4194717778308 l-530.538470884955,289.3846204827027 q-21.10096191019707,12.057692520112612 -45.96995273292934,12.057692520112612 t-45.96995273292934,-12.057692520112612 l-530.538470884955,-289.3846204827027 q-23.361779257718187,-12.811298302619651 -36.926683342844875,-35.4194717778308 t-13.56490408512669,-48.98437586295749 v-578.7692409654054 q0,-30.144231300281533 17.33293299766188,-55.0132221230138 t45.96995273292934,-35.4194717778308 l530.538470884955,-192.9230803218018 q16.579327215154844,-6.028846260056306 33.15865443030969,-6.028846260056306 t33.15865443030969,6.028846260056306 l530.538470884955,192.9230803218018 q28.637019735267454,10.550480955098536 45.96995273292934,35.4194717778308 t17.33293299766188,55.0132221230138 z" id="svg_1" class="" fill="#6d6d6d" fill-opacity="1"/></g></svg>