<svg id="Layer_1" data-name="Layer 1" xmlns="http://www.w3.org/2000/svg" width="100" height="100" viewBox="0 0 100 100">
  <title>General</title>
  <path d="M50,24.51l11.78,9.2v2.48a11.77,11.77,0,0,1-23.54,0V33.71Z" fill="#7d7c7c"/>
  <path d="M56.73,51.22c7.44,0,13.45,4.51,13.45,11.87V77.93H62.43V67.52H61.11V77.93H39.19V67.52H37.86V77.93h-8V63.09c0-7.36,6-11.87,13.46-11.87Z" fill="#7d7c7c"/>
  <path d="M50,22A11.68,11.68,0,1,1,38.23,33.71,11.73,11.73,0,0,1,50,22Z" fill="#d2d3d3"/>
  <path d="M56.73,48.74c7.44,0,13.45,4.51,13.45,11.87V75.45H62.43V65H61.11V75.45H39.19V65H37.86V75.45h-8V60.61c0-7.36,6-11.87,13.46-11.87Z" fill="#d2d3d3"/>
</svg>
