<svg id="Layer_1" data-name="Layer 1" xmlns="http://www.w3.org/2000/svg" width="100" height="100" viewBox="0 0 100 100">
  <title>Storage_GRAYSCALE</title>
  <g>
    <polygon points="21.51 23.25 16.03 25.98 16.03 74.02 21.51 76.75 34.38 50 21.51 23.25" fill="#4e4e4e"/>
    <polygon points="50 69.84 78.49 76.75 83.22 50 78.49 23.25 50 30.14 50 69.84" fill="#4e4e4e"/>
    <polygon points="78.49 23.25 83.97 25.98 83.97 74.02 78.49 76.75 78.49 23.25" fill="#989898"/>
    <polygon points="50 69.84 21.51 76.75 21.51 23.25 50 30.14 50 69.84" fill="#989898"/>
    <polygon points="50 91 61.74 51.63 50 9 37.58 15.21 37.58 84.79 50 91" fill="#4e4e4e"/>
    <polygon points="50 91 50 9 62.42 15.21 62.42 84.79 50 91" fill="#989898"/>
  </g>
</svg>
