<svg id="Layer_1" data-name="Layer 1" xmlns="http://www.w3.org/2000/svg" width="100" height="100" viewBox="0 0 100 100">
  <title>Database</title>
  <g>
    <rect x="23.5" y="24.74" width="53" height="53" rx="9.12" ry="9.12" fill="#19486f"/>
    <rect x="23.5" y="22.26" width="53" height="53" rx="9.12" ry="9.12" fill="#2e73b8"/>
    <polygon points="69 39 69 35 64 35 64 30 60 30 60 35 58 35 58 30 54 30 54 35 52 35 52 30 48 30 48 35 46 35 46 30 42 30 42 35 40 35 40 30 36 30 36 35 31 35 31 39 36 39 36 41 31 41 31 45 36 45 36 47 31 47 31 51 36 51 36 53 31 53 31 57 36 57 36 59 31 59 31 63 36 63 36 68 40 68 40 63 42 63 42 68 46 68 46 63 48 63 48 68 52 68 52 63 54 63 54 68 58 68 58 63 60 63 60 68 64 68 64 63 69 63 69 59 64 59 64 57 69 57 69 53 64 53 64 51 69 51 69 47 64 47 64 45 69 45 69 41 64 41 64 39 69 39" fill="#fff"/>
    <path d="M42,40h9.93a4.71,4.71,0,0,1,5,4.84,4.39,4.39,0,0,1-3,4.39v.05c2,.49,2.62,2.56,2.75,4.33.07,1.11.2,3.38.9,4.38H53.74c-.47-1-.42-2.87-.62-4.28-.27-1.85-1-2.72-3-2.72H46v7H42Zm4,8h4.53c1.74,0,2.69-.76,2.69-2.54S52.27,43,50.53,43H46Z" fill="#2e73b8"/>
  </g>
</svg>
