<svg id="Layer_1" data-name="Layer 1" xmlns="http://www.w3.org/2000/svg" width="100" height="100" viewBox="0 0 100 100">
  <title>Database</title>
  <g>
    <rect x="23.5" y="24.74" width="53" height="53" rx="9.12" ry="9.12" fill="#19486f"/>
    <rect x="23.5" y="22.26" width="53" height="53" rx="9.12" ry="9.12" fill="#2e73b8"/>
    <g>
      <path d="M37.48,36v.23c0,2-.81,4-3.44,4-2.82,0-3.7-1.82-3.7-5.81s.88-5.81,3.71-5.81c3.18,0,3.37,2.35,3.37,3.51v.2H35.63v-.19c0-1-.31-2.22-1.6-2.18s-1.91.81-1.91,4.42.59,4.51,1.91,4.51c1.49,0,1.66-1.66,1.66-2.69V36Z" fill="#fff"/>
      <path d="M40.85,28.82h2.29L46.08,40H44.22l-.69-2.74H40.26L39.54,40H37.67Zm2.38,7-1.28-5.51h0l-1.33,5.51Z" fill="#fff"/>
      <path d="M53.74,36v.23c0,2-.81,4-3.44,4-2.82,0-3.7-1.82-3.7-5.81s.88-5.81,3.71-5.81c3.18,0,3.37,2.35,3.37,3.51v.2H51.89v-.19c0-1-.31-2.22-1.6-2.18s-1.91.81-1.91,4.42.59,4.51,1.91,4.51c1.49,0,1.66-1.66,1.66-2.69V36Z" fill="#fff"/>
      <path d="M55,28.82h1.78V33.3h3.29V28.82h1.79V40H60.07V34.8H56.78V40H55Z" fill="#fff"/>
      <path d="M63.7,28.82h6v1.5H65.49v3.1h4v1.5h-4V38.5h4.38V40H63.7Z" fill="#fff"/>
    </g>
  </g>
</svg>
