<svg id="Layer_1" data-name="Layer 1" xmlns="http://www.w3.org/2000/svg" width="100" height="100" viewBox="0 0 100 100">
  <title>Database</title>
  <g>
    <polygon points="47 79.24 22 79.24 22 76.76 34.5 69.74 47 76.76 47 79.24" fill="#19486f"/>
    <polygon points="78 79.24 53 79.24 53 76.76 65.5 69.74 78 76.76 78 79.24" fill="#19486f"/>
    <polygon points="47 48.24 22 48.24 22 45.76 34.5 38.74 47 45.76 47 48.24" fill="#19486f"/>
    <polygon points="78 48.24 53 48.24 53 45.76 65.5 38.74 78 45.76 78 48.24" fill="#19486f"/>
    <rect x="22" y="20.76" width="25" height="25" fill="#2e73b8"/>
    <rect x="53" y="20.76" width="25" height="25" fill="#2e73b8"/>
    <rect x="22" y="51.76" width="25" height="25" fill="#2e73b8"/>
    <rect x="53" y="51.76" width="25" height="25" fill="#2e73b8"/>
    <circle cx="65.5" cy="33.26" r="8.67" fill="#fff"/>
  </g>
</svg>
