<svg id="Layer_1" data-name="Layer 1" xmlns="http://www.w3.org/2000/svg" width="100" height="100" viewBox="0 0 100 100">
  <title>Database</title>
  <g>
    <rect x="23.5" y="24.74" width="53" height="53" rx="9.12" ry="9.12" fill="#19486f"/>
    <rect x="23.5" y="22.26" width="53" height="53" rx="9.12" ry="9.12" fill="#2e73b8"/>
    <g>
      <path d="M32.19,27.88c3.13,0,3.52,2.23,3.52,5.38s-.39,5.38-3.52,5.38-3.52-2.23-3.52-5.38S29.06,27.88,32.19,27.88Zm0,9.22c1.23,0,1.43-1.06,1.43-3.84s-.2-3.84-1.43-3.84-1.44,1.07-1.44,3.84S31,37.1,32.19,37.1Z" fill="#fff"/>
      <path d="M36.57,28.08h3.86a2.45,2.45,0,0,1,2.75,2.67c0,1.38-.55,2.3-1.72,2.55v0c1.42.19,1.64,1,1.67,3.16,0,1.09.07,1.65.46,1.86v.09H41.33a2,2,0,0,1-.26-1.09l-.06-2c0-.81-.39-1.3-1.23-1.3H38.66v4.38H36.57Zm2.09,4.52h.87a1.36,1.36,0,0,0,1.57-1.55,1.28,1.28,0,0,0-1.45-1.44h-1Z" fill="#fff"/>
      <path d="M46.62,28.08h2.58l2.74,10.35H49.77l-.48-2.19H46.54l-.48,2.19H43.89Zm.28,6.45h2l-1-4.65h0Z" fill="#fff"/>
      <path d="M56.6,31.58c0-1.51-.3-2.16-1.25-2.16s-1.3,1.06-1.3,4c0,3.13.43,3.7,1.33,3.7s1.3-.39,1.3-2.62h2.09c0,2.23-.55,4.16-3.29,4.16-3.13,0-3.52-2.23-3.52-5.38s.39-5.38,3.52-5.38,3.2,2.19,3.2,3.7Z" fill="#fff"/>
      <path d="M59.52,38.43V28.08h2.09v8.64h3.7v1.71Z" fill="#fff"/>
      <path d="M71.69,28.08v1.71H68v2.44h3.48v1.71H68v2.78h3.84v1.71H65.91V28.08Z" fill="#fff"/>
    </g>
  </g>
</svg>
