<svg id="Layer_1" data-name="Layer 1" xmlns="http://www.w3.org/2000/svg" width="100" height="100" viewBox="0 0 100 100">
  <title>Database</title>
  <g>
    <g>
      <path d="M49.37,68.28c-9,0-16.84-1.71-19.63-4.32A1,1,0,1,1,31.1,62.5c2.1,2,9.37,3.87,19.08,3.77s16.3-2.08,18.53-4A1,1,0,0,1,70,63.81c-3.05,2.61-10.83,4.36-19.8,4.46Z" fill="#2e73b8"/>
      <path d="M49.37,75.28c-9,0-16.85-1.71-19.64-4.32A1,1,0,0,1,31.1,69.5c2.1,2,9.33,3.88,19.08,3.77,10-.12,16.73-2.24,18.72-4.16a1,1,0,1,1,1.39,1.44c-2.86,2.76-10.74,4.61-20.08,4.72Z" fill="#5294cf"/>
      <path d="M49.35,82.17c-8.61,0-16.08-1.53-19.2-4a1,1,0,1,1,1.23-1.58c2.79,2.17,10.52,3.62,18.79,3.53C60.2,80,66.9,77.92,68.89,76a1,1,0,0,1,1.39,1.44c-2.86,2.76-10.74,4.61-20.08,4.72Z" fill="#99bce3"/>
    </g>
    <path d="M70.5,20.47c0-3.33-9.25-5.92-20.57-5.79S29.46,17.62,29.5,20.95c0,0,0,0,0,0s0,0,0,0V56.87c0,3.33,9.64,5.92,21,5.79s20.08-2.93,20-6.26V20.48Z" fill="#19486f"/>
    <path d="M50.06,51C39,51.14,30,48.68,29.5,45.47v9.14c0,3.33,9.36,5.92,20.69,5.79s20.35-2.94,20.31-6.26V44.75C70.54,48.07,61.39,50.88,50.06,51Z" fill="#2e73b8"/>
    <path d="M50.06,39.78C39,39.91,30,37.45,29.5,34.24v9.14c0,3.33,9.36,5.92,20.69,5.79s20.35-2.94,20.31-6.26V33.52C70.54,36.85,61.39,39.65,50.06,39.78Z" fill="#2e73b8"/>
    <path d="M50.06,28.56C39,28.69,30,26.23,29.5,23v9.14c0,3.33,9.36,5.92,20.69,5.79S70.54,35,70.5,31.69V22.3C70.54,25.62,61.39,28.43,50.06,28.56Z" fill="#2e73b8"/>
    <path d="M50.07,26.73c11.32-.13,20.47-2.93,20.43-6.26h0c0-3.33-9.25-5.92-20.57-5.79S29.46,17.62,29.5,20.95h0C29.54,24.28,38.75,26.87,50.07,26.73Z" fill="#2e73b8"/>
    <path d="M30.41,83.4a1,1,0,0,1-1-1V53.11a1,1,0,0,1,2,0V82.4A1,1,0,0,1,30.41,83.4Z" fill="#2e73b8"/>
    <path d="M40.21,77.76a1,1,0,0,1-1-1V55a1,1,0,0,1,2,0V76.76A1,1,0,0,1,40.21,77.76Z" fill="#2e73b8"/>
    <path d="M50,92.32a1,1,0,0,1-1-1V71.38a1,1,0,0,1,2,0V91.32A1,1,0,0,1,50,92.32Z" fill="#2e73b8"/>
    <path d="M59.79,81.69a1,1,0,0,1-1-1V55a1,1,0,0,1,2,0V80.69A1,1,0,0,1,59.79,81.69Z" fill="#2e73b8"/>
    <path d="M69.59,70.32a1,1,0,0,1-1-1V52.65a1,1,0,0,1,2,0V69.32A1,1,0,0,1,69.59,70.32Z" fill="#2e73b8"/>
    <path d="M69.59,86.67a1,1,0,0,1-1-1V76.28a1,1,0,0,1,2,0v9.39A1,1,0,0,1,69.59,86.67Z" fill="#2e73b8"/>
  </g>
</svg>
