<svg id="Layer_1" data-name="Layer 1" xmlns="http://www.w3.org/2000/svg" width="100" height="100" viewBox="0 0 100 100">
  <title>Database</title>
  <g>
    <path d="M32.62,24H67.38a9.12,9.12,0,0,1,9.12,9.12V48.43c-1.8-.93-5.74-1.92-11.57-1.92a42.35,42.35,0,0,0-6.67.5c-3.93.65-6,1.77-6,2.46v26c0,.43.59,1,1.71,1.56H32.62a9.12,9.12,0,0,1-9.12-9.12V33.13A9.12,9.12,0,0,1,32.62,24Z" fill="#19486f"/>
    <path d="M32.62,21.81H67.38a9.12,9.12,0,0,1,9.12,9.12V46.23c-1.8-.93-5.74-1.92-11.57-1.92a42.35,42.35,0,0,0-6.67.5c-3.93.65-6,1.77-6,2.46v26c0,.43.59,1,1.71,1.56H32.62a9.12,9.12,0,0,1-9.12-9.12V30.93A9.12,9.12,0,0,1,32.62,21.81Z" fill="#2e73b8"/>
    <path d="M65.85,51.29a35.53,35.53,0,0,0-5.6.42,16.49,16.49,0,0,1-5-.44v2.5c0,.58,1.75,1.52,5,2.05a33.94,33.94,0,0,0,5.6.42c6.9,0,10.65-1.63,10.65-2.47v-2.5Z" fill="#19486f"/>
    <path d="M55,58.63l0,17.1c0,.87,3,2.47,10.12,2.47a32.25,32.25,0,0,0,8.79-1c1.42-.46,2.43-1,2.54-1.37v-17c-2.08,1.29-6.37,2-10.63,2h-.28l-1.31,0h-.18L63,60.65l-.54,0-.84-.07-.45-.07-.9-.12A14.26,14.26,0,0,1,55,58.63Z" fill="#19486f"/>
    <path d="M65.85,48.8a35.53,35.53,0,0,0-5.6.42c-3.3.55-5,1.49-5,2.06s1.75,1.52,5,2.05a33.94,33.94,0,0,0,5.6.42c6.9,0,10.65-1.63,10.65-2.47S72.75,48.8,65.85,48.8Z" fill="#2e73b8"/>
    <path d="M55,56.13l0,17.1c0,.87,3,2.47,10.12,2.47a32.25,32.25,0,0,0,8.79-1c1.42-.46,2.43-1,2.54-1.37v-17c-2.08,1.29-6.37,2-10.63,2h-.28l-1.31,0h-.18L63,58.15l-.54,0L61.62,58,61.17,58l-.9-.12A14.26,14.26,0,0,1,55,56.13Z" fill="#2e73b8"/>
    <path d="M32.62,74.81H53.95V77H32.62a9.12,9.12,0,0,1-9.12-9.12v-2.2A9.12,9.12,0,0,0,32.62,74.81Z" fill="#19486f"/>
    <path d="M60,60h3.27l2.32,9.73h0L67.95,60h3.2V73.17h-2V62.25h0L66.48,73.17H64.71L62.07,62.25h0V73.17H60Z" fill="#fff"/>
  </g>
</svg>
