<svg id="Layer_1" data-name="Layer 1" xmlns="http://www.w3.org/2000/svg" width="100" height="100" viewBox="0 0 100 100">
  <title>Database</title>
  <g>
    <rect x="23.5" y="24.74" width="53" height="53" rx="9.12" ry="9.12" fill="#19486f"/>
    <rect x="23.5" y="22.26" width="53" height="53" rx="9.12" ry="9.12" fill="#2e73b8"/>
    <g>
      <path d="M72.5,67.47a4,4,0,0,1-4,4h-19a4,4,0,0,1-4-4v-6a4,4,0,0,1,4-4h19a4,4,0,0,1,4,4Z" fill="#fff"/>
      <path d="M68.5,72h-19a4.5,4.5,0,0,1-4.5-4.5v-6A4.5,4.5,0,0,1,49.5,57h19a4.5,4.5,0,0,1,4.5,4.5v6A4.5,4.5,0,0,1,68.5,72Zm-19-14a3.5,3.5,0,0,0-3.5,3.5v6A3.5,3.5,0,0,0,49.5,71h19a3.5,3.5,0,0,0,3.5-3.5v-6A3.5,3.5,0,0,0,68.5,58Z" fill="#19486f"/>
    </g>
    <g style="isolation: isolate">
      <path d="M49.55,60.65h2.77A2.08,2.08,0,0,1,54.48,63,2.2,2.2,0,0,1,52,65.37h-.85V68.5H49.55Zm1.58,3.55h.7c.63,0,1.06-.37,1.06-1.18s-.31-1.21-1.1-1.21h-.66Z" fill="#2e73b8"/>
      <path d="M55.33,68.5V60.65h1.58V68.5Z" fill="#2e73b8"/>
      <path d="M60.6,60.49c2.38,0,2.67,1.69,2.67,4.08s-.3,4.08-2.67,4.08S57.93,67,57.93,64.58,58.23,60.49,60.6,60.49Zm0,7c.93,0,1.09-.8,1.09-2.92s-.15-2.92-1.09-2.92-1.09.81-1.09,2.92S59.67,67.49,60.6,67.49Z" fill="#2e73b8"/>
      <path d="M64.21,60.65H67A2.08,2.08,0,0,1,69.14,63a2.2,2.2,0,0,1-2.5,2.37h-.85V68.5H64.21Zm1.58,3.55h.7c.63,0,1.06-.37,1.06-1.18s-.31-1.21-1.1-1.21h-.66Z" fill="#2e73b8"/>
    </g>
  </g>
</svg>
