<svg id="Layer_1" data-name="Layer 1" xmlns="http://www.w3.org/2000/svg" width="100" height="100" viewBox="0 0 100 100">
  <title>Database</title>
  <g>
    <rect x="23.5" y="24.74" width="53" height="53" rx="9.12" ry="9.12" fill="#19486f"/>
    <rect x="23.5" y="22.26" width="53" height="53" rx="9.12" ry="9.12" fill="#2e73b8"/>
    <g>
      <polygon points="69 38.76 69 34.76 64 34.76 64 29.76 60 29.76 60 34.76 58 34.76 58 29.76 54 29.76 54 34.76 52 34.76 52 29.76 48 29.76 48 34.76 46 34.76 46 29.76 42 29.76 42 34.76 40 34.76 40 29.76 36 29.76 36 34.76 31 34.76 31 38.76 36 38.76 36 40.76 31 40.76 31 44.76 36 44.76 36 46.76 31 46.76 31 50.76 36 50.76 36 52.76 31 52.76 31 56.76 36 56.76 36 58.76 31 58.76 31 62.76 36 62.76 36 67.76 40 67.76 40 62.76 42 62.76 42 67.76 46 67.76 46 62.76 48 62.76 48 67.76 52 67.76 52 62.76 54 62.76 54 67.76 58 67.76 58 62.76 60 62.76 60 67.76 64 67.76 64 62.76 69 62.76 69 58.76 64 58.76 64 56.76 69 56.76 69 52.76 64 52.76 64 50.76 69 50.76 69 46.76 64 46.76 64 44.76 69 44.76 69 40.76 64 40.76 64 38.76 69 38.76" fill="#fff"/>
      <path d="M41,40.76h5.22l3.85,11h0l3.65-11H59v16H55v-11h.43l-4,11H48.6l-4-11H45v11H41Z" fill="#2e73b8"/>
    </g>
  </g>
</svg>
