<svg id="Layer_1" data-name="Layer 1" xmlns="http://www.w3.org/2000/svg" width="100" height="100" viewBox="0 0 100 100">
  <title>ApplicationServices</title>
  <g>
    <polygon points="15.93 38.08 23.1 38.83 29.09 37.62 21.58 23.05 15.93 38.08" fill="#624a1e"/>
    <polygon points="84.07 38.08 76.9 38.83 70.91 37.62 78.42 23.05 84.07 38.08" fill="#624a1e"/>
    <polygon points="15.95 57.18 50 62.3 84.05 57.18 84.05 43 50 38.09 15.95 43 15.95 57.18" fill="#876929"/>
    <polygon points="84.12 61.91 76.9 61.17 70.91 62.38 78.42 76.95 84.12 61.91" fill="#fad791"/>
    <polygon points="15.88 61.91 23.1 61.17 29.09 62.38 21.58 76.95 15.88 61.91" fill="#fad791"/>
    <polygon points="78.42 23.05 70.91 24.88 70.91 37.62 78.42 36.69 78.42 23.05" fill="#876929"/>
    <polygon points="75.11 35.87 67.29 36.89 58.87 35.2 66.99 17.33 75.11 35.87" fill="#624a1e"/>
    <polygon points="58.87 35.2 66.99 33.87 66.99 17.33 58.87 20 58.87 35.2" fill="#876929"/>
    <polygon points="21.58 23.05 29.09 24.88 29.09 37.62 21.58 36.69 21.58 23.05" fill="#d9a741"/>
    <polygon points="84.07 38.08 78.42 36.69 78.42 23.05 84.07 25.87 84.07 38.08" fill="#d9a741"/>
    <polygon points="24.89 35.87 32.71 36.89 41.13 35.2 33.01 17.33 24.89 35.87" fill="#624a1e"/>
    <polygon points="41.13 35.2 33.01 33.87 33.01 17.33 41.13 20 41.13 35.2" fill="#d9a741"/>
    <polygon points="84.05 57.18 50 62.3 50 38.09 84.05 43 84.05 57.18" fill="#d9a741"/>
    <polygon points="75.11 35.87 66.99 33.87 66.99 17.33 75.11 21.39 75.11 35.87" fill="#d9a741"/>
    <polygon points="62.5 32.76 50 35.03 37.5 32.76 50 8.84 62.5 32.76" fill="#624a1e"/>
    <polygon points="62.5 32.76 50 29.68 50 8.84 62.5 15.09 62.5 32.76" fill="#d9a741"/>
    <polygon points="15.93 38.08 21.58 36.69 21.58 23.05 15.93 25.87 15.93 38.08" fill="#876929"/>
    <polygon points="24.89 35.87 33.01 33.87 33.01 17.33 24.89 21.39 24.89 35.87" fill="#876929"/>
    <polygon points="37.5 32.76 50 29.68 50 8.84 37.5 15.09 37.5 32.76" fill="#876929"/>
    <polygon points="78.42 76.95 70.91 75.12 70.91 62.38 78.42 63.31 78.42 76.95" fill="#876929"/>
    <polygon points="84.07 61.92 78.42 63.31 78.42 76.95 84.07 74.13 84.07 61.92" fill="#d9a741"/>
    <polygon points="75.11 64.13 67.29 63.11 58.87 64.8 66.99 82.67 75.11 64.13" fill="#fad791"/>
    <polygon points="75.11 64.13 66.99 66.13 66.99 82.67 75.11 78.61 75.11 64.13" fill="#d9a741"/>
    <polygon points="58.87 64.8 66.99 66.13 66.99 82.67 58.87 80 58.87 64.8" fill="#876929"/>
    <polygon points="21.58 76.95 29.09 75.12 29.09 62.38 21.58 63.31 21.58 76.95" fill="#d9a741"/>
    <polygon points="24.89 64.13 32.71 63.11 41.13 64.8 33.01 82.67 24.89 64.13" fill="#fad791"/>
    <polygon points="41.13 64.8 33.01 66.11 33.01 82.67 41.13 80 41.13 64.8" fill="#d9a741"/>
    <polygon points="62.5 67.24 50 64.97 37.5 67.24 50 91.16 62.5 67.24" fill="#fad791"/>
    <polygon points="62.5 67.24 50 70.32 50 91.16 62.5 84.91 62.5 67.24" fill="#d9a741"/>
    <polygon points="15.93 61.92 21.58 63.31 21.58 76.95 15.93 74.13 15.93 61.92" fill="#876929"/>
    <polygon points="24.89 64.13 33.01 66.13 33.01 82.67 24.89 78.61 24.89 64.13" fill="#876929"/>
    <polygon points="37.5 67.24 50 70.32 50 91.16 37.5 84.91 37.5 67.24" fill="#876929"/>
  </g>
</svg>
