<svg id="Layer_1" data-name="Layer 1" xmlns="http://www.w3.org/2000/svg" width="100" height="100" viewBox="0 0 100 100">
  <title>ApplicationServices</title>
  <g>
    <polygon points="68.15 56.42 64.11 56.16 60.3 56.5 64.41 70.38 68.15 56.42" fill="#fad791"/>
    <polygon points="84.1 35.53 50 39.77 15.9 35.53 50 8.84 84.1 35.53" fill="#624a1e"/>
    <polygon points="71.5 74.33 50 69.29 28.5 74.33 50 91.16 71.5 74.33" fill="#fad791"/>
    <polygon points="84.1 35.53 50 25.3 50 8.84 84.1 25.89 84.1 35.53" fill="#d9a741"/>
    <polygon points="71.5 80.41 50 91.16 50 82.93 71.5 74.33 71.5 80.41" fill="#d9a741"/>
    <polygon points="50 91.16 28.5 80.41 28.5 74.33 50 82.93 50 91.16" fill="#876929"/>
    <polygon points="15.9 35.53 50 25.3 50 8.84 15.9 25.89 15.9 35.53" fill="#876929"/>
    <polygon points="68.15 69.25 64.41 70.38 64.41 56.79 68.15 56.42 68.15 69.25" fill="#d9a741"/>
    <polygon points="44.56 73.07 50 74.7 55.44 73.07 55.44 42.31 50 41.77 44.56 42.31 44.56 73.07" fill="#876929"/>
    <polygon points="55.44 73.07 50 74.7 50 41.77 55.44 42.31 55.44 73.07" fill="#d9a741"/>
    <polygon points="35.59 56.79 31.85 56.42 31.85 43.58 35.59 43.21 39.8 43.5 39.8 56.5 35.59 56.79" fill="#876929"/>
    <polygon points="60.3 69.51 64.41 70.38 64.41 56.79 60.3 56.5 60.3 69.51" fill="#876929"/>
    <polygon points="39.8 56.5 35.59 56.79 35.59 43.21 39.8 43.5 39.8 56.5" fill="#d9a741"/>
  </g>
</svg>
