<svg id="Layer_1" data-name="Layer 1" xmlns="http://www.w3.org/2000/svg" width="100" height="100" viewBox="0 0 100 100">
  <title>Messaging</title>
  <g>
    <polygon points="45.16 68.06 79.75 76.29 84.1 74.11 84.1 25.89 79.75 23.71 45.16 31.82 45.16 68.06" fill="#876929"/>
    <polygon points="45.16 25.26 45.16 74.81 68.15 82.09 74.52 78.9 74.52 21.1 68.15 17.91 45.16 25.26" fill="#876929"/>
    <polygon points="74.52 78.9 68.15 82.09 68.15 17.91 74.52 21.1 74.52 78.9" fill="#d9a741"/>
    <polygon points="84.1 74.11 79.75 76.29 79.75 23.71 84.1 25.89 84.1 74.11" fill="#d9a741"/>
    <path d="M50,8.84,15.9,25.89l0,48.23L50,91.16l10.2-5.1V13.94Zm-10.2,58L29.66,64.45V35.55L39.8,33.19Z" fill="#876929"/>
    <polygon points="20.26 65.78 39.79 71.64 39.8 66.81 29.66 64.45 20.26 65.78" fill="#fad791"/>
    <polygon points="29.66 64.45 20.26 65.78 20.26 34.23 29.66 35.55 29.66 64.45" fill="#d9a741"/>
    <polygon points="39.8 33.19 29.66 35.55 20.26 34.23 39.8 28.36 39.8 33.19" fill="#624a1e"/>
    <polygon points="60.2 86.06 50 91.16 50 8.84 60.2 13.94 60.2 86.06" fill="#d9a741"/>
  </g>
</svg>
