<svg id="Layer_1" data-name="Layer 1" xmlns="http://www.w3.org/2000/svg" width="100" height="100" viewBox="0 0 100 100">
  <title>Messaging</title>
  <g>
    <rect x="23.12" y="21.9" width="53.76" height="56.21" fill="#876929"/>
    <rect x="23.12" y="21.9" width="53.76" height="53.69" fill="#d9a741"/>
    <g>
      <path d="M69.55,44.36A19.91,19.91,0,0,0,66.92,38l2.53-2.53L63.25,29.3l-2.53,2.53a19.9,19.9,0,0,0-6.35-2.64V25.62H45.63v3.56a19.9,19.9,0,0,0-6.35,2.64L36.75,29.3l-6.19,6.19L33.08,38a19.91,19.91,0,0,0-2.64,6.35H26.88v8.75h3.56a19.91,19.91,0,0,0,2.64,6.35L30.56,62l6.19,6.19,2.53-2.53a19.9,19.9,0,0,0,6.35,2.64v3.56h8.75V68.29a19.9,19.9,0,0,0,6.35-2.64l2.53,2.53L69.44,62l-2.53-2.53a19.91,19.91,0,0,0,2.64-6.35h3.56V44.36ZM62.49,55a14,14,0,0,1-6.19,6.19,13.9,13.9,0,0,1-12.6,0A14,14,0,0,1,37.51,55a13.9,13.9,0,0,1,0-12.6,14,14,0,0,1,6.19-6.19,13.9,13.9,0,0,1,12.6,0,14,14,0,0,1,6.19,6.19,13.9,13.9,0,0,1,0,12.6Z" fill="#fff"/>
      <path d="M56.51,44.36a7.88,7.88,0,0,0-2.13-2.13,7.85,7.85,0,0,0-8.75,0,7.88,7.88,0,0,0-2.13,2.13,7.85,7.85,0,0,0,0,8.75,7.88,7.88,0,0,0,2.13,2.13,7.85,7.85,0,0,0,8.75,0,7.88,7.88,0,0,0,2.13-2.13,7.85,7.85,0,0,0,0-8.75Z" fill="#fff"/>
    </g>
  </g>
</svg>
