<svg id="Layer_1" data-name="Layer 1" xmlns="http://www.w3.org/2000/svg" width="100" height="100" viewBox="0 0 100 100"><defs><style>.cls-1{fill:#4f4f4f;}.cls-2{fill:#acacac;}.cls-3{fill:#fff;}</style></defs><title>OnDemandWorkforce</title><path class="cls-1" d="M55.77,24.34a3,3,0,0,1,3,3l11.75,45v2.78a3,3,0,0,1-3,3h-35a3,3,0,0,1-3-3V72.61L42.71,27.35a3,3,0,0,1,3-3Z"/><path class="cls-2" d="M67.52,21.86a3,3,0,0,1,3,3V72.61a3,3,0,0,1-3,3h-35a3,3,0,0,1-3-3V24.87a3,3,0,0,1,3-3Z"/><path class="cls-3" d="M57.16,28.67h8.3V32h-8.3Zm-11.38,0h8.3V32h-8.3Zm-11.37,0h8.3V32h-8.3Zm0,5.76h8.3v3.34h-8.3Zm.05,5.75h8.3v3.34h-8.3Zm8.32,5.76v3.34h-8.3V45.94Zm-8.3,5.76h8.3V55h-8.3Zm8.35,9.1h-8.3V57.45h8.3Zm2.95-26.36h8.3v3.34h-8.3Zm.05,5.75h8.3v3.34h-8.3Zm8.32,5.76v3.34h-8.3V45.94Zm-8.3,5.76h8.3V55h-8.3Zm8.36,9.1h-8.3V57.45h8.3Zm3-26.36h8.3v3.34h-8.3Zm.05,5.75h8.3v3.34h-8.3Zm8.32,5.76v3.34h-8.3V45.94Zm-8.3,5.76h8.3V55h-8.3Zm8.36,9.1H57.28V57.45h8.31Z"/></svg>