<svg id="Layer_1" data-name="Layer 1" xmlns="http://www.w3.org/2000/svg" width="100" height="100" viewBox="0 0 100 100"><defs><style>.cls-1{fill:#4f4f4f;}.cls-2{fill:#acacac;}</style></defs><title>OnDemandWorkforce</title><path class="cls-1" d="M69.55,46.86a19.91,19.91,0,0,0-2.64-6.35L69.44,38V35.51l-8.71-1.18a19.9,19.9,0,0,0-6.35-2.64V30.49H45.63v1.19a19.9,19.9,0,0,0-6.35,2.64l-8.71,1.18V38l2.53,2.53a19.91,19.91,0,0,0-2.64,6.35H26.88v8.75h3.56A19.91,19.91,0,0,0,33.08,62l-2.53,0v2.48l6.19,6.19,2.53-2.53a19.9,19.9,0,0,0,6.35,2.64v3.56h8.75V70.79a19.9,19.9,0,0,0,6.35-2.64l2.53,2.53,6.19-6.19V62l-2.53,0a19.91,19.91,0,0,0,2.64-6.35h3.56V46.86ZM62.49,57.54a14,14,0,0,1-6.19,6.19,13.9,13.9,0,0,1-12.6,0,14,14,0,0,1-6.19-6.19,13.9,13.9,0,0,1,0-12.6,14,14,0,0,1,6.19-6.19,13.9,13.9,0,0,1,12.6,0,14,14,0,0,1,6.19,6.19,13.9,13.9,0,0,1,0,12.6Z"/><path class="cls-2" d="M69.55,44.39A19.91,19.91,0,0,0,66.92,38l2.53-2.53-6.19-6.19-2.53,2.53a19.9,19.9,0,0,0-6.35-2.64V25.64H45.63v3.56a19.9,19.9,0,0,0-6.35,2.64l-2.53-2.53-6.19,6.19L33.08,38a19.91,19.91,0,0,0-2.64,6.35H26.88v8.75h3.56a19.91,19.91,0,0,0,2.64,6.35L30.56,62l6.19,6.19,2.53-2.53a19.9,19.9,0,0,0,6.35,2.64v3.56h8.75V68.31a19.9,19.9,0,0,0,6.35-2.64l2.53,2.53L69.44,62l-2.53-2.53a19.91,19.91,0,0,0,2.64-6.35h3.56V44.39ZM62.49,55.06a14,14,0,0,1-6.19,6.19,13.9,13.9,0,0,1-12.6,0,14,14,0,0,1-6.19-6.19,13.9,13.9,0,0,1,0-12.6,14,14,0,0,1,6.19-6.19,13.9,13.9,0,0,1,12.6,0,14,14,0,0,1,6.19,6.19,13.9,13.9,0,0,1,0,12.6Z"/></svg>