<svg id="Layer_1" data-name="Layer 1" xmlns="http://www.w3.org/2000/svg" width="100" height="100" viewBox="0 0 100 100"><defs><style>.cls-1{fill:#373737;}.cls-2{fill:#4f4f4f;}.cls-3{fill:#acacac;}</style></defs><title>OnDemandWorkforce</title><polygon class="cls-1" points="64.34 36.47 49.99 38.48 35.64 36.47 49.99 9 64.34 36.47"/><polygon class="cls-2" points="63.58 50 77.14 50 83.03 57.4 77.14 66.45 63.58 64.41 63.58 50"/><polygon class="cls-3" points="36.43 50 22.86 50 16.88 57.31 22.86 66.46 36.43 64.42 36.43 50"/><polygon class="cls-3" points="64.34 36.47 49.99 33.6 49.99 9 64.34 16.18 64.34 36.47"/><polygon class="cls-2" points="35.64 36.47 49.99 33.6 49.99 9 35.64 16.18 35.64 36.47"/><polygon class="cls-3" points="71.41 50 49.99 50 31.87 62.91 49.99 91 71.41 80.29 71.41 50"/><polygon class="cls-2" points="28.57 50 49.99 50 49.99 91 28.57 80.29 28.57 50"/><polygon class="cls-3" points="77.14 66.45 83.96 64.41 83.96 50 77.14 50 77.14 66.45"/><polygon class="cls-2" points="22.86 66.46 16.04 64.42 16.04 50 22.86 50 22.86 66.46"/></svg>