<svg id="Layer_1" data-name="Layer 1" xmlns="http://www.w3.org/2000/svg" width="100" height="100" viewBox="0 0 100 100">
  <title>Storage</title>
  <g>
    <path d="M50,25.06,76.5,29v2.32c0,3.45-11.87,6.23-26.51,6.23s-26.5-2.78-26.5-6.23V28.8Z" fill="#8c3123"/>
    <path d="M50,41.8c11.07,0,20.55-1.59,24.52-3.85l1.3-2.2.53-2v2.48l-8.67,37c0,2.3-7.91,4.15-17.67,4.15s-17.66-1.85-17.66-4.15l-8.67-37V33.8l2,4.23C29.66,40.25,39.05,41.8,50,41.8Z" fill="#8c3123"/>
    <path d="M50,22.58c14.64,0,26.51,2.79,26.51,6.22S64.63,35,50,35,23.5,32.25,23.5,28.8,35.36,22.58,50,22.58Z" fill="#e05243"/>
    <path d="M50,39.32c13.65,0,24.88-2.41,26.34-5.53l-8.67,37c0,2.3-7.91,4.15-17.67,4.15S32.33,73.1,32.33,70.8l-8.67-37C25.13,36.91,36.36,39.32,50,39.32Z" fill="#e05243"/>
  </g>
</svg>
