<svg id="Layer_1" data-name="Layer 1" xmlns="http://www.w3.org/2000/svg" width="100" height="100" viewBox="0 0 100 100">
  <title>Storage</title>
  <g>
    <polygon points="25.57 78.79 16.04 74.03 16.04 25.97 25.57 21.21 42.53 51.66 25.57 78.79" fill="#8c3123"/>
    <polygon points="31.91 76.9 25.57 78.79 25.57 21.21 31.91 22.93 44.52 51.16 31.91 76.9" fill="#e05243"/>
    <polygon points="49.99 69.19 79.62 76.19 82.54 29.75 44.52 30.91 49.99 69.19" fill="#8c3123"/>
    <polygon points="51.76 36.15 58.34 37.28 79.62 34.29 59.13 20.12 51.95 29.57 51.76 36.15" fill="#5e1f18"/>
    <polygon points="31.91 81.96 50 91 55.76 51.49 50 9 31.91 18.04 31.91 81.96" fill="#8c3123"/>
    <polygon points="83.96 25.98 83.94 25.97 79.62 23.81 50 9 50 25.4 50 91 60.16 85.92 60.16 28.45 79.62 34.29 79.62 76.19 83.94 74.03 83.94 35.58 83.96 35.59 83.96 25.98" fill="#e05243"/>
  </g>
</svg>
