<svg id="Layer_1" data-name="Layer 1" xmlns="http://www.w3.org/2000/svg" width="100" height="100" viewBox="0 0 100 100">
  <title>SecurityIdentityCompliance_GRAYSCALE</title>
  <g>
    <polygon points="72.31 81.58 35.39 70.82 55.93 52.37 72.31 74.61 72.31 81.58" fill="#7d7c7c"/>
    <polygon points="27.69 81.58 49.91 75.11 50 69.53 26.27 59.49 27.69 81.58" fill="#373737"/>
    <polygon points="35.39 29.36 72.3 18.41 68.75 40.32 17.94 37.92 35.39 29.36" fill="#d2d3d3"/>
    <polygon points="83.94 62.89 72.3 81.59 53.84 70.4 50 50 53.84 29.57 72.3 18.41 83.94 37.13 83.94 62.89" fill="#acacac"/>
    <polygon points="53.84 70.4 17.94 62.23 17.94 37.92 53.84 29.57 53.84 70.4" fill="#4f4f4f"/>
    <polygon points="50 25.03 27.7 18.41 31.25 40.32 50 30.45 50 25.03" fill="#7d7c7c"/>
    <polygon points="16.06 62.89 27.7 81.59 46.16 70.4 48.81 50 46.16 29.57 27.7 18.41 16.06 37.13 16.06 62.89" fill="#4f4f4f"/>
    <polygon points="50 69.53 46.16 70.4 46.16 29.57 50 30.45 50 69.53" fill="#acacac"/>
  </g>
</svg>
