<svg id="Layer_1" data-name="Layer 1" xmlns="http://www.w3.org/2000/svg" width="100" height="100" viewBox="0 0 100 100">
  <title>SecurityIdentityCompliance_GRAYSCALE</title>
  <g>
    <polygon points="22.92 72.36 16.04 74.03 16.04 25.97 22.92 22.54 33.3 37.86 22.92 72.36" fill="#4f4f4f"/>
    <polygon points="31.79 37.64 22.92 36.55 22.92 22.54 31.79 24.77 31.79 37.64" fill="#acacac"/>
    <polygon points="68.09 35.57 82.4 37.64 77.06 22.54 68.09 24.8 68.09 35.57" fill="#4f4f4f"/>
    <polygon points="35.65 72.78 49.99 91 59.2 32.74 49.99 9 35.65 16.17 35.65 72.78" fill="#4f4f4f"/>
    <polygon points="16.04 74.03 49.99 91 61.04 58.36 49.99 25.73 16.04 35.78 16.04 74.03" fill="#4f4f4f"/>
    <polygon points="56.23 37.86 82.4 47.17 77.06 77.46 64.6 74.33 56.23 37.86" fill="#4f4f4f"/>
    <polygon points="64.6 83.7 49.99 91 49.99 9 64.6 16.3 64.6 83.7" fill="#acacac"/>
    <polygon points="77.06 77.46 83.96 74.02 83.96 25.98 77.06 22.54 77.06 77.46" fill="#acacac"/>
    <polygon points="83.96 50 49.99 50 49.99 25.73 83.96 35.78 83.96 50" fill="#acacac"/>
  </g>
</svg>
