<svg id="Layer_1" data-name="Layer 1" xmlns="http://www.w3.org/2000/svg" width="100" height="100" viewBox="0 0 100 100">
  <title>Analytics</title>
  <g>
    <path d="M80.92,66c0,9.58-5.45,14.18-12.18,14.18S56.57,76,56.57,66.79c0-6.73,5.45-9.93,12.18-9.93S80.92,59.31,80.92,66Z" fill="#9d5025"/>
    <circle cx="68.75" cy="66.04" r="12.18" fill="#f58534"/>
    <g style="isolation: isolate">
      <path d="M64.86,60h1.71v6.41L73.08,60H75.3l-5.42,5.19,5.64,7.67H73.36l-4.65-6.5-2.14,2v4.5H64.86Z" fill="#fff"/>
    </g>
    <path d="M68.24,22.62,28.19,19.79a5.16,5.16,0,0,0-5.11,5.09V71.62a4.91,4.91,0,0,0,.17,1.23,4.73,4.73,0,0,0,3.88,3.82,4.85,4.85,0,0,0,.8.09v0H57.1A17.17,17.17,0,0,1,55,73.52l-18.29-.29C44,70,53.38,65.47,53.39,63.31c0-3.53,8.35-16.52,22.69-9.45V24.62C76.08,21.86,71,22.62,68.24,22.62Z" fill="#9d5025"/>
    <path d="M53.17,66A16.45,16.45,0,0,1,69.59,49.46a15.64,15.64,0,0,1,6.49,1.39V24.62a4.57,4.57,0,0,0-4.46-4.83H27.93a4.91,4.91,0,0,0-4.86,4.83V69a4.84,4.84,0,0,0,4.86,4.75H55.09A15.64,15.64,0,0,1,53.17,66Z" fill="#f58534"/>
  </g>
</svg>
