<svg id="Layer_1" data-name="Layer 1" xmlns="http://www.w3.org/2000/svg" width="100" height="100" viewBox="0 0 100 100">
  <title>Database</title>
  <g>
    <path d="M72.71,47.1a2,2,0,0,0,2-2V37.81a2,2,0,0,0-2-2H65.42a2,2,0,0,0-1.24.44l-4.5-3.36v-6.3a2,2,0,0,0-2-2H50.4a2,2,0,0,0-2,2v7.29a2,2,0,0,0,.21.87l-6.79,8.06H28.28a3,3,0,0,0-3,3V59.54a3,3,0,0,0,3,3H42a3,3,0,0,0,.76-.11l5.67,5.91a2,2,0,0,0,0,.39V76a2,2,0,0,0,2,2h7.29a2,2,0,0,0,2-2V69.66l4.48-3.38a2,2,0,0,0,1.26.46h7.29a2,2,0,0,0,2-2V57.44a2,2,0,0,0-2-2h-2.4V47.1Zm-8.42,1.32-1.71-3.51.84-.28v.46A2,2,0,0,0,65,47ZM58.88,67.13a2,2,0,0,0-.73-.34l3.09-6.36,2.19.54V63.7Zm-8-31.25H55.4l3.68,7.56L45,48.1V45.82a3,3,0,0,0-.77-2Zm12.5,2.92V42l-1.94.64-3.32-6.83a2,2,0,0,0,.77-.38ZM45,59.54V56.41l13.75,3.41-3.36,6.91h-5l-5.66-5.9A3,3,0,0,0,45,59.54Zm20-4a2,2,0,0,0-1.53,1.94v1l-1.07-.26,1.94-4Zm-5.08,2L45,53.83v-3.1l15.18-5,2.71,5.57Zm7.95-2.08h-.11l-2-4.16,2-4.18h.1Z" fill="#19486f"/>
    <path d="M72.71,44.62a2,2,0,0,0,2-2V35.33a2,2,0,0,0-2-2H65.42a2,2,0,0,0-1.24.44l-4.5-3.36v-6.3a2,2,0,0,0-2-2H50.4a2,2,0,0,0-2,2V31.4a2,2,0,0,0,.21.87l-6.79,8.06H28.28a3,3,0,0,0-3,3V57.06a3,3,0,0,0,3,3H42a3,3,0,0,0,.76-.11l5.67,5.91a2,2,0,0,0,0,.39v7.29a2,2,0,0,0,2,2h7.29a2,2,0,0,0,2-2V67.18l4.48-3.38a2,2,0,0,0,1.26.46h7.29a2,2,0,0,0,2-2V55a2,2,0,0,0-2-2h-2.4V44.62Zm-8.42,1.32-1.71-3.51.84-.28v.46A2,2,0,0,0,65,44.56ZM58.88,64.65a2,2,0,0,0-.73-.34L61.23,58l2.19.54v2.73Zm-8-31.25H55.4L59.08,41,45,45.62V43.34a3,3,0,0,0-.77-2Zm12.5,2.92v3.21l-1.94.64-3.32-6.83a2,2,0,0,0,.77-.38ZM45,57.06V53.93l13.75,3.41-3.36,6.91h-5l-5.66-5.9A3,3,0,0,0,45,57.06Zm20-4A2,2,0,0,0,63.42,55v1l-1.07-.26,1.94-4Zm-5.08,2L45,51.35v-3.1l15.18-5L62.9,48.8ZM67.82,53h-.11l-2-4.16,2-4.18h.1Z" fill="#2e73b8"/>
    <g>
      <path d="M55.5,53.73a4,4,0,0,1-4,4h-18a4,4,0,0,1-4-4v-6a4,4,0,0,1,4-4h18a4,4,0,0,1,4,4Z" fill="#fff"/>
      <path d="M51.5,58.23h-18a4.5,4.5,0,0,1-4.5-4.5v-6a4.5,4.5,0,0,1,4.5-4.5h18a4.5,4.5,0,0,1,4.5,4.5v6A4.5,4.5,0,0,1,51.5,58.23Zm-18-14a3.5,3.5,0,0,0-3.5,3.5v6a3.5,3.5,0,0,0,3.5,3.5h18a3.5,3.5,0,0,0,3.5-3.5v-6a3.5,3.5,0,0,0-3.5-3.5Z" fill="#19486f"/>
    </g>
    <g>
      <path d="M36.35,46.4h2.86c2.43,0,2.86,1.66,2.86,4.21,0,3.07-.65,4.45-3,4.45H36.35Zm1.75,7.37h.78c1.21,0,1.45-.76,1.45-3.12,0-2-.16-3-1.49-3H38.1Z" fill="#2e73b8"/>
      <path d="M44.64,52.35v.25c0,.81.23,1.33,1.15,1.33a1,1,0,0,0,1-1.07c0-.79-.4-1.08-1.55-1.48C43.73,50.86,43,50.22,43,48.77a2.37,2.37,0,0,1,2.68-2.55c1.55,0,2.68.67,2.68,2.33v.24H46.7c0-.81-.28-1.29-.95-1.29a.89.89,0,0,0-1,1c0,.53.16.86.9,1.18l1.35.58a2.21,2.21,0,0,1,1.65,2.29c0,1.83-1.12,2.66-3,2.66s-2.75-.92-2.75-2.52v-.35Z" fill="#2e73b8"/>
    </g>
  </g>
</svg>
