<svg id="Layer_1" data-name="Layer 1" xmlns="http://www.w3.org/2000/svg" width="100" height="100" viewBox="0 0 100 100">
  <title>Analytics</title>
  <g>
    <polygon points="16.03 74.05 20.38 76.28 22.14 75.87 22.47 44.87 20.38 44.77 16.03 45.2 16.03 74.05" fill="#9d5025"/>
    <polygon points="28.2 74.44 20.38 76.28 20.38 44.77 28.2 45.14 28.2 74.44" fill="#f58534"/>
    <polygon points="24.47 78.27 31.93 82.05 36.76 80.51 36.76 31.74 31.93 30.82 24.47 33.06 24.47 78.27" fill="#9d5025"/>
    <polygon points="44.7 77.97 31.93 82.05 31.93 30.82 44.7 33.27 44.7 77.97" fill="#f58534"/>
    <polygon points="72.92 32.35 72.92 67.75 81.48 69.09 81.48 30.82 72.92 32.35" fill="#9d5025"/>
    <polygon points="53.1 30.3 54.84 19.52 79.63 28.62 79.63 34.34 73.05 35.27 53.1 30.3" fill="#6b3b19"/>
    <polygon points="50.79 70.36 57.98 78.92 79.63 71.57 79.63 65.73 72.99 64.8 50.79 70.36" fill="#fcbf92"/>
    <polygon points="37.9 84.98 50 90.98 57.16 87.4 59.52 13.73 50 8.98 37.9 15.03 37.9 84.98" fill="#9d5025"/>
    <path d="M50,9V91L84,74V26ZM79.63,65.73,60.19,71.57v-43l19.45,5.79Z" fill="#f58534"/>
  </g>
</svg>
